<svg xmlns="http://www.w3.org/2000/svg" xmlns:xlink="http://www.w3.org/1999/xlink" width="1838" height="58" viewBox="0 0 1838 58"><defs><path id="a" d="M1787 42.5a15.5 15.5 0 0 1 15.5-15.5h20a15.5 15.5 0 0 1 0 31h-20a15.5 15.5 0 0 1-15.5-15.5z"/><path id="b" d="M1808.5 42.5a14 14 0 1 1 28 0 14 14 0 0 1-28 0z"/><path id="c" d="M1808 57V28h29v29zm14.5-.5a14 14 0 1 0 0-28 14 14 0 0 0 0 28z"/><path id="f" d="M1784 62V23h57v39zm18.5-3h20a15.5 15.5 0 0 0 0-31h-20a15.5 15.5 0 0 0 0 31z"/><filter id="d" width="200%" height="200%" x="-50%" y="-50%"><feGaussianBlur in="SourceGraphic" result="FeGaussianBlur1020Out" stdDeviation="1.5 1.5"/></filter><mask id="e"><use fill="#fff" xlink:href="#a"/></mask><mask id="h" width="2" height="2" x="-1" y="-1"><path fill="#fff" d="M1808.5 28.5h28v28h-28z"/><use xlink:href="#b"/></mask><filter id="g" width="54" height="57" x="1795.5" y="18.5" filterUnits="userSpaceOnUse"><feOffset dy="3" in="SourceGraphic" result="FeOffset1037Out"/><feGaussianBlur in="FeOffset1037Out" result="FeGaussianBlur1038Out" stdDeviation="1.2 1.2"/></filter><mask id="j" width="2" height="2" x="-1" y="-1"><path fill="#fff" d="M1808.5 28.5h28v28h-28z"/><use xlink:href="#b"/></mask><filter id="i" width="52" height="54" x="1796.5" y="18.5" filterUnits="userSpaceOnUse"><feOffset dy="2" in="SourceGraphic" result="FeOffset1048Out"/><feGaussianBlur in="FeOffset1048Out" result="FeGaussianBlur1049Out" stdDeviation="0.8 0.8"/></filter><mask id="l" width="2" height="2" x="-1" y="-1"><path fill="#fff" d="M1808.5 28.5h28v28h-28z"/><use xlink:href="#b"/></mask><filter id="k" width="50" height="53" x="1797.5" y="18.5" filterUnits="userSpaceOnUse"><feOffset dy="3" in="SourceGraphic" result="FeOffset1059Out"/><feGaussianBlur in="FeOffset1059Out" result="FeGaussianBlur1060Out" stdDeviation="0.4 0.4"/></filter><clipPath id="m"><use fill="#fff" xlink:href="#c"/></clipPath><clipPath id="n"><use xlink:href="#b"/></clipPath></defs><use fill="#1d9df2" xlink:href="#a"/><use fill-opacity=".5" stroke="#000" stroke-opacity=".5" stroke-width="0" filter="url(#d)" mask="url(&amp;quot;#e&amp;quot;)" xlink:href="#f"/><g><g filter="url(#g)"><use fill="none" stroke-opacity=".05" stroke-width="0" mask="url(&amp;quot;#h&amp;quot;)" xlink:href="#b"/><use fill-opacity=".05" xlink:href="#b"/></g><g filter="url(#i)"><use fill="none" stroke-opacity=".1" stroke-width="0" mask="url(&amp;quot;#j&amp;quot;)" xlink:href="#b"/><use fill-opacity=".1" xlink:href="#b"/></g><g filter="url(#k)"><use fill="none" stroke-opacity=".05" stroke-width="0" mask="url(&amp;quot;#l&amp;quot;)" xlink:href="#b"/><use fill-opacity=".05" xlink:href="#b"/></g><use fill="#fff" xlink:href="#b"/><use fill="#fff" fill-opacity="0" stroke="#000" stroke-miterlimit="50" stroke-opacity=".1" clip-path="url(&amp;quot;#m&amp;quot;)" xlink:href="#b"/></g></svg>