<svg xmlns="http://www.w3.org/2000/svg" xmlns:xlink="http://www.w3.org/1999/xlink" width="29" height="29" viewBox="0 0 29 29"><defs><path id="a" d="M1032.41 8551.36a3.95 3.95 0 0 1 0-7.9c2.23 0 4.1 1.82 4.1 3.95a4.09 4.09 0 0 1-4.1 3.95zm0-18.36a14.43 14.43 0 0 0-14.41 14.41 14.55 14.55 0 0 0 23.35 11.62 1.31 1.31 0 1 0-1.6-2.08 11.9 11.9 0 1 1-7.34-21.35c6.6 0 11.97 5.31 11.97 11.81v1.31a2.62 2.62 0 0 1-5.24 0v-6.55a1.31 1.31 0 0 0-2.62 0v.08a6.75 6.75 0 0 0-4.1-1.39 6.56 6.56 0 0 0 0 13.1c1.95 0 3.75-.84 5.04-2.25a5.24 5.24 0 0 0 9.54-2.99v-1.3c0-7.98-6.62-14.42-14.59-14.42z"/></defs><use fill="#1e9df2" xlink:href="#a" transform="translate(-1018 -8533)"/></svg>