<svg width="1920" height="8352" viewBox="0 0 1920 8352" xmlns="http://www.w3.org/2000/svg"><title>OnPlace KOREA</title><g fill="none" fill-rule="evenodd" opacity=".1" stroke-width="6"><g transform="translate(1209 399)"><circle stroke="#F5A623" cx="755" cy="755" r="755"/><circle stroke="#F5A623" cx="729" cy="756" r="486"/><circle stroke="#F5A623" cx="735" cy="756" r="284"/><path d="M721 619.774l102 58.89a20 20 0 0 1 10 17.32v117.78a20 20 0 0 1-10 17.32l-102 58.89a20 20 0 0 1-20 0l-102-58.89a20 20 0 0 1-10-17.32v-117.78a20 20 0 0 1 10-17.32l102-58.89a20 20 0 0 1 20 0z" stroke="#1E9DF2"/></g><g transform="translate(-695 1433)"><circle stroke="#F5A623" cx="755" cy="755" r="755"/><circle stroke="#F5A623" cx="729" cy="756" r="486"/><circle stroke="#F5A623" cx="735" cy="756" r="284"/><path d="M721 619.774l102 58.89a20 20 0 0 1 10 17.32v117.78a20 20 0 0 1-10 17.32l-102 58.89a20 20 0 0 1-20 0l-102-58.89a20 20 0 0 1-10-17.32v-117.78a20 20 0 0 1 10-17.32l102-58.89a20 20 0 0 1 20 0z" stroke="#1E9DF2"/></g><g transform="translate(1210 2188)"><circle stroke="#F5A623" cx="755" cy="755" r="755"/><circle stroke="#F5A623" cx="729" cy="756" r="486"/><circle stroke="#F5A623" cx="735" cy="756" r="284"/><path d="M721 619.774l102 58.89a20 20 0 0 1 10 17.32v117.78a20 20 0 0 1-10 17.32l-102 58.89a20 20 0 0 1-20 0l-102-58.89a20 20 0 0 1-10-17.32v-117.78a20 20 0 0 1 10-17.32l102-58.89a20 20 0 0 1 20 0z" stroke="#1E9DF2"/></g><g transform="translate(-700 3698)"><circle stroke="#F5A623" cx="755" cy="755" r="755"/><circle stroke="#F5A623" cx="729" cy="756" r="486"/><circle stroke="#F5A623" cx="735" cy="756" r="284"/><path d="M721 619.774l102 58.89a20 20 0 0 1 10 17.32v117.78a20 20 0 0 1-10 17.32l-102 58.89a20 20 0 0 1-20 0l-102-58.89a20 20 0 0 1-10-17.32v-117.78a20 20 0 0 1 10-17.32l102-58.89a20 20 0 0 1 20 0z" stroke="#1E9DF2"/></g><g transform="translate(1210 5208)"><circle stroke="#F5A623" cx="755" cy="755" r="755"/><circle stroke="#F5A623" cx="729" cy="756" r="486"/><circle stroke="#F5A623" cx="735" cy="756" r="284"/><path d="M721 619.774l102 58.89a20 20 0 0 1 10 17.32v117.78a20 20 0 0 1-10 17.32l-102 58.89a20 20 0 0 1-20 0l-102-58.89a20 20 0 0 1-10-17.32v-117.78a20 20 0 0 1 10-17.32l102-58.89a20 20 0 0 1 20 0z" stroke="#1E9DF2"/></g><g transform="translate(1210 6871)"><circle stroke="#F5A623" cx="755" cy="755" r="755"/><circle stroke="#F5A623" cx="729" cy="756" r="486"/><circle stroke="#F5A623" cx="735" cy="756" r="284"/><path d="M721 619.774l102 58.89a20 20 0 0 1 10 17.32v117.78a20 20 0 0 1-10 17.32l-102 58.89a20 20 0 0 1-20 0l-102-58.89a20 20 0 0 1-10-17.32v-117.78a20 20 0 0 1 10-17.32l102-58.89a20 20 0 0 1 20 0z" stroke="#1E9DF2"/></g><g transform="translate(-695 7585)"><circle stroke="#F5A623" cx="755" cy="755" r="755"/><circle stroke="#F5A623" cx="729" cy="756" r="486"/><circle stroke="#F5A623" cx="735" cy="756" r="284"/><path d="M721 619.774l102 58.89a20 20 0 0 1 10 17.32v117.78a20 20 0 0 1-10 17.32l-102 58.89a20 20 0 0 1-20 0l-102-58.89a20 20 0 0 1-10-17.32v-117.78a20 20 0 0 1 10-17.32l102-58.89a20 20 0 0 1 20 0z" stroke="#1E9DF2"/></g></g></svg>