<svg width="120" height="120" viewBox="0 0 120 120" xmlns="http://www.w3.org/2000/svg"><title>pagoda</title><g fill-rule="nonzero" fill="none"><g fill="#FFA64D"><path d="M60 96.647c-4.265 0-7.733 3.483-7.733 7.765V118h15.466v-13.588c0-4.282-3.468-7.765-7.733-7.765zM83.2 96.647c-4.265 0-7.733 3.483-7.733 7.765V118h15.466v-13.588c0-4.282-3.468-7.765-7.733-7.765zM36.8 96.647c-4.265 0-7.733 3.483-7.733 7.765V118h15.466v-13.588c0-4.282-3.468-7.765-7.733-7.765zM15.533 69.47c-5.838 0-11.087-3.57-13.257-9.01L2 59.765v-1.941h116v1.94l-.276.696c-2.17 5.44-7.419 9.01-13.257 9.01H15.533zM89 19H2v2.52c0 3.395 1.15 6.689 3.263 9.339a14.865 14.865 0 0 0 11.628 5.612H103.109c4.524 0 8.801-2.066 11.628-5.61A14.988 14.988 0 0 0 118 21.52V19H89z"/></g><path d="M116.309 32.388A16.887 16.887 0 0 0 120 21.87v-4.45H96.391l-2.776-6.476c1.868-.966 3.16-2.893 3.16-5.137A5.814 5.814 0 0 0 90.967 0a5.814 5.814 0 0 0-5.807 5.806c0 .682.14 1.328.356 1.936H34.483a5.741 5.741 0 0 0 .356-1.936A5.814 5.814 0 0 0 29.032 0a5.814 5.814 0 0 0-5.806 5.806c0 2.244 1.29 4.171 3.159 5.137l-2.776 6.476H0v4.45c0 3.811 1.31 7.546 3.689 10.521a16.752 16.752 0 0 0 11.795 6.244V56.13H0v4.243l.414 1.037c1.986 4.96 6.186 8.476 11.199 9.699v12.118H0V120h120V83.226h-11.613V71.108c5.013-1.222 9.213-4.738 11.199-9.699l.414-1.037v-4.243h-15.484V38.634c4.62-.37 8.865-2.586 11.793-6.246zm-.18-11.098v.579c0 2.936-1.008 5.812-2.843 8.102-2.33 2.915-5.747 4.64-9.445 4.83l-5.791-13.51h18.079zM89.032 5.806a1.936 1.936 0 1 1 3.873.002 1.936 1.936 0 0 1-3.873-.002zm-60-1.935a1.936 1.936 0 1 1-.001 3.872 1.936 1.936 0 0 1 .001-3.872zm1.276 7.742h59.384l2.49 5.806h-3.15v3.871h4.808l5.806 13.549H84.484L78.463 21.29h6.698v-3.87H27.82l2.489-5.807zm-9.954 23.226L26.16 21.29h15.377l-6.02 13.549H20.353zm25.42-13.549h12.29V34.84H39.754l6.021-13.549zm16.161 0h12.29l6.022 13.549H61.935V21.29zM6.712 29.97a13.002 13.002 0 0 1-2.841-8.1v-.579h18.08L16.158 34.8a12.889 12.889 0 0 1-9.447-4.831zM4.018 60h13.655l-4.936 7.403C8.84 66.523 5.563 63.828 4.018 60zm-.147 56.129V87.097h17.42v29.032H3.87zm90.968-27.097H85.16V81.29h9.678v7.742zm-13.549 0h-7.742V81.29h7.742v7.742zm-11.613 0h-7.742V81.29h7.742v7.742zm-11.612 0h-7.742V81.29h7.742v7.742zm-11.613 0H38.71V81.29h7.742v7.742zm-11.613 0H25.16V81.29h9.678v7.742zm60 27.097H25.16V92.903H94.84v23.226zm21.29 0h-17.42V87.097h17.42v29.032zm-17.42-32.903v-5.807H21.29v5.807h-5.806V71.613h3.87v-3.871h-2.19L22.326 60h9.381l-3.87 7.742h-4.611v3.87h81.29v11.614H98.71zM36.775 48.387h17.42v7.742h-17.42v-7.742zm29.032 0h17.42v7.742h-17.42v-7.742zM45.256 60l-3.871 7.742h-9.221L36.034 60h9.221zm4.327 0h8.482v7.742H45.712L49.583 60zm12.352 0h8.482l3.87 7.742H61.936V60zm16.68 7.742L74.745 60h9.22l3.871 7.742h-9.22zm13.549 0L88.293 60h9.381l5.162 7.742H92.164zm-1.196-11.613h-3.871v-7.742h3.87v7.742zm-29.033 0h-3.87v-7.742h3.87v7.742zm-29.032 0h-3.87v-7.742h3.87v7.742zm74.358 11.274L102.325 60h13.653c-1.54 3.83-4.817 6.523-8.717 7.403zM99.745 56.13H94.84V44.516H25.16V56.13H19.355v-17.42h81.29v17.42h-.9z" fill="#333"/></g></svg>