<svg width="32" height="36" viewBox="0 0 32 36" xmlns="http://www.w3.org/2000/svg"><title>Group 5</title><defs><linearGradient x1="50%" y1="0%" x2="50%" y2="100%" id="a"><stop stop-color="#56CCF2" offset="0%"/><stop stop-color="#2F80ED" offset="100%"/></linearGradient></defs><g fill="none" fill-rule="evenodd"><path d="M17.492.853l10 5.749A5 5 0 0 1 30 10.936v11.461a5 5 0 0 1-2.508 4.335l-10 5.749a5 5 0 0 1-4.984 0l-10-5.75A5 5 0 0 1 0 22.398v-11.46a5 5 0 0 1 2.508-4.335l10-5.75a5 5 0 0 1 4.984 0z" stroke="url(#a)" stroke-width="2" fill="url(#a)" transform="translate(1 1)"/><path d="M26 18.073v7.094h-4.108v-6.618c0-1.663-.594-2.798-2.081-2.798-1.135 0-1.81.765-2.108 1.505-.108.264-.136.632-.136 1.002v6.909h-4.11s.056-11.21 0-12.37h4.11v1.753l-.028.04h.027v-.04c.546-.842 1.521-2.044 3.703-2.044 2.704 0 4.731 1.768 4.731 5.567zM9.159 6.833c-1.406 0-2.326.923-2.326 2.137 0 1.188.893 2.139 2.271 2.139h.028c1.433 0 2.324-.951 2.324-2.139-.027-1.214-.891-2.137-2.297-2.137zM7.077 25.167h4.108v-12.37H7.077v12.37z" fill="#FFF" fill-rule="nonzero"/></g></svg>