<svg width="120" height="120" viewBox="0 0 120 120" xmlns="http://www.w3.org/2000/svg"><title>2</title><g fill="none" fill-rule="evenodd"><path fill="#1E9DF2" d="M0 0h120v120H0z"/><g fill="#FFF" fill-rule="nonzero"><path d="M21.2 77.12h77.2v14.72H21.2V77.12zm3.785 8.496h1.548c.977 0 1.746-.25 2.306-.747.56-.498.841-1.156.841-1.975 0-.82-.28-1.48-.84-1.981-.561-.502-1.33-.753-2.307-.753H23.28v8.56h1.705v-3.104zm-.025-1.376v-2.8h1.57c.486 0 .853.134 1.1.401.247.268.37.607.37 1.017 0 .402-.124.733-.373.992-.25.26-.615.39-1.097.39h-1.57zm17.319 3.206V80H40.72v8.8h5.04v-1.354h-3.481zm19.186-.544l.582 1.898h1.793L60.965 80h-1.758l-2.887 8.8h1.793l.576-1.898h2.776zM58.88 85.6l.945-3.12h.035l.94 3.12h-1.92zm21.656.245h-1.661c0 .556-.127.968-.379 1.237-.252.268-.635.402-1.148.402-.54 0-.961-.207-1.265-.623-.303-.415-.455-.951-.455-1.61v-1.709c0-.654.144-1.187.432-1.6.287-.414.688-.62 1.2-.62.552 0 .96.134 1.224.402s.396.677.396 1.225h1.668l.011-.035c.016-.925-.27-1.641-.857-2.15-.587-.51-1.4-.764-2.442-.764-.998 0-1.804.332-2.418.996-.615.664-.922 1.516-.922 2.558v1.698c0 1.045.315 1.898.945 2.558.63.66 1.458.99 2.483.99 1.006 0 1.795-.258 2.366-.775.571-.517.85-1.232.834-2.145l-.012-.035zm15.527-.913v-1.36h-3.052V81.36h3.618V80H91.36v8.8h5.28v-1.354h-3.63v-2.514h3.053zM31.557 24.198l19.24 33.324-5.474 3.16-19.24-33.324z"/><path d="M56.222 47.494c0 6.044-1.623 11.025-4.871 14.946-3.248 3.92-7.475 5.88-12.683 5.88-5.189 0-9.397-1.966-12.625-5.897-3.229-3.932-4.843-8.908-4.843-14.929v-8.828c0-5.999 1.61-10.97 4.828-14.912 3.219-3.943 7.413-5.914 12.582-5.914 5.208 0 9.445 1.971 12.712 5.914 3.267 3.943 4.9 8.913 4.9 14.912v8.828zm-8.388-8.896c0-3.819-.816-6.953-2.45-9.402-1.633-2.448-3.891-3.673-6.774-3.673-2.844 0-5.058 1.225-6.644 3.673-1.585 2.45-2.378 5.583-2.378 9.402v8.896c0 3.887.798 7.055 2.393 9.503 1.595 2.45 3.824 3.673 6.687 3.673 2.883 0 5.13-1.224 6.745-3.673 1.614-2.448 2.421-5.616 2.421-9.503v-8.896zM98.4 67.703h-8.578L72.577 34.18l-.176.034v33.488h-8.579V18h8.579l17.244 33.488.177-.034V18H98.4v49.703z"/></g></g></svg>