<?xml version="1.0" encoding="UTF-8"?>
<svg width="120px" height="120px" viewBox="0 0 120 120" version="1.1" xmlns="http://www.w3.org/2000/svg" xmlns:xlink="http://www.w3.org/1999/xlink">
    <!-- Generator: Sketch 49 (51002) - http://www.bohemiancoding.com/sketch -->
    <title>logo-crowdsale</title>
    <desc>Created with Sketch.</desc>
    <defs></defs>
    <g id="NEW-Crowd-Sale" stroke="none" stroke-width="1" fill="none" fill-rule="evenodd">
        <g id="Korea-page-CROWSALE" transform="translate(-360.000000, 0.000000)">
            <g id="logo-crowdsale" transform="translate(360.000000, 0.000000)">
                <g id="Logo-SVG">
                    <path d="M120,-2.27373675e-13 L120,81.1495458 C120,84.7222017 118.094011,88.0234719 115,89.8097998 L65,118.677313 C61.9059892,120.463641 58.0940108,120.463641 55,118.677313 L5,89.8097998 C1.90598923,88.0234719 -1.33883268e-15,84.7222017 -1.77635684e-15,81.1495458 L0,-2.27373675e-13 L120,-2.27373675e-13 Z" id="Polygon-3" fill="#1E9DF2"></path>
                    <g transform="translate(28.000000, 22.000000)" fill="#FFFFFF" fill-rule="nonzero">
                        <path d="M0,48.7653846 L62.9230769,48.7653846 L62.9230769,60.5634615 L0,60.5634615 L0,48.7653846 Z M3.08511314,55.5747858 L4.3463828,55.5747858 C5.14281114,55.5747858 5.76947345,55.3753085 6.22638851,54.9763474 C6.68330356,54.5773864 6.91175767,54.049635 6.91175767,53.3930771 C6.91175767,52.7365192 6.68330356,52.2071971 6.22638851,51.8050946 C5.76947345,51.4029922 5.14281114,51.201944 4.3463828,51.201944 L1.69533679,51.201944 L1.69533679,58.0627822 L3.08511314,58.0627822 L3.08511314,55.5747858 Z M3.06464727,54.4720631 L3.06464727,52.2278637 L4.3446024,52.2278637 C4.74066596,52.2278637 5.03931917,52.3350647 5.24057098,52.5494698 C5.4418228,52.7638748 5.54244719,53.0353983 5.54244719,53.3640483 C5.54244719,53.6864384 5.4410178,53.9517019 5.23815598,54.159847 C5.03529414,54.367992 4.73744593,54.4720631 4.3446024,54.4720631 L3.06464727,54.4720631 Z M17.1807575,57.0417947 L17.1807575,51.073704 L15.9100837,51.073704 L15.9100837,58.1269022 L20.0180151,58.1269022 L20.0180151,57.0417947 L17.1807575,57.0417947 Z M32.8183331,56.605814 L33.2927663,58.1269022 L34.7544041,58.1269022 L32.4109912,51.073704 L30.978107,51.073704 L28.6251096,58.1269022 L30.0867475,58.1269022 L30.5563885,56.605814 L32.8183331,56.605814 Z M30.711678,55.5621028 L31.4822495,53.0614235 L31.5107891,53.0614235 L32.2766042,55.5621028 L30.711678,55.5621028 Z M48.3626675,55.7585719 L47.0085866,55.7585719 C47.0085866,56.2043037 46.9057157,56.5346738 46.6999709,56.7496922 C46.4942261,56.9647107 46.1824238,57.0722184 45.7645544,57.0722184 C45.3243564,57.0722184 44.9806561,56.9058561 44.7334432,56.5731268 C44.4862304,56.2403976 44.362626,55.8103671 44.362626,55.2830226 L44.362626,53.9128751 C44.362626,53.3886696 44.479851,52.9609932 44.7143043,52.6298336 C44.9487577,52.2986737 45.274914,52.1330963 45.6927835,52.1330963 C46.1425511,52.1330963 46.475087,52.2406038 46.6904015,52.4556223 C46.9057157,52.6706407 47.0133713,52.9978719 47.0133713,53.4373258 L48.3722371,53.4373258 L48.3818066,53.4090753 C48.3945659,52.6682819 48.1617109,52.0938616 47.6832348,51.6857973 C47.2047584,51.277733 46.5412812,51.073704 45.6927835,51.073704 C44.8793737,51.073704 44.2222761,51.3397264 43.7214711,51.8717795 C43.2206658,52.4038325 42.970267,53.0873298 42.970267,53.9222921 L42.970267,55.2830226 C42.970267,56.1211238 43.2270454,56.804621 43.74061,57.333535 C44.2541745,57.8624492 44.9288159,58.1269022 45.7645544,58.1269022 C46.5843438,58.1269022 47.2270873,57.9197341 47.6928042,57.5053921 C48.1585211,57.0910499 48.3849964,56.518199 48.3722371,55.7868224 L48.3626675,55.7585719 Z M61.0185806,55.0265953 L61.0185806,53.9366437 L58.5304484,53.9366437 L58.5304484,52.1636557 L61.4793459,52.1636557 L61.4793459,51.073704 L57.1850139,51.073704 L57.1850139,58.1269022 L61.4885612,58.1269022 L61.4885612,57.0417947 L58.5304484,57.0417947 L58.5304484,55.0265953 L61.0185806,55.0265953 Z" id="Combined-Shape"></path>
                        <rect id="Rectangle" transform="translate(13.764423, 20.843269) rotate(60.000000) translate(-13.764423, -20.843269) " x="-1.57307692" y="18.0903846" width="30.675" height="5.50576923"></rect>
                        <path d="M28.5456284,24.4887543 C28.5456284,29.4792906 27.2221268,33.5931746 24.5750841,36.8305299 C21.9280415,40.0678852 18.4822387,41.6865385 14.2375726,41.6865385 C10.0085695,41.6865385 6.57842955,40.0632471 3.94704985,36.8166157 C1.31567013,33.5699843 0,29.4607384 0,24.4887543 L0,17.1977842 C0,12.2443524 1.31175444,8.13974424 3.93530267,4.88383679 C6.55885089,1.62792932 9.97724382,0 14.190584,0 C18.43525,0 21.8888842,1.62792932 24.5515898,4.88383679 C27.2142955,8.13974424 28.5456284,12.2443524 28.5456284,17.1977842 L28.5456284,24.4887543 Z M21.7087741,17.142128 C21.7087741,13.9882575 21.0431078,11.4002673 19.7117548,9.37807974 C18.380402,7.35589221 16.5400301,6.34481359 14.190584,6.34481359 C11.8724637,6.34481359 10.067333,7.35589221 8.77513761,9.37807974 C7.4829422,11.4002673 6.8368542,13.9882575 6.8368542,17.142128 L6.8368542,24.4887543 C6.8368542,27.6982812 7.48685789,30.3140994 8.78688477,32.3362869 C10.0869116,34.3584744 11.9037894,35.369553 14.2375726,35.369553 C16.5870189,35.369553 18.4195593,34.3584744 19.7352492,32.3362869 C21.050939,30.3140994 21.7087741,27.6982812 21.7087741,24.4887543 L21.7087741,17.142128 Z M62.9230769,41.1768843 L55.9311956,41.1768843 L41.8755985,13.4942137 L41.7319296,13.5224038 L41.7319296,41.1768843 L34.7400481,41.1768843 L34.7400481,0.132109976 L41.7319296,0.132109976 L55.7875268,27.7865905 L55.9311956,27.7584004 L55.9311956,0.132109976 L62.9230769,0.132109976 L62.9230769,41.1768843 Z" id="ON"></path>
                    </g>
                </g>
            </g>
        </g>
    </g>
</svg>