<svg width="335" height="1510" viewBox="0 0 335 1510" xmlns="http://www.w3.org/2000/svg"><title>Group</title><g fill="none" fill-rule="evenodd"><path d="M73.501 1091.01v-36M73.543 894.034V860.02M211.12 258.748h29.898c11.046 0 20 8.955 20 20v28.785" stroke="#00426E" stroke-width="2"/><path fill="#00426E" d="M252.299 302.175h17.434l-8.717 10.883z"/><path d="M124.42 258.794H93.516c-11.045 0-20-8.954-20-20v-33.17M260.997 474.346V1345" stroke="#00426E" stroke-width="2"/><path fill="#00426E" d="M252.284 1336.221h17.434L261 1347.104z"/><g stroke-width="2"><path stroke="#EE6E9F" d="M139.12 154.25v14.148L73.5 206.225 7.88 168.398v-13.976"/><path stroke="#7200DA" d="M141.367 139.519v13.846L73.5 192.487 5.633 153.365v-14.2"/><path stroke="#FFBD4A" d="M73.5 16.842l70.32 40.536v81.073L73.5 178.987 3.18 138.451V57.378z"/><path d="M83.488 3.758l52.5 30.264A20 20 0 0 1 146 51.349v60.475a20 20 0 0 1-10.012 17.327l-52.5 30.264a20 20 0 0 1-19.976 0l-52.5-30.264A20 20 0 0 1 1 111.824V51.349a20 20 0 0 1 10.012-17.327l52.5-30.264a20 20 0 0 1 19.976 0z" stroke="#1E9DF2" fill="#FFF"/></g><text transform="translate(186 46)" fill="#00426E" font-family="BMHANNA, BM HANNA_TTF" font-size="10" opacity=".8"><tspan x="0" y="8.455">각 기간 마다 시장은 가장 신뢰할 수</tspan> <tspan x="0" y="23.727">있고 잠재적으로 수익성 있는 투자</tspan> <tspan x="0" y="39">에 대한 기준을.</tspan></text><path d="M26.262 80.412c0 1.084-.37 1.918-1.11 2.501-.74.584-1.798.876-3.175.876h-1.26V88h-1.245V77.292h2.776c2.676 0 4.014 1.04 4.014 3.12zm-5.545 2.307h1.12c1.104 0 1.903-.178 2.396-.534.493-.357.74-.928.74-1.714 0-.708-.232-1.236-.696-1.582-.464-.347-1.187-.52-2.168-.52h-1.392v4.35zm9.031.828V88h-1.245V77.292h2.937c1.313 0 2.284.251 2.911.754.628.503.941 1.26.941 2.27 0 1.417-.717 2.374-2.153 2.872L36.047 88h-1.472l-2.593-4.453h-2.234zm0-1.07h1.707c.879 0 1.523-.174 1.933-.523.41-.35.615-.873.615-1.571 0-.708-.208-1.218-.626-1.53-.417-.313-1.087-.47-2.01-.47h-1.619v4.095zM37.775 88V77.292h1.246V88h-1.246zm10.298-10.708h1.34L45.554 88h-1.23l-3.838-10.708h1.319l2.46 6.929c.284.796.508 1.57.674 2.321.176-.79.406-1.58.689-2.365l2.446-6.885zM57.016 88l-1.333-3.406h-4.292L50.073 88h-1.26l4.233-10.752h1.048L58.305 88h-1.289zm-1.721-4.526l-1.245-3.318c-.161-.42-.327-.935-.498-1.546-.108.47-.261.984-.462 1.546l-1.26 3.318h3.465zM62.025 88h-1.244v-9.602H57.39v-1.106h8.027v1.106h-3.391V88zm10.973 0h-5.97V77.292h5.97v1.106h-4.725v3.45h4.439v1.098h-4.439v3.94h4.725V88zm13 0l-1.333-3.406h-4.292L79.055 88h-1.26l4.233-10.752h1.048L87.287 88h-1.289zm-1.721-4.526l-1.245-3.318c-.161-.42-.327-.935-.498-1.546-.108.47-.262.984-.462 1.546l-1.26 3.318h3.465zm10.525 1.677c0 .942-.342 1.677-1.026 2.204-.683.528-1.611.791-2.783.791-1.27 0-2.246-.163-2.93-.49v-1.201c.44.185.918.332 1.436.439.518.107 1.03.161 1.538.161.83 0 1.455-.157 1.875-.472.42-.315.63-.753.63-1.315 0-.371-.074-.675-.223-.912-.15-.237-.398-.455-.747-.655-.35-.2-.88-.428-1.593-.681-.997-.357-1.708-.78-2.135-1.268-.428-.488-.641-1.125-.641-1.911 0-.825.31-1.482.93-1.97.62-.489 1.44-.733 2.46-.733 1.065 0 2.044.195 2.938.586l-.388 1.084c-.884-.371-1.744-.557-2.579-.557-.659 0-1.174.142-1.545.425-.371.283-.557.677-.557 1.18 0 .37.069.675.205.911.137.237.368.454.693.652.324.198.821.416 1.49.656 1.123.4 1.896.83 2.318 1.289.423.459.634 1.054.634 1.787zm8.232 0c0 .942-.342 1.677-1.025 2.204-.684.528-1.612.791-2.783.791-1.27 0-2.247-.163-2.93-.49v-1.201c.44.185.918.332 1.435.439.518.107 1.03.161 1.539.161.83 0 1.455-.157 1.875-.472.42-.315.63-.753.63-1.315 0-.371-.075-.675-.224-.912-.149-.237-.398-.455-.747-.655-.35-.2-.88-.428-1.593-.681-.996-.357-1.708-.78-2.135-1.268-.427-.488-.64-1.125-.64-1.911 0-.825.31-1.482.93-1.97.62-.489 1.44-.733 2.46-.733 1.065 0 2.044.195 2.937.586l-.388 1.084c-.884-.371-1.743-.557-2.578-.557-.66 0-1.174.142-1.546.425-.37.283-.556.677-.556 1.18 0 .37.068.675.205.911.137.237.367.454.692.652.325.198.822.416 1.49.656 1.124.4 1.896.83 2.319 1.289.422.459.633 1.054.633 1.787zm8.16 2.849h-5.97V77.292h5.97v1.106h-4.725v3.45h4.439v1.098h-4.439v3.94h4.724V88zm5.668 0h-1.245v-9.602h-3.39v-1.106h8.026v1.106h-3.39V88zm11.045-2.85c0 .943-.342 1.678-1.025 2.205-.684.528-1.611.791-2.783.791-1.27 0-2.246-.163-2.93-.49v-1.201c.44.185.918.332 1.435.439.518.107 1.03.161 1.539.161.83 0 1.455-.157 1.875-.472.42-.315.63-.753.63-1.315 0-.371-.075-.675-.224-.912-.149-.237-.398-.455-.747-.655-.35-.2-.88-.428-1.593-.681-.996-.357-1.708-.78-2.135-1.268-.427-.488-.64-1.125-.64-1.911 0-.825.31-1.482.93-1.97.62-.489 1.44-.733 2.46-.733 1.065 0 2.044.195 2.937.586l-.388 1.084c-.884-.371-1.743-.557-2.578-.557-.66 0-1.174.142-1.545.425-.372.283-.557.677-.557 1.18 0 .37.068.675.205.911.137.237.367.454.692.652.325.198.822.416 1.49.656 1.124.4 1.896.83 2.319 1.289.422.459.633 1.054.633 1.787z" fill="#00426E"/><rect fill="#FFF" width="87.062" height="43.585" rx="20" transform="translate(123.561 237)" stroke="#00426E" stroke-width="2"/><path d="M151.515 261.15c0 .943-.342 1.678-1.026 2.205-.683.528-1.611.791-2.783.791-1.27 0-2.246-.163-2.93-.49v-1.201c.44.185.918.332 1.436.439.517.107 1.03.161 1.538.161.83 0 1.455-.157 1.875-.472.42-.315.63-.753.63-1.315 0-.371-.075-.675-.224-.912-.148-.237-.397-.455-.747-.655-.349-.2-.88-.428-1.593-.681-.996-.357-1.707-.78-2.135-1.268-.427-.488-.64-1.125-.64-1.911 0-.825.31-1.482.93-1.97.62-.489 1.44-.733 2.46-.733 1.065 0 2.044.195 2.938.586l-.389 1.084c-.883-.371-1.743-.557-2.578-.557-.659 0-1.174.142-1.545.425-.371.283-.557.677-.557 1.18 0 .37.069.675.205.911.137.237.368.454.693.652.324.198.821.416 1.49.656 1.123.4 1.896.83 2.318 1.289.422.459.634 1.054.634 1.787zM157 264h-1.245v-9.602h-3.39v-1.106h8.027v1.106H157V264zm10.687 0l-1.333-3.406h-4.292L160.743 264h-1.26l4.234-10.752h1.047L168.976 264h-1.29zm-1.722-4.526l-1.245-3.318c-.16-.42-.327-.935-.498-1.546-.107.47-.261.984-.461 1.546l-1.26 3.318h3.464zm5.728.073V264h-1.245v-10.708h2.937c1.313 0 2.284.251 2.911.754.628.503.941 1.26.941 2.27 0 1.417-.717 2.374-2.153 2.872l2.908 4.812h-1.472l-2.593-4.453h-2.234zm0-1.07h1.706c.88 0 1.524-.174 1.934-.523.41-.35.615-.873.615-1.571 0-.708-.208-1.218-.626-1.53-.417-.313-1.088-.47-2.01-.47h-1.62v4.095zM183.016 264h-1.245v-9.602h-3.391v-1.106h8.027v1.106h-3.39V264z" fill="#000"/><path d="M271.48 316.747l52.5 30.233A20 20 0 0 1 334 364.312v60.376a20 20 0 0 1-10.02 17.332l-52.5 30.233a20 20 0 0 1-19.96 0l-52.5-30.233A20 20 0 0 1 189 424.688v-60.376a20 20 0 0 1 10.02-17.332l52.5-30.233a20 20 0 0 1 19.96 0z" stroke="#1E9DF2" stroke-width="2" fill="#FFF"/><path d="M253.262 393.412c0 1.084-.37 1.918-1.11 2.501-.74.584-1.798.876-3.175.876h-1.26V401h-1.245v-10.708h2.776c2.676 0 4.014 1.04 4.014 3.12zm-5.545 2.307h1.12c1.104 0 1.903-.178 2.396-.534.493-.357.74-.928.74-1.714 0-.708-.232-1.236-.696-1.582-.464-.347-1.187-.52-2.168-.52h-1.392v4.35zm13.77 5.281l-1.333-3.406h-4.292L254.543 401h-1.26l4.234-10.752h1.047L262.776 401h-1.29zm-1.721-4.526l-1.245-3.318c-.162-.42-.328-.935-.499-1.546-.107.47-.26.984-.461 1.546l-1.26 3.318h3.465zm6.73 4.526h-1.245v-9.602h-3.39v-1.106h8.027v1.106h-3.391V401zm11.046-2.85c0 .943-.342 1.678-1.026 2.205-.683.528-1.611.791-2.783.791-1.27 0-2.246-.163-2.93-.49v-1.201c.44.185.918.332 1.436.439.517.107 1.03.161 1.538.161.83 0 1.455-.157 1.875-.472.42-.315.63-.753.63-1.315 0-.371-.075-.675-.224-.912-.149-.237-.398-.455-.747-.655s-.88-.428-1.593-.681c-.996-.357-1.707-.78-2.135-1.268-.427-.488-.64-1.125-.64-1.911 0-.825.31-1.482.93-1.97.62-.489 1.44-.733 2.46-.733 1.065 0 2.044.195 2.938.586l-.389 1.084c-.883-.371-1.743-.557-2.578-.557-.659 0-1.174.142-1.545.425-.371.283-.557.677-.557 1.18 0 .37.069.675.205.911.137.237.368.454.692.652.325.198.822.416 1.49.656 1.124.4 1.897.83 2.319 1.289.422.459.634 1.054.634 1.787z" fill="#00426E"/><text transform="translate(0 374)" fill="#00426E" font-family="BMHANNA, BM HANNA_TTF" font-size="10" opacity=".8"><tspan x="0" y="8.8">PATS 프로토콜은 투자자 커뮤니티</tspan> <tspan x="0" y="24.2">및 분산 된 토큰 시장을 위해 계약을</tspan> <tspan x="0" y="39.6">시작합니다.</tspan></text><g stroke-width="2"><path stroke="#EE6E9F" d="M139.12 808.074v14.324L73.5 860.225 7.88 822.398v-14.38"/><path stroke="#7200DA" d="M141.367 794.222v13.143L73.5 846.487 5.633 807.365v-13.143"/><path stroke="#FFBD4A" d="M73.5 670.842l70.32 40.536v81.073L73.5 832.987 3.18 792.451v-81.073z"/><path d="M83.488 657.758l52.5 30.264A20 20 0 0 1 146 705.349v60.475a20 20 0 0 1-10.012 17.327l-52.5 30.264a20 20 0 0 1-19.976 0l-52.5-30.264A20 20 0 0 1 1 765.824v-60.475a20 20 0 0 1 10.012-17.327l52.5-30.264a20 20 0 0 1 19.976 0z" stroke="#1E9DF2" fill="#FFF"/></g><path d="M28.441 742h-5.969v-10.708h5.97v1.106h-4.725v3.45h4.439v1.098h-4.439v3.94h4.724V742zm3.619-4.453V742h-1.246v-10.708h2.937c1.314 0 2.284.251 2.912.754.627.503.941 1.26.941 2.27 0 1.417-.718 2.374-2.153 2.872L38.358 742h-1.472l-2.593-4.453H32.06zm0-1.07h1.706c.879 0 1.524-.174 1.934-.523.41-.35.615-.873.615-1.571 0-.708-.209-1.218-.626-1.53-.418-.313-1.088-.47-2.01-.47h-1.62v4.095zm12.612-4.226c-1.177 0-2.106.392-2.787 1.176-.681.784-1.022 1.857-1.022 3.219 0 1.401.329 2.484.985 3.248.657.764 1.593 1.147 2.81 1.147.746 0 1.598-.135 2.555-.403v1.091c-.742.278-1.657.417-2.746.417-1.577 0-2.794-.478-3.651-1.435-.857-.957-1.286-2.317-1.286-4.08 0-1.103.207-2.07.62-2.9a4.443 4.443 0 0 1 1.786-1.919c.78-.45 1.696-.674 2.75-.674 1.124 0 2.105.205 2.945.615l-.527 1.07c-.811-.381-1.622-.572-2.432-.572zM55.849 742H48.81v-1.047l2.82-2.835c.86-.869 1.426-1.49 1.7-1.86.273-.371.478-.733.614-1.084.137-.352.205-.73.205-1.135 0-.572-.173-1.025-.52-1.36-.346-.334-.827-.5-1.442-.5-.445 0-.866.072-1.264.219-.398.146-.841.413-1.33.798l-.644-.827c.987-.82 2.06-1.23 3.223-1.23 1.006 0 1.794.257 2.366.772.57.515.857 1.207.857 2.076 0 .679-.19 1.35-.572 2.014-.38.665-1.094 1.504-2.138 2.52l-2.344 2.292v.06h5.508V742zm8.635-5.369c0 1.85-.292 3.233-.875 4.146-.584.913-1.476 1.37-2.677 1.37-1.153 0-2.03-.468-2.63-1.403-.6-.935-.9-2.306-.9-4.113 0-1.865.29-3.25.87-4.152.582-.904 1.468-1.355 2.66-1.355 1.162 0 2.044.47 2.647 1.413.603.942.905 2.307.905 4.094zm-5.852 0c0 1.558.183 2.692.55 3.402.365.71.949 1.066 1.75 1.066.81 0 1.397-.36 1.761-1.08.364-.72.546-1.85.546-3.388 0-1.538-.182-2.664-.546-3.38-.364-.715-.95-1.073-1.761-1.073-.801 0-1.385.353-1.75 1.059-.367.705-.55 1.837-.55 3.394zM73.896 742H72.65v-9.602h-3.39v-1.106h8.027v1.106h-3.391V742zm13.996-5.369c0 1.714-.433 3.062-1.3 4.043-.867.982-2.071 1.472-3.614 1.472-1.578 0-2.795-.482-3.652-1.446-.857-.964-1.285-2.325-1.285-4.083 0-1.743.43-3.095 1.29-4.054.858-.96 2.08-1.44 3.661-1.44 1.538 0 2.74.489 3.604 1.465.864.977 1.296 2.325 1.296 4.043zm-8.533 0c0 1.45.31 2.55.927 3.3.618.75 1.515 1.124 2.692 1.124 1.186 0 2.082-.373 2.688-1.12.605-.748.908-1.849.908-3.304 0-1.44-.302-2.533-.905-3.277-.603-.745-1.495-1.117-2.677-1.117-1.186 0-2.088.375-2.706 1.124-.618.75-.927 1.84-.927 3.27zM98.014 742H96.55l-3.903-5.193-1.121.996V742H90.28v-10.708h1.245v5.31l4.856-5.31h1.472l-4.307 4.65L98.014 742zm7.442 0h-5.97v-10.708h5.97v1.106h-4.725v3.45h4.439v1.098h-4.439v3.94h4.725V742zm10.737 0h-1.421l-5.852-8.987h-.059c.078 1.055.118 2.022.118 2.9V742h-1.15v-10.708h1.406l5.837 8.95h.059c-.01-.132-.032-.555-.066-1.27a22.05 22.05 0 0 1-.037-1.535v-6.145h1.165V742zm8.987-2.85c0 .943-.342 1.678-1.026 2.205-.683.528-1.611.791-2.783.791-1.27 0-2.246-.163-2.93-.49v-1.201c.44.185.918.332 1.436.439.518.107 1.03.161 1.538.161.83 0 1.455-.157 1.875-.472.42-.315.63-.753.63-1.315 0-.371-.075-.675-.223-.912-.15-.237-.398-.455-.748-.655-.349-.2-.88-.428-1.593-.681-.996-.357-1.707-.78-2.135-1.268-.427-.488-.64-1.125-.64-1.911 0-.825.31-1.482.93-1.97.62-.489 1.44-.733 2.46-.733 1.065 0 2.044.195 2.938.586l-.388 1.084c-.884-.371-1.744-.557-2.579-.557-.659 0-1.174.142-1.545.425-.371.283-.557.677-.557 1.18 0 .37.069.675.205.911.137.237.368.454.693.652.324.198.821.416 1.49.656 1.123.4 1.896.83 2.318 1.289.423.459.634 1.054.634 1.787z" fill="#00426E"/><g><path d="M83.48 896.747l52.5 30.233A20 20 0 0 1 146 944.312v60.376a20 20 0 0 1-10.02 17.332l-52.5 30.233a20 20 0 0 1-19.96 0l-52.5-30.233A20 20 0 0 1 1 1004.688v-60.376a20 20 0 0 1 10.02-17.332l52.5-30.233a20 20 0 0 1 19.96 0z" fill="#FFF" stroke="#1E9DF2" stroke-width="2"/><g fill="#00426E"><path d="M24.02 953.377c0 1.767-.48 3.119-1.44 4.054s-2.34 1.402-4.142 1.402h-2.966v-10.708h3.281c1.665 0 2.96.462 3.882 1.385.923.922 1.385 2.212 1.385 3.867zm-1.319.044c0-1.397-.35-2.449-1.05-3.157-.702-.708-1.743-1.062-3.125-1.062h-1.809v8.555h1.516c1.485 0 2.6-.365 3.348-1.095.747-.73 1.12-1.81 1.12-3.241zm9.675 5.412h-5.969v-10.708h5.97v1.106h-4.725v3.45h4.439v1.099h-4.439v3.94h4.724v1.113zm6.958-9.748c-1.176 0-2.105.392-2.786 1.175-.682.784-1.022 1.857-1.022 3.22 0 1.4.328 2.483.985 3.248.657.764 1.593 1.146 2.809 1.146.747 0 1.599-.134 2.556-.403v1.091c-.742.279-1.658.418-2.747.418-1.577 0-2.794-.479-3.65-1.436-.858-.957-1.286-2.317-1.286-4.08 0-1.103.206-2.07.619-2.9a4.443 4.443 0 0 1 1.787-1.919c.779-.449 1.695-.673 2.75-.673 1.123 0 2.105.205 2.944.615l-.527 1.07c-.81-.382-1.621-.572-2.432-.572zm10.848 9.748h-5.97v-10.708h5.97v1.106h-4.724v3.45h4.438v1.099h-4.438v3.94h4.724v1.113zm10.737 0h-1.421l-5.852-8.986h-.059c.079 1.054.118 2.021.118 2.9v6.086h-1.15v-10.708h1.406l5.837 8.95h.059c-.01-.131-.032-.555-.066-1.27a22.05 22.05 0 0 1-.037-1.535v-6.145h1.165v10.708zm6.24 0h-1.245v-9.602h-3.391v-1.106h8.027v1.106h-3.39v9.602zm6.248-4.453v4.453h-1.245v-10.708h2.937c1.313 0 2.284.252 2.911.755.627.503.941 1.26.941 2.27 0 1.416-.718 2.373-2.153 2.871l2.908 4.812h-1.473l-2.592-4.453h-2.234zm0-1.07h1.706c.88 0 1.524-.174 1.934-.523.41-.349.615-.873.615-1.57 0-.709-.209-1.22-.626-1.532-.418-.312-1.088-.468-2.01-.468h-1.62v4.094zm14.758 5.523l-1.333-3.405H82.54l-1.318 3.405h-1.26l4.233-10.752h1.048l4.211 10.752h-1.289zm-1.721-4.526l-1.245-3.318c-.161-.42-.327-.935-.498-1.545-.108.468-.262.984-.462 1.545l-1.26 3.318h3.465zm4.482 4.526v-10.708h1.245v9.58h4.725v1.128h-5.97zm7.786 0v-10.708h1.245v10.708h-1.245zm10.671 0h-7.36v-.974l5.683-8.613h-5.508v-1.12h7.024v.973l-5.683 8.606h5.844v1.128zm8.042 0h-5.969v-10.708h5.97v1.106H112.7v3.45h4.439v1.099H112.7v3.94h4.724v1.113zm10.92-5.456c0 1.767-.479 3.119-1.439 4.054-.959.935-2.34 1.402-4.141 1.402h-2.967v-10.708h3.282c1.665 0 2.959.462 3.881 1.385.923.922 1.385 2.212 1.385 3.867zm-1.318.044c0-1.397-.35-2.449-1.05-3.157-.701-.708-1.743-1.062-3.124-1.062h-1.81v8.555h1.517c1.484 0 2.6-.365 3.347-1.095.747-.73 1.12-1.81 1.12-3.241zM22.6 977.65c0 .943-.34 1.678-1.025 2.205-.683.528-1.61.791-2.783.791-1.27 0-2.246-.163-2.93-.49v-1.201c.44.185.919.332 1.436.439.518.107 1.03.161 1.538.161.83 0 1.455-.157 1.875-.472.42-.315.63-.753.63-1.315 0-.371-.074-.675-.223-.912-.15-.237-.398-.455-.747-.655-.35-.2-.88-.428-1.593-.681-.996-.357-1.708-.78-2.135-1.268-.428-.488-.641-1.125-.641-1.911 0-.825.31-1.482.93-1.97.62-.489 1.44-.733 2.46-.733 1.065 0 2.044.195 2.938.586l-.388 1.084c-.884-.371-1.743-.557-2.578-.557-.66 0-1.175.142-1.546.425-.371.283-.557.677-.557 1.18 0 .37.069.675.206.911.136.237.367.454.692.652.324.198.821.416 1.49.656 1.123.4 1.896.83 2.318 1.289.423.459.634 1.054.634 1.787zm10.32 2.85h-1.244v-5.04h-5.64v5.04H24.79v-10.708h1.245v4.556h5.64v-4.556h1.245V980.5zm9.669 0l-1.333-3.406h-4.292l-1.319 3.406h-1.26l4.234-10.752h1.047l4.212 10.752h-1.29zm-1.722-4.526l-1.245-3.318c-.16-.42-.327-.935-.498-1.546-.107.47-.26.984-.461 1.546l-1.26 3.318h3.464zm5.728.073v4.453H45.35v-10.708h2.937c1.313 0 2.284.251 2.911.754.628.503.941 1.26.941 2.27 0 1.417-.717 2.374-2.153 2.872l2.908 4.812h-1.472l-2.593-4.453h-2.234zm0-1.07h1.707c.878 0 1.523-.174 1.933-.523.41-.35.615-.873.615-1.571 0-.708-.208-1.218-.626-1.53-.417-.313-1.087-.47-2.01-.47h-1.619v4.095zm13.997 5.523h-5.97v-10.708h5.97v1.106h-4.725v3.45h4.439v1.098h-4.439v3.94h4.725v1.114zm10.503 0h-1.246v-5.04h-5.64v5.04h-1.244v-10.708h1.245v4.556h5.64v-4.556h1.245V980.5zm12.231-5.369c0 1.714-.433 3.062-1.3 4.043-.867.982-2.072 1.472-3.615 1.472-1.577 0-2.794-.482-3.65-1.446-.858-.964-1.286-2.325-1.286-4.083 0-1.743.43-3.095 1.289-4.054.86-.96 2.08-1.44 3.662-1.44 1.538 0 2.74.489 3.604 1.465.864.977 1.296 2.325 1.296 4.043zm-8.533 0c0 1.45.31 2.55.927 3.3s1.515 1.124 2.691 1.124c1.187 0 2.083-.373 2.688-1.12.606-.748.909-1.849.909-3.304 0-1.44-.302-2.533-.905-3.277-.603-.745-1.495-1.117-2.677-1.117-1.186 0-2.089.375-2.706 1.124-.618.75-.927 1.84-.927 3.27zm10.92 5.369v-10.708h1.246v9.58h4.724v1.128h-5.97zm16.334-5.457c0 1.768-.48 3.12-1.44 4.054-.959.935-2.34 1.403-4.141 1.403h-2.967v-10.708h3.282c1.665 0 2.959.461 3.881 1.384.923.923 1.385 2.212 1.385 3.867zm-1.319.044c0-1.396-.35-2.448-1.05-3.156-.701-.708-1.743-1.062-3.125-1.062h-1.809v8.554h1.517c1.484 0 2.6-.365 3.347-1.095.747-.73 1.12-1.81 1.12-3.24zm9.676 5.413h-5.97v-10.708h5.97v1.106h-4.725v3.45h4.439v1.098h-4.439v3.94h4.725v1.114zm3.618-4.453v4.453h-1.245v-10.708h2.937c1.313 0 2.284.251 2.911.754.627.503.941 1.26.941 2.27 0 1.417-.718 2.374-2.153 2.872l2.908 4.812h-1.473l-2.592-4.453h-2.234zm0-1.07h1.706c.88 0 1.524-.174 1.934-.523.41-.35.615-.873.615-1.571 0-.708-.209-1.218-.626-1.53-.418-.313-1.088-.47-2.01-.47h-1.62v4.095zm14.07 2.674c0 .942-.342 1.677-1.026 2.204-.683.528-1.611.791-2.783.791-1.27 0-2.246-.163-2.93-.49v-1.201c.44.185.918.332 1.436.439.517.107 1.03.161 1.538.161.83 0 1.455-.157 1.875-.472.42-.315.63-.753.63-1.315 0-.371-.075-.675-.224-.912-.149-.237-.398-.455-.747-.655s-.88-.428-1.593-.681c-.996-.357-1.707-.78-2.135-1.268-.427-.488-.64-1.125-.64-1.911 0-.825.31-1.482.93-1.97.62-.489 1.44-.733 2.46-.733 1.065 0 2.044.195 2.938.586l-.389 1.084c-.883-.371-1.743-.557-2.578-.557-.659 0-1.174.142-1.545.425-.371.283-.557.677-.557 1.18 0 .37.069.675.205.911.137.237.368.454.692.652.325.198.822.416 1.49.656 1.124.4 1.897.83 2.319 1.289.422.459.634 1.054.634 1.787zM33.065 1002.167l-1.333-3.406H27.44l-1.318 3.406h-1.26l4.233-10.752h1.048l4.211 10.752h-1.289zm-1.721-4.527l-1.245-3.318c-.161-.42-.327-.935-.498-1.545-.108.469-.261.984-.462 1.545l-1.26 3.318h3.465zm10.525 1.678c0 .942-.342 1.677-1.025 2.204-.684.527-1.612.791-2.784.791-1.27 0-2.246-.163-2.93-.49v-1.202c.44.186.919.332 1.436.44.518.107 1.03.16 1.538.16.83 0 1.455-.157 1.875-.472.42-.315.63-.753.63-1.314 0-.371-.074-.675-.223-.912-.15-.237-.398-.455-.747-.656-.35-.2-.88-.427-1.593-.68-.996-.357-1.708-.78-2.135-1.268-.428-.488-.641-1.125-.641-1.912 0-.825.31-1.481.93-1.97.62-.488 1.44-.732 2.46-.732 1.065 0 2.044.195 2.938.586l-.388 1.084c-.884-.371-1.743-.557-2.578-.557-.66 0-1.175.142-1.546.425-.37.283-.556.676-.556 1.18 0 .37.068.674.205.911.136.237.367.454.692.652.324.198.821.416 1.49.655 1.123.4 1.896.83 2.318 1.29.423.458.634 1.054.634 1.787zm8.232 0c0 .942-.341 1.677-1.025 2.204-.684.527-1.611.791-2.783.791-1.27 0-2.246-.163-2.93-.49v-1.202c.44.186.918.332 1.436.44.517.107 1.03.16 1.538.16.83 0 1.455-.157 1.875-.472.42-.315.63-.753.63-1.314 0-.371-.075-.675-.224-.912-.149-.237-.398-.455-.747-.656-.349-.2-.88-.427-1.593-.68-.996-.357-1.708-.78-2.135-1.268-.427-.488-.64-1.125-.64-1.912 0-.825.31-1.481.93-1.97.62-.488 1.44-.732 2.46-.732 1.065 0 2.044.195 2.937.586l-.388 1.084c-.884-.371-1.743-.557-2.578-.557-.66 0-1.174.142-1.545.425-.371.283-.557.676-.557 1.18 0 .37.068.674.205.911.137.237.367.454.692.652.325.198.822.416 1.49.655 1.124.4 1.896.83 2.319 1.29.422.458.633 1.054.633 1.787zm11.485-2.52c0 1.714-.434 3.062-1.3 4.043-.867.981-2.072 1.472-3.615 1.472-1.577 0-2.794-.482-3.651-1.446-.857-.965-1.285-2.326-1.285-4.084 0-1.743.43-3.094 1.289-4.054.86-.96 2.08-1.439 3.662-1.439 1.538 0 2.74.488 3.603 1.465.865.977 1.297 2.324 1.297 4.043zm-8.533 0c0 1.45.309 2.55.927 3.3.617.75 1.514 1.124 2.691 1.124 1.187 0 2.083-.374 2.688-1.12.606-.748.908-1.849.908-3.304 0-1.44-.301-2.533-.904-3.278-.603-.744-1.496-1.117-2.677-1.117-1.187 0-2.089.375-2.706 1.125-.618.75-.927 1.84-.927 3.27zm15.505-4.38c-1.176 0-2.105.392-2.787 1.176-.68.783-1.021 1.856-1.021 3.219 0 1.401.328 2.484.985 3.248.657.764 1.593 1.146 2.809 1.146.747 0 1.599-.134 2.556-.403v1.092c-.742.278-1.658.417-2.747.417-1.577 0-2.794-.478-3.65-1.435-.858-.957-1.286-2.317-1.286-4.08 0-1.104.206-2.07.619-2.9a4.443 4.443 0 0 1 1.787-1.92c.779-.449 1.695-.673 2.75-.673 1.123 0 2.104.205 2.944.615l-.527 1.07c-.81-.381-1.621-.572-2.432-.572zm4.878 9.749v-10.708h1.245v10.708h-1.245zm10.913 0l-1.333-3.406h-4.292l-1.318 3.406h-1.26l4.234-10.752h1.047l4.211 10.752H84.35zm-1.72-4.527l-1.246-3.318c-.161-.42-.327-.935-.498-1.545-.107.469-.261.984-.461 1.545l-1.26 3.318h3.464zm6.73 4.527h-1.245v-9.602h-3.391v-1.106h8.027v1.106h-3.39v9.602zm5.003 0v-10.708h1.245v10.708h-1.245zm13.476-5.369c0 1.714-.433 3.062-1.3 4.043-.867.981-2.071 1.472-3.614 1.472-1.578 0-2.795-.482-3.652-1.446-.856-.965-1.285-2.326-1.285-4.084 0-1.743.43-3.094 1.29-4.054.859-.96 2.08-1.439 3.661-1.439 1.538 0 2.74.488 3.604 1.465.864.977 1.296 2.324 1.296 4.043zm-8.533 0c0 1.45.31 2.55.927 3.3.618.75 1.515 1.124 2.692 1.124 1.186 0 2.082-.374 2.688-1.12.605-.748.908-1.849.908-3.304 0-1.44-.302-2.533-.905-3.278-.603-.744-1.495-1.117-2.677-1.117-1.186 0-2.088.375-2.706 1.125-.618.75-.927 1.84-.927 3.27zm19.285 5.369h-1.42l-5.853-8.987h-.058c.078 1.055.117 2.021.117 2.9v6.087h-1.15v-10.708h1.406l5.837 8.95h.06a81.37 81.37 0 0 1-.067-1.27 22.049 22.049 0 0 1-.036-1.535v-6.145h1.164v10.708z"/></g></g><path d="M260.257 1304.794H93.517c-11.046 0-20-8.954-20-20v-33.17" stroke="#00426E" stroke-width="2"/><g><path d="M83.48 1093.747l52.5 30.233a20 20 0 0 1 10.02 17.332v60.376a20 20 0 0 1-10.02 17.332l-52.5 30.233a20 20 0 0 1-19.96 0l-52.5-30.233A20 20 0 0 1 1 1201.688v-60.376a20 20 0 0 1 10.02-17.332l52.5-30.233a20 20 0 0 1 19.96 0z" fill="#FFF" stroke="#1E9DF2" stroke-width="2"/><g fill="#32688B"><path d="M25.02 1161.543c0 1.768-.48 3.12-1.44 4.054-.96.935-2.34 1.403-4.142 1.403h-2.966v-10.708h3.281c1.665 0 2.96.461 3.882 1.384.923.923 1.385 2.212 1.385 3.867zm-1.319.044c0-1.396-.35-2.448-1.05-3.156-.702-.708-1.743-1.062-3.125-1.062h-1.809v8.554h1.516c1.485 0 2.6-.365 3.348-1.095.747-.73 1.12-1.81 1.12-3.24zm9.675 5.413h-5.969v-10.708h5.97v1.106h-4.725v3.45h4.439v1.098h-4.439v3.94h4.724V1167zm6.958-9.749c-1.176 0-2.105.392-2.786 1.176-.682.784-1.022 1.857-1.022 3.219 0 1.401.328 2.484.985 3.248.657.764 1.593 1.147 2.809 1.147.747 0 1.599-.135 2.556-.403v1.091c-.742.278-1.658.417-2.747.417-1.577 0-2.794-.478-3.65-1.435-.858-.957-1.286-2.317-1.286-4.08 0-1.103.206-2.07.619-2.9a4.443 4.443 0 0 1 1.787-1.919c.779-.45 1.695-.674 2.75-.674 1.123 0 2.105.205 2.944.615l-.527 1.07c-.81-.381-1.621-.572-2.432-.572zM51.182 1167h-5.97v-10.708h5.97v1.106h-4.724v3.45h4.438v1.098h-4.438v3.94h4.724V1167zm10.737 0h-1.421l-5.852-8.987h-.059c.079 1.055.118 2.022.118 2.9V1167h-1.15v-10.708h1.406l5.837 8.95h.059c-.01-.132-.032-.555-.066-1.27a22.05 22.05 0 0 1-.037-1.535v-6.145h1.165V1167zm6.24 0h-1.245v-9.602h-3.391v-1.106h8.027v1.106h-3.39V1167zm6.248-4.453V1167h-1.245v-10.708h2.937c1.313 0 2.284.251 2.911.754.627.503.941 1.26.941 2.27 0 1.417-.718 2.374-2.153 2.872l2.908 4.812h-1.473l-2.592-4.453h-2.234zm0-1.07h1.706c.88 0 1.524-.174 1.934-.523.41-.35.615-.873.615-1.571 0-.708-.209-1.218-.626-1.53-.418-.313-1.088-.47-2.01-.47h-1.62v4.095zM89.165 1167l-1.333-3.406H83.54L82.222 1167h-1.26l4.233-10.752h1.048L90.454 1167h-1.289zm-1.721-4.526l-1.245-3.318c-.161-.42-.327-.935-.498-1.546-.108.47-.262.984-.462 1.546l-1.26 3.318h3.465zm4.482 4.526v-10.708h1.245v9.58h4.725V1167h-5.97zm7.786 0v-10.708h1.245V1167h-1.245zm10.671 0h-7.36v-.974l5.683-8.613h-5.508v-1.121h7.024v.974l-5.683 8.606h5.844V1167zm8.042 0h-5.969v-10.708h5.97v1.106H113.7v3.45h4.439v1.098H113.7v3.94h4.724V1167zm10.92-5.457c0 1.768-.479 3.12-1.439 4.054-.959.935-2.34 1.403-4.141 1.403h-2.967v-10.708h3.282c1.665 0 2.959.461 3.881 1.384.923.923 1.385 2.212 1.385 3.867zm-1.318.044c0-1.396-.35-2.448-1.05-3.156-.701-.708-1.743-1.062-3.124-1.062h-1.81v8.554h1.517c1.484 0 2.6-.365 3.347-1.095.747-.73 1.12-1.81 1.12-3.24zM53.21 1189l-3.632-9.492h-.058c.068.752.102 1.645.102 2.68V1189h-1.15v-10.708h1.875l3.391 8.833h.059l3.42-8.833h1.86V1189h-1.244v-6.9c0-.79.034-1.65.102-2.578h-.059L54.214 1189h-1.003zm15.536 0l-1.333-3.406H63.12L61.802 1189h-1.26l4.234-10.752h1.047L70.035 1189h-1.29zm-1.722-4.526l-1.245-3.318c-.16-.42-.327-.935-.498-1.546-.107.47-.261.984-.461 1.546l-1.26 3.318h3.464zm5.728.073V1189h-1.245v-10.708h2.937c1.313 0 2.284.251 2.911.754.628.503.941 1.26.941 2.27 0 1.417-.717 2.374-2.153 2.872l2.908 4.812h-1.472l-2.593-4.453h-2.234zm0-1.07h1.706c.88 0 1.524-.174 1.934-.523.41-.35.615-.873.615-1.571 0-.708-.208-1.218-.626-1.53-.417-.313-1.088-.47-2.01-.47h-1.619v4.095zM88.514 1189h-1.465l-3.904-5.193-1.12.996V1189h-1.246v-10.708h1.245v5.31l4.856-5.31h1.473l-4.307 4.65 4.468 6.058zm7.441 0h-5.97v-10.708h5.97v1.106h-4.724v3.45h4.438v1.098h-4.438v3.94h4.724V1189zm5.669 0h-1.245v-9.602h-3.391v-1.106h8.027v1.106h-3.391V1189z"/></g></g><g fill="#00426E" font-family="BMHANNA, BM HANNA_TTF" font-size="10" opacity=".8"><text transform="translate(0 550)"><tspan x="0" y="8.455">PATS 프로토콜을 통해 실현 된 모든</tspan> <tspan x="0" y="23.727">토큰 소유자는 스마트 계약 또는 표</tspan> <tspan x="0" y="39">준 거래를 통해 이후의 어셈블러 (작</tspan> <tspan x="0" y="54.273">업) 및 교환 토큰의 이동에 영향을 끼</tspan> <tspan x="0" y="69.545">칠 수 있습니다.</tspan></text></g><g><path d="M271.48 1350.747l52.5 30.233a20 20 0 0 1 10.02 17.332v60.376a20 20 0 0 1-10.02 17.332l-52.5 30.233a20 20 0 0 1-19.96 0l-52.5-30.233a20 20 0 0 1-10.02-17.332v-60.376a20 20 0 0 1 10.02-17.332l52.5-30.233a20 20 0 0 1 19.96 0z" stroke="#1E9DF2" stroke-width="2" fill="#FFF"/><path d="M230.441 1435h-5.969v-10.708h5.97v1.106h-4.725v3.45h4.439v1.098h-4.439v3.94h4.724V1435zm9.5 0h-1.414l-2.878-4.71-2.93 4.71h-1.318l3.56-5.596-3.318-5.112h1.377l2.658 4.24 2.68-4.24h1.327l-3.318 5.068 3.574 5.64zm5.815-9.749c-1.176 0-2.105.392-2.787 1.176-.68.784-1.021 1.857-1.021 3.219 0 1.401.328 2.484.985 3.248.657.764 1.593 1.147 2.809 1.147.747 0 1.599-.135 2.556-.403v1.091c-.742.278-1.658.417-2.747.417-1.577 0-2.794-.478-3.65-1.435-.858-.957-1.286-2.317-1.286-4.08 0-1.103.206-2.07.619-2.9a4.443 4.443 0 0 1 1.787-1.919c.779-.45 1.695-.674 2.75-.674 1.123 0 2.104.205 2.944.615l-.527 1.07c-.81-.381-1.621-.572-2.432-.572zm13.008 9.749h-1.245v-5.04h-5.64v5.04h-1.245v-10.708h1.245v4.556h5.64v-4.556h1.245V1435zm9.668 0l-1.333-3.406h-4.292L261.49 1435h-1.26l4.233-10.752h1.048L269.72 1435h-1.289zm-1.721-4.526l-1.245-3.318c-.161-.42-.327-.935-.498-1.546-.108.47-.261.984-.462 1.546l-1.26 3.318h3.465zm12.847 4.526h-1.421l-5.852-8.987h-.059c.078 1.055.117 2.022.117 2.9V1435h-1.15v-10.708h1.407l5.837 8.95h.059c-.01-.132-.032-.555-.066-1.27a22.05 22.05 0 0 1-.037-1.535v-6.145h1.165V1435zm7.653-5.61h3.64v5.207c-.566.18-1.142.318-1.728.41a13.16 13.16 0 0 1-2.036.14c-1.621 0-2.883-.483-3.787-1.447-.903-.964-1.355-2.316-1.355-4.054 0-1.113.224-2.089.67-2.926a4.532 4.532 0 0 1 1.93-1.919c.84-.442 1.824-.663 2.952-.663 1.143 0 2.207.21 3.193.63l-.483 1.099c-.967-.41-1.897-.616-2.79-.616-1.304 0-2.322.389-3.055 1.165-.732.776-1.098 1.853-1.098 3.23 0 1.445.352 2.541 1.058 3.289.706.747 1.742 1.12 3.11 1.12.741 0 1.466-.085 2.174-.256v-3.296h-2.395v-1.113zm12.18 5.61h-5.969v-10.708h5.97v1.106h-4.725v3.45h4.439v1.098h-4.439v3.94h4.725V1435z" fill="#00426E"/><g fill="#00426E" font-family="BMHANNA, BM HANNA_TTF" font-size="10" opacity=".8"><text transform="translate(0 1393)"><tspan x="0" y="8.455">토큰화 된 모든 개인 자산은 표준 거</tspan> <tspan x="0" y="23.727">래에 추가가 됩니다. 이 표준 거래에</tspan> <tspan x="0" y="39">는 모든 사람이 개인 자산을 구매한</tspan> <tspan x="0" y="54.273">후, 분산 된 투자자 커뮤니티의 구성</tspan> <tspan x="0" y="69.545">원이 될 수 있게 만들어 줍니다.</tspan></text></g></g><g><path fill="#00426E" d="M157.883 727v17.434L147 735.717z"/><path d="M154.686 736.007h94.79c11.045 0 11.533-8.954 11.533-20" stroke="#00426E" stroke-width="2"/></g><g><path fill="#00426E" d="M157.883 966v17.434L147 974.717z"/><path d="M154.686 975.007h94.79c11.045 0 11.533-8.954 11.533-20" stroke="#00426E" stroke-width="2"/></g><g><path fill="#00426E" d="M157.883 1163v17.434L147 1171.717z"/><path d="M154.686 1172.007h94.79c11.045 0 11.533-8.954 11.533-20" stroke="#00426E" stroke-width="2"/></g></g></svg>