<svg width="336" height="1510" viewBox="0 0 336 1510" xmlns="http://www.w3.org/2000/svg"><title>manual-adaptive</title><g fill="none" fill-rule="evenodd"><path d="M74.501 1091.01v-36M74.543 894.034V860.02M212.12 258.748h29.898c11.046 0 20 8.955 20 20v28.785" stroke="#00426E" stroke-width="2"/><path fill="#00426E" fill-rule="nonzero" d="M253.299 302.175h17.434l-8.717 10.883z"/><path d="M125.42 258.794H94.516c-11.045 0-20-8.954-20-20v-33.17M261.997 474.346V1345" stroke="#00426E" stroke-width="2"/><path fill="#00426E" fill-rule="nonzero" d="M253.284 1336.221h17.434L262 1347.104z"/><path stroke="#EE6E9F" d="M140.12 154.25v14.148L74.5 206.225 8.88 168.398v-13.976"/><path stroke="#7200DA" d="M142.367 139.519v13.846L74.5 192.487 6.633 153.365v-14.2"/><path stroke="#FFBD4A" d="M74.5 16.842l70.32 40.536v81.073L74.5 178.987 4.18 138.451V57.378z"/><path d="M84.488 3.673l52.5 30.264A20 20 0 0 1 147 51.264v60.475a20 20 0 0 1-10.012 17.327l-52.5 30.264a20 20 0 0 1-19.976 0l-52.5-30.264A20 20 0 0 1 2 111.739V51.264a20 20 0 0 1 10.012-17.327l52.5-30.264a20 20 0 0 1 19.976 0z" stroke="#1E9DF2" fill="#FFF" fill-rule="nonzero"/><text transform="translate(171 39)" opacity=".8" fill="#00426E" font-family="OpenSans-Regular, Open Sans" font-size="10"><tspan x="0" y="11">In each period of time the market </tspan> <tspan x="0" y="25">presents a limited offer to invest </tspan> <tspan x="0" y="39">in shares of private companies in </tspan> <tspan x="0" y="53">full accordance with the criteria </tspan> <tspan x="0" y="67">of the most secure and </tspan> <tspan x="0" y="81">potentially lucrative investments.</tspan></text><text transform="translate(25 73)" fill="#00426E" font-family="AppleSDGothicNeo-Regular, Apple SD Gothic Neo" font-size="14"><tspan x="0" y="13">PRIVATE ASSETS</tspan></text><rect width="87.062" height="43.585" rx="20" transform="translate(124.561 237)" fill="#FFF" fill-rule="nonzero" stroke="#00426E" stroke-width="2"/><g fill-rule="nonzero"><path d="M272.48 316.747l52.5 30.233A20 20 0 0 1 335 364.312v60.376a20 20 0 0 1-10.02 17.332l-52.5 30.233a20 20 0 0 1-19.96 0l-52.5-30.233A20 20 0 0 1 190 424.688v-60.376a20 20 0 0 1 10.02-17.332l52.5-30.233a20 20 0 0 1 19.96 0z" stroke="#1E9DF2" stroke-width="2" fill="#FFF"/><path d="M254.262 393.412c0 1.084-.37 1.918-1.11 2.501-.74.584-1.798.876-3.175.876h-1.26V401h-1.245v-10.708h2.776c2.676 0 4.014 1.04 4.014 3.12zm-5.545 2.307h1.12c1.104 0 1.903-.178 2.396-.534.493-.357.74-.928.74-1.714 0-.708-.232-1.236-.696-1.582-.464-.347-1.187-.52-2.168-.52h-1.392v4.35zm13.77 5.281l-1.333-3.406h-4.292L255.543 401h-1.26l4.234-10.752h1.047L263.776 401h-1.29zm-1.721-4.526l-1.245-3.318c-.162-.42-.328-.935-.499-1.546-.107.47-.26.984-.461 1.546l-1.26 3.318h3.465zm6.73 4.526h-1.245v-9.602h-3.39v-1.106h8.027v1.106h-3.391V401zm11.046-2.85c0 .943-.342 1.678-1.026 2.205-.683.528-1.611.791-2.783.791-1.27 0-2.246-.163-2.93-.49v-1.201c.44.185.918.332 1.436.439.517.107 1.03.161 1.538.161.83 0 1.455-.157 1.875-.472.42-.315.63-.753.63-1.315 0-.371-.075-.675-.224-.912-.149-.237-.398-.455-.747-.655s-.88-.428-1.593-.681c-.996-.357-1.707-.78-2.135-1.268-.427-.488-.64-1.125-.64-1.911 0-.825.31-1.482.93-1.97.62-.489 1.44-.733 2.46-.733 1.065 0 2.044.195 2.938.586l-.389 1.084c-.883-.371-1.743-.557-2.578-.557-.659 0-1.174.142-1.545.425-.371.283-.557.677-.557 1.18 0 .37.069.675.205.911.137.237.368.454.692.652.325.198.822.416 1.49.656 1.124.4 1.897.83 2.319 1.289.422.459.634 1.054.634 1.787z" fill="#00426E"/></g><text transform="translate(0 364)" opacity=".8" fill="#00426E" font-family="OpenSans-Regular, Open Sans" font-size="10"><tspan x="0" y="11">The PATS protocol launches </tspan> <tspan x="0" y="25">contracts for the investor </tspan> <tspan x="0" y="39">community and a decentralized </tspan> <tspan x="0" y="53">tokens market.</tspan></text><path stroke="#EE6E9F" d="M140.12 808.074v14.324L74.5 860.225 8.88 822.398v-14.38"/><path stroke="#7200DA" d="M142.367 794.222v13.143L74.5 846.487 6.633 807.365v-13.143"/><path stroke="#FFBD4A" d="M74.5 670.842l70.32 40.536v81.073L74.5 832.987 4.18 792.451v-81.073z"/><path d="M84.488 657.673l52.5 30.264A20 20 0 0 1 147 705.264v60.475a20 20 0 0 1-10.012 17.327l-52.5 30.264a20 20 0 0 1-19.976 0l-52.5-30.264A20 20 0 0 1 2 765.739v-60.475a20 20 0 0 1 10.012-17.327l52.5-30.264a20 20 0 0 1 19.976 0z" stroke="#1E9DF2" fill="#FFF" fill-rule="nonzero"/><path d="M84.48 896.668l52.5 30.233A20 20 0 0 1 147 944.233v60.376a20 20 0 0 1-10.02 17.332l-52.5 30.232a20 20 0 0 1-19.96 0l-52.5-30.232A20 20 0 0 1 2 1004.609v-60.376A20 20 0 0 1 12.02 926.9l52.5-30.233a20 20 0 0 1 19.96 0z" fill="#FFF" fill-rule="nonzero" stroke="#1E9DF2" stroke-width="2"/><path d="M261.257 1304.794H94.517c-11.046 0-20-8.954-20-20v-33.17" stroke="#00426E" stroke-width="2"/><path d="M84.48 1093.668l52.5 30.233a20 20 0 0 1 10.02 17.332v60.376a20 20 0 0 1-10.02 17.332l-52.5 30.232a20 20 0 0 1-19.96 0l-52.5-30.232A20 20 0 0 1 2 1201.609v-60.376a20 20 0 0 1 10.02-17.332l52.5-30.233a20 20 0 0 1 19.96 0z" fill="#FFF" fill-rule="nonzero" stroke="#1E9DF2" stroke-width="2"/><text font-family="AppleSDGothicNeo-Regular, Apple SD Gothic Neo" font-size="14" fill="#00426E" transform="translate(0 1)"><tspan x="23.967" y="1166">DECENTRALIZED </tspan> <tspan x="48.901" y="1183">MARKET</tspan></text><g fill="#FFF" fill-rule="nonzero" stroke="#1E9DF2" stroke-width="2"><path d="M272.48 1350.668l52.5 30.233a20 20 0 0 1 10.02 17.332v60.376a20 20 0 0 1-10.02 17.332l-52.5 30.232a20 20 0 0 1-19.96 0l-52.5-30.232a20 20 0 0 1-10.02-17.332v-60.376a20 20 0 0 1 10.02-17.332l52.5-30.233a20 20 0 0 1 19.96 0z"/></g><text font-family="AppleSDGothicNeo-Regular, Apple SD Gothic Neo" font-size="14" fill="#00426E" transform="translate(0 1)"><tspan x="228" y="1432">EXCHANGE</tspan></text><g><path fill="#00426E" fill-rule="nonzero" d="M158.883 727v17.434L148 735.717z"/><path d="M155.686 736.007h94.79c11.045 0 11.533-8.954 11.533-20" stroke="#00426E" stroke-width="2"/></g><g><path fill="#00426E" fill-rule="nonzero" d="M158.883 966v17.434L148 974.717z"/><path d="M155.686 975.007h94.79c11.045 0 11.533-8.954 11.533-20" stroke="#00426E" stroke-width="2"/></g><g><path fill="#00426E" fill-rule="nonzero" d="M158.883 1163v17.434L148 1171.717z"/><path d="M155.686 1172.007h94.79c11.045 0 11.533-8.954 11.533-20" stroke="#00426E" stroke-width="2"/></g><text font-family="AppleSDGothicNeo-Regular, Apple SD Gothic Neo" font-size="14" fill="#1E9DF2" transform="translate(0 1)"><tspan x="148" y="263">START</tspan></text><text font-family="Helvetica" font-size="12" fill="#00426E" transform="translate(0 1)"><tspan x="29" y="739">ERC20 TOKENS</tspan></text><text font-family="Helvetica" font-size="12" fill="#00426E" transform="translate(0 1)"><tspan x="24.993" y="962">DECENTRALIZED </tspan> <tspan x="25.321" y="980">SHAREHOLDERS </tspan> <tspan x="34.436" y="998">ASSOCIATION</tspan></text><text font-family="OpenSans-Regular, Open Sans" font-size="10" fill="#33688B" transform="translate(0 1)"><tspan x="0" y="554">Any holder of tokens </tspan> <tspan x="0" y="568">implemented through the PATS </tspan> <tspan x="0" y="582">protocol can influence the </tspan> <tspan x="0" y="596">further movement of the asset </tspan> <tspan x="0" y="610">(operations) and exchange </tspan> <tspan x="0" y="624">tokens through a smart contract </tspan> <tspan x="0" y="638">or a classic exchange.</tspan></text><text font-family="OpenSans-Regular, Open Sans" font-size="10" fill="#33688B" transform="translate(0 1)"><tspan x="3" y="1402">All of the tokenized private assets </tspan> <tspan x="3" y="1416">are added to classic exchanges, </tspan> <tspan x="3" y="1430">where everyone can purchase </tspan> <tspan x="3" y="1444">them and become a member of a </tspan> <tspan x="3" y="1458">decentralized investor community.</tspan></text></g></svg>