<svg width="1200" height="683" viewBox="0 0 1200 683" xmlns="http://www.w3.org/2000/svg"><title>Group 4</title><g fill="none" fill-rule="evenodd"><path d="M147.25 80.792h218.493" stroke="#00426E" stroke-width="2"/><path fill="#00426E" d="M359.213 89.51V72.074l10.883 8.717z"/><path d="M520.278 80.792h106.65" stroke="#00426E" stroke-width="2"/><path fill="#00426E" d="M620.4 89.51V72.074l10.882 8.717z"/><path d="M778.199 318.33h109.916" stroke="#00426E" stroke-width="2"/><path fill="#00426E" d="M879.408 327.047v-17.434l10.883 8.717z"/><path d="M964.294 101.577V231.08" stroke="#00426E" stroke-width="2"/><path fill="#00426E" d="M955.577 222.375h17.434l-8.717 10.883zM973.01 414.21h-17.433l8.717-10.883z"/><path d="M517.021 80.792h15.708c16.569 0 30 13.432 30 30V288.33c0 16.569 13.432 30 30 30h35.573" stroke="#00426E" stroke-width="2"/><path fill="#00426E" d="M621.487 327.047v-17.434l10.883 8.717z"/><rect width="87.062" height="43.585" rx="20" transform="translate(215.561 59)" fill="#FFF" stroke="#00426E" stroke-width="2"/><path d="M620.4 521v-17.434l10.882 8.717z" fill="#00426E"/><path d="M964.294 100.406c0-11.434-9.258-20.703-20.677-20.703M778.296 79.694h163.649" stroke-linecap="square" stroke="#00426E" stroke-width="2"/><path d="M453.48 3.747l52.5 30.233A20 20 0 0 1 516 51.312v60.376a20 20 0 0 1-10.02 17.332l-52.5 30.233a20 20 0 0 1-19.96 0l-52.5-30.233A20 20 0 0 1 371 111.688V51.312a20 20 0 0 1 10.02-17.332l52.5-30.233a20 20 0 0 1 19.96 0z" stroke="#1E9DF2" stroke-width="2" fill="#FFF"/><g stroke-width="2"><path stroke="#EE6E9F" d="M771.12 154.074v14.324l-65.62 37.827-65.62-37.827v-14.38"/><path stroke="#7200DA" d="M773.367 140.222v13.143L705.5 192.487l-67.867-39.122v-13.143"/><path stroke="#FFBD4A" d="M705.5 16.842l70.32 40.536v81.073l-70.32 40.536-70.32-40.536V57.378z"/><path d="M715.488 3.758l52.5 30.264A20 20 0 0 1 778 51.349v60.475a20 20 0 0 1-10.012 17.327l-52.5 30.264a20 20 0 0 1-19.976 0l-52.5-30.264A20 20 0 0 1 633 111.824V51.349a20 20 0 0 1 10.012-17.327l52.5-30.264a20 20 0 0 1 19.976 0z" stroke="#1E9DF2" fill="#FFF"/></g><g stroke-width="2"><path stroke="#EE6E9F" d="M139.12 154.25v14.148L73.5 206.225 7.88 168.398v-13.976"/><path stroke="#7200DA" d="M141.367 139.519v13.846L73.5 192.487 5.633 153.365v-14.2"/><path stroke="#FFBD4A" d="M73.5 16.842l70.32 40.536v81.073L73.5 178.987 3.18 138.451V57.378z"/><path d="M83.488 3.758l52.5 30.264A20 20 0 0 1 146 51.349v60.475a20 20 0 0 1-10.012 17.327l-52.5 30.264a20 20 0 0 1-19.976 0l-52.5-30.264A20 20 0 0 1 1 111.824V51.349a20 20 0 0 1 10.012-17.327l52.5-30.264a20 20 0 0 1 19.976 0z" stroke="#1E9DF2" fill="#FFF"/></g><path d="M715.48 239.747l52.5 30.233A20 20 0 0 1 778 287.312v60.376a20 20 0 0 1-10.02 17.332l-52.5 30.233a20 20 0 0 1-19.96 0l-52.5-30.233A20 20 0 0 1 633 347.688v-60.376a20 20 0 0 1 10.02-17.332l52.5-30.233a20 20 0 0 1 19.96 0z" fill="#FFF" stroke="#1E9DF2" stroke-width="2"/><text transform="translate(658 309)" fill="#00426E" font-family="AppleSDGothicNeo-Regular, Apple SD Gothic Neo" font-size="15"><tspan x="0" y="14.833">분산된</tspan> <tspan x="38.925" y="14.833" font-family="OpenSans-Regular, Open Sans"> </tspan> <tspan x="42.821" y="14.833">주주총회</tspan></text><path d="M974.48 239.747l52.5 30.233a20 20 0 0 1 10.02 17.332v60.376a20 20 0 0 1-10.02 17.332l-52.5 30.233a20 20 0 0 1-19.96 0l-52.5-30.233A20 20 0 0 1 892 347.688v-60.376a20 20 0 0 1 10.02-17.332l52.5-30.233a20 20 0 0 1 19.96 0zM715.48 433.747l52.5 30.233A20 20 0 0 1 778 481.312v60.376a20 20 0 0 1-10.02 17.332l-52.5 30.233a20 20 0 0 1-19.96 0l-52.5-30.233A20 20 0 0 1 633 541.688v-60.376a20 20 0 0 1 10.02-17.332l52.5-30.233a20 20 0 0 1 19.96 0z" stroke="#1E9DF2" stroke-width="2" fill="#FFF"/><g fill="#00426E" font-family="AppleSDGothicNeo-Regular, Apple SD Gothic Neo" font-size="15"><text transform="translate(675 502)"><tspan x="0" y="14">분산된</tspan> <tspan x="38.925" y="14" font-family="OpenSans-Regular, Open Sans"> </tspan> <tspan x="42.821" y="14">시장</tspan></text></g><g fill="#00426E" font-family="BMHANNA, BM HANNA_TTF" font-size="10" opacity=".8"><text transform="translate(1 223)"><tspan x="0" y="8.455">각 기간 마다 시장은 가장 신뢰할 수</tspan> <tspan x="0" y="23.727">있고 잠재적으로 수익성 있는 투자</tspan> <tspan x="0" y="39">에 대한 기준을 바탕으로 완전한 비</tspan> <tspan x="0" y="54.273">공개 회사 주식에 제한된 투자 제안</tspan> <tspan x="0" y="69.545">을 제시합니다.</tspan></text></g><g fill="#00426E" font-family="BMHANNA, BM HANNA_TTF" font-size="10" opacity=".8"><text transform="translate(371 185)"><tspan x="0" y="8.8">PATS 프로토콜은 투자자 커뮤니티</tspan> <tspan x="0" y="24.2">및 분산 된 토큰 시장을 위해 계약을</tspan> <tspan x="0" y="39.6">시작합니다.</tspan></text></g><g fill="#00426E" font-family="BMHANNA, BM HANNA_TTF" font-size="10" opacity=".8"><text transform="translate(1053 282)"><tspan x="0" y="8.455">토큰화 된 모든 개인 자산은 표준 거</tspan> <tspan x="0" y="23.727">래에 추가가 됩니다. 이 표준 거래에</tspan> <tspan x="0" y="39">는 모든 사람이 개인 자산을 구매한</tspan> <tspan x="0" y="54.273">후, 분산 된 투자자 커뮤니티의 구성</tspan> <tspan x="0" y="69.545">원이 될 수 있게 만들어 줍니다.</tspan></text></g><g fill="#00426E" font-family="BMHANNA, BM HANNA_TTF" font-size="10" opacity=".8"><text transform="translate(633 611)"><tspan x="0" y="8.455">PATS 프로토콜을 통해 실현 된 모든</tspan> <tspan x="0" y="23.727">토큰 소유자는 스마트 계약 또는 표</tspan> <tspan x="0" y="39">준 거래를 통해 이후의 어셈블러 (작 업)</tspan> <tspan x="0" y="54.273">및 교환 토큰의 이동에 영향을 끼</tspan> <tspan x="0" y="69.545">칠 수 있습니다.</tspan></text></g><path d="M563 288v194c0 16.569 13.431 30 30 30h32M778 512h155c16.569 0 30-13.431 30-30v-70" stroke="#00426E" stroke-width="2"/><text fill="#1E9DF2" font-family="AppleSDGothicNeo-Regular, Apple SD Gothic Neo" font-size="15" transform="translate(1 -2)"><tspan x="244" y="88">시작</tspan></text><text font-family="AppleSDGothicNeo-Regular, Apple SD Gothic Neo" font-size="15" fill="#00426E" transform="translate(1 -2)"><tspan x="37" y="87">사적인</tspan> <tspan x="75.925" y="87" font-family="OpenSans-Regular, Open Sans"> </tspan> <tspan x="79.821" y="87">자산</tspan></text><text font-family="OpenSans-Regular, Open Sans" font-size="15" fill="#00426E" transform="translate(1 -2)"><tspan x="426" y="90">PATS</tspan></text><text font-family="OpenSans-Regular, Open Sans" font-size="15" fill="#00426E" transform="translate(1 -2)"><tspan x="668" y="89">ERC20 </tspan> <tspan x="716.127" y="89" font-family="AppleSDGothicNeo-Regular, Apple SD Gothic Neo">토큰</tspan></text><text font-family="AppleSDGothicNeo-Regular, Apple SD Gothic Neo" font-size="15" fill="#00426E" transform="translate(1 -2)"><tspan x="944" y="326">거래소</tspan></text></g></svg>