<?xml version="1.0" encoding="UTF-8"?>
<svg width="1195px" height="693px" viewBox="0 0 1195 693" version="1.1" xmlns="http://www.w3.org/2000/svg" xmlns:xlink="http://www.w3.org/1999/xlink"> f
    <g id="Page-1" stroke="none" stroke-width="1" fill="none" fill-rule="evenodd">
        <g id="OnPlace-KOREA-eng" transform="translate(-359.000000, -2182.000000)">
            <g id="How-it-work" transform="translate(360.000000, 1989.000000)">
                <g id="Group-4" transform="translate(0.000000, 191.000000)">
                    <g id="Group-2-Copy-8" transform="translate(146.000000, 61.000000)">
                        <g id="arrow" transform="translate(0.000000, 13.075472)">
                            <path d="M0.249301103,8.71698113 L218.743083,8.71698113" id="Path-2" stroke="#00426E" stroke-width="2"></path>
                            <polygon id="Triangle" fill="#00426E" points="212.213439 17.4339623 212.213439 0 223.096179 8.71698113"></polygon>
                        </g>
                        <g id="arrow" transform="translate(373.277997, 13.075472)">
                            <path d="M0,8.71698113 L106.650856,8.71698113" id="Path-2" stroke="#00426E" stroke-width="2"></path>
                            <polygon id="Triangle" fill="#00426E" points="100.121212 17.4339623 100.121212 0 111.003953 8.71698113"></polygon>
                        </g>
                        <g id="arrow" transform="translate(631.198946, 250.613208)">
                            <path d="M0,8.71698113 L109.915679,8.71698113" id="Path-2" stroke="#00426E" stroke-width="2"></path>
                            <polygon id="Triangle" fill="#00426E" points="101.209486 17.4339623 101.209486 0 112.092227 8.71698113"></polygon>
                        </g>
                        <g id="arrow" transform="translate(817.010789, 108.576873) rotate(90.000000) translate(-817.010789, -108.576873) translate(751.010789, 99.576873)">
                            <path d="M0,8.71698113 L129.504611,8.71698113" id="Path-2" stroke="#00426E" stroke-width="2"></path>
                            <polygon id="Triangle" fill="#00426E" points="120.798419 17.4339623 120.798419 0 131.681159 8.71698113"></polygon>
                        </g>
                        <g id="arrow" transform="translate(817.576827, 349.710238) rotate(-90.000000) translate(-817.576827, -349.710238) translate(812.076827, 340.710238)" fill="#00426E">
                            <polygon id="Triangle" points="0 17.4339623 0 0 10.8827404 8.71698113"></polygon>
                        </g>
                        <g id="arrow" transform="translate(370.013175, 21.792453)">
                            <path d="M0.0080646964,0 L15.7162777,3.55271368e-15 C32.2848202,5.09121799e-16 45.7162777,13.4314575 45.7162777,30 L45.7162777,207.537736 C45.7162777,224.106278 59.1477352,237.537736 75.7162777,237.537736 L111.288852,237.537736" id="Path-2" stroke="#00426E" stroke-width="2"></path>
                            <polygon id="Triangle" fill="#00426E" points="104.474308 246.254717 104.474308 228.820755 115.357049 237.537736"></polygon>
                        </g>
                        <g id="Rectangle" transform="translate(68.561265, 0.000000)" fill="#FFFFFF" stroke="#00426E" stroke-width="2">
                            <g id="path-13-link">
                                <rect id="path-13" x="0" y="0" width="87.0619236" height="43.5849057" rx="20"></rect>
                            </g>
                        </g>
                        <g id="arrow" transform="translate(473.399209, 444.566038)" fill="#00426E">
                            <polygon id="Triangle" points="0 17.4339623 0 0 10.8827404 8.71698113"></polygon>
                        </g>
                        <g id="turn" stroke-linecap="square" transform="translate(806.793808, 30.905660) rotate(180.000000) translate(-806.793808, -30.905660) translate(796.293808, 20.405660)" stroke="#00426E" stroke-width="2">
                            <path d="M-4.54747351e-13,-5.73628733e-16 C-2.14994534e-13,11.4338573 9.25750083,20.7028302 20.6772069,20.7028302" id="Line-3"></path>
                        </g>
                        <g id="line" stroke-linecap="square" transform="translate(631.198946, 19.523585)" stroke="#00426E" stroke-width="2">
                            <path d="M0.0969109926,1.17043817 L163.745813,1.17043817" id="Line-2"></path>
                        </g>
                    </g>
                    <path d="M452.480649,5.74747719 L504.980649,35.9802358 C511.179573,39.549961 515,46.158609 515,53.3119018 L515,113.688098 C515,120.841391 511.179573,127.450039 504.980649,131.019764 L452.480649,161.252523 C446.30247,164.810302 438.69753,164.810302 432.519351,161.252523 L380.019351,131.019764 C373.820427,127.450039 370,120.841391 370,113.688098 L370,53.3119018 C370,46.158609 373.820427,39.549961 380.019351,35.9802358 L432.519351,5.74747719 C438.69753,2.18969848 446.30247,2.18969848 452.480649,5.74747719 Z" id="Polygon-Copy" stroke="#1E9DF2" stroke-width="2" fill="#FFFFFF"></path>
                    <path d="M973.480649,241.747477 L1025.98065,271.980236 C1032.17957,275.549961 1036,282.158609 1036,289.311902 L1036,349.688098 C1036,356.841391 1032.17957,363.450039 1025.98065,367.019764 L973.480649,397.252523 C967.30247,400.810302 959.69753,400.810302 953.519351,397.252523 L901.019351,367.019764 C894.820427,363.450039 891,356.841391 891,349.688098 L891,289.311902 C891,282.158609 894.820427,275.549961 901.019351,271.980236 L953.519351,241.747477 C959.69753,238.189698 967.30247,238.189698 973.480649,241.747477 Z" id="Polygon-Copy-7" stroke="#1E9DF2" stroke-width="2" fill="#FFFFFF"></path>
                    <path d="M714.480649,435.747477 L766.980649,465.980236 C773.179573,469.549961 777,476.158609 777,483.311902 L777,543.688098 C777,550.841391 773.179573,557.450039 766.980649,561.019764 L714.480649,591.252523 C708.30247,594.810302 700.69753,594.810302 694.519351,591.252523 L642.019351,561.019764 C635.820427,557.450039 632,550.841391 632,543.688098 L632,483.311902 C632,476.158609 635.820427,469.549961 642.019351,465.980236 L694.519351,435.747477 C700.69753,432.189698 708.30247,432.189698 714.480649,435.747477 Z" fill="#FFFFFF" id="Polygon-Copy-6" stroke="#1E9DF2" stroke-width="2"></path>
                    <path d="M714.480649,241.747477 L766.980649,271.980236 C773.179573,275.549961 777,282.158609 777,289.311902 L777,349.688098 C777,356.841391 773.179573,363.450039 766.980649,367.019764 L714.480649,397.252523 C708.30247,400.810302 700.69753,400.810302 694.519351,397.252523 L642.019351,367.019764 C635.820427,363.450039 632,356.841391 632,349.688098 L632,289.311902 C632,282.158609 635.820427,275.549961 642.019351,271.980236 L694.519351,241.747477 C700.69753,238.189698 708.30247,238.189698 714.480649,241.747477 Z" id="Polygon-Copy-3" fill="#FFFFFF" stroke="#1E9DF2" stroke-width="2"></path>
                    
                    <g id="Group-3" transform="translate(632.000000, 0.000000)" stroke-width="2">
                        <polyline id="Polygon-Copy-5" stroke="#EE6E9F" points="138.119331 156.074062 138.119331 170.397685 72.5 208.224507 6.88066912 170.397685 6.88066912 156.017905"></polyline>
                        <polyline id="Polygon-Copy-4" stroke="#7200DA" points="140.366541 142.222377 140.366541 155.364983 72.5 194.48723 4.63345865 155.364983 4.63345865 142.222377"></polyline>
                        <polygon id="Polygon-Copy-4" stroke="#FFBD4A" points="72.5 18.8420043 142.819549 59.378308 142.819549 140.450915 72.5 180.987219 2.18045113 140.450915 2.18045113 59.378308"></polygon>
                        <path d="M82.4884092,5.75790369 L134.988409,36.0219764 C141.182962,39.592879 145,46.1990786 145,53.3491713 L145,113.823802 C145,120.973895 141.182962,127.580094 134.988409,131.150997 L82.4884092,161.41507 C76.3062816,164.97881 68.6937184,164.97881 62.5115908,161.41507 L10.0115908,131.150997 C3.81703831,127.580094 7.63833441e-14,120.973895 6.03961325e-14,113.823802 L2.13162821e-14,53.3491713 C1.77635684e-14,46.1990786 3.81703831,39.592879 10.0115908,36.0219764 L62.5115908,5.75790369 C68.6937184,2.19416347 76.3062816,2.19416347 82.4884092,5.75790369 Z" id="Polygon-Copy-2" stroke="#1E9DF2" fill="#FFFFFF"></path>
                    </g>
                    <g id="Group-3-Copy" stroke-width="2">
                        <polyline id="Polygon-Copy-5" stroke="#EE6E9F" points="138.119331 156.249231 138.119331 170.397685 72.5 208.224507 6.88066912 170.397685 6.88066912 156.421901"></polyline>
                        <polyline id="Polygon-Copy-4" stroke="#7200DA" points="140.366541 141.51886 140.366541 155.364983 72.5 194.48723 4.63345865 155.364983 4.63345865 141.165356"></polyline>
                        <polygon id="Polygon-Copy-4" stroke="#FFBD4A" points="72.5 18.8420043 142.819549 59.378308 142.819549 140.450915 72.5 180.987219 2.18045113 140.450915 2.18045113 59.378308"></polygon>
                        <path d="M82.4884092,5.75790369 L134.988409,36.0219764 C141.182962,39.592879 145,46.1990786 145,53.3491713 L145,113.823802 C145,120.973895 141.182962,127.580094 134.988409,131.150997 L82.4884092,161.41507 C76.3062816,164.97881 68.6937184,164.97881 62.5115908,161.41507 L10.0115908,131.150997 C3.81703831,127.580094 6.21724894e-14,120.973895 4.61852778e-14,113.823802 L7.10542736e-15,53.3491713 C3.55271368e-15,46.1990786 3.81703831,39.592879 10.0115908,36.0219764 L62.5115908,5.75790369 C68.6937184,2.19416347 76.3062816,2.19416347 82.4884092,5.75790369 Z" id="Polygon-Copy-2" stroke="#1E9DF2" fill="#FFFFFF"></path>
                    </g>
                    <g id="text" transform="translate(645.000000, 287.000000)" fill="#00426E" font-family="OpenSans-Regular, Open Sans" font-size="15" font-weight="normal">
                        <text id="DECENTRALIZED">
                            <tspan x="0" y="16.8333333">DECENTRALIZED</tspan>
                            <tspan x="1.0862069" y="38.5">SHAREHOLDERS</tspan>
                            <tspan x="10.862069" y="60.1666667">ASSOCIATION</tspan>
                        </text>
                    </g>
                    <g id="text-1" transform="translate(646.000000, 493.000000)" fill="#00426E" font-family="OpenSans-Regular, Open Sans" font-size="15" font-weight="normal">
                        <text id="DECENTRALIZED">
                            <tspan x="0" y="16">DECENTRALIZED</tspan>
                            <tspan x="32" y="38">MARKET</tspan>
                        </text>
                    </g>
                    <path d="M562,290 L562,484 C562,500.568542 575.431458,514 592,514 L624,514" id="Path-2" stroke="#00426E" stroke-width="2"></path>
                    <path d="M777,514 L932,514 C948.568542,514 962,500.568542 962,484 L962,414" id="Path-3" stroke="#00426E" stroke-width="2"></path>
                    <text id="START" fill="#1E9DF2" font-family="OpenSans-Regular, Open Sans" font-size="15" font-weight="normal">
                        <tspan x="235" y="88">START</tspan>
                    </text>
                    <text id="PRIVATE-ASSETS" font-family="OpenSans-Regular, Open Sans" font-size="15" font-weight="normal" fill="#00426E">
                        <tspan x="17" y="90">PRIVATE ASSETS</tspan>
                        <tspan x="426" y="90">PATS</tspan>
                        <tspan x="652" y="90">ERC20 TOKENS</tspan>
                        <tspan x="925" y="326">EXCHANGE</tspan>
                    </text>
                    <text id="In-each-period-of-ti" font-family="AppleSDGothicNeo-Regular, Apple SD Gothic Neo" font-size="15" font-weight="normal" fill="#00426E">
                        <tspan x="4" y="238">In each period of time </tspan>
                        <tspan x="4" y="257">the market presents a </tspan>
                        <tspan x="4" y="276">limited offer to invest </tspan>
                        <tspan x="4" y="295">in shares of private </tspan>
                        <tspan x="4" y="314">companies in full</tspan>
                        <tspan x="4" y="333">accordance with the </tspan>
                        <tspan x="4" y="352">criteria of the most </tspan>
                        <tspan x="4" y="371">secure and potentially </tspan>
                        <tspan x="4" y="390">lucrative investments.</tspan>
                    </text>
                    <text id="The-PATS-protocol-la" font-family="AppleSDGothicNeo-Regular, Apple SD Gothic Neo" font-size="15" font-weight="normal" fill="#00426E">
                        <tspan x="377" y="198">The PATS protocol </tspan>
                        <tspan x="377" y="217">launches contracts for </tspan>
                        <tspan x="377" y="236">the investor </tspan>
                        <tspan x="377" y="255">community and a</tspan>
                        <tspan x="377" y="274">decentralized tokens </tspan>
                        <tspan x="377" y="293">market.</tspan>
                    </text>
                    <text id="Any-holder-of-tokens" font-family="AppleSDGothicNeo-Regular, Apple SD Gothic Neo" font-size="15" font-weight="normal" fill="#00426E">
                        <tspan x="549" y="617">Any holder of tokens implemented through the </tspan>
                        <tspan x="549" y="636">PATS protocol can influence the further </tspan>
                        <tspan x="549" y="655">movement of the asset (operations) and</tspan>
                        <tspan x="549" y="674">exchange tokens through a smart contract or a </tspan>
                        <tspan x="549" y="693">classic exchange.</tspan>
                    </text>
                    <text id="All-of-the-tokenized" font-family="AppleSDGothicNeo-Regular, Apple SD Gothic Neo" font-size="15" font-weight="normal" fill="#00426E">
                        <tspan x="1049" y="241">All of the tokenized </tspan>
                        <tspan x="1049" y="260">private assets are </tspan>
                        <tspan x="1049" y="279">added to classic</tspan>
                        <tspan x="1049" y="298">exchanges, where </tspan>
                        <tspan x="1049" y="317">everyone can purchase </tspan>
                        <tspan x="1049" y="336">them and become a </tspan>
                        <tspan x="1049" y="355">member of a </tspan>
                        <tspan x="1049" y="374">decentralized investor</tspan>
                        <tspan x="1049" y="393">community.</tspan>
                    </text>
                </g>
            </g>
        </g>
    </g>
</svg>