<?xml version="1.0" encoding="UTF-8"?>
<svg width="1200px" height="683px" viewBox="0 0 1200 683" version="1.1" xmlns="http://www.w3.org/2000/svg" xmlns:xlink="http://www.w3.org/1999/xlink">
    <!-- Generator: Sketch 49.3 (51167) - http://www.bohemiancoding.com/sketch -->
    <title>Group 4</title>
    <desc>Created with Sketch.</desc>
    <defs></defs>
    <g id="Page-1" stroke="none" stroke-width="1" fill="none" fill-rule="evenodd">
        <g id="OnPlace-KOREA" transform="translate(-359.000000, -2359.000000)">
            <g id="How-it-work" transform="translate(359.000000, 2171.000000)">
                <g id="Group-4" transform="translate(1.000000, 186.000000)">
                    <g id="Group-2" transform="translate(146.000000, 61.000000)">
                        <g id="arrow" transform="translate(0.000000, 13.075472)">
                            <path d="M0.249301103,8.71698113 L218.743083,8.71698113" id="Path-2" stroke="#00426E" stroke-width="2"></path>
                            <polygon id="Triangle" fill="#00426E" points="212.213439 17.4339623 212.213439 0 223.096179 8.71698113"></polygon>
                        </g>
                        <g id="arrow" transform="translate(373.277997, 13.075472)">
                            <path d="M0,8.71698113 L106.650856,8.71698113" id="Path-2" stroke="#00426E" stroke-width="2"></path>
                            <polygon id="Triangle" fill="#00426E" points="100.121212 17.4339623 100.121212 0 111.003953 8.71698113"></polygon>
                        </g>
                        <g id="arrow" transform="translate(631.198946, 250.613208)">
                            <path d="M0,8.71698113 L109.915679,8.71698113" id="Path-2" stroke="#00426E" stroke-width="2"></path>
                            <polygon id="Triangle" fill="#00426E" points="101.209486 17.4339623 101.209486 0 112.092227 8.71698113"></polygon>
                        </g>
                        <g id="arrow" transform="translate(817.010789, 108.576873) rotate(90.000000) translate(-817.010789, -108.576873) translate(751.010789, 99.576873)">
                            <path d="M0,8.71698113 L129.504611,8.71698113" id="Path-2" stroke="#00426E" stroke-width="2"></path>
                            <polygon id="Triangle" fill="#00426E" points="120.798419 17.4339623 120.798419 0 131.681159 8.71698113"></polygon>
                        </g>
                        <g id="arrow" transform="translate(817.576827, 349.710238) rotate(-90.000000) translate(-817.576827, -349.710238) translate(812.076827, 340.710238)" fill="#00426E">
                            <polygon id="Triangle" points="0 17.4339623 0 0 10.8827404 8.71698113"></polygon>
                        </g>
                        <g id="arrow" transform="translate(370.013175, 21.792453)">
                            <path d="M0.0080646964,0 L15.7162777,3.55271368e-15 C32.2848202,5.09121799e-16 45.7162777,13.4314575 45.7162777,30 L45.7162777,207.537736 C45.7162777,224.106278 59.1477352,237.537736 75.7162777,237.537736 L111.288852,237.537736" id="Path-2" stroke="#00426E" stroke-width="2"></path>
                            <polygon id="Triangle" fill="#00426E" points="104.474308 246.254717 104.474308 228.820755 115.357049 237.537736"></polygon>
                        </g>
                        <g id="Rectangle" transform="translate(68.561265, 0.000000)" fill="#FFFFFF" stroke="#00426E" stroke-width="2">
                            <g id="path-13-link">
                                <rect id="path-13" x="0" y="0" width="87.0619236" height="43.5849057" rx="20"></rect>
                            </g>
                        </g>
                        <g id="arrow" transform="translate(473.399209, 444.566038)" fill="#00426E">
                            <polygon id="Triangle" points="0 17.4339623 0 0 10.8827404 8.71698113"></polygon>
                        </g>
                        <g id="turn" stroke-linecap="square" transform="translate(806.793808, 30.905660) rotate(180.000000) translate(-806.793808, -30.905660) translate(796.293808, 20.405660)" stroke="#00426E" stroke-width="2">
                            <path d="M-4.54747351e-13,-5.73628733e-16 C-2.14994534e-13,11.4338573 9.25750083,20.7028302 20.6772069,20.7028302" id="Line-3"></path>
                        </g>
                        <g id="line" stroke-linecap="square" transform="translate(631.198946, 19.523585)" stroke="#00426E" stroke-width="2">
                            <path d="M0.0969109926,1.17043817 L163.745813,1.17043817" id="Line-2"></path>
                        </g>
                    </g>
                    <path d="M452.480649,5.74747719 L504.980649,35.9802358 C511.179573,39.549961 515,46.158609 515,53.3119018 L515,113.688098 C515,120.841391 511.179573,127.450039 504.980649,131.019764 L452.480649,161.252523 C446.30247,164.810302 438.69753,164.810302 432.519351,161.252523 L380.019351,131.019764 C373.820427,127.450039 370,120.841391 370,113.688098 L370,53.3119018 C370,46.158609 373.820427,39.549961 380.019351,35.9802358 L432.519351,5.74747719 C438.69753,2.18969848 446.30247,2.18969848 452.480649,5.74747719 Z" id="Polygon-Copy" stroke="#1E9DF2" stroke-width="2" fill="#FFFFFF"></path>
                    <g id="Group-3" transform="translate(632.000000, 0.000000)" stroke-width="2">
                        <polyline id="Polygon-Copy-5" stroke="#EE6E9F" points="138.119331 156.074062 138.119331 170.397685 72.5 208.224507 6.88066912 170.397685 6.88066912 156.017905"></polyline>
                        <polyline id="Polygon-Copy-4" stroke="#7200DA" points="140.366541 142.222377 140.366541 155.364983 72.5 194.48723 4.63345865 155.364983 4.63345865 142.222377"></polyline>
                        <polygon id="Polygon-Copy-4" stroke="#FFBD4A" points="72.5 18.8420043 142.819549 59.378308 142.819549 140.450915 72.5 180.987219 2.18045113 140.450915 2.18045113 59.378308"></polygon>
                        <path d="M82.4884092,5.75790369 L134.988409,36.0219764 C141.182962,39.592879 145,46.1990786 145,53.3491713 L145,113.823802 C145,120.973895 141.182962,127.580094 134.988409,131.150997 L82.4884092,161.41507 C76.3062816,164.97881 68.6937184,164.97881 62.5115908,161.41507 L10.0115908,131.150997 C3.81703831,127.580094 7.63833441e-14,120.973895 6.03961325e-14,113.823802 L2.13162821e-14,53.3491713 C1.77635684e-14,46.1990786 3.81703831,39.592879 10.0115908,36.0219764 L62.5115908,5.75790369 C68.6937184,2.19416347 76.3062816,2.19416347 82.4884092,5.75790369 Z" id="Polygon-Copy-2" stroke="#1E9DF2" fill="#FFFFFF"></path>
                    </g>
                    <g id="Group-3-Copy" stroke-width="2">
                        <polyline id="Polygon-Copy-5" stroke="#EE6E9F" points="138.119331 156.249231 138.119331 170.397685 72.5 208.224507 6.88066912 170.397685 6.88066912 156.421901"></polyline>
                        <polyline id="Polygon-Copy-4" stroke="#7200DA" points="140.366541 141.51886 140.366541 155.364983 72.5 194.48723 4.63345865 155.364983 4.63345865 141.165356"></polyline>
                        <polygon id="Polygon-Copy-4" stroke="#FFBD4A" points="72.5 18.8420043 142.819549 59.378308 142.819549 140.450915 72.5 180.987219 2.18045113 140.450915 2.18045113 59.378308"></polygon>
                        <path d="M82.4884092,5.75790369 L134.988409,36.0219764 C141.182962,39.592879 145,46.1990786 145,53.3491713 L145,113.823802 C145,120.973895 141.182962,127.580094 134.988409,131.150997 L82.4884092,161.41507 C76.3062816,164.97881 68.6937184,164.97881 62.5115908,161.41507 L10.0115908,131.150997 C3.81703831,127.580094 6.21724894e-14,120.973895 4.61852778e-14,113.823802 L7.10542736e-15,53.3491713 C3.55271368e-15,46.1990786 3.81703831,39.592879 10.0115908,36.0219764 L62.5115908,5.75790369 C68.6937184,2.19416347 76.3062816,2.19416347 82.4884092,5.75790369 Z" id="Polygon-Copy-2" stroke="#1E9DF2" fill="#FFFFFF"></path>
                    </g>
                    <path d="M714.480649,241.747477 L766.980649,271.980236 C773.179573,275.549961 777,282.158609 777,289.311902 L777,349.688098 C777,356.841391 773.179573,363.450039 766.980649,367.019764 L714.480649,397.252523 C708.30247,400.810302 700.69753,400.810302 694.519351,397.252523 L642.019351,367.019764 C635.820427,363.450039 632,356.841391 632,349.688098 L632,289.311902 C632,282.158609 635.820427,275.549961 642.019351,271.980236 L694.519351,241.747477 C700.69753,238.189698 708.30247,238.189698 714.480649,241.747477 Z" id="Polygon-Copy-3" fill="#FFFFFF" stroke="#1E9DF2" stroke-width="2"></path>
                    <g id="text" transform="translate(657.000000, 311.000000)" fill="#00426E" font-family="AppleSDGothicNeo-Regular, Apple SD Gothic Neo" font-size="15" font-weight="normal">
                        <text id="분산된-주주총회">
                            <tspan x="0" y="14.8333333">분산된</tspan>
                            <tspan x="38.925" y="14.8333333" font-family="OpenSans-Regular, Open Sans"> </tspan>
                            <tspan x="42.8214844" y="14.8333333">주주총회</tspan>
                        </text>
                    </g>
                    <path d="M973.480649,241.747477 L1025.98065,271.980236 C1032.17957,275.549961 1036,282.158609 1036,289.311902 L1036,349.688098 C1036,356.841391 1032.17957,363.450039 1025.98065,367.019764 L973.480649,397.252523 C967.30247,400.810302 959.69753,400.810302 953.519351,397.252523 L901.019351,367.019764 C894.820427,363.450039 891,356.841391 891,349.688098 L891,289.311902 C891,282.158609 894.820427,275.549961 901.019351,271.980236 L953.519351,241.747477 C959.69753,238.189698 967.30247,238.189698 973.480649,241.747477 Z" id="Polygon-Copy-7" stroke="#1E9DF2" stroke-width="2" fill="#FFFFFF"></path>
                    <path d="M714.480649,435.747477 L766.980649,465.980236 C773.179573,469.549961 777,476.158609 777,483.311902 L777,543.688098 C777,550.841391 773.179573,557.450039 766.980649,561.019764 L714.480649,591.252523 C708.30247,594.810302 700.69753,594.810302 694.519351,591.252523 L642.019351,561.019764 C635.820427,557.450039 632,550.841391 632,543.688098 L632,483.311902 C632,476.158609 635.820427,469.549961 642.019351,465.980236 L694.519351,435.747477 C700.69753,432.189698 708.30247,432.189698 714.480649,435.747477 Z" id="Polygon-Copy-6" fill="#FFFFFF" stroke="#1E9DF2" stroke-width="2"></path>
                    <g id="text-1" transform="translate(674.000000, 504.000000)" fill="#00426E" font-family="AppleSDGothicNeo-Regular, Apple SD Gothic Neo" font-size="15" font-weight="normal">
                        <text id="분산된-시장">
                            <tspan x="0" y="14">분산된</tspan>
                            <tspan x="38.925" y="14" font-family="OpenSans-Regular, Open Sans"> </tspan>
                            <tspan x="42.8214844" y="14">시장</tspan>
                        </text>
                    </g>
                    <g id="각-기간-마다-시장은-가장-신뢰할-수" transform="translate(0.000000, 225.000000)" fill="#00426E" font-family="BMHANNA, BM HANNA_TTF" font-size="10" font-weight="normal" opacity="0.8">
                        <text id="각">
                            <tspan x="0" y="8.45454545">각 기간 마다 시장은 가장 신뢰할 수</tspan>
                            <tspan x="0" y="23.7272727">있고 잠재적으로 수익성 있는 투자</tspan>
                            <tspan x="0" y="39">에 대한 기준을 바탕으로 완전한 비</tspan>
                            <tspan x="0" y="54.2727273">공개 회사 주식에 제한된 투자 제안</tspan>
                            <tspan x="0" y="69.5454545">을 제시합니다.</tspan>
                        </text>
                    </g>
                    <g id="PATS-프로토콜은-투자자-커뮤니티" transform="translate(370.000000, 187.000000)" fill="#00426E" font-family="BMHANNA, BM HANNA_TTF" font-size="10" font-weight="normal" opacity="0.8">
                        <text id="PATS">
                            <tspan x="0" y="8.8">PATS 프로토콜은 투자자 커뮤니티</tspan>
                            <tspan x="0" y="24.2">및 분산 된 토큰 시장을 위해 계약을</tspan>
                            <tspan x="0" y="39.6">시작합니다.</tspan>
                        </text>
                    </g>
                    <g id="토큰화-된-모든-개인-자산은-표준-거" transform="translate(1052.000000, 284.000000)" fill="#00426E" font-family="BMHANNA, BM HANNA_TTF" font-size="10" font-weight="normal" opacity="0.8">
                        <text id="토큰화">
                            <tspan x="0" y="8.45454545">토큰화 된 모든 개인 자산은 표준 거</tspan>
                            <tspan x="0" y="23.7272727">래에 추가가 됩니다. 이 표준 거래에</tspan>
                            <tspan x="0" y="39">는 모든 사람이 개인 자산을 구매한</tspan>
                            <tspan x="0" y="54.2727273">후, 분산 된 투자자 커뮤니티의 구성</tspan>
                            <tspan x="0" y="69.5454545">원이 될 수 있게 만들어 줍니다.</tspan>
                        </text>
                    </g>
                    <g id="PATS-프로토콜을-통해-실현-된-모" transform="translate(632.000000, 613.000000)" fill="#00426E" font-family="BMHANNA, BM HANNA_TTF" font-size="10" font-weight="normal" opacity="0.8">
                        <text id="PATS">
                            <tspan x="0" y="8.45454545">PATS 프로토콜을 통해 실현 된 모든</tspan>
                            <tspan x="0" y="23.7272727">토큰 소유자는 스마트 계약 또는 표</tspan>
                            <tspan x="0" y="39">준 거래를 통해 이후의 어셈블러 (작 업)</tspan>
                            <tspan x="0" y="54.2727273">및 교환 토큰의 이동에 영향을 끼</tspan>
                            <tspan x="0" y="69.5454545">칠 수 있습니다.</tspan>
                        </text>
                    </g>
                    <path d="M562,290 L562,484 C562,500.568542 575.431458,514 592,514 L624,514" id="Path-2" stroke="#00426E" stroke-width="2"></path>
                    <path d="M777,514 L932,514 C948.568542,514 962,500.568542 962,484 L962,414" id="Path-3" stroke="#00426E" stroke-width="2"></path>
                    <text id="시작" fill="#1E9DF2" font-family="AppleSDGothicNeo-Regular, Apple SD Gothic Neo" font-size="15" font-weight="normal">
                        <tspan x="244" y="88">시작</tspan>
                    </text>
                    <text id="사적인-자산" font-family="AppleSDGothicNeo-Regular, Apple SD Gothic Neo" font-size="15" font-weight="normal" fill="#00426E">
                        <tspan x="37" y="87">사적인</tspan>
                        <tspan x="75.925" y="87" font-family="OpenSans-Regular, Open Sans"> </tspan>
                        <tspan x="79.8214844" y="87">자산</tspan>
                    </text>
                    <text id="PATS" font-family="OpenSans-Regular, Open Sans" font-size="15" font-weight="normal" fill="#00426E">
                        <tspan x="426" y="90">PATS</tspan>
                    </text>
                    <text id="ERC20-토큰" font-family="OpenSans-Regular, Open Sans" font-size="15" font-weight="normal" fill="#00426E">
                        <tspan x="668" y="89">ERC20 </tspan>
                        <tspan x="716.127441" y="89" font-family="AppleSDGothicNeo-Regular, Apple SD Gothic Neo">토큰</tspan>
                    </text>
                    <text id="거래소" font-family="AppleSDGothicNeo-Regular, Apple SD Gothic Neo" font-size="15" font-weight="normal" fill="#00426E">
                        <tspan x="944" y="326">거래소</tspan>
                    </text>
                </g>
            </g>
        </g>
    </g>
</svg>