<svg width="335" height="1510" viewBox="0 0 335 1510" xmlns="http://www.w3.org/2000/svg"><title>manual-adaptive</title><g fill="none" fill-rule="evenodd"><path d="M73.501 1091.01v-36M73.543 894.034V860.02M211.12 258.748h29.898c11.046 0 20 8.955 20 20v28.785" stroke="#00426E" stroke-width="2"/><path fill="#00426E" fill-rule="nonzero" d="M252.299 302.175h17.434l-8.717 10.883z"/><path d="M124.42 258.794H93.516c-11.045 0-20-8.954-20-20v-33.17M260.997 474.346V1345" stroke="#00426E" stroke-width="2"/><path fill="#00426E" fill-rule="nonzero" d="M252.284 1336.221h17.434L261 1347.104z"/><path stroke="#EE6E9F" d="M139.12 154.25v14.148L73.5 206.225 7.88 168.398v-13.976"/><path stroke="#7200DA" d="M141.367 139.519v13.846L73.5 192.487 5.633 153.365v-14.2"/><path stroke="#FFBD4A" d="M73.5 16.842l70.32 40.536v81.073L73.5 178.987 3.18 138.451V57.378z"/><path d="M83.488 3.673l52.5 30.264A20 20 0 0 1 146 51.264v60.475a20 20 0 0 1-10.012 17.327l-52.5 30.264a20 20 0 0 1-19.976 0l-52.5-30.264A20 20 0 0 1 1 111.739V51.264a20 20 0 0 1 10.012-17.327l52.5-30.264a20 20 0 0 1 19.976 0z" stroke="#1E9DF2" fill="#FFF" fill-rule="nonzero"/><g opacity=".8" fill="#00426E" font-family="BMHANNA, BM HANNA_TTF" font-size="10"><text transform="translate(186 46)"><tspan x="0" y="8.455">각 기간 마다 시장은 가장 신뢰할 수</tspan></text><text transform="translate(186 46)"><tspan x="0" y="23.727">있고 잠재적으로 수익성 있는 투자</tspan></text><text transform="translate(186 46)"><tspan x="0" y="39">에 대한 기준을.</tspan></text></g><g fill="#00426E" font-family="AppleSDGothicNeo-Regular, Apple SD Gothic Neo" font-size="14"><text transform="translate(40 72)"><tspan x="0" y="13">사적인</tspan></text><text transform="translate(40 72)"><tspan x="39.998" y="13">자산</tspan></text></g><rect width="87.062" height="43.585" rx="20" transform="translate(123.561 237)" fill="#FFF" fill-rule="nonzero" stroke="#00426E" stroke-width="2"/><g fill-rule="nonzero"><path d="M271.48 316.747l52.5 30.233A20 20 0 0 1 334 364.312v60.376a20 20 0 0 1-10.02 17.332l-52.5 30.233a20 20 0 0 1-19.96 0l-52.5-30.233A20 20 0 0 1 189 424.688v-60.376a20 20 0 0 1 10.02-17.332l52.5-30.233a20 20 0 0 1 19.96 0z" stroke="#1E9DF2" stroke-width="2" fill="#FFF"/><path d="M253.262 393.412c0 1.084-.37 1.918-1.11 2.501-.74.584-1.798.876-3.175.876h-1.26V401h-1.245v-10.708h2.776c2.676 0 4.014 1.04 4.014 3.12zm-5.545 2.307h1.12c1.104 0 1.903-.178 2.396-.534.493-.357.74-.928.74-1.714 0-.708-.232-1.236-.696-1.582-.464-.347-1.187-.52-2.168-.52h-1.392v4.35zm13.77 5.281l-1.333-3.406h-4.292L254.543 401h-1.26l4.234-10.752h1.047L262.776 401h-1.29zm-1.721-4.526l-1.245-3.318c-.162-.42-.328-.935-.499-1.546-.107.47-.26.984-.461 1.546l-1.26 3.318h3.465zm6.73 4.526h-1.245v-9.602h-3.39v-1.106h8.027v1.106h-3.391V401zm11.046-2.85c0 .943-.342 1.678-1.026 2.205-.683.528-1.611.791-2.783.791-1.27 0-2.246-.163-2.93-.49v-1.201c.44.185.918.332 1.436.439.517.107 1.03.161 1.538.161.83 0 1.455-.157 1.875-.472.42-.315.63-.753.63-1.315 0-.371-.075-.675-.224-.912-.149-.237-.398-.455-.747-.655s-.88-.428-1.593-.681c-.996-.357-1.707-.78-2.135-1.268-.427-.488-.64-1.125-.64-1.911 0-.825.31-1.482.93-1.97.62-.489 1.44-.733 2.46-.733 1.065 0 2.044.195 2.938.586l-.389 1.084c-.883-.371-1.743-.557-2.578-.557-.659 0-1.174.142-1.545.425-.371.283-.557.677-.557 1.18 0 .37.069.675.205.911.137.237.368.454.692.652.325.198.822.416 1.49.656 1.124.4 1.897.83 2.319 1.289.422.459.634 1.054.634 1.787z" fill="#00426E"/></g><g opacity=".8" fill="#00426E" font-family="BMHANNA, BM HANNA_TTF" font-size="10"><text transform="translate(0 374)"><tspan x="0" y="8.8">PATS 프로토콜은 투자자 커뮤니티</tspan></text><text transform="translate(0 374)"><tspan x="0" y="24.2">및 분산 된 토큰 시장을 위해 계약을</tspan></text><text transform="translate(0 374)"><tspan x="0" y="39.6">시작합니다.</tspan></text></g><path stroke="#EE6E9F" d="M139.12 808.074v14.324L73.5 860.225 7.88 822.398v-14.38"/><path stroke="#7200DA" d="M141.367 794.222v13.143L73.5 846.487 5.633 807.365v-13.143"/><path stroke="#FFBD4A" d="M73.5 670.842l70.32 40.536v81.073L73.5 832.987 3.18 792.451v-81.073z"/><path d="M83.488 657.673l52.5 30.264A20 20 0 0 1 146 705.264v60.475a20 20 0 0 1-10.012 17.327l-52.5 30.264a20 20 0 0 1-19.976 0l-52.5-30.264A20 20 0 0 1 1 765.739v-60.475a20 20 0 0 1 10.012-17.327l52.5-30.264a20 20 0 0 1 19.976 0z" stroke="#1E9DF2" fill="#FFF" fill-rule="nonzero"/><path d="M83.48 896.668l52.5 30.233A20 20 0 0 1 146 944.233v60.376a20 20 0 0 1-10.02 17.332l-52.5 30.232a20 20 0 0 1-19.96 0l-52.5-30.232A20 20 0 0 1 1 1004.609v-60.376A20 20 0 0 1 11.02 926.9l52.5-30.233a20 20 0 0 1 19.96 0z" fill="#FFF" fill-rule="nonzero" stroke="#1E9DF2" stroke-width="2"/><path d="M260.257 1304.794H93.517c-11.046 0-20-8.954-20-20v-33.17" stroke="#00426E" stroke-width="2"/><g fill="#FFF" fill-rule="nonzero" stroke="#1E9DF2" stroke-width="2"><path d="M83.48 1093.668l52.5 30.233a20 20 0 0 1 10.02 17.332v60.376a20 20 0 0 1-10.02 17.332l-52.5 30.232a20 20 0 0 1-19.96 0l-52.5-30.232A20 20 0 0 1 1 1201.609v-60.376a20 20 0 0 1 10.02-17.332l52.5-30.233a20 20 0 0 1 19.96 0z"/></g><text font-family="AppleSDGothicNeo-Regular, Apple SD Gothic Neo" font-size="14" fill="#00426E" transform="translate(0 1)"><tspan x="39" y="1175">분산된 시장</tspan></text><g opacity=".8" fill="#00426E" font-family="BMHANNA, BM HANNA_TTF" font-size="10"><text transform="translate(0 550)"><tspan x="0" y="8.455">PATS 프로토콜을 통해 실현 된 모든</tspan></text><text transform="translate(0 550)"><tspan x="0" y="23.727">토큰 소유자는 스마트 계약 또는 표</tspan></text><text transform="translate(0 550)"><tspan x="0" y="39">준 거래를 통해 이후의 어셈블러 (작</tspan></text><text transform="translate(0 550)"><tspan x="0" y="54.273">업) 및 교환 토큰의 이동에 영향을 끼</tspan></text><text transform="translate(0 550)"><tspan x="0" y="69.545">칠 수 있습니다.</tspan></text></g><g><path d="M271.48 1350.668l52.5 30.233a20 20 0 0 1 10.02 17.332v60.376a20 20 0 0 1-10.02 17.332l-52.5 30.232a20 20 0 0 1-19.96 0l-52.5-30.232a20 20 0 0 1-10.02-17.332v-60.376a20 20 0 0 1 10.02-17.332l52.5-30.233a20 20 0 0 1 19.96 0z" fill="#FFF" fill-rule="nonzero" stroke="#1E9DF2" stroke-width="2"/><g opacity=".8" fill="#00426E" font-family="BMHANNA, BM HANNA_TTF" font-size="10"><text transform="translate(0 1393)"><tspan x="0" y="8.455">토큰화 된 모든 개인 자산은 표준 거</tspan></text><text transform="translate(0 1393)"><tspan x="0" y="23.727">래에 추가가 됩니다. 이 표준 거래에</tspan></text><text transform="translate(0 1393)"><tspan x="0" y="39">는 모든 사람이 개인 자산을 구매한</tspan></text><text transform="translate(0 1393)"><tspan x="0" y="54.273">후, 분산 된 투자자 커뮤니티의 구성</tspan></text><text transform="translate(0 1393)"><tspan x="0" y="69.545">원이 될 수 있게 만들어 줍니다.</tspan></text></g></g><text font-family="AppleSDGothicNeo-Regular, Apple SD Gothic Neo" font-size="14" fill="#00426E" transform="translate(0 1)"><tspan x="241" y="1432">거래소</tspan></text><g><path fill="#00426E" fill-rule="nonzero" d="M157.883 727v17.434L147 735.717z"/><path d="M154.686 736.007h94.79c11.045 0 11.533-8.954 11.533-20" stroke="#00426E" stroke-width="2"/></g><g><path fill="#00426E" fill-rule="nonzero" d="M157.883 966v17.434L147 974.717z"/><path d="M154.686 975.007h94.79c11.045 0 11.533-8.954 11.533-20" stroke="#00426E" stroke-width="2"/></g><g><path fill="#00426E" fill-rule="nonzero" d="M157.883 1163v17.434L147 1171.717z"/><path d="M154.686 1172.007h94.79c11.045 0 11.533-8.954 11.533-20" stroke="#00426E" stroke-width="2"/></g><text font-family="AppleSDGothicNeo-Regular, Apple SD Gothic Neo" font-size="14" fill="#00426E" transform="translate(0 1)"><tspan x="153" y="262">시작</tspan></text><text font-family="AppleSDGothicNeo-Regular, Apple SD Gothic Neo" font-size="14" fill="#00426E" transform="translate(0 1)"><tspan x="39" y="739">ERC20 토큰</tspan></text><text font-family="AppleSDGothicNeo-Regular, Apple SD Gothic Neo" font-size="14" fill="#00426E" transform="translate(0 1)"><tspan x="28" y="977">분산된 주주총회</tspan></text></g></svg>