<svg width="1195" height="693" viewBox="0 0 1195 693" xmlns="http://www.w3.org/2000/svg">f<g fill="none" fill-rule="evenodd"><path d="M147.25 80.792h218.493" stroke="#00426E" stroke-width="2"/><path fill="#00426E" d="M359.213 89.51V72.074l10.883 8.717z"/><path d="M520.278 80.792h106.65" stroke="#00426E" stroke-width="2"/><path fill="#00426E" d="M620.4 89.51V72.074l10.882 8.717z"/><path d="M778.199 318.33h109.916" stroke="#00426E" stroke-width="2"/><path fill="#00426E" d="M879.408 327.047v-17.434l10.883 8.717z"/><path d="M964.294 101.577V231.08" stroke="#00426E" stroke-width="2"/><path fill="#00426E" d="M955.577 222.375h17.434l-8.717 10.883zM973.01 414.21h-17.433l8.717-10.883z"/><path d="M517.021 80.792h15.708c16.569 0 30 13.432 30 30V288.33c0 16.569 13.432 30 30 30h35.573" stroke="#00426E" stroke-width="2"/><path fill="#00426E" d="M621.487 327.047v-17.434l10.883 8.717z"/><rect width="87.062" height="43.585" rx="20" transform="translate(215.561 59)" fill="#FFF" stroke="#00426E" stroke-width="2"/><path d="M620.4 521v-17.434l10.882 8.717z" fill="#00426E"/><path d="M964.294 100.406c0-11.434-9.258-20.703-20.677-20.703M778.296 79.694h163.649" stroke-linecap="square" stroke="#00426E" stroke-width="2"/><path d="M453.48 3.747l52.5 30.233A20 20 0 0 1 516 51.312v60.376a20 20 0 0 1-10.02 17.332l-52.5 30.233a20 20 0 0 1-19.96 0l-52.5-30.233A20 20 0 0 1 371 111.688V51.312a20 20 0 0 1 10.02-17.332l52.5-30.233a20 20 0 0 1 19.96 0zM974.48 239.747l52.5 30.233a20 20 0 0 1 10.02 17.332v60.376a20 20 0 0 1-10.02 17.332l-52.5 30.233a20 20 0 0 1-19.96 0l-52.5-30.233A20 20 0 0 1 892 347.688v-60.376a20 20 0 0 1 10.02-17.332l52.5-30.233a20 20 0 0 1 19.96 0zM715.48 433.747l52.5 30.233A20 20 0 0 1 778 481.312v60.376a20 20 0 0 1-10.02 17.332l-52.5 30.233a20 20 0 0 1-19.96 0l-52.5-30.233A20 20 0 0 1 633 541.688v-60.376a20 20 0 0 1 10.02-17.332l52.5-30.233a20 20 0 0 1 19.96 0zM715.48 239.747l52.5 30.233A20 20 0 0 1 778 287.312v60.376a20 20 0 0 1-10.02 17.332l-52.5 30.233a20 20 0 0 1-19.96 0l-52.5-30.233A20 20 0 0 1 633 347.688v-60.376a20 20 0 0 1 10.02-17.332l52.5-30.233a20 20 0 0 1 19.96 0z" stroke="#1E9DF2" stroke-width="2" fill="#FFF"/><g stroke-width="2"><path stroke="#EE6E9F" d="M771.12 154.074v14.324l-65.62 37.827-65.62-37.827v-14.38"/><path stroke="#7200DA" d="M773.367 140.222v13.143L705.5 192.487l-67.867-39.122v-13.143"/><path stroke="#FFBD4A" d="M705.5 16.842l70.32 40.536v81.073l-70.32 40.536-70.32-40.536V57.378z"/><path d="M715.488 3.758l52.5 30.264A20 20 0 0 1 778 51.349v60.475a20 20 0 0 1-10.012 17.327l-52.5 30.264a20 20 0 0 1-19.976 0l-52.5-30.264A20 20 0 0 1 633 111.824V51.349a20 20 0 0 1 10.012-17.327l52.5-30.264a20 20 0 0 1 19.976 0z" stroke="#1E9DF2" fill="#FFF"/></g><g stroke-width="2"><path stroke="#EE6E9F" d="M139.12 154.25v14.148L73.5 206.225 7.88 168.398v-13.976"/><path stroke="#7200DA" d="M141.367 139.519v13.846L73.5 192.487 5.633 153.365v-14.2"/><path stroke="#FFBD4A" d="M73.5 16.842l70.32 40.536v81.073L73.5 178.987 3.18 138.451V57.378z"/><path d="M83.488 3.758l52.5 30.264A20 20 0 0 1 146 51.349v60.475a20 20 0 0 1-10.012 17.327l-52.5 30.264a20 20 0 0 1-19.976 0l-52.5-30.264A20 20 0 0 1 1 111.824V51.349a20 20 0 0 1 10.012-17.327l52.5-30.264a20 20 0 0 1 19.976 0z" stroke="#1E9DF2" fill="#FFF"/></g><g fill="#00426E" font-family="OpenSans-Regular, Open Sans" font-size="15"><text transform="translate(646 285)"><tspan x="0" y="16.833">DECENTRALIZED</tspan> <tspan x="1.086" y="38.5">SHAREHOLDERS</tspan> <tspan x="10.862" y="60.167">ASSOCIATION</tspan></text></g><g fill="#00426E" font-family="OpenSans-Regular, Open Sans" font-size="15"><text transform="translate(647 491)"><tspan x="0" y="16">DECENTRALIZED</tspan> <tspan x="32" y="38">MARKET</tspan></text></g><path d="M563 288v194c0 16.569 13.431 30 30 30h32M778 512h155c16.569 0 30-13.431 30-30v-70" stroke="#00426E" stroke-width="2"/><text fill="#1E9DF2" font-family="OpenSans-Regular, Open Sans" font-size="15" transform="translate(1 -2)"><tspan x="235" y="88">START</tspan></text><text font-family="OpenSans-Regular, Open Sans" font-size="15" fill="#00426E" transform="translate(1 -2)"><tspan x="17" y="90">PRIVATE ASSETS</tspan> <tspan x="426" y="90">PATS</tspan> <tspan x="652" y="90">ERC20 TOKENS</tspan> <tspan x="925" y="326">EXCHANGE</tspan></text><text font-family="AppleSDGothicNeo-Regular, Apple SD Gothic Neo" font-size="15" fill="#00426E" transform="translate(1 -2)"><tspan x="4" y="238">In each period of time </tspan> <tspan x="4" y="257">the market presents a </tspan> <tspan x="4" y="276">limited offer to invest </tspan> <tspan x="4" y="295">in shares of private </tspan> <tspan x="4" y="314">companies in full</tspan> <tspan x="4" y="333">accordance with the </tspan> <tspan x="4" y="352">criteria of the most </tspan> <tspan x="4" y="371">secure and potentially </tspan> <tspan x="4" y="390">lucrative investments.</tspan></text><text font-family="AppleSDGothicNeo-Regular, Apple SD Gothic Neo" font-size="15" fill="#00426E" transform="translate(1 -2)"><tspan x="377" y="198">The PATS protocol </tspan> <tspan x="377" y="217">launches contracts for </tspan> <tspan x="377" y="236">the investor </tspan> <tspan x="377" y="255">community and a</tspan> <tspan x="377" y="274">decentralized tokens </tspan> <tspan x="377" y="293">market.</tspan></text><text font-family="AppleSDGothicNeo-Regular, Apple SD Gothic Neo" font-size="15" fill="#00426E" transform="translate(1 -2)"><tspan x="549" y="617">Any holder of tokens implemented through the </tspan> <tspan x="549" y="636">PATS protocol can influence the further </tspan> <tspan x="549" y="655">movement of the asset (operations) and</tspan> <tspan x="549" y="674">exchange tokens through a smart contract or a </tspan> <tspan x="549" y="693">classic exchange.</tspan></text><text font-family="AppleSDGothicNeo-Regular, Apple SD Gothic Neo" font-size="15" fill="#00426E" transform="translate(1 -2)"><tspan x="1049" y="241">All of the tokenized </tspan> <tspan x="1049" y="260">private assets are </tspan> <tspan x="1049" y="279">added to classic</tspan> <tspan x="1049" y="298">exchanges, where </tspan> <tspan x="1049" y="317">everyone can purchase </tspan> <tspan x="1049" y="336">them and become a </tspan> <tspan x="1049" y="355">member of a </tspan> <tspan x="1049" y="374">decentralized investor</tspan> <tspan x="1049" y="393">community.</tspan></text></g></svg>