<?xml version="1.0" encoding="UTF-8"?>
<svg width="48px" height="52px" viewBox="0 0 48 52" version="1.1" xmlns="http://www.w3.org/2000/svg" xmlns:xlink="http://www.w3.org/1999/xlink">
    <!-- Generator: Sketch 49 (51002) - http://www.bohemiancoding.com/sketch -->
    <title>reload</title>
    <desc>Created with Sketch.</desc>
    <defs></defs>
    <g id="Page-1" stroke="none" stroke-width="1" fill="none" fill-rule="evenodd">
        <g id="Korea-page-CROWSALE" transform="translate(-676.000000, -430.000000)" fill="#1E9DF2" fill-rule="nonzero">
            <g id="Group" transform="translate(361.000000, 216.000000)">
                <g id="1" transform="translate(0.000000, 172.000000)">
                    <g id="reload" transform="translate(315.500000, 42.000000)">
                        <path d="M9.58310309,10.5239744 C17.1824395,3.43654876 28.555167,3.32817834 36.2596117,9.79789256 L30.1528144,10.0363075 C29.3645015,10.0688186 28.7548729,10.7407152 28.7864054,11.5534934 C28.8179379,12.3445975 29.4485883,12.9623089 30.2053686,12.9623089 C30.2263903,12.9623089 30.2369012,12.9623089 30.2579228,12.9623089 L39.633591,12.6046865 C40.4008822,12.5721754 41,11.9327899 41,11.1416858 L41,11.0333154 C41,11.0116413 41,11.0008042 41,10.9791302 L41,10.9682931 L40.6531423,1.41002186 C40.6216098,0.59724369 39.959427,-0.0313047598 39.1816249,0.00120636695 C38.393312,0.0337174937 37.7836834,0.705614113 37.8152159,1.51839228 L38.0359435,7.51127664 C34.220509,4.2926751 29.5221641,2.42870383 24.4979832,2.16861482 C18.2755667,1.84350355 12.2948995,4.04342312 7.68064128,8.35656594 C1.3320947,14.284428 -1.35868001,23.3008472 0.65940102,31.8837846 C0.8170636,32.5556813 1.39515973,33 2.03632089,33 C2.15194012,33 2.2570485,32.989163 2.37266773,32.9566518 C3.12944812,32.7615851 3.60243586,31.970481 3.41324076,31.1902139 C1.64741986,23.6476325 4.00184773,15.7257547 9.58310309,10.5239744 Z" id="Shape"></path>
                        <path d="M46.3428901,21.0821165 C46.1543524,20.3254586 45.3897272,19.8525474 44.6355763,20.0417119 C43.8814254,20.2308764 43.4100811,20.9980434 43.5986189,21.7547013 C45.3687786,29.0690613 43.0120571,36.751241 37.4501943,41.7956272 C33.5432737,45.3372066 28.641293,47.0817235 23.7602608,47.0817235 C19.0991894,47.0817235 14.4485923,45.4948437 10.6987865,42.3631206 L16.8576854,41.8061363 C17.6327849,41.7325723 18.2088724,41.0494784 18.1355521,40.2612931 C18.0622319,39.4731077 17.3814013,38.9056143 16.5958274,38.9791782 L7.28415885,39.8199093 C6.50905933,39.8934732 5.93297185,40.5765672 6.00629207,41.3647525 L6.8442375,50.707376 C6.90708341,51.4430157 7.52506816,52 8.24779609,52 C8.28969336,52 8.33159063,52 8.37348791,51.9894909 C9.14858743,51.9159269 9.72467491,51.2328329 9.65135468,50.4446476 L9.14858743,44.759204 C12.9507648,47.8488906 17.6118363,49.6459531 22.5871372,49.8981724 C22.9851613,49.9191907 23.3831854,49.9296998 23.7707352,49.9296998 C29.5420843,49.9296998 35.0306268,47.806854 39.3460458,43.8974547 C45.6725338,38.1489563 48.3539592,29.4158628 46.3428901,21.0821165 Z" id="Shape"></path>
                    </g>
                </g>
            </g>
        </g>
    </g>
</svg>