<svg width="76" height="84" viewBox="0 0 76 84" xmlns="http://www.w3.org/2000/svg"><title>Polygon 4 Copy 2</title><defs><linearGradient x1="50%" y1="0%" x2="50%" y2="100%" id="a"><stop stop-color="#56CCF2" offset="0%"/><stop stop-color="#2F80ED" offset="100%"/></linearGradient></defs><path d="M47 2.887l26.373 15.226a10 10 0 0 1 5 8.66v30.453a10 10 0 0 1-5 8.66L47 81.114a10 10 0 0 1-10 0L10.627 65.887a10 10 0 0 1-5-8.66V26.773a10 10 0 0 1 5-8.66L37 2.886a10 10 0 0 1 10 0z" transform="translate(-4)" fill="#F4F4F4" stroke="url(#a)" stroke-width="2" fill-rule="evenodd"/></svg>