<svg width="100" height="34" viewBox="0 0 100 34" xmlns="http://www.w3.org/2000/svg"><title>Group 8</title><g fill="#1E9DF2" fill-rule="nonzero"><path d="M100 4.904a16.193 16.193 0 0 1-4.713 1.312 8.333 8.333 0 0 0 3.608-4.608 16.246 16.246 0 0 1-5.212 2.022A8.137 8.137 0 0 0 87.693 1c-4.53 0-8.204 3.728-8.204 8.33 0 .652.072 1.288.211 1.899-6.82-.348-12.866-3.664-16.913-8.703a8.386 8.386 0 0 0-1.11 4.188 8.36 8.36 0 0 0 3.65 6.932 8.076 8.076 0 0 1-3.718-1.041v.105c0 4.036 2.828 7.402 6.582 8.168a8.208 8.208 0 0 1-3.707.145c1.045 3.308 4.075 5.716 7.665 5.784A16.307 16.307 0 0 1 60 30.256 22.971 22.971 0 0 0 72.578 34c15.093 0 23.347-12.693 23.347-23.7 0-.362-.008-.72-.025-1.078a16.862 16.862 0 0 0 4.1-4.318z"/><path d="M15.152 31.212c-1.182 0-.97-.454-1.394-1.576l-3.455-11.394L31.758 4.848l2.515.667-2.091 5.697-17.03 20z" opacity=".637"/><path d="M15.152 31.212c.909 0 1.303-.424 1.818-.909.788-.758 10.909-10.606 10.909-10.606l-6.212-1.515-5.758 3.636-.757 9.091v.303z"/><path d="M15.758 21.94l14.666 10.818c1.667.909 2.879.454 3.303-1.546l5.97-28.121c.606-2.455-.94-3.546-2.545-2.818L2.122 13.788c-2.395.97-2.364 2.303-.425 2.879l9 2.818L31.515 6.364c.97-.606 1.879-.273 1.152.394l-16.91 15.181z"/></g></svg>