<svg xmlns="http://www.w3.org/2000/svg" xmlns:xlink="http://www.w3.org/1999/xlink" width="309.27" height="40" viewBox="0 0 309.27 40"><defs><path id="a" d="M709.27 8250.83a19.92 19.92 0 0 1 20-19.83c11.05 0 20 8.88 20 19.84a19.92 19.92 0 0 1-20 19.83c-11.05 0-20-8.88-20-19.84z"/><path id="b" d="M734.04 8251.39h-3.52v12.93h-5.32v-12.93h-2.53v-4.54h2.53v-2.94c0-2.1 1-5.4 5.37-5.4l3.94.02v4.4h-2.86c-.47 0-1.13.24-1.13 1.25v2.67h3.98z"/><path id="c" d="M587.4 8267.62c0 .79-.46 1.24-1.14 1.24-.31 0-.66-.09-1.03-.28l-1.69-.87-7.53-3.87 11.39-19.05zm-24.26-10.4v-12.36l8.38 16.67-7.54-3.88zm9.88-20.59l.68-1.14a1.34 1.34 0 0 1 1.72-.5l11.82 6.07h.02l.01.03c.06.05.09.13.05.2l-11.78 19.67-1.2 2-7.8-15.5zm-11.75 30.99c0 .84-.44 1.34-1.07 1.34-.23 0-.47-.06-.74-.2l-10.17-5.22a2.23 2.23 0 0 1-1.08-1.81v-25.64c0-.68.35-1.08.86-1.08.18 0 .38.05.58.16l.36.18 11.21 5.77c.02 0 .04.03.05.04zm27.54-27.62l-.15-.18-.15-.15a1.87 1.87 0 0 0-.42-.3l-11.16-5.74-.67-.34a2.99 2.99 0 0 0-1.41-.34c-1.12 0-2.17.6-2.75 1.55l-1.64 2.76-4.92 8.21-2.65-5.26c-.2-.34-.49-.61-.82-.79l-11.21-5.76h-.01l-.35-.18a3.1 3.1 0 0 0-1.43-.36c-1.56 0-2.73 1.27-2.73 2.97v25.64c0 1.4.89 2.87 2.11 3.5l10.17 5.22c.52.27 1.05.4 1.58.4 1.7 0 2.94-1.35 2.94-3.23v-8.28l20.53 10.57v-.01l.72.37c.62.32 1.25.48 1.86.48 1.75 0 3.02-1.32 3.02-3.13v-26.3c0-.5-.18-.94-.46-1.32z"/><path id="d" d="M457.33 8257.99l-4.32-9.66 9.66-4.32 4.32 9.66zm22.36-6.17a3.5 3.5 0 0 0-4.62-1.77l-1.69.76-4.32-9.66 1.69-.75a3.5 3.5 0 0 0-2.86-6.4l-1.69.76-.75-1.69a3.5 3.5 0 1 0-6.4 2.86l.76 1.69-9.66 4.32-.75-1.69a3.5 3.5 0 1 0-6.4 2.86l.76 1.68-1.69.76a3.5 3.5 0 1 0 2.86 6.4l1.69-.76 4.32 9.66-1.69.75a3.5 3.5 0 0 0 2.86 6.4l1.69-.76.75 1.69c.79 1.76 2.86 2.55 4.63 1.76a3.5 3.5 0 0 0 1.76-4.62l-.75-1.69 9.66-4.32.75 1.68a3.5 3.5 0 1 0 6.4-2.85l-.76-1.69 1.68-.75a3.5 3.5 0 0 0 1.77-4.63z"/><path id="e" d="M668.53 8254.24l18-11.13c.33-.2.67.24.39.5l-14.87 13.86a3.1 3.1 0 0 0-.95 1.84l-.51 3.77c-.07.5-.77.55-.9.06l-1.96-6.86c-.22-.78.1-1.62.8-2.04zm-12.21-1.62l9.21 3.45 3.57 11.5c.23.74 1.13 1.01 1.72.53l5.14-4.2c.54-.44 1.3-.47 1.87-.06l9.27 6.75c.63.46 1.54.11 1.7-.66l6.79-32.74a1.09 1.09 0 0 0-1.46-1.24l-37.82 14.64a1.1 1.1 0 0 0 0 2.03z"/><path id="f" d="M642.93 8242.6a16.56 16.56 0 0 1-4.71 1.27c1.7-1 2.99-2.6 3.6-4.48-1.58.93-3.34 1.6-5.2 1.97a8.23 8.23 0 0 0-6-2.56 8.15 8.15 0 0 0-8 9.94 23.4 23.4 0 0 1-16.9-8.46 8.06 8.06 0 0 0 2.54 10.8 8.3 8.3 0 0 1-3.72-1.01v.1c0 3.92 2.83 7.2 6.58 7.94a8.42 8.42 0 0 1-3.7.13 8.2 8.2 0 0 0 7.66 5.63 16.6 16.6 0 0 1-12.15 3.34 23.42 23.42 0 0 0 12.58 3.65c15.1 0 23.34-12.34 23.34-23.04l-.02-1.04c1.6-1.14 3-2.56 4.1-4.19z"/><path id="g" d="M507.27 8233.93c-7.5 0-13.61 5.35-13.61 11.92 0 2.96 1.23 5.77 3.47 7.96l-1.44 3.74a.64.64 0 0 0 .18.7c.2.19.52.23.76.1l4-2.09c2.02 1 4.31 1.52 6.64 1.52 7.51 0 13.62-5.35 13.62-11.93 0-6.57-6.11-11.92-13.62-11.92z"/><path id="h" d="M495.63 8245.96c0-6.35 5.5-11.55 12.48-12-.32-.02-.65-.03-.98-.03-7.43 0-13.47 5.35-13.47 11.92 0 2.96 1.21 5.77 3.43 7.96l-1.42 3.74a.64.64 0 0 0 .18.7c.2.19.5.23.75.1l3.95-2.09c1.8.9 3.83 1.4 5.9 1.5-6.17-1.1-10.82-5.96-10.82-11.8z"/><path id="i" d="M510.81 8242.93a2.71 2.71 0 0 0-2.67 2.74c0 1.52 1.2 2.75 2.67 2.75a2.71 2.71 0 0 0 2.68-2.75c0-1.5-1.2-2.74-2.68-2.74z"/><path id="j" d="M505.52 8243.92a2.64 2.64 0 0 0-2.98-.82 2.75 2.75 0 0 0-1.72 3 2.72 2.72 0 0 0 2.64 2.32c.93 0 1.81-.5 2.3-1.33a2.8 2.8 0 0 0-.24-3.17z"/><path id="k" d="M533.66 8257.94c0-6.12-5.73-11.1-12.78-11.1-7.04 0-12.77 4.98-12.77 11.1 0 6.13 5.73 11.1 12.77 11.1 1.43 0 2.83-.2 4.16-.6l4.24 2.47c.5.3 1.12-.15 1-.7l-.9-3.97a10.5 10.5 0 0 0 4.28-8.3z"/><path id="l" d="M517.2 8255.19a2.71 2.71 0 0 0-2.66 2.74c0 1.52 1.2 2.75 2.67 2.75a2.71 2.71 0 0 0 2.67-2.75c0-1.5-1.2-2.74-2.67-2.74z"/><path id="m" d="M525.22 8255.19a2.71 2.71 0 0 0-2.67 2.74c0 1.52 1.2 2.75 2.67 2.75a2.71 2.71 0 0 0 2.67-2.75c0-1.5-1.2-2.74-2.67-2.74z"/></defs><use fill="#fff" fill-opacity="0" stroke="#1d9df2" stroke-miterlimit="50" stroke-width="2" xlink:href="#a" transform="translate(-440 -8231)"/><use fill="#1d9df2" xlink:href="#b" transform="translate(-440 -8231)"/><use fill="#1d9df2" xlink:href="#c" transform="translate(-440 -8231)"/><use fill="#fff" fill-opacity="0" stroke="#1d9df2" stroke-miterlimit="50" stroke-width="2" xlink:href="#d" transform="translate(-440 -8231)"/><use fill="#fff" fill-opacity="0" stroke="#1d9df2" stroke-miterlimit="50" stroke-width="2" xlink:href="#e" transform="translate(-440 -8231)"/><g><use fill="#fff" fill-opacity="0" stroke="#1d9df2" stroke-miterlimit="50" stroke-width="2" xlink:href="#f" transform="translate(-440 -8231)"/></g><g><g transform="translate(-440 -8231)"><use fill="#1d9df2" xlink:href="#g"/><use fill="#fff" fill-opacity="0" stroke="#1d9df2" stroke-miterlimit="50" stroke-width="2" xlink:href="#g"/></g><use fill="#1d9df2" xlink:href="#h" transform="translate(-440 -8231)"/><use fill="#fff" xlink:href="#i" transform="translate(-440 -8231)"/><use fill="#fff" xlink:href="#j" transform="translate(-440 -8231)"/><use fill="#fff" fill-opacity="0" stroke="#1d9df2" stroke-miterlimit="50" stroke-width="2" xlink:href="#k" transform="translate(-440 -8231)"/><g><use fill="#1d9df2" xlink:href="#l" transform="translate(-440 -8231)"/><use fill="#1d9df2" xlink:href="#m" transform="translate(-440 -8231)"/></g></g></svg>