<svg width="502" height="44" viewBox="0 0 502 44" xmlns="http://www.w3.org/2000/svg"><title>sprite</title><g fill-rule="nonzero" fill="none"><path fill="none" d="M490.25 5.06l-9.17-2.21-3.58 10.91" fill-opacity="0" stroke="#1D9DF2" stroke-width="2"/><path d="M470.12 33.62s2.84 2.42 7.79 2.42c2.6 0 4.96-.8 7.07-2.42" fill="none" stroke-linecap="round" fill-opacity="0" stroke="#1D9DF2" stroke-width="2"/><path d="M462.5 18.24c-.12 0-3.9-3.76-7.5.28-1.74 3-1.22 5.3 1.56 6.9" fill="none" fill-opacity="0" stroke="#1D9DF2" stroke-width="2"/><path d="M456.76 27.43c0-7.48 9.35-13.54 20.88-13.54 11.52 0 20.87 6.06 20.87 13.54 0 7.49-9.35 13.55-20.88 13.55-11.52 0-20.87-6.06-20.87-13.54v-.01zM490.49 5.6a3.6 3.6 0 1 1 7.19-.38 3.6 3.6 0 0 1-7.19.38z" fill="none" fill-opacity="0" stroke="#1D9DF2" stroke-width="2"/><path d="M466.72 24.95a3.32 3.32 0 1 1 6.64 0 3.32 3.32 0 0 1-6.64 0zM481.37 24.95a3.32 3.32 0 1 1 6.64 0 3.32 3.32 0 0 1-6.64 0z" fill="#1D9DF2"/><path d="M492.43 18.24c.11 0 3.88-3.76 7.48.28 1.75 3 1.23 5.3-1.55 6.9" fill="none" fill-opacity="0" stroke="#1D9DF2" stroke-width="2"/><path d="M418.55 21.73h5.86c1.49 0 2.68.31 3.5.95.81.64 1.18 1.6 1.18 2.79 0 .8-.15 1.43-.37 1.9-.3.48-.6.88-1.04 1.2-.45.32-.9.56-1.49.64-.52.07-1.11.15-1.78.15h-5.86v-7.63zm0-10.18h6.26c2.85 0 4.28 1.33 4.28 4 0 .52-.08.97-.24 1.41-.15.45-.47.8-.79 1.16-.4.35-.8.62-1.35.8-.55.17-1.19.26-1.9.26h-6.26v-7.63zm1.8-4v2.61H416v20.95h4.35v2.62h1.74v-2.62h1.74v2.62h1.74V31.1c2-.06 6.8-.62 6.8-5.93 0-3.66-3.14-4.88-4.45-5.06v-.08c.61-.18 3.66-1.14 3.66-4.72 0-4.46-4.22-5.05-6-5.13V7.55h-1.75v2.61h-1.74V7.55h-1.74zm3.83-4.73a18.35 18.35 0 0 1 18.37 18.36 18.35 18.35 0 0 1-18.37 18.37 18.35 18.35 0 0 1-18.36-18.37 18.35 18.35 0 0 1 18.36-18.36zM424 1c-11.04 0-20 8.96-20 20s8.96 20 20 20 20-8.96 20-20-8.96-20-20-20zM363.02 29.63c.77.77 1.7 1.48 3.1 1.48.7 0 1.57.03 2.39-.04-.1.3-.18.6-.25.91h-2.49c-1.1 0-1.87-.39-2.23-1.08v-.01l-.01-.01c-.15-.27-.34-.8-.51-1.25zm10.1-1.18h2.31c.67 0 1.39.56 1.96 1.51.57.96.92 2.25.92 3.2v4.97c-2.7.686-5.53.686-8.23 0v-4.97c0-.93.38-2.21 1-3.18.6-.96 1.38-1.53 2.04-1.53zm12.07-5.1c3.13.03 5.45.33 6.85.58a18.25 18.25 0 0 1-12.02 13.93v-4.5a8 8 0 0 0-2.1-5.2c2.04-.4 3.71-1.11 5.01-2.1a7.82 7.82 0 0 0 2.26-2.7v-.01zm-22.2 0a7.83 7.83 0 0 0 2.24 2.71 12.02 12.02 0 0 0 5.24 2.14c-.28.28-.53.6-.76.92l-.05-.04s-.44.2-1.1.27c-.65.06-1.46.04-2.18.04-1.07 0-1.54-.5-2.3-1.41-.41-.56-.92-1.01-1.42-1.35-.5-.35-.93-.6-1.47-.69l-.07-.01h-.07c-.41 0-.8.03-1.18.45-.18.2-.3.59-.22.92.08.32.29.52.47.65 1.2.78 1.41 2.34 2.16 3.73.7 1.38 2.2 2.03 3.75 2.03h2.27v4.15a18.22 18.22 0 0 1-11.95-13.92 39.8 39.8 0 0 1 6.63-.59h.01zm25.36-1.56c1.97-.03 3.43.07 4.47.16-.02.48-.07.94-.13 1.4-1.45-.27-3.8-.58-6.93-.63a9 9 0 0 0 .25-.84c.83-.05 1.63-.08 2.34-.1v.01zm-28.05 0c.63 0 1.36.04 2.08.08.07.29.15.57.25.85-2.96.06-5.18.37-6.54.63-.06-.46-.1-.93-.13-1.4 1-.1 2.43-.19 4.34-.16zm4.8-11.38c1.75.17 3.06.96 3.67 1.5l.4.36.5-.2c1.37-.57 2.9-.9 4.6-.9 1.72 0 3.24.33 4.5.89l.52.22.4-.37a6.67 6.67 0 0 1 3.68-1.5c.23.39.44.94.39 1.78-.06 1-.33 2.09-.53 2.73l-.13.43.26.35a5.83 5.83 0 0 1 1.22 3.8c0 2.23-.78 3.97-2.44 5.26-1.65 1.3-4.27 2.12-7.95 2.12-3.68 0-6.3-.82-7.95-2.12a6.23 6.23 0 0 1-2.44-5.21c0-1.28.46-2.69 1.3-3.85l.26-.35-.12-.41c-.2-.69-.45-1.8-.5-2.8-.04-.84.16-1.37.36-1.73zm9.3-7.45a18.33 18.33 0 0 1 18.42 18.25v.18c-.56-.05-1.21-.1-2.04-.13a52.6 52.6 0 0 0-4.3.06c.06-.43.1-.86.1-1.3a7.38 7.38 0 0 0-1.36-4.5c.22-.74.47-1.69.54-2.76.07-1.22-.04-2.57-1.03-3.48l-.25-.24h-.35c-2.35 0-3.96.98-4.95 1.75a13.3 13.3 0 0 0-4.79-.88c-1.77 0-3.39.34-4.87.89a7.82 7.82 0 0 0-4.96-1.76h-.34l-.26.24c-.96.88-1.05 2.2-.99 3.41.05 1.07.3 2.05.5 2.82a8.19 8.19 0 0 0-1.45 4.48c0 .44.04.88.1 1.3-1.58-.07-3-.08-4.12-.04-.82.03-1.47.08-2.03.13v-.17a18.33 18.33 0 0 1 18.42-18.25h.01zM374 1c-11.03 0-20 8.97-20 20s8.97 20 20 20 20-8.97 20-20-8.97-20-20-20z" fill="#1D9DF2"/><g fill="#1D9DF2"><path d="M324 12.72a8.14 8.14 0 0 1 8.18 8.12c0 4.49-3.65 8.11-8.18 8.11a8.14 8.14 0 0 1-8.18-8.11c0-4.5 3.65-8.12 8.18-8.12zm0-1.8c-5.51 0-10 4.45-10 9.92.028 5.498 4.501 9.937 10 9.92 5.51 0 10-4.46 10-9.92-.028-5.498-4.501-9.937-10-9.92zm10.9-2.7c-1 0-1.8.8-1.8 1.8s.8 1.8 1.8 1.8c1.01 0 1.83-.8 1.83-1.8s-.82-1.8-1.82-1.8h-.01zM315.82 2.8h16.36c5.53 0 10 4.43 10 9.92v16.23a9.95 9.95 0 0 1-10 9.92h-16.36c-5.53 0-10-4.43-10-9.92V12.72a9.95 9.95 0 0 1 10-9.92zm0-1.8C309.322.978 304.033 6.222 304 12.72v16.23c0 6.47 5.3 11.72 11.82 11.72h16.36c6.52 0 11.82-5.25 11.82-11.72V12.72C344 6.26 338.7 1 332.18 1h-16.36z"/></g><g><path d="M253 21.83c.05-10.998 9.002-19.874 20-19.83 11.05 0 20 8.88 20 19.84-.05 10.998-9.002 19.874-20 19.83-11.05 0-20-8.88-20-19.84z" fill="none" fill-opacity="0" stroke="#1D9DF2" stroke-width="2"/><path d="M277.77 22.39h-3.52v12.93h-5.32V22.39h-2.53v-4.54h2.53v-2.94c0-2.1 1-5.4 5.37-5.4l3.94.02v4.4h-2.86c-.47 0-1.13.24-1.13 1.25v2.67h3.98l-.46 4.54z" fill="#1D9DF2"/></g><g fill="#FFF" fill-opacity="0" stroke="#1D9DF2" stroke-width="2"><path d="M215.92 25.36l18-11.13c.33-.2.67.24.39.5l-14.87 13.86a3.1 3.1 0 0 0-.95 1.84l-.51 3.77c-.07.5-.77.55-.9.06l-1.96-6.86c-.22-.78.1-1.62.8-2.04zm-12.21-1.62l9.21 3.45 3.57 11.5c.23.74 1.13 1.01 1.72.53l5.14-4.2c.54-.44 1.3-.47 1.87-.06l9.27 6.75c.63.46 1.54.11 1.7-.66l6.79-32.74a1.09 1.09 0 0 0-1.46-1.24L203.7 21.71a1.1 1.1 0 0 0 0 2.03h.01z" fill="none"/></g><g fill="#FFF" fill-opacity="0" stroke="#1D9DF2" stroke-width="2"><path d="M189.22 14.87c1.7-1 2.99-2.6 3.6-4.48-1.58.93-3.34 1.6-5.2 1.97a8.23 8.23 0 0 0-6-2.56 8.15 8.15 0 0 0-8 9.94 23.4 23.4 0 0 1-16.9-8.46 8.06 8.06 0 0 0 2.54 10.8 8.3 8.3 0 0 1-3.72-1.01v.1c0 3.92 2.83 7.2 6.58 7.94a8.42 8.42 0 0 1-3.7.13 8.2 8.2 0 0 0 7.66 5.63 16.6 16.6 0 0 1-12.15 3.34 23.42 23.42 0 0 0 12.58 3.65c15.1 0 23.34-12.34 23.34-23.04l-.02-1.04c1.6-1.14 3-2.56 4.1-4.19a16.256 16.256 0 0 1-4.71 1.28z" fill="none"/></g><g fill="#1D9DF2"><path d="M142.06 38.67c0 .79-.46 1.24-1.14 1.24-.31 0-.66-.09-1.03-.28l-1.69-.87-7.53-3.87 11.39-19.05v22.83zm-24.26-10.4V15.91l8.38 16.67-7.54-3.88-.84-.43zm9.88-20.59l.68-1.14a1.34 1.34 0 0 1 1.72-.5l11.82 6.07h.02l.01.03c.06.05.09.13.05.2L130.2 32l-1.2 2-7.8-15.5 6.48-10.82zm-11.75 30.99c0 .84-.44 1.34-1.07 1.34-.23 0-.47-.06-.74-.2l-10.17-5.22a2.23 2.23 0 0 1-1.08-1.81V7.14c0-.68.35-1.08.86-1.08.18 0 .38.05.58.16l.36.18 11.21 5.77c.02 0 .04.03.05.04v26.46zm27.54-27.62l-.15-.18-.15-.15a1.87 1.87 0 0 0-.42-.3l-11.16-5.74-.67-.34a2.99 2.99 0 0 0-1.41-.34c-1.12 0-2.17.6-2.75 1.55l-1.64 2.76-4.92 8.21-2.65-5.26c-.2-.34-.49-.61-.82-.79l-11.21-5.76h-.01l-.35-.18a3.1 3.1 0 0 0-1.43-.36c-1.56 0-2.73 1.27-2.73 2.97v25.64c0 1.4.89 2.87 2.11 3.5l10.17 5.22c.52.27 1.05.4 1.58.4 1.7 0 2.94-1.35 2.94-3.23v-8.28l20.53 10.57v-.01l.72.37c.62.32 1.25.48 1.86.48 1.75 0 3.02-1.32 3.02-3.13v-26.3c0-.5-.18-.94-.46-1.32z"/></g><g><path d="M64.61 5C57.11 5 51 10.35 51 16.92c0 2.96 1.23 5.77 3.47 7.96l-1.44 3.74a.64.64 0 0 0 .18.7c.2.19.52.23.76.1l4-2.09c2.02 1 4.31 1.52 6.64 1.52 7.51 0 13.62-5.35 13.62-11.93C78.23 10.35 72.12 5 64.61 5z" fill="#1D9DF2"/><path d="M64.61 5C57.11 5 51 10.35 51 16.92c0 2.96 1.23 5.77 3.47 7.96l-1.44 3.74a.64.64 0 0 0 .18.7c.2.19.52.23.76.1l4-2.09c2.02 1 4.31 1.52 6.64 1.52 7.51 0 13.62-5.35 13.62-11.93C78.23 10.35 72.12 5 64.61 5z" fill="none" fill-opacity="0" stroke="#1D9DF2" stroke-width="2"/><path d="M52.97 17.03c0-6.35 5.5-11.55 12.48-12-.32-.02-.65-.03-.98-.03C57.04 5 51 10.35 51 16.92c0 2.96 1.21 5.77 3.43 7.96l-1.42 3.74a.64.64 0 0 0 .18.7c.2.19.5.23.75.1l3.95-2.09c1.8.9 3.83 1.4 5.9 1.5-6.17-1.1-10.82-5.96-10.82-11.8z" fill="#1D9DF2"/><g fill="#FFF"><path d="M68.15 14.01a2.71 2.71 0 0 0-2.67 2.74c0 1.52 1.2 2.75 2.67 2.75a2.71 2.71 0 0 0 2.68-2.75c0-1.5-1.2-2.74-2.68-2.74zM62.86 15a2.64 2.64 0 0 0-2.98-.82 2.75 2.75 0 0 0-1.72 3 2.72 2.72 0 0 0 2.64 2.32c.93 0 1.81-.5 2.3-1.33a2.8 2.8 0 0 0-.24-3.17z"/></g><path d="M91 29.01c0-6.12-5.73-11.1-12.78-11.1-7.04 0-12.77 4.98-12.77 11.1 0 6.13 5.73 11.1 12.77 11.1 1.43 0 2.83-.2 4.16-.6l4.24 2.47c.5.3 1.12-.15 1-.7l-.9-3.97a10.5 10.5 0 0 0 4.28-8.3z" fill="none" fill-opacity="0" stroke="#1D9DF2" stroke-width="2"/><g fill="#1D9DF2"><path d="M74.55 26.26A2.71 2.71 0 0 0 71.88 29c0 1.52 1.2 2.75 2.67 2.75A2.71 2.71 0 0 0 77.22 29c0-1.5-1.2-2.74-2.67-2.74zM82.56 26.26A2.71 2.71 0 0 0 79.89 29c0 1.52 1.2 2.75 2.67 2.75A2.71 2.71 0 0 0 85.23 29c0-1.5-1.2-2.74-2.67-2.74z"/></g></g><g fill="#FFF" fill-opacity="0" stroke="#1D9DF2" stroke-width="2"><path d="M18.33 28.99l-4.32-9.66 9.66-4.32 4.32 9.66-9.66 4.32zm22.36-6.17a3.5 3.5 0 0 0-4.62-1.77l-1.69.76-4.32-9.66 1.69-.75A3.505 3.505 0 0 0 28.89 5l-1.69.76-.75-1.69a3.505 3.505 0 1 0-6.4 2.86l.76 1.69-9.66 4.32-.75-1.69A3.505 3.505 0 1 0 4 14.11l.76 1.68-1.69.76a3.505 3.505 0 0 0 2.86 6.4l1.69-.76 4.32 9.66-1.69.75a3.505 3.505 0 0 0 2.86 6.4l1.69-.76.75 1.69c.79 1.76 2.86 2.55 4.63 1.76a3.5 3.5 0 0 0 1.76-4.62l-.75-1.69 9.66-4.32.75 1.68a3.503 3.503 0 1 0 6.4-2.85l-.76-1.69 1.68-.75a3.5 3.5 0 0 0 1.77-4.63z" fill="none"/></g></g></svg>