<?xml version="1.0" encoding="UTF-8"?>
<svg width="502px" height="44px" viewBox="0 0 502 44" version="1.1" xmlns="http://www.w3.org/2000/svg" xmlns:xlink="http://www.w3.org/1999/xlink">
    <!-- Generator: Sketch 49 (51002) - http://www.bohemiancoding.com/sketch -->
    <title>sprite</title>
    <desc>Created with Sketch.</desc>
    <defs></defs>
    <g id="Page-1" stroke="none" stroke-width="1" fill="none" fill-rule="evenodd">
        <g id="sprite" transform="translate(0.000000, 1.000000)" fill-rule="nonzero">
            <g id="reddit" transform="translate(453.000000, 0.000000)">
                <g id="zl77q-link" transform="translate(24.000000, 1.000000)" fill="#FFFFFF" fill-opacity="0" stroke="#1D9DF2" stroke-width="2">
                    <polyline id="zl77q" points="13.25 3.06 4.08 0.85 0.5 11.76"></polyline>
                </g>
                <g id="zl77r-link" stroke-linecap="round" transform="translate(17.000000, 32.000000)" fill="#FFFFFF" fill-opacity="0" stroke="#1D9DF2" stroke-width="2">
                    <path d="M0.12,0.62 C0.12,0.62 2.96,3.04 7.91,3.04 C10.51,3.04 12.87,2.24 14.98,0.62" id="zl77r"></path>
                </g>
                <g id="zl77s-link" transform="translate(0.000000, 15.000000)" fill="#FFFFFF" fill-opacity="0" stroke="#1D9DF2" stroke-width="2">
                    <path d="M9.5,2.24 C9.38,2.24 5.6,-1.52 2,2.52 C0.26,5.52 0.78,7.82 3.56,9.42" id="zl77s"></path>
                </g>
                <g id="zl77t-link" transform="translate(3.000000, 12.000000)" fill="#FFFFFF" fill-opacity="0" stroke="#1D9DF2" stroke-width="2">
                    <path d="M0.76,14.43 C0.76,6.95 10.11,0.89 21.64,0.89 C33.16,0.89 42.51,6.95 42.51,14.43 C42.51,21.92 33.16,27.98 21.63,27.98 C10.11,27.98 0.76,21.92 0.76,14.44 L0.76,14.43 Z" id="zl77t"></path>
                </g>
                <g id="zl77u-link" transform="translate(37.000000, 0.000000)" fill="#FFFFFF" fill-opacity="0" stroke="#1D9DF2" stroke-width="2">
                    <path d="M0.49,4.6 C0.419850262,3.27038917 1.08929822,2.01062992 2.23050206,1.32474381 C3.3717059,0.638857706 4.7982941,0.638857706 5.93949794,1.32474381 C7.08070178,2.01062992 7.75014974,3.27038917 7.68,4.6 C7.57913109,6.51185875 5.9995178,8.01032923 4.085,8.01032923 C2.1704822,8.01032923 0.590868906,6.51185875 0.49,4.6 Z" id="zl77u"></path>
                </g>
                <g id="zl77v-link" transform="translate(13.000000, 20.000000)" fill="#1D9DF2">
                    <path d="M0.72,3.95 C0.72,2.11641463 2.20641463,0.63 4.04,0.63 C5.87358537,0.63 7.36,2.11641463 7.36,3.95 C7.36,5.78358537 5.87358537,7.27 4.04,7.27 C2.20641463,7.27 0.72,5.78358537 0.72,3.95 Z" id="zl77v"></path>
                </g>
                <g id="zl77w-link" transform="translate(28.000000, 20.000000)" fill="#1D9DF2">
                    <path d="M0.37,3.95 C0.37,2.11641463 1.85641463,0.63 3.69,0.63 C5.52358537,0.63 7.01,2.11641463 7.01,3.95 C7.01,5.78358537 5.52358537,7.27 3.69,7.27 C1.85641463,7.27 0.37,5.78358537 0.37,3.95 Z" id="zl77w"></path>
                </g>
                <g id="zl77x-link" transform="translate(39.000000, 15.000000)" fill="#FFFFFF" fill-opacity="0" stroke="#1D9DF2" stroke-width="2">
                    <path d="M0.43,2.24 C0.54,2.24 4.31,-1.52 7.91,2.52 C9.66,5.52 9.14,7.82 6.36,9.42" id="zl77x"></path>
                </g>
            </g>
            <g id="bitcointalk" transform="translate(404.000000, 0.000000)" fill="#1D9DF2">
                <g id="zl77n-link">
                    <path d="M14.55,20.73 L20.41,20.73 C21.9,20.73 23.09,21.04 23.91,21.68 C24.72,22.32 25.09,23.28 25.09,24.47 C25.09,25.27 24.94,25.9 24.72,26.37 C24.42,26.85 24.12,27.25 23.68,27.57 C23.23,27.89 22.78,28.13 22.19,28.21 C21.67,28.28 21.08,28.36 20.41,28.36 L14.55,28.36 L14.55,20.73 Z M14.55,10.55 L20.81,10.55 C23.66,10.55 25.09,11.88 25.09,14.55 C25.09,15.07 25.01,15.52 24.85,15.96 C24.7,16.41 24.38,16.76 24.06,17.12 C23.66,17.47 23.26,17.74 22.71,17.92 C22.16,18.09 21.52,18.18 20.81,18.18 L14.55,18.18 L14.55,10.55 Z M16.35,6.55 L16.35,9.16 L12,9.16 L12,30.11 L16.35,30.11 L16.35,32.73 L18.09,32.73 L18.09,30.11 L19.83,30.11 L19.83,32.73 L21.57,32.73 L21.57,30.1 C23.57,30.04 28.37,29.48 28.37,24.17 C28.37,20.51 25.23,19.29 23.92,19.11 L23.92,19.03 C24.53,18.85 27.58,17.89 27.58,14.31 C27.58,9.85 23.36,9.26 21.58,9.18 L21.58,6.55 L19.83,6.55 L19.83,9.16 L18.09,9.16 L18.09,6.55 L16.35,6.55 Z M20.18,1.82 C25.0519201,1.81468928 29.7259715,3.74701576 33.171879,7.1910475 C36.6177866,10.6350792 38.5526579,15.3080777 38.55,20.18 C38.5553148,25.0536543 36.6216164,29.7292243 33.1754203,33.1754203 C29.7292243,36.6216164 25.0536543,38.5553148 20.18,38.55 C15.3080777,38.5526579 10.6350792,36.6177866 7.1910475,33.171879 C3.74701576,29.7259715 1.81468928,25.0519201 1.82,20.18 C1.81734522,15.3098119 3.75084428,10.6383314 7.19458784,7.19458784 C10.6383314,3.75084428 15.3098119,1.81734522 20.18,1.82 Z M20,0 C8.96,0 0,8.96 0,20 C0,31.04 8.96,40 20,40 C31.04,40 40,31.04 40,20 C40,8.96 31.04,0 20,0 Z" id="zl77n"></path>
                </g>
            </g>
            <g id="github" transform="translate(354.000000, 0.000000)" fill="#1D9DF2">
                <g id="zl77o-link">
                    <path d="M9.02,28.63 C9.79,29.4 10.72,30.11 12.12,30.11 C12.82,30.11 13.69,30.14 14.51,30.07 C14.41,30.37 14.33,30.67 14.26,30.98 L11.77,30.98 C10.67,30.98 9.9,30.59 9.54,29.9 L9.54,29.89 L9.53,29.88 C9.38,29.61 9.19,29.08 9.02,28.63 Z M19.12,27.45 L21.43,27.45 C22.1,27.45 22.82,28.01 23.39,28.96 C23.96,29.92 24.31,31.21 24.31,32.16 L24.31,37.13 C21.6095164,37.8157143 18.7804836,37.8157143 16.08,37.13 L16.08,32.16 C16.08,31.23 16.46,29.95 17.08,28.98 C17.68,28.02 18.46,27.45 19.12,27.45 Z M31.19,22.35 C34.32,22.38 36.64,22.68 38.04,22.93 C36.8383312,29.4010832 32.245408,34.7238303 26.02,36.86 L26.02,32.36 C25.9703689,30.4300587 25.2245077,28.5831642 23.92,27.16 C25.96,26.76 27.63,26.05 28.93,25.06 C29.8787891,24.3435048 30.6517127,23.4201004 31.19,22.36 L31.19,22.35 Z M8.99,22.35 C9.52157723,23.4114595 10.2875525,24.3381528 11.23,25.06 C12.7814183,26.1802737 14.5778887,26.9139467 16.47,27.2 C16.19,27.48 15.94,27.8 15.71,28.12 L15.66,28.08 C15.66,28.08 15.22,28.28 14.56,28.35 C13.91,28.41 13.1,28.39 12.38,28.39 C11.31,28.39 10.84,27.89 10.08,26.98 C9.67,26.42 9.16,25.97 8.66,25.63 C8.16,25.28 7.73,25.03 7.19,24.94 L7.12,24.93 L7.05,24.93 C6.64,24.93 6.25,24.96 5.87,25.38 C5.69,25.58 5.57,25.97 5.65,26.3 C5.73,26.62 5.94,26.82 6.12,26.95 C7.32,27.73 7.53,29.29 8.28,30.68 C8.98,32.06 10.48,32.71 12.03,32.71 L14.3,32.71 L14.3,36.86 C8.100815,34.7101913 3.53632738,29.3932317 2.35,22.94 C4.5396489,22.5585526 6.75740264,22.3611959 8.98,22.35 L8.99,22.35 Z M34.35,20.79 C36.32,20.76 37.78,20.86 38.82,20.95 C38.8,21.43 38.75,21.89 38.69,22.35 C37.24,22.08 34.89,21.77 31.76,21.72 C31.8569251,21.444226 31.9403573,21.1638937 32.01,20.88 C32.84,20.83 33.64,20.8 34.35,20.78 L34.35,20.79 Z M6.3,20.79 C6.93,20.79 7.66,20.83 8.38,20.87 C8.45,21.16 8.53,21.44 8.63,21.72 C5.67,21.78 3.45,22.09 2.09,22.35 C2.03,21.89 1.99,21.42 1.96,20.95 C2.96,20.85 4.39,20.76 6.3,20.79 Z M11.1,9.41 C12.85,9.58 14.16,10.37 14.77,10.91 L15.17,11.27 L15.67,11.07 C17.04,10.5 18.57,10.17 20.27,10.17 C21.99,10.17 23.51,10.5 24.77,11.06 L25.29,11.28 L25.69,10.91 C26.7357639,10.047704 28.0194179,9.52447542 29.37,9.41 C29.6,9.8 29.81,10.35 29.76,11.19 C29.7,12.19 29.43,13.28 29.23,13.92 L29.1,14.35 L29.36,14.7 C30.2010649,15.7836889 30.6330607,17.1292497 30.58,18.5 C30.58,20.73 29.8,22.47 28.14,23.76 C26.49,25.06 23.87,25.88 20.19,25.88 C16.51,25.88 13.89,25.06 12.24,23.76 C10.625496,22.5253242 9.71477467,20.5807103 9.8,18.55 C9.8,17.27 10.26,15.86 11.1,14.7 L11.36,14.35 L11.24,13.94 C11.04,13.25 10.79,12.14 10.74,11.14 C10.7,10.3 10.9,9.77 11.1,9.41 Z M20.4,1.96 C25.2631606,1.93607561 29.9364941,3.84572663 33.3912146,7.26856314 C36.845935,10.6913996 38.7988337,15.3468266 38.82,20.21 L38.82,20.39 C38.26,20.34 37.61,20.29 36.78,20.26 C35.346448,20.2213746 33.9119161,20.2413913 32.48,20.32 C32.54,19.89 32.58,19.46 32.58,19.02 C32.6293044,17.4118558 32.151732,15.8316531 31.22,14.52 C31.44,13.78 31.69,12.83 31.76,11.76 C31.83,10.54 31.72,9.19 30.73,8.28 L30.48,8.04 L30.13,8.04 C27.78,8.04 26.17,9.02 25.18,9.79 C23.651107,9.20434329 22.0272208,8.90600929 20.39,8.91 C18.62,8.91 17,9.25 15.52,9.8 C14.1196741,8.65788179 12.3670226,8.03597318 10.56,8.04 L10.22,8.04 L9.96,8.28 C9,9.16 8.91,10.48 8.97,11.69 C9.02,12.76 9.27,13.74 9.47,14.51 C8.55853851,15.8291949 8.05436315,17.3869229 8.02,18.99 C8.02,19.43 8.06,19.87 8.12,20.29 C6.54,20.22 5.12,20.21 4,20.25 C3.18,20.28 2.53,20.33 1.97,20.38 L1.97,20.21 C1.99116633,15.3468266 3.94406495,10.6913996 7.39878541,7.26856314 C10.8535059,3.84572663 15.5268394,1.93607561 20.39,1.96 L20.4,1.96 Z M20,0 C8.97,0 0,8.97 0,20 C0,31.03 8.97,40 20,40 C31.03,40 40,31.03 40,20 C40,8.97 31.03,0 20,0 Z" id="zl77o"></path>
                </g>
            </g>
            <g id="instagram" transform="translate(304.000000, 0.000000)" fill="#1D9DF2">
                <g id="zl77p-link">
                    <path d="M20,11.72 C22.1623228,11.7093677 24.240018,12.5595313 25.7746475,14.0829044 C27.309277,15.6062774 28.1747132,17.6776575 28.18,19.84 C28.18,24.33 24.53,27.95 20,27.95 C17.8394047,27.9606319 15.7632234,27.1118389 14.2288823,25.5906279 C12.6945413,24.0694169 11.8279368,22.0006069 11.82,19.84 C11.82,15.34 15.47,11.72 20,11.72 Z M20,9.92 C14.49,9.92 10,14.37 10,19.84 C10.0275503,25.3384676 14.5014885,29.7766143 20,29.76 C25.51,29.76 30,25.3 30,19.84 C29.9724497,14.3415324 25.4985115,9.90338573 20,9.92 Z M30.9,7.22 C29.9,7.22 29.1,8.02 29.1,9.02 C29.1,10.02 29.9,10.82 30.9,10.82 C31.91,10.82 32.73,10.02 32.73,9.02 C32.73,8.02 31.91,7.22 30.91,7.22 L30.9,7.22 Z M11.82,1.8 L28.18,1.8 C33.71,1.8 38.18,6.23 38.18,11.72 L38.18,27.95 C38.1720664,30.5923872 37.113392,33.1230978 35.2374449,34.9840372 C33.3614979,36.8449767 30.8223657,37.8832903 28.18,37.87 L11.82,37.87 C6.29,37.87 1.82,33.44 1.82,27.95 L1.82,11.72 C1.82793361,9.07761283 2.88660804,6.54690221 4.76255506,4.68596277 C6.63850209,2.82502332 9.17763435,1.7867097 11.82,1.8 Z M11.82,-7.85051955e-13 C5.32184635,-0.0221492641 0.0330600008,5.2218927 -1.13686838e-13,11.72 L-1.13686838e-13,27.95 C-1.13686838e-13,34.42 5.3,39.67 11.82,39.67 L28.18,39.67 C34.7,39.67 40,34.42 40,27.95 L40,11.72 C40,5.26 34.7,1.03393745e-12 28.18,1.03393745e-12 L11.82,-7.85051955e-13 Z" id="zl77p"></path>
                </g>
            </g>
            <g id="facebook" transform="translate(253.000000, 1.000000)">
                <g id="zl77a-link" fill="#FFFFFF" fill-opacity="0" stroke="#1D9DF2" stroke-width="2">
                    <path d="M0,19.83 C0.0495994861,8.83236255 9.00233984,-0.0442795144 20,5.43560693e-13 C31.05,5.43560693e-13 40,8.88 40,19.84 C39.9504005,30.8376374 30.9976602,39.7142795 20,39.67 C8.95,39.67 0,30.79 0,19.83 Z" id="zl77a"></path>
                </g>
                <g id="zl77b-link" transform="translate(13.000000, 7.000000)" fill="#1D9DF2">
                    <path d="M11.77,13.39 L8.25,13.39 L8.25,26.32 L2.93,26.32 L2.93,13.39 L0.4,13.39 L0.4,8.85 L2.93,8.85 L2.93,5.91 C2.93,3.81 3.93,0.51 8.3,0.51 L12.24,0.53 L12.24,4.93 L9.38,4.93 C8.91,4.93 8.25,5.17 8.25,6.18 L8.25,8.85 L12.23,8.85 L11.77,13.39 Z" id="zl77b"></path>
                </g>
            </g>
            <g id="telegram" transform="translate(203.000000, 5.000000)" fill="#FFFFFF" fill-opacity="0" stroke="#1D9DF2" stroke-width="2">
                <g id="zl77e-link">
                    <path d="M12.92,19.36 L30.92,8.23 C31.25,8.03 31.59,8.47 31.31,8.73 L16.44,22.59 C15.9217881,23.0763104 15.5863992,23.7259058 15.49,24.43 L14.98,28.2 C14.91,28.7 14.21,28.75 14.08,28.26 L12.12,21.4 C11.9,20.62 12.22,19.78 12.92,19.36 Z M0.71,17.74 L9.92,21.19 L13.49,32.69 C13.72,33.43 14.62,33.7 15.21,33.22 L20.35,29.02 C20.89,28.58 21.65,28.55 22.22,28.96 L31.49,35.71 C32.12,36.17 33.03,35.82 33.19,35.05 L39.98,2.31 C40.0618698,1.91896071 39.9232491,1.51446673 39.6187379,1.25584083 C39.3142268,0.99721492 38.8926274,0.925905486 38.52,1.07 L0.7,15.71 C0.290579021,15.8810286 0.0239988208,16.2812925 0.0239988208,16.725 C0.0239988208,17.1687075 0.290579021,17.5689714 0.7,17.74 L0.71,17.74 Z" id="zl77e"></path>
                </g>
            </g>
            <g id="twitter" transform="translate(153.000000, 8.000000)" fill="#FFFFFF" fill-opacity="0" stroke="#1D9DF2" stroke-width="2">
                <g id="zl77f-link">
                    <path d="M36.22,5.87 C37.92,4.87 39.21,3.27 39.82,1.39 C38.24,2.32 36.48,2.99 34.62,3.36 C33.0580045,1.71663226 30.8872441,0.79044116 28.62,0.8 C26.1354078,0.785051547 23.7797025,1.90430713 22.2218693,3.83991493 C20.6640361,5.77552274 20.0742494,8.31604078 20.62,10.74 C14.0477689,10.4215157 7.9133285,7.35066559 3.72,2.28 C1.56002366,5.9826582 2.67610819,10.7282145 6.26,13.08 C4.95792164,13.0399275 3.68355766,12.6939309 2.54,12.07 L2.54,12.17 C2.54,16.09 5.37,19.37 9.12,20.11 C7.911586,20.4273038 6.64770369,20.4717104 5.42,20.24 C6.51404936,23.5562762 9.58833869,25.8158388 13.08,25.87 C9.62638608,28.5369408 5.26156861,29.7368165 0.93,29.21 C4.69081106,31.5984373 9.05485565,32.8646347 13.51,32.86 C28.61,32.86 36.85,20.52 36.85,9.82 L36.83,8.78 C38.43,7.64 39.83,6.22 40.93,4.59 C39.4313029,5.25352405 37.8440857,5.6814998 36.22,5.87 Z" id="zl77f"></path>
                </g>
            </g>
            <g id="medium" transform="translate(101.000000, 3.000000)" fill="#1D9DF2">
                <g id="zl77c-link">
                    <path d="M41.06,34.67 C41.06,35.46 40.6,35.91 39.92,35.91 C39.61,35.91 39.26,35.82 38.89,35.63 L37.2,34.76 L29.67,30.89 L41.06,11.84 L41.06,34.67 Z M16.8,24.27 L16.8,11.91 L25.18,28.58 L17.64,24.7 L16.8,24.27 Z M26.68,3.68 L27.36,2.54 C27.7213576,1.9583347 28.4631301,1.74270315 29.08,2.04 L40.9,8.11 L40.92,8.11 L40.93,8.14 C40.99,8.19 41.02,8.27 40.98,8.34 L29.2,28 L28,30 L20.2,14.5 L26.68,3.68 Z M14.93,34.67 C14.93,35.51 14.49,36.01 13.86,36.01 C13.63,36.01 13.39,35.95 13.12,35.81 L2.95,30.59 C2.3095992,30.2056045 1.90416523,29.5261272 1.87,28.78 L1.87,3.14 C1.87,2.46 2.22,2.06 2.73,2.06 C2.91,2.06 3.11,2.11 3.31,2.22 L3.67,2.4 L14.88,8.17 C14.9,8.17 14.92,8.2 14.93,8.21 L14.93,34.67 Z M42.47,7.05 L42.32,6.87 L42.17,6.72 C42.0445399,6.60106711 41.9031938,6.50010567 41.75,6.42 L30.59,0.68 L29.92,0.34 C29.4850283,0.112660899 29.0007816,-0.004107814 28.51,-2.72653868e-12 C27.39,-2.72653868e-12 26.34,0.6 25.76,1.55 L24.12,4.31 L19.2,12.52 L16.55,7.26 C16.35,6.92 16.06,6.65 15.73,6.47 L4.52,0.71 L4.51,0.71 L4.16,0.53 C3.7192286,0.29672528 3.22868435,0.173231624 2.73,0.17 C1.17,0.17 0,1.44 0,3.14 L0,28.78 C0,30.18 0.89,31.65 2.11,32.28 L12.28,37.5 C12.8,37.77 13.33,37.9 13.86,37.9 C15.56,37.9 16.8,36.55 16.8,34.67 L16.8,26.39 L37.33,36.96 L37.33,36.95 L38.05,37.32 C38.67,37.64 39.3,37.8 39.91,37.8 C41.66,37.8 42.93,36.48 42.93,34.67 L42.93,8.37 C42.93,7.87 42.75,7.43 42.47,7.05 Z" id="zl77c"></path>
                </g>
            </g>
            <g id="wechat" transform="translate(51.000000, 4.000000)">
                <g id="Group">
                    <g id="zl77g-link" fill="#1D9DF2">
                        <path d="M13.61,0 C6.11,0 0,5.35 0,11.92 C0,14.88 1.23,17.69 3.47,19.88 L2.03,23.62 C1.94,23.86 2.01,24.15 2.21,24.32 C2.41,24.51 2.73,24.55 2.97,24.42 L6.97,22.33 C8.99,23.33 11.28,23.85 13.61,23.85 C21.12,23.85 27.23,18.5 27.23,11.92 C27.23,5.35 21.12,0 13.61,0 Z" id="zl77g"></path>
                    </g>
                    <g id="zl77g-link" fill="#FFFFFF" fill-opacity="0" stroke="#1D9DF2" stroke-width="2">
                        <path d="M13.61,0 C6.11,0 0,5.35 0,11.92 C0,14.88 1.23,17.69 3.47,19.88 L2.03,23.62 C1.94,23.86 2.01,24.15 2.21,24.32 C2.41,24.51 2.73,24.55 2.97,24.42 L6.97,22.33 C8.99,23.33 11.28,23.85 13.61,23.85 C21.12,23.85 27.23,18.5 27.23,11.92 C27.23,5.35 21.12,0 13.61,0 Z" id="zl77g"></path>
                    </g>
                </g>
                <g id="zl77h-link" fill="#1D9DF2">
                    <path d="M1.97,12.03 C1.97,5.68 7.47,0.48 14.45,0.03 C14.13,0.01 13.8,0 13.47,0 C6.04,0 0,5.35 0,11.92 C0,14.88 1.21,17.69 3.43,19.88 L2.01,23.62 C1.92,23.86 1.99,24.15 2.19,24.32 C2.39,24.51 2.69,24.55 2.94,24.42 L6.89,22.33 C8.69,23.23 10.72,23.73 12.79,23.83 C6.62,22.73 1.97,17.87 1.97,12.03 Z" id="zl77h"></path>
                </g>
                <g id="Group" transform="translate(7.000000, 9.000000)" fill="#FFFFFF">
                    <g id="zl77i-link" transform="translate(7.000000, 0.000000)">
                        <path d="M3.15,0.01 C1.65719336,0.0319431502 0.463311415,1.25712537 0.48,2.75 C0.48,4.27 1.68,5.5 3.15,5.5 C3.87050611,5.49210257 4.55820353,5.19759253 5.0610989,4.68156184 C5.56399427,4.16553114 5.8406787,3.47047026 5.83,2.75 C5.83,1.25 4.63,0.01 3.15,0.01 Z" id="zl77i"></path>
                    </g>
                    <g id="zl77j-link">
                        <path d="M4.86,1 C4.1471978,0.112996045 2.94624719,-0.217466875 1.88,0.18 C0.670990541,0.649317704 -0.0457961638,1.89952707 0.16,3.18 C0.355180002,4.49436847 1.47144772,5.47533101 2.8,5.5 C3.73,5.5 4.61,5 5.1,4.17 C5.6857714,3.16595625 5.59025981,1.90440731 4.86,1 Z" id="zl77j"></path>
                    </g>
                </g>
                <g id="zl77k-link" transform="translate(14.000000, 12.000000)" fill="#FFFFFF" fill-opacity="0" stroke="#1D9DF2" stroke-width="2">
                    <path d="M26,12.01 C26,5.89 20.27,0.91 13.22,0.91 C6.18,0.91 0.45,5.89 0.45,12.01 C0.45,18.14 6.18,23.11 13.22,23.11 C14.65,23.11 16.05,22.91 17.38,22.51 L21.62,24.98 C22.12,25.28 22.74,24.83 22.62,24.28 L21.72,20.31 C24.3661779,18.3649187 25.9498594,15.2937607 26,12.01 Z" id="zl77k"></path>
                </g>
                <g id="Group" transform="translate(20.000000, 21.000000)" fill="#1D9DF2">
                    <g id="zl77l-link">
                        <path d="M3.55,0.26 C2.05719336,0.28194315 0.863311415,1.50712537 0.88,3 C0.88,4.52 2.08,5.75 3.55,5.75 C4.26876184,5.73946928 4.95389254,5.44380256 5.45463139,4.92806029 C5.95537024,4.41231803 6.23068731,3.71875953 6.22,3 C6.22,1.5 5.02,0.26 3.55,0.26 Z" id="zl77l"></path>
                    </g>
                    <g id="zl77m-link" transform="translate(8.000000, 0.000000)">
                        <path d="M3.56,0.26 C2.06719336,0.28194315 0.873311415,1.50712537 0.89,3 C0.89,4.52 2.09,5.75 3.56,5.75 C4.27876184,5.73946928 4.96389254,5.44380256 5.46463139,4.92806029 C5.96537024,4.41231803 6.24068731,3.71875953 6.23,3 C6.23,1.5 5.03,0.26 3.56,0.26 Z" id="zl77m"></path>
                    </g>
                </g>
            </g>
            <g id="slack" fill="#FFFFFF" fill-opacity="0" stroke="#1D9DF2" stroke-width="2">
                <g id="zl77d-link">
                    <path d="M18.33,27.99 L14.01,18.33 L23.67,14.01 L27.99,23.67 L18.33,27.99 Z M40.69,21.82 C39.902328,20.0561534 37.8345757,19.2639626 36.07,20.05 L34.38,20.81 L30.06,11.15 L31.75,10.4 C33.5173101,9.61023213 34.3097651,7.5373113 33.5199982,5.7700008 C32.7302313,4.0026903 30.6573109,3.21023411 28.89,4 L27.2,4.76 L26.45,3.07 C25.9391104,1.92674976 24.8571122,1.1428994 23.6115836,1.01371786 C22.366055,0.884536321 21.1462217,1.42964935 20.4115831,2.44371809 C19.6769445,3.45778683 19.5391098,4.78675004 20.05,5.93 L20.81,7.62 L11.15,11.94 L10.4,10.25 C9.88911046,9.10674971 8.80711218,8.32289929 7.56158359,8.19371773 C6.31605499,8.06453616 5.0962216,8.60964921 4.361583,9.62371799 C3.6269444,10.6377868 3.48910973,11.96675 4,13.11 L4.76,14.79 L3.07,15.55 C1.92675011,16.0608898 1.14290011,17.142888 1.01371871,18.3884163 C0.884537304,19.6339447 1.42965022,20.8537778 2.44371871,21.5884163 C3.45778719,22.3230549 4.78675011,22.4608898 5.93,21.95 L7.62,21.19 L11.94,30.85 L10.25,31.6 C8.4826888,32.3897672 7.69023281,34.4626888 8.48,36.23 C9.26976719,37.9973112 11.3426888,38.7897672 13.11,38 L14.8,37.24 L15.55,38.93 C16.34,40.69 18.41,41.48 20.18,40.69 C21.9399899,39.8985358 22.7272955,37.8318586 21.94,36.07 L21.19,34.38 L30.85,30.06 L31.6,31.74 C32.1091035,32.8832499 33.189451,33.6680529 34.4340862,33.7987813 C35.6787214,33.9295097 36.8985545,33.3863028 37.6340862,32.3737813 C38.3696179,31.3612598 38.5091035,30.0332499 38,28.89 L37.24,27.2 L38.92,26.45 C39.7696035,26.0717845 40.4337522,25.3709908 40.7658367,24.5023177 C41.0979212,23.6336446 41.0706345,22.6685225 40.69,21.82 Z" id="zl77d"></path>
                </g>
            </g>
        </g>
    </g>
</svg>