<svg width="53" height="36" viewBox="0 0 53 36" xmlns="http://www.w3.org/2000/svg" xmlns:xlink="http://www.w3.org/1999/xlink"><title>On</title><defs><rect id="a" width="51" height="31" rx="15.5"/><filter x="-3.9%" y="-6.5%" width="107.8%" height="112.9%" filterUnits="objectBoundingBox" id="b"><feGaussianBlur stdDeviation="1.5" in="SourceAlpha" result="shadowBlurInner1"/><feOffset dy="1" in="shadowBlurInner1" result="shadowOffsetInner1"/><feComposite in="shadowOffsetInner1" in2="SourceAlpha" operator="arithmetic" k2="-1" k3="1" result="shadowInnerInner1"/><feColorMatrix values="0 0 0 0 0 0 0 0 0 0 0 0 0 0 0 0 0 0 0.5 0" in="shadowInnerInner1"/></filter><circle id="c" cx="14.5" cy="14.5" r="14"/><filter x="-33.9%" y="-12.5%" width="167.9%" height="175%" filterUnits="objectBoundingBox" id="d"><feMorphology radius=".5" operator="dilate" in="SourceAlpha" result="shadowSpreadOuter1"/><feOffset dy="3" in="shadowSpreadOuter1" result="shadowOffsetOuter1"/><feGaussianBlur stdDeviation="1.5" in="shadowOffsetOuter1" result="shadowBlurOuter1"/><feComposite in="shadowBlurOuter1" in2="SourceAlpha" operator="out" result="shadowBlurOuter1"/><feColorMatrix values="0 0 0 0 0 0 0 0 0 0 0 0 0 0 0 0 0 0 0.05 0" in="shadowBlurOuter1" result="shadowMatrixOuter1"/><feMorphology radius=".5" operator="dilate" in="SourceAlpha" result="shadowSpreadOuter2"/><feOffset dy="2" in="shadowSpreadOuter2" result="shadowOffsetOuter2"/><feGaussianBlur stdDeviation="1" in="shadowOffsetOuter2" result="shadowBlurOuter2"/><feComposite in="shadowBlurOuter2" in2="SourceAlpha" operator="out" result="shadowBlurOuter2"/><feColorMatrix values="0 0 0 0 0 0 0 0 0 0 0 0 0 0 0 0 0 0 0.1 0" in="shadowBlurOuter2" result="shadowMatrixOuter2"/><feMorphology radius=".5" operator="dilate" in="SourceAlpha" result="shadowSpreadOuter3"/><feOffset dy="3" in="shadowSpreadOuter3" result="shadowOffsetOuter3"/><feGaussianBlur stdDeviation=".5" in="shadowOffsetOuter3" result="shadowBlurOuter3"/><feComposite in="shadowBlurOuter3" in2="SourceAlpha" operator="out" result="shadowBlurOuter3"/><feColorMatrix values="0 0 0 0 0 0 0 0 0 0 0 0 0 0 0 0 0 0 0.0510643116 0" in="shadowBlurOuter3" result="shadowMatrixOuter3"/><feMerge><feMergeNode in="shadowMatrixOuter1"/><feMergeNode in="shadowMatrixOuter2"/><feMergeNode in="shadowMatrixOuter3"/></feMerge></filter></defs><g fill="none" fill-rule="evenodd"><g transform="matrix(-1 0 0 1 53 0)"><use fill="#1E9DF2" xlink:href="#a"/><use fill="#000" filter="url(#b)" xlink:href="#a"/></g><g transform="matrix(-1 0 0 1 32 1)"><mask id="e" fill="#fff"><use xlink:href="#c"/></mask><use fill="#000" filter="url(#d)" xlink:href="#c"/><use fill="#FFF" xlink:href="#c"/><circle stroke-opacity=".1" stroke="#000" stroke-width=".5" cx="14.5" cy="14.5" r="14.25"/><g mask="url(#e)" fill-rule="nonzero"><g fill="#C42126"><path d="M.065 15.888h28.891v1H.065zM1.57 7.957h25.881v1H1.57zM.541 10.6h27.938v1H.541zM6.237 26.467h16.548v-.006H6.236zM14.51 0c-.285 0-.567.066-.848.17h1.697A2.46 2.46 0 0 0 14.51 0zM.06 13.244h28.901v1H.06z"/></g><path d="M18.837 4.833h6.94a14.187 14.187 0 0 0-2.843-2.416h-5.212c.431.693.802 1.511 1.115 2.416z" fill="#E7E7E7"/><path d="M17.301 2.417h5.255C20.383 1.022 17.776.147 14.95 0H14.5c1.33.152 1.94 1.043 2.801 2.417z" fill="#DC3027"/><path d="M28.194 10.472a12.658 12.658 0 0 0-1.013-2.416h-7.848c.16.775.285 1.586.378 2.416h8.483z" fill="#E7E7E7"/><path d="M19.17 8.056h8.219a13.239 13.239 0 0 0-1.682-2.417h-7.18c.254.751.469 1.562.643 2.417z" fill="#DC3027"/><path d="M20.139 15.306h8.796c.041-.41.065-.823.065-1.242 0-.396-.023-.787-.06-1.175h-8.799a33.08 33.08 0 0 1-.002 2.417z" fill="#E7E7E7"/><path d="M29 12.889a12.012 12.012 0 0 0-.491-2.417h-9.176c.092.792.153 1.601.183 2.417H29z" fill="#DC3027"/><path d="M19.333 20.944h7.846c.419-.765.76-1.573 1.015-2.416h-8.481a27.08 27.08 0 0 1-.38 2.416z" fill="#E7E7E7"/><path d="M27.718 18.528c.234-.78.396-1.587.476-2.417H19.51c-.03.816-.088 1.626-.177 2.417h8.385z" fill="#DC3027"/><path d="M22.856 25.778a14.362 14.362 0 0 0 2.922-2.417h-6.905c-.323.909-.706 1.726-1.15 2.417h5.133z" fill="#E7E7E7"/><g fill="#DC3027"><path d="M18.49 23.591h7.123a14.5 14.5 0 0 0 1.761-2.636h-8.212a22.759 22.759 0 0 1-.672 2.636zM14.14 28.824l-.395-.02c.132.005.263.014.395.02zM14.364 28.817c3.102 0 5.976-.959 8.343-2.589h-5.295c-.94 1.604-1.56 2.59-3.048 2.59z"/></g><path d="M14.5 29.066z" fill="#C42126"/><path d="M18.212 2.417H6.084a14.253 14.253 0 0 0-2.862 2.416h16.111c-.315-.905-.688-1.723-1.121-2.416z" fill="#F3F4F5"/><path d="M6.444 2.417h12.084C17.67 1.043 16.582.152 15.26 0h-1.255c-2.808.148-5.401 1.022-7.56 2.417z" fill="#E73625"/><path d="M.806 10.472h19.333a27.26 27.26 0 0 0-.375-2.416H1.812a12.705 12.705 0 0 0-1.006 2.416z" fill="#F3F4F5"/><path d="M3.348 5.639a13.248 13.248 0 0 0-1.737 2.417H20.14a19.694 19.694 0 0 0-.663-2.417H3.348z" fill="#E73625"/><path d="M0 14.064c0 .418.023.833.064 1.242h20.052c.03-.804.03-1.613.002-2.417H.058c-.036.387-.058.779-.058 1.175z" fill="#F3F4F5"/><path d="M0 12.889h20.139a31.744 31.744 0 0 0-.176-2.417H.474C.24 11.252.078 12.06 0 12.89z" fill="#E73625"/><path d="M20.139 18.528H.806c.257.843.602 1.651 1.024 2.416h17.926c.16-.775.288-1.585.383-2.416z" fill="#F3F4F5"/><path d="M.49 18.528h19.467c.09-.791.151-1.6.182-2.417H0c.083.83.25 1.638.49 2.417z" fill="#E73625"/><path d="M6.141 25.778h12.043c.444-.691.827-1.508 1.15-2.417H3.221c.847.92 1.83 1.732 2.92 2.417z" fill="#F3F4F5"/><g fill="#E73625"><path d="M1.627 20.955c.49.955 1.08 1.85 1.76 2.67h16.03c.264-.83.488-1.725.67-2.67H1.628zM14.013 28.904l.09.004c.175.006.352.01.53.01 1.487 0 2.7-.998 3.64-2.622H6.291a14.518 14.518 0 0 0 7.721 2.608z"/></g><path d="M14.5 0C6.88.148.668 5.756 0 12.889h14.5V0z" fill="#283991"/><g fill="#EFEFEF"><path d="M3.246 7.946l.218.671h.706l-.571.415.218.672-.571-.415-.571.415.218-.672-.572-.415h.707zM3.246 10.317l.218.672h.706l-.571.415.218.672-.571-.415-.571.415.218-.672-.572-.415h.707zM5.618 4.388l.218.671h.706l-.571.416.218.671-.571-.415-.572.415.218-.671-.57-.416h.705zM5.618 6.76l.218.671h.706l-.571.415.218.672-.571-.415-.572.415.218-.672-.57-.415h.705zM5.618 9.132l.218.671h.706l-.571.415.218.672-.571-.416-.572.416.218-.672-.57-.415h.705zM1.445 10.89l-.218-.672.571-.415h-.706l-.016-.049c-.077.24-.147.483-.212.728l.01-.008.571.416zM2.675 7.332l.57-.415.572.415-.218-.672.57-.415h-.705l-.218-.671-.218.671h-.26c-.049.073-.096.147-.143.221l.268.194-.218.672zM5.618 3.36l.57.414-.217-.671.57-.415h-.407c-.347.259-.68.533-1.002.822l-.086.264.572-.415zM7.418 2.589l.571-.416.571.416-.218-.672.571-.415h-.706l-.03-.09c-.239.122-.475.249-.707.384l.166.12-.218.673zM7.99 3.202l.218.671h.706l-.572.416.218.671-.57-.415-.572.415.218-.671-.571-.416h.706zM7.99 5.574l.218.671h.706l-.572.415.218.672-.57-.415-.572.415.218-.672-.571-.415h.706zM7.99 7.946l.218.671h.706l-.572.415.218.672-.57-.415-.572.415.218-.672-.571-.415h.706zM7.99 10.317l.218.672h.706l-.572.415.218.672-.57-.415-.572.415.218-.672-.571-.415h.706zM10.361 2.016l.218.672h.706l-.57.415.217.671-.57-.415-.572.415.218-.671-.571-.415h.706zM10.361 4.388l.218.671h.706l-.57.416.217.671-.57-.415-.572.415.218-.671-.571-.416h.706zM10.361 6.76l.218.671h.706l-.57.415.217.672-.57-.415-.572.415.218-.672-.571-.415h.706zM10.361 9.132l.218.671h.706l-.57.415.217.672-.57-.416-.572.416.218-.672-.571-.415h.706zM12.733.83l.218.672h.706l-.571.415.218.672-.57-.416-.572.416.218-.672-.571-.415h.706zM12.733 3.202l.218.671h.706l-.571.416.218.671-.57-.415-.572.415.218-.671-.571-.416h.706zM12.733 5.574l.218.671h.706l-.571.415.218.672-.57-.415-.572.415.218-.672-.571-.415h.706zM12.733 7.946l.218.671h.706l-.571.415.218.672-.57-.415-.572.415.218-.672-.571-.415h.706zM12.733 10.317l.218.672h.706l-.571.415.218.672-.57-.415-.572.415.218-.672-.571-.415h.706z"/></g></g></g></g></svg>