<?xml version="1.0" encoding="UTF-8"?>
<svg width="186px" height="237px" viewBox="0 0 186 237" version="1.1" xmlns="http://www.w3.org/2000/svg" xmlns:xlink="http://www.w3.org/1999/xlink">
    <!-- Generator: Sketch 49.3 (51167) - http://www.bohemiancoding.com/sketch -->
    <title>Group 5</title>
    <desc>Created with Sketch.</desc>
    <defs>
        <filter x="-6.3%" y="-4.3%" width="112.6%" height="112.8%" filterUnits="objectBoundingBox" id="filter-1">
            <feOffset dx="0" dy="2" in="SourceAlpha" result="shadowOffsetOuter1"></feOffset>
            <feGaussianBlur stdDeviation="1" in="shadowOffsetOuter1" result="shadowBlurOuter1"></feGaussianBlur>
            <feColorMatrix values="0 0 0 0 0   0 0 0 0 0   0 0 0 0 0  0 0 0 0.5 0" type="matrix" in="shadowBlurOuter1" result="shadowMatrixOuter1"></feColorMatrix>
            <feMerge>
                <feMergeNode in="shadowMatrixOuter1"></feMergeNode>
                <feMergeNode in="SourceGraphic"></feMergeNode>
            </feMerge>
        </filter>
        <path d="M53.5,4.33012702 L78.3371686,18.669873 C82.9781847,21.3493649 85.8371686,26.3012702 85.8371686,31.660254 L85.8371686,60.339746 C85.8371686,65.6987298 82.9781847,70.6506351 78.3371686,73.330127 L53.5,87.669873 C48.8589838,90.3493649 43.1410162,90.3493649 38.5,87.669873 L13.6628314,73.330127 C9.02181527,70.6506351 6.16283143,65.6987298 6.16283143,60.339746 L6.16283143,31.660254 C6.16283143,26.3012702 9.02181527,21.3493649 13.6628314,18.669873 L38.5,4.33012702 C43.1410162,1.65063509 48.8589838,1.65063509 53.5,4.33012702 Z" id="path-2"></path>
        <filter x="-6.5%" y="-6.5%" width="113.0%" height="113.0%" filterUnits="objectBoundingBox" id="filter-3">
            <feGaussianBlur stdDeviation="1.5" in="SourceAlpha" result="shadowBlurInner1"></feGaussianBlur>
            <feOffset dx="3" dy="5" in="shadowBlurInner1" result="shadowOffsetInner1"></feOffset>
            <feComposite in="shadowOffsetInner1" in2="SourceAlpha" operator="arithmetic" k2="-1" k3="1" result="shadowInnerInner1"></feComposite>
            <feColorMatrix values="0 0 0 0 0.152941176   0 0 0 0 0.51372549   0 0 0 0 0.752941176  0 0 0 1 0" type="matrix" in="shadowInnerInner1"></feColorMatrix>
        </filter>
        <filter x="-8.6%" y="-5.7%" width="117.1%" height="117.1%" filterUnits="objectBoundingBox" id="filter-4">
            <feOffset dx="0" dy="2" in="SourceAlpha" result="shadowOffsetOuter1"></feOffset>
            <feGaussianBlur stdDeviation="1" in="shadowOffsetOuter1" result="shadowBlurOuter1"></feGaussianBlur>
            <feColorMatrix values="0 0 0 0 0   0 0 0 0 0   0 0 0 0 0  0 0 0 0.5 0" type="matrix" in="shadowBlurOuter1" result="shadowMatrixOuter1"></feColorMatrix>
            <feMerge>
                <feMergeNode in="shadowMatrixOuter1"></feMergeNode>
                <feMergeNode in="SourceGraphic"></feMergeNode>
            </feMerge>
        </filter>
        <path d="M39,2.88675135 L58.4448637,14.1132487 C61.5388745,15.8995766 63.4448637,19.2008468 63.4448637,22.7735027 L63.4448637,45.2264973 C63.4448637,48.7991532 61.5388745,52.1004234 58.4448637,53.8867513 L39,65.1132487 C35.9059892,66.8995766 32.0940108,66.8995766 29,65.1132487 L9.55513627,53.8867513 C6.4611255,52.1004234 4.55513627,48.7991532 4.55513627,45.2264973 L4.55513627,22.7735027 C4.55513627,19.2008468 6.4611255,15.8995766 9.55513627,14.1132487 L29,2.88675135 C32.0940108,1.1004234 35.9059892,1.1004234 39,2.88675135 Z" id="path-5"></path>
        <filter x="-6.6%" y="-6.6%" width="113.2%" height="113.2%" filterUnits="objectBoundingBox" id="filter-6">
            <feGaussianBlur stdDeviation="1.5" in="SourceAlpha" result="shadowBlurInner1"></feGaussianBlur>
            <feOffset dx="2" dy="3" in="shadowBlurInner1" result="shadowOffsetInner1"></feOffset>
            <feComposite in="shadowOffsetInner1" in2="SourceAlpha" operator="arithmetic" k2="-1" k3="1" result="shadowInnerInner1"></feComposite>
            <feColorMatrix values="0 0 0 0 0.152941176   0 0 0 0 0.51372549   0 0 0 0 0.752941176  0 0 0 1 0" type="matrix" in="shadowInnerInner1"></feColorMatrix>
        </filter>
        <filter x="-5.1%" y="-3.7%" width="110.2%" height="110.4%" filterUnits="objectBoundingBox" id="filter-7">
            <feOffset dx="0" dy="2" in="SourceAlpha" result="shadowOffsetOuter1"></feOffset>
            <feGaussianBlur stdDeviation="1" in="shadowOffsetOuter1" result="shadowBlurOuter1"></feGaussianBlur>
            <feColorMatrix values="0 0 0 0 0   0 0 0 0 0   0 0 0 0 0  0 0 0 0.5 0" type="matrix" in="shadowBlurOuter1" result="shadowMatrixOuter1"></feColorMatrix>
            <feMerge>
                <feMergeNode in="shadowMatrixOuter1"></feMergeNode>
                <feMergeNode in="SourceGraphic"></feMergeNode>
            </feMerge>
        </filter>
        <path d="M76.5,5.77350269 L114.090689,27.4764973 C120.278711,31.0491532 124.090689,37.6516936 124.090689,44.7970054 L124.090689,88.2029946 C124.090689,95.3483064 120.278711,101.950847 114.090689,105.523503 L76.5,127.226497 C70.3119785,130.799153 62.6880215,130.799153 56.5,127.226497 L18.9093106,105.523503 C12.7212891,101.950847 8.90931065,95.3483064 8.90931065,88.2029946 L8.90931065,44.7970054 C8.90931065,37.6516936 12.7212891,31.0491532 18.9093106,27.4764973 L56.5,5.77350269 C62.6880215,2.20084679 70.3119785,2.20084679 76.5,5.77350269 Z" id="path-8"></path>
        <filter x="-4.9%" y="-4.9%" width="109.8%" height="109.8%" filterUnits="objectBoundingBox" id="filter-9">
            <feGaussianBlur stdDeviation="1.5" in="SourceAlpha" result="shadowBlurInner1"></feGaussianBlur>
            <feOffset dx="4" dy="5" in="shadowBlurInner1" result="shadowOffsetInner1"></feOffset>
            <feComposite in="shadowOffsetInner1" in2="SourceAlpha" operator="arithmetic" k2="-1" k3="1" result="shadowInnerInner1"></feComposite>
            <feColorMatrix values="0 0 0 0 0.152941176   0 0 0 0 0.51372549   0 0 0 0 0.752941176  0 0 0 1 0" type="matrix" in="shadowInnerInner1"></feColorMatrix>
        </filter>
    </defs>
    <g id="Page-1" stroke="none" stroke-width="1" fill="none" fill-rule="evenodd">
        <g id="OnPlace-KOREA" transform="translate(-1152.000000, -1200.000000)">
            <g id="Button-BUY" transform="translate(360.000000, 1200.000000)">
                <g id="Group-5" transform="translate(790.000000, 0.000000)">
                    <g id="Group-2-Copy-6" filter="url(#filter-1)">
                        <path d="M56.5,6.33012702 L81.3371686,20.669873 C85.9781847,23.3493649 88.8371686,28.3012702 88.8371686,33.660254 L88.8371686,62.339746 C88.8371686,67.6987298 85.9781847,72.6506351 81.3371686,75.330127 L56.5,89.669873 C51.8589838,92.3493649 46.1410162,92.3493649 41.5,89.669873 L16.6628314,75.330127 C12.0218153,72.6506351 9.16283143,67.6987298 9.16283143,62.339746 L9.16283143,33.660254 C9.16283143,28.3012702 12.0218153,23.3493649 16.6628314,20.669873 L41.5,6.33012702 C46.1410162,3.65063509 51.8589838,3.65063509 56.5,6.33012702 Z" id="Polygon" stroke="#2783C0" stroke-width="4"></path>
                        <g id="Polygon">
                            <use fill="#1E9DF2" fill-rule="evenodd" xlink:href="#path-2"></use>
                            <use fill="black" fill-opacity="1" filter="url(#filter-3)" xlink:href="#path-2"></use>
                            <use stroke="#1E9DF2" stroke-width="4" xlink:href="#path-2"></use>
                        </g>
                        <g id="Logo-SVG" transform="translate(18.000000, 21.000000)">
                            <path d="M17.796803,22.2721649 C17.796803,25.0242573 16.9545323,27.0474235 15.2699657,28.3417244 C13.5853991,29.6360253 11.5653191,30.283166 9.209665,30.283166 C7.73053336,30.283166 6.33359666,30.0174977 5.01881298,29.4861531 C3.7040293,28.9548086 2.62893586,28.0896836 1.7935004,26.8907523 C0.958064934,25.6918209 0.540353469,24.1523072 0.540353469,22.2721649 L0.540353469,9.11123445 C0.540353469,6.30464519 1.31414684,4.17929879 2.86175679,2.7351315 C4.40936675,1.29096422 6.53901045,0.568891403 9.25075178,0.568891403 C11.9624931,0.568891403 14.0647459,1.33183626 15.5575732,2.85774887 C17.0504005,4.38366148 17.796803,6.48175984 17.796803,9.1521069 L17.796803,22.2721649 Z M13.2772567,10.6235153 C13.2772567,9.47908082 13.1813885,8.53902376 12.9896492,7.80331589 C12.7979099,7.06760803 12.4007416,6.48858738 11.7981324,6.06623657 C11.1955232,5.64388576 10.3190139,5.43271352 9.16857821,5.43271352 C8.01814249,5.43271352 7.14163319,5.63707375 6.539024,6.04580034 C5.93641482,6.45452693 5.53924654,7.01992357 5.34750725,7.74200721 C5.15576797,8.46409086 5.05989976,9.41095992 5.05989976,10.5826428 L5.05989976,21.4955882 C5.05989976,22.8035133 5.39543848,23.8321265 6.06652598,24.5814586 C6.73761348,25.3307907 7.77162055,25.7054511 9.16857821,25.7054511 C10.4559706,25.7054511 11.4625867,25.3103546 12.1884569,24.5201499 C12.914327,23.7299451 13.2772567,22.69452 13.2772567,21.4138433 L13.2772567,10.6235153 Z M22.2752625,1.22285068 L31.6430493,1.22285068 C34.5191386,1.22285068 36.6487823,2.14247171 38.0320443,3.98174137 C39.4153063,5.82101103 40.1069269,8.13028164 40.1069269,10.9096225 C40.1069269,18.2122042 37.4089217,21.8634403 32.0128304,21.8634403 L26.7948088,21.8634403 L26.7948088,29.833569 L22.2752625,29.833569 L22.2752625,1.22285068 Z M30.6569665,17.5718326 C32.2182721,17.5718326 33.3618428,17.2312322 34.087713,16.5500212 C34.8135832,15.8688102 35.2449901,15.0990534 35.3819467,14.2407275 C35.5189033,13.3824017 35.5873806,12.2992925 35.5873806,10.9913674 C35.5873806,9.54720008 35.3887965,8.43684283 34.9916223,7.6602623 C34.594448,6.88368178 34.0329343,6.3659692 33.3070641,6.10710902 C32.5811939,5.84824885 31.6430551,5.7188207 30.4926194,5.7188207 L26.7948088,5.7188207 L26.7948088,17.5718326 L30.6569665,17.5718326 Z M44.092345,1.22285068 L48.6118913,1.22285068 L48.6118913,25.7054511 L58.9246742,25.7054511 L58.9246742,29.833569 L44.092345,29.833569 L44.092345,1.22285068 Z" id="OPL" fill="#FAFAFA"></path>
                            <path d="M4.90240042,6.26378676 L13.1197573,25.882565" id="Line-2" stroke="#FAFAFA" stroke-width="4" stroke-linecap="square"></path>
                            <rect id="Rectangle-3" fill="#FAFAFA" x="0.656766025" y="36.9181278" width="58.0693221" height="10.0818722"></rect>
                            <path d="M10.0157877,39.6909152 L13.9666929,39.6909152 L13.9666929,40.6783937 L12.5861769,40.6783937 L12.5861769,44.2751697 L11.3831559,44.2751697 L11.3831559,40.6783937 L10.0157877,40.6783937 L10.0157877,39.6909152 Z M20.5931695,39.6582172 C22.0197027,39.6582172 23.0846721,40.6522353 23.0846721,41.9797726 C23.0846721,43.3203891 22.0197027,44.3274864 20.5931695,44.3274864 C19.1666363,44.3274864 18.1016669,43.3203891 18.1016669,41.9797726 C18.1016669,40.6456957 19.1666363,39.6582172 20.5931695,39.6582172 Z M20.6063173,40.6783937 C19.9160593,40.6783937 19.3375574,41.2407986 19.3375574,41.9863122 C19.3375574,42.7318258 19.9226332,43.30731 20.6063173,43.30731 C21.2965753,43.30731 21.8487816,42.7318258 21.8487816,41.9863122 C21.8487816,41.2407986 21.2965753,40.6783937 20.6063173,40.6783937 Z M32.0580259,44.2751697 L30.6183449,44.2751697 L29.4218978,42.50294 L28.8302481,43.1568993 L28.8302481,44.2751697 L27.627227,44.2751697 L27.627227,39.6909152 L28.8302481,39.6909152 L28.8302481,41.6135554 L30.55918,39.6909152 L31.9528437,39.6909152 L30.2436334,41.5873971 L32.0580259,44.2751697 Z M36.4953986,39.6909152 L40.1307573,39.6909152 L40.1307573,40.6456957 L37.6984196,40.6456957 L37.6984196,41.5023824 L39.8940974,41.5023824 L39.8940974,42.4506233 L37.6984196,42.4571629 L37.6984196,43.3203891 L40.1964961,43.3203891 L40.1964961,44.2751697 L36.4953986,44.2751697 L36.4953986,39.6909152 Z M44.8771026,39.6909152 L45.9354982,39.6909152 L48.0259938,42.4506233 L48.0259938,39.6909152 L49.1435543,39.6909152 L49.1435543,44.2751697 L48.0917326,44.2751697 L46.001237,41.5285407 L46.001237,44.2751697 L44.8771026,44.2751697 L44.8771026,39.6909152 Z" id="T-O-K-E-N" fill="#1E9DF2"></path>
                        </g>
                    </g>
                    <g id="Group-2-Copy-7" filter="url(#filter-4)" transform="translate(119.000000, 30.000000)">
                        <path d="M41,4.88675135 L60.4448637,16.1132487 C63.5388745,17.8995766 65.4448637,21.2008468 65.4448637,24.7735027 L65.4448637,47.2264973 C65.4448637,50.7991532 63.5388745,54.1004234 60.4448637,55.8867513 L41,67.1132487 C37.9059892,68.8995766 34.0940108,68.8995766 31,67.1132487 L11.5551363,55.8867513 C8.4611255,54.1004234 6.55513627,50.7991532 6.55513627,47.2264973 L6.55513627,24.7735027 C6.55513627,21.2008468 8.4611255,17.8995766 11.5551363,16.1132487 L31,4.88675135 C34.0940108,3.1004234 37.9059892,3.1004234 41,4.88675135 Z" id="Polygon" stroke="#2783C0" stroke-width="3"></path>
                        <g id="Polygon">
                            <use fill="#1E9DF2" fill-rule="evenodd" xlink:href="#path-5"></use>
                            <use fill="black" fill-opacity="1" filter="url(#filter-6)" xlink:href="#path-5"></use>
                            <use stroke="#1E9DF2" stroke-width="3" xlink:href="#path-5"></use>
                        </g>
                        <g id="Logo-SVG" transform="translate(13.000000, 16.000000)">
                            <path d="M12.9705513,16.2401202 C12.9705513,18.2468542 12.356693,19.7220797 11.1289581,20.6658407 C9.90122309,21.6096018 8.42896137,22.0814752 6.71212873,22.0814752 C5.63411753,22.0814752 4.61601112,21.8877587 3.65777895,21.50032 C2.69954678,21.1128812 1.9160041,20.482061 1.30712741,19.6078402 C0.698250715,18.7336194 0.393816935,17.6110573 0.393816935,16.2401202 L0.393816935,6.64360845 C0.393816935,4.59713712 0.957768035,3.04740537 2.08568715,1.99436672 C3.21360627,0.941328074 4.76571948,0.414816648 6.74207333,0.414816648 C8.71842719,0.414816648 10.2505775,0.971130608 11.3385703,2.08377522 C12.4265631,3.19641983 12.9705513,4.72628322 12.9705513,6.67341128 L12.9705513,16.2401202 Z M9.67664468,7.74631322 C9.67664468,6.91182976 9.60677464,6.22637149 9.46703245,5.68991784 C9.32729025,5.15346419 9.03782863,4.73126163 8.59863888,4.4232975 C8.15944914,4.11533336 7.52063727,3.96135361 6.68218412,3.96135361 C5.84373097,3.96135361 5.2049191,4.11036627 4.76572936,4.40839608 C4.32653961,4.70642589 4.03707799,5.11869427 3.8973358,5.64521359 C3.7575936,6.17173292 3.68772356,6.86215828 3.68772356,7.71651039 L3.68772356,15.6738664 C3.68772356,16.6275618 3.93226872,17.3775922 4.42136639,17.9239802 C4.91046407,18.4703682 5.66406244,18.7435581 6.68218412,18.7435581 C7.62045312,18.7435581 8.35408862,18.4554669 8.88311264,17.879276 C9.41213665,17.303085 9.67664468,16.5480875 9.67664468,15.6142608 L9.67664468,7.74631322 Z M16.2345133,0.891661953 L23.0618834,0.891661953 C25.1580163,0.891661953 26.7101295,1.56221896 27.7182696,2.90335309 C28.7264097,4.24448721 29.2304722,5.92833036 29.2304722,7.95493304 C29.2304722,13.2797322 27.2641294,15.9420919 23.3313849,15.9420919 L19.5284199,15.9420919 L19.5284199,21.7536441 L16.2345133,21.7536441 L16.2345133,0.891661953 Z M22.3432129,12.8127946 C23.4811136,12.8127946 24.3145634,12.5644401 24.8435874,12.0677238 C25.3726115,11.5710075 25.6870267,11.0097264 25.7868425,10.3838638 C25.8866584,9.75800122 25.9365655,8.96823408 25.9365655,8.0145387 C25.9365655,6.96150006 25.7918347,6.15186456 25.5023688,5.58560793 C25.2129028,5.0193513 24.8036639,4.64185254 24.2746399,4.45310033 C23.7456159,4.26434812 23.0618876,4.16997343 22.2234345,4.16997343 L19.5284199,4.16997343 L19.5284199,12.8127946 L22.3432129,12.8127946 Z M32.1350989,0.891661953 L35.4290055,0.891661953 L35.4290055,18.7435581 L42.9451016,18.7435581 L42.9451016,21.7536441 L32.1350989,21.7536441 L32.1350989,0.891661953 Z" id="OPL" fill="#FAFAFA"></path>
                            <path d="M3.5729359,4.56734452 L9.56185703,18.8727037" id="Line-2" stroke="#FAFAFA" stroke-width="3" stroke-linecap="square"></path>
                            <rect id="Rectangle-3" fill="#FAFAFA" x="0.478659984" y="26.9194682" width="42.3217093" height="7.35136513"></rect>
                            <path d="M7.29964189,28.9412923 L10.1791152,28.9412923 L10.1791152,29.6613287 L9.17297642,29.6613287 L9.17297642,32.2839779 L8.29619836,32.2839779 L8.29619836,29.6613287 L7.29964189,29.6613287 L7.29964189,28.9412923 Z M15.0085812,28.91745 C16.0482579,28.91745 16.8244221,29.6422549 16.8244221,30.6102509 C16.8244221,31.5877837 16.0482579,32.3221255 15.0085812,32.3221255 C13.9689045,32.3221255 13.1927403,31.5877837 13.1927403,30.6102509 C13.1927403,29.6374864 13.9689045,28.91745 15.0085812,28.91745 Z M15.0181634,29.6613287 C14.5150941,29.6613287 14.093474,30.0714157 14.093474,30.6150193 C14.093474,31.158623 14.5198852,31.5782468 15.0181634,31.5782468 C15.5212328,31.5782468 15.9236883,31.158623 15.9236883,30.6150193 C15.9236883,30.0714157 15.5212328,29.6613287 15.0181634,29.6613287 Z M23.3643239,32.2839779 L22.3150649,32.2839779 L21.443078,30.9917271 L21.0118757,31.4685724 L21.0118757,32.2839779 L20.1350977,32.2839779 L20.1350977,28.9412923 L21.0118757,28.9412923 L21.0118757,30.3432175 L22.2719447,28.9412923 L23.2876657,28.9412923 L22.0419701,30.3241437 L23.3643239,32.2839779 Z M26.5983413,28.9412923 L29.24784,28.9412923 L29.24784,29.6374864 L27.4751194,29.6374864 L27.4751194,30.2621538 L29.0753591,30.2621538 L29.0753591,30.9535795 L27.4751194,30.9583479 L27.4751194,31.5877837 L29.2957514,31.5877837 L29.2957514,32.2839779 L26.5983413,32.2839779 L26.5983413,28.9412923 Z M32.7070409,28.9412923 L33.4784139,28.9412923 L35.0019955,30.9535795 L35.0019955,28.9412923 L35.8164887,28.9412923 L35.8164887,32.2839779 L35.0499068,32.2839779 L33.5263253,30.2812276 L33.5263253,32.2839779 L32.7070409,32.2839779 L32.7070409,28.9412923 Z" id="T-O-K-E-N" fill="#1E9DF2"></path>
                        </g>
                    </g>
                    <g id="Group-2" filter="url(#filter-7)" transform="translate(27.000000, 98.000000)">
                        <path d="M80.5,7.77350269 L118.090689,29.4764973 C124.278711,33.0491532 128.090689,39.6516936 128.090689,46.7970054 L128.090689,90.2029946 C128.090689,97.3483064 124.278711,103.950847 118.090689,107.523503 L80.5,129.226497 C74.3119785,132.799153 66.6880215,132.799153 60.5,129.226497 L22.9093106,107.523503 C16.7212891,103.950847 12.9093106,97.3483064 12.9093106,90.2029946 L12.9093106,46.7970054 C12.9093106,39.6516936 16.7212891,33.0491532 22.9093106,29.4764973 L60.5,7.77350269 C66.6880215,4.20084679 74.3119785,4.20084679 80.5,7.77350269 Z" id="Polygon" stroke="#2783C0" stroke-width="5"></path>
                        <g id="Polygon">
                            <use fill="#1E9DF2" fill-rule="evenodd" xlink:href="#path-8"></use>
                            <use fill="black" fill-opacity="1" filter="url(#filter-9)" xlink:href="#path-8"></use>
                            <use stroke="#1E9DF2" stroke-width="5" xlink:href="#path-8"></use>
                        </g>
                        <g id="Logo-SVG" transform="translate(26.000000, 31.000000)">
                            <path d="M25.6394619,32.2235577 C25.6394619,36.2053084 24.4260211,39.1324426 21.9991031,41.0050481 C19.5721852,42.8776536 16.6619004,43.8139423 13.2681614,43.8139423 C11.1372091,43.8139423 9.12467315,43.4295712 7.23049327,42.6608173 C5.3363134,41.8920635 3.78744996,40.6403933 2.5838565,38.9057692 C1.38026304,37.1711452 0.778475336,34.9437636 0.778475336,32.2235577 L0.778475336,13.1822115 C0.778475336,9.12161431 1.89326239,6.04664506 4.12286996,3.95721154 C6.35247752,1.86777801 9.42060827,0.823076923 13.3273543,0.823076923 C17.2341003,0.823076923 20.2627695,1.92691204 22.4134529,4.13461538 C24.5641363,6.34231873 25.6394619,9.3778653 25.6394619,13.2413462 L25.6394619,32.2235577 Z M19.1282511,15.3701923 C19.1282511,13.7144148 18.9901359,12.3543322 18.7139013,11.2899038 C18.4376668,10.2254754 17.8654752,9.38774344 16.9973094,8.77668269 C16.1291436,8.16562194 14.866376,7.86009615 13.2089686,7.86009615 C11.5515612,7.86009615 10.2887936,8.15576627 9.4206278,8.74711538 C8.55246203,9.3384645 7.98027044,10.1564852 7.70403587,11.2012019 C7.42780131,12.2459187 7.2896861,13.6158569 7.2896861,15.3110577 L7.2896861,31.1 C7.2896861,32.9923172 7.77308934,34.4805234 8.73991031,35.5646635 C9.70673129,36.6488035 11.1964025,37.1908654 13.2089686,37.1908654 C15.0636864,37.1908654 16.5138961,36.6192365 17.5596413,35.4759615 C18.6053864,34.3326866 19.1282511,32.8346246 19.1282511,30.9817308 L19.1282511,15.3701923 Z M32.0914798,1.76923077 L45.5874439,1.76923077 C49.7309624,1.76923077 52.7990932,3.09974631 54.7919283,5.76081731 C56.7847633,8.42188831 57.7811659,11.7629607 57.7811659,15.7841346 C57.7811659,26.3495721 53.8942093,31.6322115 46.1201794,31.6322115 L38.6026906,31.6322115 L38.6026906,43.1634615 L32.0914798,43.1634615 L32.0914798,1.76923077 Z M44.1668161,25.4230769 C46.4161547,25.4230769 48.0636719,24.9302934 49.109417,23.9447115 C50.1551622,22.9591297 50.7766806,21.8454389 50.973991,20.6036058 C51.1713014,19.3617726 51.2699552,17.794721 51.2699552,15.9024038 C51.2699552,13.8129703 50.9838594,12.206496 50.4116592,11.0829327 C49.839459,9.95936938 49.0304985,9.21033841 47.9847534,8.83581731 C46.9390082,8.4612962 45.5874522,8.27403846 43.9300448,8.27403846 L38.6026906,8.27403846 L38.6026906,25.4230769 L44.1668161,25.4230769 Z M63.52287,1.76923077 L70.0340807,1.76923077 L70.0340807,37.1908654 L84.8914798,37.1908654 L84.8914798,43.1634615 L63.52287,43.1634615 L63.52287,1.76923077 Z" id="OPL" fill="#FAFAFA"></path>
                            <path d="M7.06278027,9.0625 L18.9013453,37.4471154" id="Line-2" stroke="#FAFAFA" stroke-width="6" stroke-linecap="square"></path>
                            <rect id="Rectangle-3" fill="#FAFAFA" x="0.946188341" y="53.4134615" width="83.6591928" height="14.5865385"></rect>
                            <path d="M14.4295247,57.4251538 L20.1215067,57.4251538 L20.1215067,58.8538462 L18.1326278,58.8538462 L18.1326278,64.0576923 L16.3994619,64.0576923 L16.3994619,58.8538462 L14.4295247,58.8538462 L14.4295247,57.4251538 Z M29.6681256,57.3778462 C31.7233004,57.3778462 33.2575785,58.816 33.2575785,60.7366923 C33.2575785,62.6763077 31.7233004,64.1333846 29.6681256,64.1333846 C27.6129507,64.1333846 26.0786726,62.6763077 26.0786726,60.7366923 C26.0786726,58.8065385 27.6129507,57.3778462 29.6681256,57.3778462 Z M29.6870673,58.8538462 C28.6926278,58.8538462 27.8591928,59.6675385 27.8591928,60.7461538 C27.8591928,61.8247692 28.7020987,62.6573846 29.6870673,62.6573846 C30.6815067,62.6573846 31.4770583,61.8247692 31.4770583,60.7461538 C31.4770583,59.6675385 30.6815067,58.8538462 29.6870673,58.8538462 Z M46.1852915,64.0576923 L44.1111749,64.0576923 L42.3874798,61.4936154 L41.5351031,62.4397692 L41.5351031,64.0576923 L39.8019372,64.0576923 L39.8019372,57.4251538 L41.5351031,57.4251538 L41.5351031,60.2068462 L44.0259372,57.4251538 L46.0337578,57.4251538 L43.5713363,60.169 L46.1852915,64.0576923 Z M52.5781166,57.4251538 L57.8154978,57.4251538 L57.8154978,58.8065385 L54.3112825,58.8065385 L54.3112825,60.046 L57.4745471,60.046 L57.4745471,61.4179231 L54.3112825,61.4273846 L54.3112825,62.6763077 L57.9102063,62.6763077 L57.9102063,64.0576923 L52.5781166,64.0576923 L52.5781166,57.4251538 Z M64.6534529,57.4251538 L66.1782601,57.4251538 L69.189991,61.4179231 L69.189991,57.4251538 L70.8000359,57.4251538 L70.8000359,64.0576923 L69.2846996,64.0576923 L66.2729686,60.0838462 L66.2729686,64.0576923 L64.6534529,64.0576923 L64.6534529,57.4251538 Z" id="T-O-K-E-N" fill="#1E9DF2"></path>
                        </g>
                    </g>
                </g>
            </g>
        </g>
    </g>
</svg>