<svg width="186" height="237" viewBox="0 0 186 237" xmlns="http://www.w3.org/2000/svg" xmlns:xlink="http://www.w3.org/1999/xlink"><title>Group 5</title><defs><filter x="-6.3%" y="-4.3%" width="112.6%" height="112.8%" filterUnits="objectBoundingBox" id="a"><feOffset dy="2" in="SourceAlpha" result="shadowOffsetOuter1"/><feGaussianBlur stdDeviation="1" in="shadowOffsetOuter1" result="shadowBlurOuter1"/><feColorMatrix values="0 0 0 0 0 0 0 0 0 0 0 0 0 0 0 0 0 0 0.5 0" in="shadowBlurOuter1" result="shadowMatrixOuter1"/><feMerge><feMergeNode in="shadowMatrixOuter1"/><feMergeNode in="SourceGraphic"/></feMerge></filter><path d="M53.5 4.33l24.837 14.34a15 15 0 0 1 7.5 12.99v28.68a15 15 0 0 1-7.5 12.99L53.5 87.67a15 15 0 0 1-15 0L13.663 73.33a15 15 0 0 1-7.5-12.99V31.66a15 15 0 0 1 7.5-12.99L38.5 4.33a15 15 0 0 1 15 0z" id="b"/><filter x="-6.5%" y="-6.5%" width="113%" height="113%" filterUnits="objectBoundingBox" id="c"><feGaussianBlur stdDeviation="1.5" in="SourceAlpha" result="shadowBlurInner1"/><feOffset dx="3" dy="5" in="shadowBlurInner1" result="shadowOffsetInner1"/><feComposite in="shadowOffsetInner1" in2="SourceAlpha" operator="arithmetic" k2="-1" k3="1" result="shadowInnerInner1"/><feColorMatrix values="0 0 0 0 0.152941176 0 0 0 0 0.51372549 0 0 0 0 0.752941176 0 0 0 1 0" in="shadowInnerInner1"/></filter><filter x="-8.6%" y="-5.7%" width="117.1%" height="117.1%" filterUnits="objectBoundingBox" id="d"><feOffset dy="2" in="SourceAlpha" result="shadowOffsetOuter1"/><feGaussianBlur stdDeviation="1" in="shadowOffsetOuter1" result="shadowBlurOuter1"/><feColorMatrix values="0 0 0 0 0 0 0 0 0 0 0 0 0 0 0 0 0 0 0.5 0" in="shadowBlurOuter1" result="shadowMatrixOuter1"/><feMerge><feMergeNode in="shadowMatrixOuter1"/><feMergeNode in="SourceGraphic"/></feMerge></filter><path d="M39 2.887l19.445 11.226a10 10 0 0 1 5 8.66v22.453a10 10 0 0 1-5 8.66L39 65.114a10 10 0 0 1-10 0L9.555 53.887a10 10 0 0 1-5-8.66V22.773a10 10 0 0 1 5-8.66L29 2.886a10 10 0 0 1 10 0z" id="e"/><filter x="-6.6%" y="-6.6%" width="113.2%" height="113.2%" filterUnits="objectBoundingBox" id="f"><feGaussianBlur stdDeviation="1.5" in="SourceAlpha" result="shadowBlurInner1"/><feOffset dx="2" dy="3" in="shadowBlurInner1" result="shadowOffsetInner1"/><feComposite in="shadowOffsetInner1" in2="SourceAlpha" operator="arithmetic" k2="-1" k3="1" result="shadowInnerInner1"/><feColorMatrix values="0 0 0 0 0.152941176 0 0 0 0 0.51372549 0 0 0 0 0.752941176 0 0 0 1 0" in="shadowInnerInner1"/></filter><filter x="-5.1%" y="-3.7%" width="110.2%" height="110.4%" filterUnits="objectBoundingBox" id="g"><feOffset dy="2" in="SourceAlpha" result="shadowOffsetOuter1"/><feGaussianBlur stdDeviation="1" in="shadowOffsetOuter1" result="shadowBlurOuter1"/><feColorMatrix values="0 0 0 0 0 0 0 0 0 0 0 0 0 0 0 0 0 0 0.5 0" in="shadowBlurOuter1" result="shadowMatrixOuter1"/><feMerge><feMergeNode in="shadowMatrixOuter1"/><feMergeNode in="SourceGraphic"/></feMerge></filter><path d="M76.5 5.774l37.59 21.702a20 20 0 0 1 10 17.321v43.406a20 20 0 0 1-10 17.32L76.5 127.227a20 20 0 0 1-20 0l-37.59-21.702a20 20 0 0 1-10-17.321V44.797a20 20 0 0 1 10-17.32L56.5 5.773a20 20 0 0 1 20 0z" id="h"/><filter x="-4.9%" y="-4.9%" width="109.8%" height="109.8%" filterUnits="objectBoundingBox" id="i"><feGaussianBlur stdDeviation="1.5" in="SourceAlpha" result="shadowBlurInner1"/><feOffset dx="4" dy="5" in="shadowBlurInner1" result="shadowOffsetInner1"/><feComposite in="shadowOffsetInner1" in2="SourceAlpha" operator="arithmetic" k2="-1" k3="1" result="shadowInnerInner1"/><feColorMatrix values="0 0 0 0 0.152941176 0 0 0 0 0.51372549 0 0 0 0 0.752941176 0 0 0 1 0" in="shadowInnerInner1"/></filter></defs><g fill="none" fill-rule="evenodd"><g filter="url(#a)" transform="translate(-2)"><path d="M56.5 6.33l24.837 14.34a15 15 0 0 1 7.5 12.99v28.68a15 15 0 0 1-7.5 12.99L56.5 89.67a15 15 0 0 1-15 0L16.663 75.33a15 15 0 0 1-7.5-12.99V33.66a15 15 0 0 1 7.5-12.99L41.5 6.33a15 15 0 0 1 15 0z" stroke="#2783C0" stroke-width="4"/><use fill="#1E9DF2" xlink:href="#b"/><use fill="#000" filter="url(#c)" xlink:href="#b"/><use stroke="#1E9DF2" stroke-width="4" xlink:href="#b"/><g><path d="M35.797 43.272c0 2.752-.842 4.775-2.527 6.07-1.685 1.294-3.705 1.941-6.06 1.941-1.48 0-2.876-.266-4.191-.797s-2.39-1.396-3.225-2.595c-.836-1.2-1.254-2.739-1.254-4.619v-13.16c0-2.807.774-4.933 2.322-6.377 1.547-1.444 3.677-2.166 6.389-2.166 2.711 0 4.814.763 6.307 2.289 1.492 1.526 2.239 3.624 2.239 6.294v13.12zm-4.52-11.648c0-1.145-.096-2.085-.287-2.82a2.963 2.963 0 0 0-1.192-1.738c-.602-.422-1.479-.633-2.63-.633-1.15 0-2.026.204-2.629.613a2.87 2.87 0 0 0-1.191 1.696c-.192.722-.288 1.669-.288 2.84v10.914c0 1.308.335 2.336 1.007 3.085.67.75 1.705 1.124 3.102 1.124 1.287 0 2.294-.395 3.02-1.185.725-.79 1.088-1.825 1.088-3.106v-10.79zm8.998-9.401h9.368c2.876 0 5.006.92 6.389 2.759s2.075 4.148 2.075 6.928c0 7.302-2.698 10.953-8.094 10.953h-5.218v7.97h-4.52v-28.61zm8.382 16.349c1.561 0 2.705-.34 3.43-1.022.727-.681 1.158-1.45 1.295-2.31.137-.858.205-1.94.205-3.249 0-1.444-.198-2.554-.595-3.33-.398-.777-.96-1.295-1.685-1.554-.726-.259-1.664-.388-2.814-.388h-3.698v11.853h3.862zm13.435-16.35h4.52v24.483h10.313v4.129H62.092V22.223z" fill="#FAFAFA"/><path d="M22.902 27.264l8.218 19.619" stroke="#FAFAFA" stroke-width="4" stroke-linecap="square"/><path fill="#FAFAFA" d="M18.657 57.918h58.069V68H18.657z"/><path d="M28.016 60.69h3.95v.988h-1.38v3.597h-1.203v-3.597h-1.367v-.987zm10.577-.032c1.427 0 2.492.994 2.492 2.322 0 1.34-1.065 2.347-2.492 2.347-1.426 0-2.491-1.007-2.491-2.347 0-1.334 1.065-2.322 2.491-2.322zm.013 1.02c-.69 0-1.268.563-1.268 1.308 0 .746.585 1.321 1.268 1.321.69 0 1.243-.575 1.243-1.32 0-.746-.552-1.309-1.243-1.309zm11.452 3.597h-1.44l-1.196-1.772-.592.654v1.118h-1.203v-4.584h1.203v1.923l1.73-1.923h1.393l-1.71 1.896 1.815 2.688zm4.437-4.584h3.636v.955h-2.433v.856h2.196v.949l-2.196.006v.863h2.498v.955h-3.7v-4.584zm8.382 0h1.058l2.091 2.76v-2.76h1.118v4.584h-1.052l-2.09-2.746v2.746h-1.125v-4.584z" fill="#1E9DF2"/></g></g><g filter="url(#d)" transform="translate(117 30)"><path d="M41 4.887l19.445 11.226a10 10 0 0 1 5 8.66v22.453a10 10 0 0 1-5 8.66L41 67.114a10 10 0 0 1-10 0L11.555 55.887a10 10 0 0 1-5-8.66V24.773a10 10 0 0 1 5-8.66L31 4.886a10 10 0 0 1 10 0z" stroke="#2783C0" stroke-width="3"/><use fill="#1E9DF2" xlink:href="#e"/><use fill="#000" filter="url(#f)" xlink:href="#e"/><use stroke="#1E9DF2" stroke-width="3" xlink:href="#e"/><g><path d="M25.97 32.24c0 2.007-.613 3.482-1.841 4.426s-2.7 1.415-4.417 1.415a8.07 8.07 0 0 1-3.054-.58 5.186 5.186 0 0 1-2.35-1.893c-.61-.874-.914-1.997-.914-3.368v-9.596c0-2.047.564-3.597 1.692-4.65 1.128-1.053 2.68-1.58 4.656-1.58 1.976 0 3.509.557 4.597 1.67 1.088 1.112 1.632 2.642 1.632 4.59v9.566zm-3.293-8.494c0-.834-.07-1.52-.21-2.056a2.16 2.16 0 0 0-.868-1.267c-.44-.308-1.078-.462-1.917-.462-.838 0-1.477.15-1.916.447-.44.298-.729.71-.869 1.237-.14.527-.21 1.217-.21 2.072v7.957c0 .954.245 1.704.734 2.25.49.546 1.243.82 2.261.82.938 0 1.672-.289 2.201-.865.53-.576.794-1.33.794-2.265v-7.868zm6.558-6.854h6.827c2.096 0 3.648.67 4.656 2.011 1.008 1.341 1.512 3.025 1.512 5.052 0 5.325-1.966 7.987-5.899 7.987h-3.803v5.812h-3.293V16.892zm6.108 11.92c1.138 0 1.972-.248 2.5-.744.53-.497.844-1.058.944-1.684.1-.626.15-1.416.15-2.37 0-1.052-.145-1.862-.435-2.428-.29-.567-.698-.944-1.227-1.133-.53-.189-1.213-.283-2.052-.283h-2.695v8.643h2.815zm9.792-11.92h3.294v17.852h7.516v3.01h-10.81V16.892z" fill="#FAFAFA"/><path d="M16.573 20.567l5.989 14.306" stroke="#FAFAFA" stroke-width="3" stroke-linecap="square"/><path fill="#FAFAFA" d="M13.479 42.919h42.322v7.351H13.479z"/><path d="M20.3 44.941h2.88v.72h-1.007v2.623h-.877v-2.623H20.3v-.72zm7.709-.024c1.04 0 1.815.725 1.815 1.693 0 .978-.776 1.712-1.815 1.712-1.04 0-1.816-.734-1.816-1.712 0-.973.776-1.693 1.816-1.693zm.01.744a.934.934 0 0 0-.926.954c0 .544.427.963.925.963.503 0 .906-.42.906-.963 0-.544-.403-.954-.906-.954zm8.345 2.623h-1.049l-.872-1.292-.431.477v.815h-.877v-3.343h.877v1.402l1.26-1.402h1.016l-1.246 1.383 1.322 1.96zm3.234-3.343h2.65v.696h-1.773v.625h1.6v.692l-1.6.004v.63h1.82v.696h-2.697v-3.343zm6.109 0h.771l1.524 2.013V44.94h.814v3.343h-.766l-1.524-2.003v2.003h-.819v-3.343z" fill="#1E9DF2"/></g></g><g filter="url(#g)" transform="translate(25 98)"><path d="M80.5 7.774l37.59 21.702a20 20 0 0 1 10 17.321v43.406a20 20 0 0 1-10 17.32L80.5 129.227a20 20 0 0 1-20 0l-37.59-21.702a20 20 0 0 1-10-17.321V46.797a20 20 0 0 1 10-17.32L60.5 7.773a20 20 0 0 1 20 0z" stroke="#2783C0" stroke-width="5"/><use fill="#1E9DF2" xlink:href="#h"/><use fill="#000" filter="url(#i)" xlink:href="#h"/><use stroke="#1E9DF2" stroke-width="5" xlink:href="#h"/><g><path d="M51.64 63.224c0 3.981-1.214 6.908-3.64 8.781-2.428 1.873-5.338 2.809-8.732 2.809-2.13 0-4.143-.384-6.038-1.153-1.894-.769-3.443-2.02-4.646-3.755-1.204-1.735-1.806-3.962-1.806-6.682V44.182c0-4.06 1.115-7.135 3.345-9.225 2.23-2.09 5.298-3.134 9.204-3.134 3.907 0 6.936 1.104 9.086 3.312 2.151 2.207 3.226 5.243 3.226 9.106v18.983zM45.127 46.37c0-1.656-.138-3.016-.414-4.08-.276-1.065-.849-1.902-1.717-2.513-.868-.611-2.13-.917-3.788-.917-1.657 0-2.92.296-3.788.887-.869.591-1.44 1.41-1.717 2.454-.276 1.045-.414 2.415-.414 4.11V62.1c0 1.892.483 3.38 1.45 4.465.967 1.084 2.456 1.626 4.469 1.626 1.855 0 3.305-.572 4.35-1.715 1.046-1.143 1.57-2.641 1.57-4.494V46.37zm12.963-13.6h13.496c4.144 0 7.212 1.33 9.205 3.99 1.993 2.662 2.99 6.003 2.99 10.024 0 10.566-3.888 15.848-11.662 15.848h-7.517v11.531H58.09V32.77zm12.076 23.653c2.25 0 3.897-.493 4.942-1.478 1.046-.986 1.668-2.1 1.865-3.341.197-1.242.296-2.81.296-4.702 0-2.089-.286-3.696-.858-4.82-.573-1.123-1.382-1.872-2.427-2.246-1.046-.375-2.398-.562-4.055-.562h-5.327v17.15h5.564zM89.523 32.77h6.511v35.422h14.857v5.972H89.523V32.77z" fill="#FAFAFA"/><path d="M33.063 40.063L44.9 68.447" stroke="#FAFAFA" stroke-width="6" stroke-linecap="square"/><path fill="#FAFAFA" d="M26.946 84.413h83.659V99H26.946z"/><path d="M40.43 88.425h5.692v1.429h-1.99v5.204H42.4v-5.204h-1.97v-1.429zm15.238-.047c2.055 0 3.59 1.438 3.59 3.359 0 1.94-1.535 3.396-3.59 3.396-2.055 0-3.59-1.457-3.59-3.396 0-1.93 1.535-3.36 3.59-3.36zm.02 1.476c-.995 0-1.829.814-1.829 1.892 0 1.079.843 1.911 1.828 1.911.995 0 1.79-.832 1.79-1.91 0-1.08-.795-1.893-1.79-1.893zm16.497 5.204h-2.074l-1.724-2.564-.852.946v1.618h-1.733v-6.633h1.733v2.782l2.49-2.782h2.009L69.57 91.17l2.614 3.889zm6.393-6.633h5.237v1.382h-3.504v1.239h3.164v1.372l-3.164.01v1.248h3.6v1.382h-5.333v-6.633zm12.075 0h1.525l3.012 3.993v-3.993h1.61v6.633h-1.515l-3.012-3.974v3.974h-1.62v-6.633z" fill="#1E9DF2"/></g></g></g></svg>