<svg width="86" height="95" viewBox="0 0 86 95" xmlns="http://www.w3.org/2000/svg"><title>youtube 3</title><defs><path d="M45 1.458l12.175 7.03L74.59 18.541a10 10 0 0 1 5 8.66V61.37a10 10 0 0 1-5 8.66L45 87.114a10 10 0 0 1-10 0L5.41 70.03a10 10 0 0 1-5-8.66V27.201a10 10 0 0 1 5-8.66l11.95-6.9 9.69-5.594 6.999-4.04.951-.55a10 10 0 0 1 10 0z" id="a"/><linearGradient x1="100%" y1="100%" x2="0%" y2="0%" id="b"><stop stop-color="#F5515F" offset="0%"/><stop stop-color="#9F041B" offset="100%"/></linearGradient></defs><g fill="none" fill-rule="evenodd"><path stroke="#1E9DF2" stroke-width="3" d="M48.75 3.16l29.59 17.083a11.5 11.5 0 0 1 5.75 9.96v34.166a11.5 11.5 0 0 1-5.75 9.96L48.75 91.412a11.5 11.5 0 0 1-11.5 0L7.66 74.33a11.5 11.5 0 0 1-5.75-9.96V30.202a11.5 11.5 0 0 1 5.75-9.96L37.25 3.16a11.5 11.5 0 0 1 11.5 0z"/><path d="M46.857 6.591c0-3.64-3.135-6.591-7.002-6.591H7C3.134 0 0 2.951 0 6.591v17.675c0 3.64 3.135 6.591 7.001 6.591h32.853c3.868 0 7.003-2.951 7.003-6.591V6.59zm-28.116 12.7V9.878a2 2 0 0 1 3.055-1.7l7.587 4.707a2 2 0 0 1 0 3.4l-7.587 4.705a2 2 0 0 1-3.055-1.7z" transform="translate(20.143 31.286)" fill="url(#b)" fill-rule="nonzero"/></g></svg>