<?xml version="1.0" encoding="UTF-8"?>
<svg width="180px" height="200px" viewBox="0 0 180 200" version="1.1" xmlns="http://www.w3.org/2000/svg" xmlns:xlink="http://www.w3.org/1999/xlink">
    <!-- Generator: Sketch 50 (54983) - http://www.bohemiancoding.com/sketch -->
    <title>youtube 3</title>
    <desc>Created with Sketch.</desc>
    <defs>
        <path d="M97,2.77350269 L163.60254,41.2264973 C169.790562,44.7991532 173.60254,51.4016936 173.60254,58.5470054 L173.60254,135.452995 C173.60254,142.598306 169.790562,149.200847 163.60254,152.773503 L97,191.226497 C90.8119785,194.799153 83.1880215,194.799153 77,191.226497 L10.3974596,152.773503 C4.20943809,149.200847 0.397459622,142.598306 0.397459622,135.452995 L0.397459622,58.5470054 C0.397459622,51.4016936 4.20943809,44.7991532 10.3974596,41.2264973 L77,2.77350269 C83.1880215,-0.799153207 90.8119785,-0.799153207 97,2.77350269 Z" id="path-1"></path>
        <linearGradient x1="100%" y1="100%" x2="0%" y2="0%" id="linearGradient-3">
            <stop stop-color="#F5515F" offset="0%"></stop>
            <stop stop-color="#9F041B" offset="100%"></stop>
        </linearGradient>
    </defs>
    <g id="Page-1" stroke="none" stroke-width="1" fill="none" fill-rule="evenodd">
        <g id="OnPlace-KOREA-eng" transform="translate(-870.000000, -752.000000)">
            <g id="youtube-3" transform="translate(873.000000, 755.000000)">
                <mask id="mask-2" fill="white">
                    <use xlink:href="#path-1"></use>
                </mask>
                <path stroke="#1E9DF2" stroke-width="3" d="M97.75,1.47446459 L164.35254,39.9274592 C171.004664,43.7680643 175.10254,50.8657952 175.10254,58.5470054 L175.10254,135.452995 C175.10254,143.134205 171.004664,150.231936 164.35254,154.072541 L97.75,192.525535 C91.0978768,196.366141 82.9021232,196.366141 76.25,192.525535 L9.64745962,154.072541 C2.99533647,150.231936 -1.10254038,143.134205 -1.10254038,135.452995 L-1.10254038,58.5470054 C-1.10254038,50.8657952 2.99533647,43.7680643 9.64745962,39.9274592 L76.25,1.47446459 C82.9021232,-2.36614051 91.0978768,-2.36614051 97.75,1.47446459 Z"></path>
                <g id="youtube-(1)" transform="translate(36.122807, 61.912281)" fill="url(#linearGradient-3)" fill-rule="nonzero">
                    <path d="M103.508772,14.615097 C103.508772,6.54278144 96.5836302,0 88.0400545,0 L15.4657052,0 C6.92385077,0 0,6.54440688 0,14.615097 L0,53.8059556 C0,61.8782712 6.92514173,68.4210526 15.4657052,68.4210526 L88.0387635,68.4210526 C96.5840605,68.4210526 103.507481,61.8766458 103.507481,53.8059556 L103.507481,14.615097 L103.508772,14.615097 Z M41.4002383,47.142543 L41.4002383,17.5353013 C41.4002383,16.4307318 42.2956688,15.5353013 43.4002383,15.5353013 C43.7739204,15.5353013 44.1401287,15.6399912 44.4573472,15.8375025 L68.2341619,30.641777 C69.1718303,31.2256021 69.458677,32.4590163 68.874852,33.3966847 C68.7130996,33.6564716 68.4938879,33.8756745 68.2340946,34.0374166 L44.4572799,48.8403838 C43.5195883,49.4241717 42.2861855,49.1372761 41.7023976,48.1995846 C41.5049131,47.8823811 41.4002383,47.5161981 41.4002383,47.142543 Z" id="Shape"></path>
                </g>
            </g>
        </g>
    </g>
</svg>