<?xml version="1.0" encoding="UTF-8"?>
<svg width="136px" height="150px" viewBox="0 0 136 150" version="1.1" xmlns="http://www.w3.org/2000/svg" xmlns:xlink="http://www.w3.org/1999/xlink">
    <!-- Generator: Sketch 49 (51002) - http://www.bohemiancoding.com/sketch -->
    <title>Group 24 Copy</title>
    <desc>Created with Sketch.</desc>
    <defs>
        <linearGradient x1="50%" y1="100%" x2="50%" y2="-2.48949813e-15%" id="linearGradient-1">
            <stop stop-color="#1E9DF2" offset="0%"></stop>
            <stop stop-color="#429321" offset="100%"></stop>
        </linearGradient>
        <filter x="-2.9%" y="-1.9%" width="105.8%" height="105.2%" filterUnits="objectBoundingBox" id="filter-2">
            <feOffset dx="0" dy="1" in="SourceAlpha" result="shadowOffsetOuter1"></feOffset>
            <feGaussianBlur stdDeviation="1" in="shadowOffsetOuter1" result="shadowBlurOuter1"></feGaussianBlur>
            <feColorMatrix values="0 0 0 0 0   0 0 0 0 0   0 0 0 0 0  0 0 0 0.5 0" type="matrix" in="shadowBlurOuter1" result="shadowMatrixOuter1"></feColorMatrix>
            <feMerge>
                <feMergeNode in="shadowMatrixOuter1"></feMergeNode>
                <feMergeNode in="SourceGraphic"></feMergeNode>
            </feMerge>
        </filter>
        <path d="M70,3.98717474 L110,27.0811855 C116.188022,30.6538414 120,37.2563818 120,44.4016936 L120,90.5897151 C120,97.7350269 116.188022,104.337567 110,107.910223 L70,131.004234 C63.8119785,134.57689 56.1880215,134.57689 50,131.004234 L10,107.910223 C3.81197846,104.337567 5.68434189e-14,97.7350269 4.61852778e-14,90.5897151 L3.55271368e-15,44.4016936 C0,37.2563818 3.81197846,30.6538414 10,27.0811855 L50,3.98717474 C56.1880215,0.414518843 63.8119785,0.414518843 70,3.98717474 Z" id="path-3"></path>
    </defs>
    <g id="Page-1" stroke="none" stroke-width="1" fill="none" fill-rule="evenodd">
        <g id="Mob-+" transform="translate(-118.000000, -35.000000)">
            <g id="Group-3" transform="translate(26.000000, 33.000000)">
                <g id="Group-24-Copy" transform="translate(83.000000, 0.000000)">
                    <path d="M87,5.77350269 L133.683956,32.7264973 C139.871978,36.2991532 143.683956,42.9016936 143.683956,50.0470054 L143.683956,103.952995 C143.683956,111.098306 139.871978,117.700847 133.683956,121.273503 L87,148.226497 C80.8119785,151.799153 73.1880215,151.799153 67,148.226497 L20.3160439,121.273503 C14.1280224,117.700847 10.3160439,111.098306 10.3160439,103.952995 L10.3160439,50.0470054 C10.3160439,42.9016936 14.1280224,36.2991532 20.3160439,32.7264973 L67,5.77350269 C73.1880215,2.20084679 80.8119785,2.20084679 87,5.77350269 Z" id="Polygon-4" stroke="url(#linearGradient-1)" stroke-width="2"></path>
                    <g id="coin-(2)" filter="url(#filter-2)" transform="translate(17.000000, 9.000000)">
                        <mask id="mask-4" fill="white">
                            <use xlink:href="#path-3"></use>
                        </mask>
                        <use id="Mask" fill="#4A90E2" xlink:href="#path-3"></use>
                        <g id="money-(3)" mask="url(#mask-4)" fill-rule="nonzero">
                            <g transform="translate(15.652174, 33.391304)" id="Shape">
                                <path d="M76.8770759,47.5677402 L76.8788159,47.5659963 L76.8788159,32.2818585 C76.8788159,29.3921031 79.2157105,27.0499537 82.0989824,27.0499537 C84.9822544,27.0499537 87.3191489,29.3921031 87.3191489,32.2818585 L87.3191489,55.5516269 C87.3191489,57.4019772 86.5865856,59.1755929 85.2798039,60.4853131 L74.4183774,71.3711629 C73.7658566,72.025151 73.3987049,72.9128309 73.3987049,73.8371341 L73.3987049,76.4042553 L55.9981499,76.4042553 L55.9981499,64.3970339 C55.9981499,62.5466836 56.7307132,60.7713239 58.0374949,59.4633477 L69.7080472,47.7665526 C71.67779,45.7923806 74.8272905,45.7243658 76.8770759,47.5677402 Z" fill="none"></path>
                                <polygon fill="none" points="76.8788159 76.4042553 76.8788159 87.3191489 52.6762257 87.3191489 52.6762257 76.4042553 56.1337386 76.4042553 73.421303 76.4042553"></polygon>
                                <path d="M44.8459759,1.89824237 C58.3210731,1.89824237 69.2858464,12.86127 69.2858464,26.3381129 C69.2858464,39.8149557 58.3210731,50.7779833 44.8459759,50.7779833 C31.3708788,50.7779833 20.4061055,39.8149557 20.4061055,26.3381129 C20.4061055,12.86127 31.3708788,1.89824237 44.8459759,1.89824237 Z" fill="#3BB54A"></path>
                                <polygon fill="none" points="36.5411656 76.4042553 36.5411656 87.3191489 12.3385754 87.3191489 12.3385754 76.4042553 15.7960883 76.4042553 33.0836527 76.4042553"></polygon>
                                <path d="M12.3403154,47.5677402 C14.3901008,45.7243658 17.5396013,45.7923806 19.5093441,47.7665526 L31.1798964,59.4633477 C32.4866781,60.7713239 33.2192414,62.5466836 33.2192414,64.3970339 L33.2192414,76.4042553 L15.8186864,76.4042553 L15.8186864,73.8371341 C15.8186864,72.9128309 15.4515347,72.025151 14.7990139,71.3711629 L3.93758742,60.4853131 C2.63080574,59.1755929 1.89824237,57.4019772 1.89824237,55.5516269 L1.89824237,32.2818585 C1.89824237,29.3921031 4.23513691,27.0499537 7.11840888,27.0499537 C10.0016809,27.0499537 12.3385754,29.3921031 12.3385754,32.2818585 L12.3385754,47.5659963 L12.3403154,47.5677402 Z" fill="none"></path>
                                <path d="M44.663733,31.0498216 C43.9282186,31.0498216 43.1341661,30.5853047 42.4280929,29.7420173 C41.8163695,29.0110991 40.7301428,28.9168819 40.0023761,29.5312819 C39.2744372,30.145682 39.1806041,31.2361815 39.7923275,31.9669269 C40.7127535,33.0662431 41.7950203,33.8322551 42.9420233,34.2184593 L42.9420233,36.2360909 C42.9420233,37.1908831 43.7130049,37.9648474 44.663733,37.9648474 C45.6144611,37.9648474 46.3854427,37.1908831 46.3854427,36.2360909 L46.3854427,34.2099884 C48.3893407,33.4963577 49.8288622,31.5748449 49.8288622,29.3210652 C49.8288622,26.4613562 47.5117852,24.1347958 44.663733,24.1347958 C43.7143823,24.1347958 42.9420233,23.3592757 42.9420233,22.4060394 C42.9420233,21.4528031 43.7143823,20.6772829 44.663733,20.6772829 C45.2735626,20.6772829 45.917482,20.9896692 46.5257621,21.5809039 C47.209453,22.2449193 48.2991231,22.2267673 48.9604318,21.5407968 C49.6215683,20.8546534 49.6036625,19.7601776 48.9204881,19.0961623 C48.0467204,18.24717 47.1724362,17.7669215 46.3854427,17.504842 L46.3854427,15.4910136 C46.3854427,14.5362214 45.6144611,13.7622572 44.663733,13.7622572 C43.7130049,13.7622572 42.9420233,14.5362214 42.9420233,15.4910136 L42.9420233,17.5171162 C40.9381253,18.2307468 39.4986038,20.1522596 39.4986038,22.4060394 C39.4986038,25.2657483 41.8156808,27.5923087 44.663733,27.5923087 C45.6130837,27.5923087 46.3854427,28.3678288 46.3854427,29.3210652 C46.3854427,30.2743015 45.6130837,31.0498216 44.663733,31.0498216 Z" fill="#F6F6F6"></path>
                                <path d="M82.228408,25.626272 C78.3746827,25.626272 75.2394248,28.7439743 75.2394248,32.5761211 L75.2394248,44.9590147 C72.9183834,44.3646289 70.3570958,44.9784743 68.5507931,46.7744891 L56.832889,58.4267798 C55.1817417,60.066423 54.272475,62.2486756 54.272475,64.5714889 L54.272475,74.7964544 L52.5252292,74.7964544 C51.5604,74.7964544 50.7779833,75.5743163 50.7779833,76.5339167 L50.7779833,102.241036 C50.7779833,103.200637 51.5604,103.978499 52.5252292,103.978499 L76.9866706,89.2173913 C77.9514997,89.2173913 78.7339164,88.4395294 78.7339164,87.479929 L78.7339164,76.5339167 C78.7339164,75.5743163 77.9514997,74.7964544 76.9866706,74.7964544 L75.2394248,74.7964544 L75.2394248,73.9763722 C75.2394248,73.5195934 75.4260306,73.0718494 75.7517172,72.7481601 L86.6580256,61.9029206 C88.308474,60.26154 89.2173913,58.0796349 89.2173913,55.7590802 L89.2173913,32.5761211 C89.2173913,28.7439743 86.0821334,25.626272 82.228408,25.626272 Z M75.2394248,85.7424668 L54.272475,100.503574 L54.272475,78.271379 L75.2394248,78.271379 L75.2394248,85.7424668 Z M85.7228997,55.7590802 C85.7228997,57.1514825 85.1774095,58.4608341 84.1868959,59.4458014 L73.2805875,70.291041 C72.304576,71.2615874 71.7449331,72.6048195 71.7449331,73.9763722 L71.7449331,74.7964544 L57.7669666,74.7964544 L57.7669666,64.5714889 C57.7669666,63.1776967 58.3121073,61.8686926 59.3029704,60.8847677 L71.0217481,49.2316082 C72.3332308,47.9272953 74.4400598,47.8687428 75.8179379,49.0981711 C75.8878277,49.1581136 75.9252188,49.1946003 75.9629593,49.2321294 C76.6230687,49.8880215 76.9866706,50.7602275 76.9866706,51.6882061 C76.9866706,52.6161847 76.6230687,53.4883908 75.9626098,54.144804 L67.2805454,62.7782541 C66.5982459,63.4567331 66.5982459,64.5568942 67.2805454,65.235547 C67.9630196,65.914026 69.0690262,65.9141998 69.7516751,65.235547 L78.4333901,56.6026182 C79.7537838,55.2901392 80.4811622,53.5450321 80.4811622,51.6882061 C80.4811622,49.9785432 79.8629867,48.3640933 78.7339164,47.0943559 L78.7339164,32.5761211 C78.7339164,30.6600477 80.3015454,29.1011965 82.228408,29.1011965 C84.1552707,29.1011965 85.7228997,30.6600477 85.7228997,32.5761211 L85.7228997,55.7590802 Z" fill="#D1E6FF"></path>
                                <path d="M36.6921621,74.7964544 L34.9449163,74.7964544 L34.9449163,64.5714889 C34.9449163,62.2486756 34.0356496,60.066423 32.3855507,58.4276485 L20.666773,46.7744891 C18.8602955,44.9781268 16.2990079,44.3644551 13.9779665,44.9590147 L13.9779665,32.5761211 C13.9779665,28.7439743 10.8427086,25.626272 6.98898326,25.626272 C3.13525789,25.626272 0,28.7439743 0,32.5761211 L0,55.7590802 C0,58.0796349 0.908917274,60.26154 2.55936567,61.9029206 L13.4656741,72.7479864 C13.7913607,73.0718494 13.9779665,73.5194196 13.9779665,73.9763722 L13.9779665,74.7964544 L12.2307207,74.7964544 C11.2658916,74.7964544 10.4834749,75.5743163 10.4834749,76.5339167 L10.4834749,87.479929 C10.4834749,88.4395294 11.2658916,89.2173913 12.2307207,89.2173913 L36.6921621,103.433278 C37.6569913,103.433278 38.439408,102.655416 38.439408,101.695815 L38.439408,76.5339167 C38.439408,75.5743163 37.6569913,74.7964544 36.6921621,74.7964544 Z M15.9368038,70.291041 L5.03049543,59.4459752 C4.03998178,58.4608341 3.49449163,57.1514825 3.49449163,55.7590802 L3.49449163,32.5761211 C3.49449163,30.6600477 5.06212058,29.1011965 6.98898326,29.1011965 C8.91584595,29.1011965 10.4834749,30.6600477 10.4834749,32.5761211 L10.4834749,47.0941821 C9.35440465,48.3639195 8.73622908,49.9781958 8.73622908,51.6882061 C8.73622908,53.5450321 9.46360751,55.2901392 10.7838265,56.6019232 L19.5200555,65.2892346 C20.2025297,65.9677136 21.3085364,65.9677136 21.9911853,65.2892346 C22.6734848,64.6107556 22.6734848,63.5105944 21.9911853,62.8319417 L13.254432,54.1441091 C12.5943226,53.4883908 12.2307207,52.6161847 12.2307207,51.6882061 C12.2307207,50.7602275 12.5943226,49.8880215 13.2539079,49.2323032 C13.2919978,49.1946003 13.3295636,49.1581136 13.3692261,49.124233 C14.776982,47.8687428 16.8839858,47.927469 18.1954685,49.2316082 L29.9151198,60.8854627 C30.9051093,61.8686926 31.45025,63.1775229 31.45025,64.5713152 L31.45025,74.7964544 L17.4722834,74.7964544 L17.4722834,73.9763722 C17.4724582,72.6048195 16.9128153,71.2615874 15.9368038,70.291041 Z M34.9449163,99.958353 L13.9779665,85.7424668 L13.9779665,78.271379 L34.9449163,78.271379 L34.9449163,99.958353 Z" fill="#D1E6FF"></path>
                                <path d="M70.7095282,26.1008326 C70.7095282,11.7088335 59.0006947,0 44.6086957,0 C30.2166966,0 18.5078631,11.7088335 18.5078631,26.1008326 C18.5078631,40.4928316 30.2166966,52.2016651 44.6086957,52.2016651 C59.0006947,52.2016651 70.7095282,40.4928316 70.7095282,26.1008326 Z M44.6086957,48.7215541 C32.1354558,48.7215541 21.9879741,38.5738984 21.9879741,26.1008326 C21.9879741,13.6277667 32.1354558,3.48011101 44.6086957,3.48011101 C57.0819355,3.48011101 67.2294172,13.6277667 67.2294172,26.1008326 C67.2294172,38.5738984 57.0819355,48.7215541 44.6086957,48.7215541 Z" fill="#D1E6FF"></path>
                            </g>
                        </g>
                    </g>
                </g>
            </g>
        </g>
    </g>
</svg>