<?xml version="1.0" encoding="UTF-8"?>
<svg width="136px" height="150px" viewBox="0 0 136 150" version="1.1" xmlns="http://www.w3.org/2000/svg" xmlns:xlink="http://www.w3.org/1999/xlink">
    <!-- Generator: Sketch 49 (51002) - http://www.bohemiancoding.com/sketch -->
    <title>Group 25 Copy</title>
    <desc>Created with Sketch.</desc>
    <defs>
        <linearGradient x1="50%" y1="100%" x2="50%" y2="-2.48949813e-15%" id="linearGradient-1">
            <stop stop-color="#1E9DF2" offset="0%"></stop>
            <stop stop-color="#429321" offset="100%"></stop>
        </linearGradient>
        <filter x="-2.9%" y="-1.9%" width="105.8%" height="105.2%" filterUnits="objectBoundingBox" id="filter-2">
            <feOffset dx="0" dy="1" in="SourceAlpha" result="shadowOffsetOuter1"></feOffset>
            <feGaussianBlur stdDeviation="1" in="shadowOffsetOuter1" result="shadowBlurOuter1"></feGaussianBlur>
            <feColorMatrix values="0 0 0 0 0   0 0 0 0 0   0 0 0 0 0  0 0 0 0.5 0" type="matrix" in="shadowBlurOuter1" result="shadowMatrixOuter1"></feColorMatrix>
            <feMerge>
                <feMergeNode in="shadowMatrixOuter1"></feMergeNode>
                <feMergeNode in="SourceGraphic"></feMergeNode>
            </feMerge>
        </filter>
    </defs>
    <g id="Page-1" stroke="none" stroke-width="1" fill="none" fill-rule="evenodd">
        <g id="Mob-+" transform="translate(-123.000000, -403.000000)">
            <g id="Group-4" transform="translate(26.000000, 401.000000)">
                <g id="Group-25-Copy" transform="translate(88.000000, 0.000000)">
                    <path d="M87,5.77350269 L133.683956,32.7264973 C139.871978,36.2991532 143.683956,42.9016936 143.683956,50.0470054 L143.683956,103.952995 C143.683956,111.098306 139.871978,117.700847 133.683956,121.273503 L87,148.226497 C80.8119785,151.799153 73.1880215,151.799153 67,148.226497 L20.3160439,121.273503 C14.1280224,117.700847 10.3160439,111.098306 10.3160439,103.952995 L10.3160439,50.0470054 C10.3160439,42.9016936 14.1280224,36.2991532 20.3160439,32.7264973 L67,5.77350269 C73.1880215,2.20084679 80.8119785,2.20084679 87,5.77350269 Z" id="Polygon-4-Copy" stroke="url(#linearGradient-1)" stroke-width="2"></path>
                    <g id="Group-2" filter="url(#filter-2)" transform="translate(17.000000, 10.000000)">
                        <g id="information" fill="#4A90E2">
                            <path d="M70,3.98717474 L110,27.0811855 C116.188022,30.6538414 120,37.2563818 120,44.4016936 L120,90.5897151 C120,97.7350269 116.188022,104.337567 110,107.910223 L70,131.004234 C63.8119785,134.57689 56.1880215,134.57689 50,131.004234 L10,107.910223 C3.81197846,104.337567 5.68434189e-14,97.7350269 4.61852778e-14,90.5897151 L3.55271368e-15,44.4016936 C0,37.2563818 3.81197846,30.6538414 10,27.0811855 L50,3.98717474 C56.1880215,0.414518843 63.8119785,0.414518843 70,3.98717474 Z" id="Polygon-3"></path>
                        </g>
                        <g id="file-(1)" transform="translate(28.173913, 36.000000)" fill-rule="nonzero">
                            <polygon id="Shape" fill="#D1E6FF" points="46.9565217 19.4126333 32.7041357 5.2173913 5.2173913 5.2173913 5.2173913 58.9565217 46.9565217 58.9565217"></polygon>
                            <polygon id="Shape" fill="#9CC8FA" points="5.09013786 5.06972929 32.5768823 5.06972929 41.7391304 14.195242 41.7391304 0 0 0 0 53.7391304 5.09013786 53.7391304"></polygon>
                            <g id="Group" transform="translate(12.000000, 16.173913)" fill="#83B9F9">
                                <path d="M1.02415459,10.1278772 L26.6280193,10.1278772 C27.1933527,10.1278772 27.6521739,9.67516113 27.6521739,9.11508951 C27.6521739,8.5550179 27.1933527,8.10230179 26.6280193,8.10230179 L1.02415459,8.10230179 C0.458821256,8.10230179 0,8.5550179 0,9.11508951 C0,9.67516113 0.458821256,10.1278772 1.02415459,10.1278772 Z" id="Shape"></path>
                                <path d="M1.02415459,2.02557545 L11.2657005,2.02557545 C11.8310338,2.02557545 12.2898551,1.57285934 12.2898551,1.01278772 C12.2898551,0.452716113 11.8310338,0 11.2657005,0 L1.02415459,0 C0.458821256,0 0,0.452716113 0,1.01278772 C0,1.57285934 0.458821256,2.02557545 1.02415459,2.02557545 Z" id="Shape"></path>
                                <path d="M26.6280193,16.2046036 L1.02415459,16.2046036 C0.458821256,16.2046036 0,16.6573197 0,17.2173913 C0,17.7774629 0.458821256,18.230179 1.02415459,18.230179 L26.6280193,18.230179 C27.1933527,18.230179 27.6521739,17.7774629 27.6521739,17.2173913 C27.6521739,16.6573197 27.1933527,16.2046036 26.6280193,16.2046036 Z" id="Shape"></path>
                                <path d="M26.6280193,24.3069054 L1.02415459,24.3069054 C0.458821256,24.3069054 0,24.7596215 0,25.3196931 C0,25.8797647 0.458821256,26.3324808 1.02415459,26.3324808 L26.6280193,26.3324808 C27.1933527,26.3324808 27.6521739,25.8797647 27.6521739,25.3196931 C27.6521739,24.7596215 27.1933527,24.3069054 26.6280193,24.3069054 Z" id="Shape"></path>
                                <path d="M20.0966184,32.4092072 L0.77294686,32.4092072 C0.346280193,32.4092072 0,32.8619233 0,33.4219949 C0,33.9820665 0.346280193,34.4347826 0.77294686,34.4347826 L20.0966184,34.4347826 C20.523285,34.4347826 20.8695652,33.9820665 20.8695652,33.4219949 C20.8695652,32.8619233 20.523285,32.4092072 20.0966184,32.4092072 Z" id="Shape"></path>
                            </g>
                            <polygon id="Shape" fill="#83B9F9" points="32.8695652 5.2173913 32.8695652 19.3043478 46.9565217 19.3043478"></polygon>
                        </g>
                        <g id="blockchain" transform="translate(44.347826, 61.043478)" fill="#00436F" fill-rule="nonzero">
                            <path d="M47.4175197,24.7143089 C47.1774429,23.5014313 46.2520398,22.5401692 45.0493816,22.2545302 L45.0493816,22.253739 L44.4893343,16.0883686 C45.9423526,15.1173149 46.3333178,13.1518657 45.3625296,11.6984501 C44.7763783,10.820862 43.7915493,10.2933003 42.7364178,10.2917178 C42.1891258,10.2950806 41.6523148,10.442153 41.179676,10.7181981 L26.0624519,3.7885853 C26.4108006,2.08019139 25.3086029,0.412744349 23.6005772,0.0643004353 C21.8926503,-0.284143478 20.2256591,0.81845452 19.8773105,2.52684842 C19.8535797,2.64326014 19.8363748,2.76105654 19.8258937,2.87944636 L8.23259739,6.97254966 C7.69054593,6.56130078 7.02944485,6.33767555 6.34916136,6.33559854 C4.60168314,6.34014819 3.18880948,7.76092503 3.19335789,9.50888112 C3.19612649,10.5696421 3.72997105,11.5584988 4.61522949,12.1425355 L2.7041075,26.1657464 C0.978975806,26.4157794 -0.216859735,28.0172565 0.0330060176,29.7428599 C0.28287177,31.4684634 1.88400993,32.6646259 3.60914162,32.4146919 C3.66253597,32.4069772 3.71583143,32.3978779 3.76883026,32.387394 L7.25409661,40.5237522 C6.02928969,41.7656091 6.04293491,43.7655763 7.28445228,44.9906192 C8.52596965,46.2157611 10.5253901,46.2021121 11.7500981,44.9602552 C11.9188836,44.7891488 12.0674978,44.5993492 12.1932712,44.394516 L20.6675468,44.9998174 C21.0413072,46.7014857 22.7234267,47.7779727 24.4246299,47.4041101 C25.8025006,47.1013605 26.8117525,45.9201327 26.8960958,44.5116201 L38.2212339,41.5310053 C38.8659211,43.1557252 40.7052574,43.949936 42.3294342,43.3051714 C43.9536111,42.6604067 44.7477036,40.8204686 44.1031152,39.1958476 C43.7857155,38.3959003 43.1562555,37.7597404 42.3598888,37.4339458 L44.9331006,28.4264283 C46.6438949,28.0874794 47.7562771,26.425571 47.4175197,24.7143089 Z M42.7364178,11.8743039 C43.6102063,11.8743039 44.3184724,12.5827637 44.3184724,13.4567912 C44.3184724,14.3308187 43.6102063,15.0392785 42.7364178,15.0392785 C41.8626292,15.0392785 41.1543631,14.3308187 41.1543631,13.4567912 C41.1543631,12.5827637 41.8627281,11.8743039 42.7364178,11.8743039 Z M18.3301599,17.9929909 L14.6210329,15.1065342 L17.6182353,11.1969994 L22.7599129,11.6717456 L23.081861,15.8613806 C21.3020495,16.0120136 19.6263571,16.7636951 18.3301599,17.9929909 Z M23.7518611,17.4130094 C27.2468176,17.4130094 30.0800796,20.2470462 30.0800796,23.7429584 C30.0800796,27.2388706 27.2468176,30.0729074 23.7518611,30.0729074 C20.2584868,30.0689512 17.4275978,27.2372881 17.4236426,23.7429584 C17.4236426,20.2469473 20.2568058,17.4130094 23.7518611,17.4130094 Z M17.2922332,19.191725 C16.3565468,20.5095413 15.8499927,22.0839183 15.8414891,23.7002312 L5.50592624,27.145306 C5.48535953,27.1231512 5.46953899,27.0978314 5.44897228,27.0764678 L13.6598358,16.3638203 L17.2922332,19.191725 Z M6.25987415,28.5632146 L15.9997935,25.3191157 C16.2672596,26.6310965 16.8645841,27.8532712 17.7353074,28.8702171 L13.002591,35.1819676 L6.21083046,30.1567793 C6.29843673,29.8732173 6.34510734,29.5784791 6.34926024,29.2816638 C6.34698603,29.0395433 6.31702587,28.7984118 6.25987415,28.5632146 Z M18.8846701,29.9716282 C21.82215,32.2847301 25.9809761,32.2119357 28.8357937,29.7975546 L30.2216735,31.0975679 L16.6555551,37.8824821 L14.2729808,36.1211737 L18.8846701,29.9716282 Z M29.9392768,28.6589551 C30.8918714,27.4662542 31.4770339,26.0221357 31.6233739,24.5025523 L35.2518162,24.7921474 L31.8369513,30.2873345 L31.7325357,30.3403478 L29.9392768,28.6589551 Z M37.0252995,24.9353625 L41.1592082,25.2661024 C41.1592082,25.2866747 41.15288,25.3056646 41.15288,25.3262369 C41.154462,25.4235599 41.1750287,25.5169266 41.18373,25.6126671 L34.5391006,28.9358903 L37.0252995,24.9353625 Z M37.9697861,23.4248785 L42.2278861,16.5734999 C42.3958805,16.6030726 42.5659514,16.6191942 42.7365167,16.6217657 C42.8085001,16.6217657 42.8757375,16.6051496 42.9469299,16.6004021 L43.4674259,22.2926088 C42.6902416,22.5126735 42.0268663,23.0223333 41.6140489,23.7168474 L37.9697861,23.4248785 Z M40.7683418,15.9151852 L36.1922488,23.2800809 L31.6177379,22.9137351 C31.5172774,21.9710672 31.2465483,21.0544114 30.8188003,20.2084731 L40.165579,15.287729 C40.3365398,15.5237174 40.5394383,15.7348805 40.7683418,15.9151852 Z M39.6063227,13.793861 L39.6071137,13.793861 L29.9692369,18.8681064 C28.6707656,17.207286 26.7627088,16.1344586 24.6693539,15.8882829 L24.352943,11.8236644 L39.5889201,13.2415729 C39.5833829,13.3135761 39.5667713,13.3832055 39.5667713,13.4567912 C39.5739895,13.5697412 39.5871403,13.6822956 39.6063227,13.793861 Z M25.3575477,5.20807637 L39.3721786,11.6306009 L24.235871,10.2221872 L23.91946,6.16943738 C24.4793096,5.98982507 24.977558,5.65671151 25.3575477,5.20807637 Z M22.9608338,1.58813676 C23.8346224,1.58813676 24.5428884,2.29659653 24.5428884,3.17062402 C24.5428884,4.04465151 23.8346224,4.75311128 22.9608338,4.75311128 C22.0870453,4.75311128 21.3787792,4.04465151 21.3787792,3.17062402 C21.3787792,2.29659653 22.0870453,1.58813676 22.9608338,1.58813676 Z M21.5931476,6.01356238 C21.8316423,6.13224893 22.0844744,6.21948354 22.3454146,6.27309029 L22.3414594,6.27625527 L22.6333485,10.0742247 L18.7573147,9.7134176 L21.5931476,6.01356238 Z M20.0814944,4.46747233 C20.1646511,4.65222772 20.2655071,4.82847724 20.3828758,4.99364934 L16.8944454,9.54250897 L9.43980395,8.84937955 C9.39916492,8.65730516 9.3406289,8.4694837 9.26498691,8.28838782 L20.0814944,4.46747233 Z M9.35516403,10.4279106 L15.7577391,11.023717 L13.3735828,14.1388432 L9.18113802,10.8797107 C9.25055067,10.7337263 9.30869117,10.5826976 9.35516403,10.4279106 Z M6.34926024,7.9180858 C7.22304878,7.9180858 7.93131486,8.62654556 7.93131486,9.50057306 C7.93131486,10.3746006 7.22304878,11.0830603 6.34926024,11.0830603 C5.47547169,11.0830603 4.76720561,10.3746006 4.76720561,9.50057306 C4.76720561,8.62654556 5.47547169,7.9180858 6.34926024,7.9180858 Z M6.14349426,12.6426015 C6.21310466,12.6489315 6.27875993,12.6655476 6.34916136,12.6655476 C6.99839703,12.6650531 7.63151551,12.4632859 8.16140493,12.0879397 L12.4108037,15.3937556 L4.33125068,25.9354945 L6.14349426,12.6426015 Z M3.18515098,30.8641511 C2.31136244,30.8641511 1.60309636,30.1556913 1.60309636,29.2816638 C1.60309636,28.4076363 2.31136244,27.6991765 3.18515098,27.6991765 C4.05893953,27.6991765 4.76720561,28.4076363 4.76720561,29.2816638 C4.76720561,30.1556913 4.05884065,30.8641511 3.18515098,30.8641511 Z M5.19663456,31.7044518 C5.26703599,31.6458998 5.34297462,31.5944689 5.40783886,31.529587 L12.0524683,36.4432099 L9.6960968,39.5860296 C9.63360564,39.5860296 9.57506962,39.567831 9.51178744,39.567831 C9.21090042,39.5720839 8.91218873,39.6200531 8.62504582,39.7102548 L5.19663456,31.7044518 Z M9.51336949,44.3152928 C8.63958094,44.3152928 7.93131486,43.606833 7.93131486,42.7328055 C7.93131486,41.858778 8.63958094,41.1503182 9.51336949,41.1503182 C10.387158,41.1503182 11.0954241,41.858778 11.0954241,42.7328055 C11.0954241,43.606833 10.3870592,44.3152928 9.51336949,44.3152928 Z M11.6261046,40.3978456 C11.5178327,40.2947861 11.4023427,40.1995401 11.2804256,40.1129979 L13.3260223,37.3839986 L15.0662824,38.6729344 L11.6261046,40.3978456 Z M20.735674,43.4172312 L12.6671954,42.8412059 C12.6671954,42.8032262 12.6782698,42.7684115 12.6782698,42.7304318 C12.6738202,42.3889112 12.6131089,42.0504568 12.4987066,41.7287173 L16.4973496,39.7260797 L20.8938794,42.9765085 C20.8302018,43.1192291 20.7774007,43.2665982 20.735674,43.4172312 Z M23.7518611,45.89778 C22.8780726,45.89778 22.1698065,45.1893203 22.1698065,44.3152928 C22.1698065,43.4412653 22.8780726,42.7328055 23.7518611,42.7328055 C24.6256497,42.7328055 25.3339158,43.4412653 25.3339158,44.3152928 C25.3339158,45.1893203 24.6255508,45.89778 23.7518611,45.89778 Z M24.9384021,41.3876913 C23.9308311,40.971695 22.7790953,41.1126353 21.9016482,41.7595758 L21.9016482,41.7611583 L18.0841504,38.9348361 L30.2382851,32.85492 L24.9384021,41.3876913 Z M38.0321783,39.9468367 L38.0305963,39.9500017 L26.5994606,42.9559362 C26.493364,42.7377508 26.3625479,42.532522 26.2094841,42.3443049 L32.1058017,32.8572938 L38.427692,38.7860823 C38.220344,39.1429332 38.0858693,39.537467 38.0321783,39.9468367 Z M42.7364178,40.3590746 C42.7364178,41.2331021 42.0281517,41.9415619 41.1543631,41.9415619 C40.2805746,41.9415619 39.5723085,41.2331021 39.5723085,40.3590746 C39.5723085,39.4850471 40.2805746,38.7765874 41.1543631,38.7765874 C42.0281517,38.7765874 42.7364178,39.4850471 42.7364178,40.3590746 Z M40.773088,37.236036 C40.3349577,37.2868734 39.9125491,37.4297918 39.5335482,37.6553951 L32.9624843,31.497146 L41.7144105,27.1199862 C42.105969,27.6824615 42.6694771,28.102513 43.3201959,28.3171378 L40.773088,37.236036 Z M44.3184724,26.9079329 C43.4446839,26.9079329 42.7364178,26.1994731 42.7364178,25.3254457 C42.7364178,24.4514182 43.4446839,23.7429584 44.3184724,23.7429584 C45.1922609,23.7429584 45.900527,24.4514182 45.900527,25.3254457 C45.900527,26.1993742 45.1922609,26.9079329 44.3184724,26.9079329 Z" id="Shape"></path>
                        </g>
                        <path d="M70.8958092,87.173017 C70.8958092,88.0889286 70.6183143,88.7622495 70.0633163,89.193 C69.5083182,89.6237504 68.8427817,89.8391224 68.0666869,89.8391224 C67.5793715,89.8391224 67.1191361,89.7507066 66.6859669,89.5738722 C66.2527977,89.3970378 65.8985969,89.1091194 65.6233539,88.7101084 C65.348111,88.3110974 65.2104916,87.7987388 65.2104916,87.173017 L65.2104916,82.7929867 C65.2104916,81.8589383 65.4654259,81.1516112 65.9753022,80.6709844 C66.4851784,80.1903575 67.1868118,79.9500477 68.0802233,79.9500477 C68.9736349,79.9500477 69.666244,80.20396 70.1580716,80.7117921 C70.6498991,81.2196243 70.8958092,81.917883 70.8958092,82.8065893 L70.8958092,87.173017 Z M69.4067974,83.2962821 C69.4067974,82.915408 69.3752127,82.6025518 69.3120421,82.3577042 C69.2488716,82.1128565 69.1180204,81.9201552 68.9194845,81.7795946 C68.7209486,81.6390339 68.4321735,81.5687546 68.0531504,81.5687546 C67.6741273,81.5687546 67.3853522,81.6367668 67.1868163,81.7727933 C66.9882804,81.9088197 66.8574292,82.0969869 66.7942586,82.3373003 C66.7310881,82.5776137 66.6995033,82.892737 66.6995033,83.2826795 L66.6995033,86.914568 C66.6995033,87.3498527 66.8100501,87.6921809 67.0311469,87.9415627 C67.2522437,88.1909446 67.5929081,88.3156336 68.0531504,88.3156336 C68.4772953,88.3156336 68.8089355,88.1841434 69.048081,87.9211589 C69.2872265,87.6581743 69.4067974,87.3135791 69.4067974,86.8873629 L69.4067974,83.2962821 Z" id="OPL" fill="#00436F"></path>
                        <path d="M66.7733002,81.7335107 L69.2447686,87.8064887" id="Line-2" stroke="#00436F" stroke-width="2" fill="#00436F" stroke-linecap="square"></path>
                    </g>
                </g>
            </g>
        </g>
    </g>
</svg>