<?xml version="1.0" encoding="UTF-8"?>
<svg width="247px" height="144px" viewBox="0 0 247 144" version="1.1" xmlns="http://www.w3.org/2000/svg" xmlns:xlink="http://www.w3.org/1999/xlink">
    <!-- Generator: Sketch 49 (51002) - http://www.bohemiancoding.com/sketch -->
    <title>Group 32</title>
    <desc>Created with Sketch.</desc>
    <defs></defs>
    <g id="Page-1" stroke="none" stroke-width="1" fill="none" fill-rule="evenodd">
        <g id="OnPlace-KOREA-eng" transform="translate(-360.000000, -4387.000000)">
            <g id="Group-30" transform="translate(360.000000, 4359.000000)">
                <g id="Group-32" transform="translate(0.000000, 28.000000)">
                    <g id="coin-copy-5" opacity="0.185825893" transform="translate(97.000000, 0.000000)">
                        <g id="coin-copy-11" fill-rule="nonzero">
                            <path d="M83.1397436,143.872442 C46.3378668,143.872442 16.5041675,111.665568 16.5041675,71.9362209 C16.5041675,32.2068737 46.3378668,0 83.1397436,0 C119.94162,0 149.77532,32.2068737 149.77532,71.9362209 C149.77532,111.665568 119.94162,143.872442 83.1397436,143.872442" id="XMLID_99_" fill="#4A90E2"></path>
                            <path d="M83.3460457,115.98808 C60.5585059,115.98808 42.085627,96.0457435 42.085627,71.4455285 C42.085627,46.8453136 60.5585059,26.9029769 83.3460457,26.9029769 C106.133585,26.9029769 124.606464,46.8453136 124.606464,71.4455285 C124.606464,96.0457435 106.133585,115.98808 83.3460457,115.98808" id="XMLID_99_" fill="#FFFFFF"></path>
                            <path d="M16.2941144,71.9362209 C16.2941144,35.1922269 41.7808251,4.90193962 74.6813578,0.554936561 C72.009123,0.202962909 69.2934373,0 66.5343006,0 C29.7883569,0 0,32.2068737 0,71.9362209 C0,111.665568 29.7883569,143.872442 66.5343006,143.872442 C69.2934373,143.872442 72.009123,143.669479 74.6813578,143.317505 C41.7808251,138.970502 16.2941144,108.680215 16.2941144,71.9362209" id="XMLID_132_" fill="#4A90E2"></path>
                            <path d="M83.3718627,129.836106 L83.1383862,129.836106 C81.2379958,129.836106 79.3240312,129.728141 77.4507893,129.517353 C75.9603403,129.347695 74.8988365,128.070113 75.0753013,126.658861 C75.254481,125.247609 76.6146175,124.263075 78.0942072,124.412169 C79.7556913,124.599822 81.4524684,124.694933 83.1383862,124.694933 C84.6396946,124.694933 85.9699678,125.846556 85.9699678,127.26552 C85.9699678,128.684483 84.8758859,129.836106 83.3718627,129.836106 M99.158677,127.067585 C98.0618803,127.067585 97.027525,126.43265 96.6175836,125.401845 C96.0881891,124.072852 96.7967633,122.589623 98.2003373,122.09093 C99.7640871,121.533112 101.325122,120.877613 102.83186,120.144996 C104.167563,119.492067 105.801899,119.993331 106.488754,121.25806 C107.172895,122.520217 106.646215,124.070281 105.310512,124.718069 C103.619165,125.540656 101.87352,126.270703 100.114302,126.900496 C99.8020949,127.013602 99.4790285,127.067585 99.158677,127.067585 M62.4132717,125.103657 C62.0006156,125.103657 61.5798148,125.013686 61.1861625,124.823463 C59.5165339,124.018869 57.8631942,123.116593 56.2750108,122.129488 C55.0207532,121.353171 54.6705384,119.761978 55.4904211,118.571797 C56.3157335,117.386757 57.9935067,117.05258 59.2504792,117.828898 C60.6703423,118.710609 62.1499319,119.522914 63.6430958,120.240107 C64.9787988,120.882754 65.5136229,122.430247 64.8349121,123.694975 C64.3570996,124.589539 63.4014747,125.103657 62.4132717,125.103657 M117.008772,115.957511 C116.319202,115.957511 115.626917,115.708164 115.097523,115.212041 C114.033304,114.212083 114.025159,112.584902 115.081233,111.577232 C116.26219,110.451315 117.410569,109.237998 118.493792,107.97327 C119.441272,106.873059 121.151623,106.705971 122.313576,107.600535 C123.475529,108.495099 123.654709,110.114568 122.707229,111.21735 C121.509983,112.610607 120.242151,113.949883 118.936311,115.196617 C118.404202,115.703023 117.703772,115.957511 117.008772,115.957511 M45.8310083,112.338125 C45.0464186,112.338125 44.2672585,112.016802 43.7297195,111.399861 C42.5514775,110.037451 41.4193878,108.597922 40.3687434,107.119835 C39.5298568,105.942507 39.8583529,104.343602 41.1017511,103.549291 C42.3424346,102.75498 44.0310672,103.06345 44.8699538,104.243349 C45.8282935,105.590336 46.8572191,106.901335 47.9295823,108.137787 C48.8797775,109.235428 48.7114572,110.854897 47.552219,111.757173 C47.049973,112.147902 46.4364184,112.338125 45.8310083,112.338125 M128.943224,99.1330236 C128.579435,99.1330236 128.212931,99.0636177 127.860001,98.9196649 C126.483576,98.3515654 125.856447,96.83749 126.453712,95.5342028 C127.135138,94.0586863 127.756837,92.5266169 128.302521,90.9868357 C128.780333,89.6449897 130.319649,88.9175138 131.742227,89.3699369 C133.16209,89.8249307 133.927676,91.2798825 133.449864,92.6268697 C132.852598,94.3054626 132.173887,95.9763436 131.432735,97.5881012 C130.984786,98.5546417 129.985724,99.1330236 128.943224,99.1330236 M35.4820253,94.5907976 C34.3526505,94.5907976 33.2965764,93.9147335 32.9110686,92.8479402 C32.3110883,91.1822003 31.7789789,89.4676192 31.3283149,87.7504676 C30.9645259,86.3726333 31.8495649,84.9793756 33.3047209,84.6374876 C34.7544473,84.2878879 36.234037,85.1310402 36.5951111,86.5088744 C37.0104822,88.0846438 37.499154,89.6604132 38.0502672,91.1873414 C38.5335093,92.531758 37.776068,93.991851 36.3589197,94.4494154 C36.0711463,94.5445271 35.7725136,94.5907976 35.4820253,94.5907976 M134.071563,79.4320504 C134.000977,79.4320504 133.930391,79.4294798 133.859805,79.4243387 C132.363927,79.3138035 131.248126,78.0773515 131.362149,76.6609584 C131.489747,75.1031831 131.554903,73.5119902 131.554903,71.9362209 C131.554903,70.5172572 132.771153,69.2833758 134.269747,69.2833758 C135.76834,69.2833758 136.98459,70.3501691 136.98459,71.7691328 L136.98459,71.9362209 C136.98459,73.6456607 136.914004,75.3679535 136.775547,77.0593993 C136.666953,78.4063865 135.475137,79.4320504 134.071563,79.4320504 M32.0097406,74.5350836 C30.5111471,74.5350836 29.2948972,73.4117374 29.2948972,71.9927738 L29.2948972,71.9362209 C29.2948972,70.183081 29.368198,68.4196589 29.5120847,66.6999366 C29.6315378,65.2861142 30.9319478,64.237315 32.4332562,64.3401384 C33.9291349,64.4532442 35.0449355,65.6922668 34.9254824,67.1060893 C34.7924551,68.6947116 34.724584,70.3193221 34.724584,71.9362209 C34.724584,73.3551845 33.5083342,74.5350836 32.0097406,74.5350836 M132.285196,59.2066777 C131.071661,59.2066777 129.96672,58.4303606 129.657228,57.265885 C129.236427,55.6849745 128.74504,54.1117757 128.191212,52.5848474 C127.705255,51.2430014 128.462697,49.7803378 129.879845,49.3202029 C131.299708,48.8549268 132.844454,49.5746909 133.327696,50.9191075 C133.930391,52.5797063 134.465215,54.2917167 134.921309,56.0062978 C135.287813,57.384132 134.405489,58.7799604 132.953048,59.1269895 C132.733145,59.1835424 132.510528,59.2066777 132.285196,59.2066777 M35.4467324,54.5359224 C35.1562441,54.5359224 34.863041,54.4896519 34.5725528,54.3971108 C33.1526897,53.942117 32.3925336,52.482024 32.8730608,51.1376074 C33.4730412,49.4667263 34.1544669,47.7984158 34.9010488,46.1815171 C35.5037441,44.8782298 37.100072,44.2895656 38.4764976,44.8550945 C39.8502083,45.4231941 40.4773372,46.93984 39.8773568,48.2405567 C39.1905014,49.7237849 38.5660874,51.2558543 38.0176891,52.7879238 C37.6294665,53.8598582 36.5788221,54.5359224 35.4467324,54.5359224 M123.597697,40.6727507 C122.726232,40.6727507 121.873772,40.2768804 121.347092,39.5416927 C120.386037,38.1998467 119.354397,36.8914183 118.279319,35.6549663 C117.326409,34.5598965 117.492014,32.9378566 118.648538,32.0355808 C119.805061,31.133305 121.518127,31.2901108 122.471037,32.3851806 C123.651994,33.7450207 124.786799,35.1819784 125.842873,36.6600655 C126.684474,37.8348234 126.358693,39.4337281 125.11801,40.2306098 C124.651056,40.5287979 124.124377,40.6727507 123.597697,40.6727507 M45.7522779,36.762889 C45.1495826,36.762889 44.5414577,36.5726656 44.0364969,36.1819365 C42.8745439,35.2848019 42.7035087,33.6653325 43.6537039,32.5651216 C44.8509499,31.177005 46.1214966,29.8403002 47.4300511,28.5935658 C48.48884,27.5910372 50.2073359,27.5833254 51.2688396,28.5832835 C52.3330582,29.5858121 52.3384879,31.2104226 51.2824139,32.2180924 C50.0987421,33.3465798 48.9449337,34.557326 47.8562815,35.8194838 C47.3241722,36.4415657 46.5422973,36.762889 45.7522779,36.762889 M108.416293,26.4034263 C107.908617,26.4034263 107.395512,26.2697558 106.939418,25.9869913 C105.519555,25.1104214 104.037251,24.3032573 102.535942,23.5860638 C101.200239,22.9459878 100.6627,21.4010654 101.338696,20.1337664 C102.014692,18.8716085 103.643598,18.3549207 104.984731,18.9975673 C106.662504,19.7970196 108.315844,20.6992954 109.901312,21.6786888 C111.158285,22.4550058 111.513929,24.0487693 110.694047,25.2363801 C110.172797,25.9947031 109.306762,26.4034263 108.416293,26.4034263 M62.3155374,23.9613694 C61.3273344,23.9613694 60.3744244,23.4498227 59.8938971,22.5578293 C59.2124714,21.2931008 59.7445807,19.7456079 61.0802836,19.1003907 C62.7716311,18.2855149 64.5199902,17.5528978 66.2819236,16.9308159 C67.6827828,16.4321222 69.2492474,17.1056158 69.775927,18.4371795 C70.2998918,19.7661726 69.5886028,21.2468303 68.182314,21.745524 C66.6131345,22.3007706 65.0520995,22.951129 63.5426466,23.6811755 C63.1517092,23.8713988 62.7281936,23.9613694 62.3155374,23.9613694 M88.394323,19.465414 C88.2884441,19.465414 88.1825652,19.4602728 88.0766863,19.4474199 C86.4423506,19.2674788 84.7808664,19.1775083 83.1383862,19.1775083 C81.6397926,19.1775083 80.3665311,18.0258857 80.3665311,16.606922 C80.3665311,15.1879584 81.5257692,14.0363358 83.0243628,14.0363358 L83.1383862,14.0363358 C84.9899094,14.0363358 86.8631513,14.1391592 88.7038151,14.3422355 C90.1915493,14.5041825 91.2611976,15.7791933 91.0874476,17.1904451 C90.9299867,18.5014441 89.7517447,19.465414 88.394323,19.465414" id="XMLID_115_" fill="#FFFFFF"></path>
                            <path d="M16.1698785,74.4705593 L0,74.4705593 C0.0539175677,76.176169 0.156360946,77.8665727 0.320809528,79.5392361 L16.5041675,79.5392361 C16.337023,77.8665727 16.226492,76.176169 16.1698785,74.4705593" id="XMLID_114_" fill="#FFFFFF"></path>
                            <path d="M17.3293758,61.6039181 L0.916275058,61.6039181 C0.689075697,63.2740471 0.524835196,64.9669852 0.412604187,66.672595 L16.833917,66.672595 C16.9488853,64.9669852 17.1021765,63.2740471 17.3293758,61.6039181" id="XMLID_113_" fill="#FFFFFF"></path>
                            <path d="M18.1573349,87.3372004 L1.65041675,87.3372004 C2.00800704,89.0504132 2.42061123,90.7408169 2.89098,92.4058772 L19.3923968,92.4058772 C18.9247787,90.7408169 18.5149252,89.0504132 18.1573349,87.3372004" id="XMLID_112_" fill="#FFFFFF"></path>
                            <path d="M21.6664866,100.203842 L5.36385443,100.203842 C6.0562547,101.93226 6.82196793,103.617595 7.63655649,105.272518 L23.9310428,105.272518 C23.1164543,103.62013 22.3588869,101.929726 21.6664866,100.203842" id="XMLID_111_" fill="#FFFFFF"></path>
                            <path d="M19.805001,48.737277 L3.50207451,48.737277 C2.97161053,50.4023373 2.47651081,52.0876724 2.06302093,53.8059538 L18.404032,53.8059538 C18.8175218,52.0927411 19.2772573,50.3972687 19.805001,48.737277" id="XMLID_110_" fill="#FFFFFF"></path>
                            <path d="M25.5814596,35.8706359 L9.13687394,35.8706359 C8.23242173,37.5204902 7.38004404,39.2083596 6.60166699,40.9393127 L23.0572157,40.9393127 C23.8355927,39.2108939 24.6770074,37.5204902 25.5814596,35.8706359" id="XMLID_109_" fill="#FFFFFF"></path>
                            <path d="M36.3091684,20.6646055 L20.0651433,20.6646055 C18.5264634,22.2764447 17.0635006,23.9668484 15.6789591,25.7332823 L31.9175758,25.7332823 C33.3048215,23.9668484 34.7704885,22.2764447 36.3091684,20.6646055" id="XMLID_108_" fill="#FFFFFF"></path>
                            <path d="M53.2259401,7.79796432 L36.8689896,7.79796432 C34.0888793,9.29322398 31.4230201,10.986162 28.8822931,12.8666411 L45.2283624,12.8666411 C47.7718097,10.986162 50.4431095,9.29322398 53.2259401,7.79796432" id="XMLID_107_" fill="#FFFFFF"></path>
                            <path d="M29.8435466,115.79977 L13.6159382,115.79977 C14.8702461,117.556067 16.1948385,119.24647 17.5951218,120.868447 L33.8335433,120.868447 C32.4332599,119.24647 31.1005578,117.556067 29.8435466,115.79977" id="XMLID_106_" fill="#FFFFFF"></path>
                            <path d="M25.5814596,128.276513 C27.7545663,130.10884 30.0305099,131.809381 32.4119967,133.34519 L48.687294,133.34519 C46.2949823,131.806846 43.9946825,130.116443 41.8134571,128.276513 L25.5814596,128.276513 Z" id="XMLID_105_" fill="#FFFFFF"></path>
                        </g>
                        <path d="M60.7270891,57.8504489 C68.3740635,57.8504489 74.3013834,63.4369674 74.3013834,70.739606 C74.3013834,78.0422445 68.3740635,83.7017894 60.7270891,83.7017894 C53.0801147,83.7017894 47.1527948,78.0422445 47.1527948,70.739606 C47.1527948,63.4004542 53.0801147,57.8504489 60.7270891,57.8504489 Z M60.7636775,61.7208473 C55.7144791,61.7208473 51.5434021,65.6642721 51.5434021,70.739606 C51.5434021,75.8149398 55.7510675,79.831391 60.7636775,79.831391 C65.7762875,79.831391 69.8741877,75.8149398 69.8741877,70.739606 C69.8741877,65.6642721 65.7762875,61.7208473 60.7636775,61.7208473 Z M89.1196831,57.9599884 C95.5592405,57.9599884 99.2546683,61.1366362 99.2546683,66.6866415 C99.2546683,72.455726 95.5592405,75.8149398 89.1196831,75.8149398 L83.2289516,75.8149398 L83.2289516,83.5192235 L78.9115211,83.5192235 L78.9115211,57.9599884 L89.1196831,57.9599884 Z M88.9367411,71.9445413 C92.8882877,71.9445413 95.1201798,70.2649344 95.1201798,66.7961811 C95.1201798,63.4369674 92.8882877,61.8303869 88.9367411,61.8303869 L83.2289516,61.8303869 L83.2289516,71.9445413 L88.9367411,71.9445413 Z M103.53551,57.9599884 L107.852941,57.9599884 L107.852941,79.6123118 L118.939224,79.6123118 L118.939224,83.5192235 L103.53551,83.5192235 L103.53551,57.9599884 Z" id="OPL" fill="#4A90E2"></path>
                    </g>
                    <path d="M0.277105041,12.1153603 L14.1554492,12.1153603 L14.1554492,15.5992415 L9.30611095,15.5992415 L9.30611095,28.2888748 L5.08025908,28.2888748 L5.08025908,15.5992415 L0.277105041,15.5992415 L0.277105041,12.1153603 Z M22.7687975,12 C27.7797803,12 31.5206984,15.5069532 31.5206984,20.1905815 C31.5206984,24.920354 27.7797803,28.4734513 22.7687975,28.4734513 C17.7578147,28.4734513 14.0168966,24.920354 14.0168966,20.1905815 C14.0168966,15.4838812 17.7578147,12 22.7687975,12 Z M22.8149817,15.5992415 C20.3903126,15.5992415 18.358209,17.5834387 18.358209,20.2136536 C18.358209,22.8438685 20.4134047,24.8742099 22.8149817,24.8742099 C25.2396508,24.8742099 27.1793861,22.8438685 27.1793861,20.2136536 C27.1793861,17.5834387 25.2396508,15.5992415 22.8149817,15.5992415 Z M49.1861447,28.2888748 L44.1289778,28.2888748 L39.926218,22.0363464 L37.8479302,24.3435525 L37.8479302,28.2888748 L33.6220783,28.2888748 L33.6220783,12.1153603 L37.8479302,12.1153603 L37.8479302,18.8985461 L43.921149,12.1153603 L48.8166714,12.1153603 L42.8127288,18.8062579 L49.1861447,28.2888748 Z M50.9180513,12.1153603 L63.6879752,12.1153603 L63.6879752,15.4838812 L55.1439031,15.4838812 L55.1439031,18.5063211 L62.8566601,18.5063211 L62.8566601,21.8517699 L55.1439031,21.874842 L55.1439031,24.920354 L63.9188961,24.920354 L63.9188961,28.2888748 L50.9180513,28.2888748 L50.9180513,12.1153603 Z M66.5052098,12.1153603 L70.2230358,12.1153603 L77.5663193,21.8517699 L77.5663193,12.1153603 L81.4919741,12.1153603 L81.4919741,28.2888748 L77.7972402,28.2888748 L70.4539566,18.5986094 L70.4539566,28.2888748 L66.5052098,28.2888748 L66.5052098,12.1153603 Z M84.65559,12.1153603 L88.8814418,12.1153603 L88.8814418,28.2888748 L84.65559,28.2888748 L84.65559,12.1153603 Z M91.3753872,12.1153603 L105.276823,12.1153603 L105.276823,14.8840076 L96.7327513,24.8972819 L105.415376,24.8972819 L105.415376,28.2888748 L91.0751901,28.2888748 L91.0751901,25.5432996 L99.6192622,15.5069532 L91.3753872,15.5069532 L91.3753872,12.1153603 Z M107.632216,12.1153603 L120.40214,12.1153603 L120.40214,15.4838812 L111.858068,15.4838812 L111.858068,18.5063211 L119.570825,18.5063211 L119.570825,21.8517699 L111.858068,21.874842 L111.858068,24.920354 L120.633061,24.920354 L120.633061,28.2888748 L107.632216,28.2888748 L107.632216,12.1153603 Z M130.193185,12.1153603 C135.319628,12.1153603 138.806533,15.3915929 138.806533,20.1905815 C138.806533,25.0126422 135.273444,28.2888748 130.03154,28.2888748 L123.219375,28.2888748 L123.219375,12.1153603 L130.193185,12.1153603 Z M130.308645,24.8742099 C132.756407,24.8742099 134.488313,23.0053729 134.488313,20.2367257 C134.488313,17.4450063 132.664038,15.5530973 130.100817,15.5530973 L127.445227,15.5530973 L127.445227,24.8742099 L130.308645,24.8742099 Z M13.578147,56.5521492 L12.4697268,53.6912137 L5.47282456,53.6912137 L4.34131231,56.5521492 L0,56.5521492 L6.95071811,40.3786346 L11.2920304,40.3786346 L18.0811039,56.5521492 L13.578147,56.5521492 Z M6.74288933,50.4611252 L11.2227542,50.4611252 L9.00591383,44.69311 L6.74288933,50.4611252 Z M30.620107,45.3621997 C28.9112926,44.3931732 26.7406364,43.6317952 25.4012954,43.6317952 C24.3852436,43.6317952 23.7155731,44.0009482 23.7155731,44.7392541 C23.7155731,47.4156131 32.2365531,45.8928571 32.2365531,51.7070164 C32.2365531,55.0063211 29.3269502,56.6905815 25.7245846,56.6905815 C23.0228105,56.6905815 20.2055759,55.6984829 18.2658406,54.1065107 L19.9053788,50.8072061 C21.568009,52.2376738 24.0850465,53.2528445 25.7707688,53.2528445 C27.0177415,53.2528445 27.8028724,52.7914033 27.8028724,51.937737 C27.8028724,49.1921618 19.2818924,50.8533502 19.2818924,45.1314791 C19.2818924,42.1090392 21.8451141,40.1940582 25.7476767,40.1940582 C28.1261616,40.1940582 30.5277387,40.9323641 32.213461,42.0167509 L30.620107,45.3621997 Z M45.537595,45.3621997 C43.8287806,44.3931732 41.6581245,43.6317952 40.3187834,43.6317952 C39.3027316,43.6317952 38.6330611,44.0009482 38.6330611,44.7392541 C38.6330611,47.4156131 47.1540411,45.8928571 47.1540411,51.7070164 C47.1540411,55.0063211 44.2444382,56.6905815 40.6420727,56.6905815 C37.9402985,56.6905815 35.1230639,55.6984829 33.1833286,54.1065107 L34.8228668,50.8072061 C36.485497,52.2376738 39.0025345,53.2528445 40.6882568,53.2528445 C41.9352295,53.2528445 42.7203605,52.7914033 42.7203605,51.937737 C42.7203605,49.1921618 34.1993805,50.8533502 34.1993805,45.1314791 C34.1993805,42.1090392 36.7626021,40.1940582 40.6651647,40.1940582 C43.0436497,40.1940582 45.4452267,40.9323641 47.130949,42.0167509 L45.537595,45.3621997 Z M49.3016052,40.3786346 L62.0715291,40.3786346 L62.0715291,43.7471555 L53.5274571,43.7471555 L53.5274571,46.7695954 L61.240214,46.7695954 L61.240214,50.1150442 L53.5274571,50.1381163 L53.5274571,53.1836283 L62.30245,53.1836283 L62.30245,56.5521492 L49.3016052,56.5521492 L49.3016052,40.3786346 Z M63.4801464,40.3786346 L77.3584906,40.3786346 L77.3584906,43.8625158 L72.5091524,43.8625158 L72.5091524,56.5521492 L68.2833005,56.5521492 L68.2833005,43.8625158 L63.4801464,43.8625158 L63.4801464,40.3786346 Z M90.2207829,45.3621997 C88.5119685,44.3931732 86.3413123,43.6317952 85.0019713,43.6317952 C83.9859195,43.6317952 83.3162489,44.0009482 83.3162489,44.7392541 C83.3162489,47.4156131 91.8372289,45.8928571 91.8372289,51.7070164 C91.8372289,55.0063211 88.927626,56.6905815 85.3252605,56.6905815 C82.6234863,56.6905815 79.8062518,55.6984829 77.8665165,54.1065107 L79.5060546,50.8072061 C81.1686849,52.2376738 83.6857223,53.2528445 85.3714447,53.2528445 C86.6184173,53.2528445 87.4035483,52.7914033 87.4035483,51.937737 C87.4035483,49.1921618 78.8825683,50.8533502 78.8825683,45.1314791 C78.8825683,42.1090392 81.4457899,40.1940582 85.3483526,40.1940582 C87.7268375,40.1940582 90.1284145,40.9323641 91.8141369,42.0167509 L90.2207829,45.3621997 Z M13.578147,84.8154235 L12.4697268,81.954488 L5.47282456,81.954488 L4.34131231,84.8154235 L0,84.8154235 L6.95071811,68.641909 L11.2920304,68.641909 L18.0811039,84.8154235 L13.578147,84.8154235 Z M6.74288933,78.7243995 L11.2227542,78.7243995 L9.00591383,72.9563843 L6.74288933,78.7243995 Z M26.5097156,68.641909 C31.6361588,68.641909 35.1230639,71.9181416 35.1230639,76.7171302 C35.1230639,81.5391909 31.5899747,84.8154235 26.348071,84.8154235 L19.5359054,84.8154235 L19.5359054,68.641909 L26.5097156,68.641909 Z M26.625176,81.4007585 C29.0729372,81.4007585 30.8048437,79.5319216 30.8048437,76.7632743 C30.8048437,73.971555 28.9805689,72.079646 26.4173472,72.079646 L23.7617573,72.079646 L23.7617573,81.4007585 L26.625176,81.4007585 Z M35.3770769,68.641909 L39.926218,68.641909 L43.9673331,80.3394437 L48.0315404,68.641909 L52.3728527,68.641909 L46.045621,84.8154235 L41.6581245,84.8154235 L35.3770769,68.641909 Z M64.5192903,84.8154235 L63.4108702,81.954488 L56.4139679,81.954488 L55.2824556,84.8154235 L50.9411433,84.8154235 L57.8918614,68.641909 L62.2331738,68.641909 L69.0222473,84.8154235 L64.5192903,84.8154235 Z M57.6840327,78.7243995 L62.1638975,78.7243995 L59.9470572,72.9563843 L57.6840327,78.7243995 Z M70.4770487,68.641909 L74.1948747,68.641909 L81.5381583,78.3783186 L81.5381583,68.641909 L85.463813,68.641909 L85.463813,84.8154235 L81.7690791,84.8154235 L74.4257956,75.125158 L74.4257956,84.8154235 L70.4770487,84.8154235 L70.4770487,68.641909 Z M87.2188116,68.641909 L101.097156,68.641909 L101.097156,72.1257901 L96.2478175,72.1257901 L96.2478175,84.8154235 L92.0219656,84.8154235 L92.0219656,72.1257901 L87.2188116,72.1257901 L87.2188116,68.641909 Z M112.966488,84.8154235 L111.858068,81.954488 L104.861166,81.954488 L103.729654,84.8154235 L99.3883413,84.8154235 L106.339059,68.641909 L110.680372,68.641909 L117.469445,84.8154235 L112.966488,84.8154235 Z M106.131231,78.7243995 L110.611095,78.7243995 L108.394255,72.9563843 L106.131231,78.7243995 Z M129.200225,80.6393805 L129.200225,76.5556258 L132.848775,76.5556258 L132.848775,82.9235145 C131.116868,84.1232617 128.36891,85 126.105886,85 C121.164179,85 117.446353,81.4469027 117.446353,76.7402023 C117.446353,72.0335019 121.256547,68.5265487 126.382991,68.5265487 C128.80766,68.5265487 131.370881,69.4494311 133.033512,70.926043 L130.631935,73.8792668 C129.47733,72.7948799 127.837792,72.1027181 126.359899,72.1027181 C123.750493,72.1027181 121.787665,74.1099874 121.787665,76.7402023 C121.787665,79.3934893 123.773585,81.4007585 126.406083,81.4007585 C127.214306,81.4007585 128.230358,81.1238938 129.200225,80.6393805 Z M135.642917,68.641909 L148.412841,68.641909 L148.412841,72.0104298 L139.868769,72.0104298 L139.868769,75.0328698 L147.581526,75.0328698 L147.581526,78.3783186 L139.868769,78.4013906 L139.868769,81.4469027 L148.643762,81.4469027 L148.643762,84.8154235 L135.642917,84.8154235 L135.642917,68.641909 Z M162.383554,73.6254741 C160.67474,72.6564475 158.504083,71.8950695 157.164742,71.8950695 C156.148691,71.8950695 155.47902,72.2642225 155.47902,73.0025284 C155.47902,75.6788875 164,74.1561315 164,79.9702908 C164,83.2695954 161.090397,84.9538559 157.488032,84.9538559 C154.786257,84.9538559 151.969023,83.9617573 150.029288,82.3697851 L151.668826,79.0704804 C153.331456,80.5009482 155.848493,81.5161188 157.534216,81.5161188 C158.781188,81.5161188 159.566319,81.0546776 159.566319,80.2010114 C159.566319,77.4554362 151.045339,79.1166245 151.045339,73.3947535 C151.045339,70.3723135 153.608561,68.4573325 157.511124,68.4573325 C159.889609,68.4573325 162.291186,69.1956384 163.976908,70.2800253 L162.383554,73.6254741 Z" id="TOKENIZED-ASSETS-ADV" fill="#00436F"></path>
                </g>
            </g>
        </g>
    </g>
</svg>