<?xml version="1.0" encoding="UTF-8"?>
<svg width="1920px" height="8352px" viewBox="0 0 1920 8352" version="1.1" xmlns="http://www.w3.org/2000/svg" xmlns:xlink="http://www.w3.org/1999/xlink">
    <!-- Generator: Sketch 49.3 (51167) - http://www.bohemiancoding.com/sketch -->
    <title>OnPlace KOREA</title>
    <desc>Created with Sketch.</desc>
    <defs></defs>
    <g id="OnPlace-KOREA" stroke="none" stroke-width="1" fill="none" fill-rule="evenodd" opacity="0.1">
        <g id="Group-6-Copy" transform="translate(1209.000000, 399.000000)" stroke-width="6">
            <circle id="Oval" stroke="#F5A623" cx="755" cy="755" r="755"></circle>
            <circle id="Oval-Copy" stroke="#F5A623" cx="729" cy="756" r="486"></circle>
            <circle id="Oval-Copy-2" stroke="#F5A623" cx="735" cy="756" r="284"></circle>
            <path d="M721,619.773503 L823,678.66323 C829.188022,682.235886 833,688.838426 833,695.983738 L833,813.763193 C833,820.908505 829.188022,827.511045 823,831.083701 L721,889.973429 C714.811978,893.546085 707.188022,893.546085 701,889.973429 L599,831.083701 C592.811978,827.511045 589,820.908505 589,813.763193 L589,695.983738 C589,688.838426 592.811978,682.235886 599,678.66323 L701,619.773503 C707.188022,616.200847 714.811978,616.200847 721,619.773503 Z" id="Polygon-2" stroke="#1E9DF2"></path>
        </g>
        <g id="CIRCLES" transform="translate(-700.000000, 1433.000000)" stroke-width="6">
            <g id="Group-6" transform="translate(5.000000, 0.000000)">
                <circle id="Oval" stroke="#F5A623" cx="755" cy="755" r="755"></circle>
                <circle id="Oval-Copy" stroke="#F5A623" cx="729" cy="756" r="486"></circle>
                <circle id="Oval-Copy-2" stroke="#F5A623" cx="735" cy="756" r="284"></circle>
                <path d="M721,619.773503 L823,678.66323 C829.188022,682.235886 833,688.838426 833,695.983738 L833,813.763193 C833,820.908505 829.188022,827.511045 823,831.083701 L721,889.973429 C714.811978,893.546085 707.188022,893.546085 701,889.973429 L599,831.083701 C592.811978,827.511045 589,820.908505 589,813.763193 L589,695.983738 C589,688.838426 592.811978,682.235886 599,678.66323 L701,619.773503 C707.188022,616.200847 714.811978,616.200847 721,619.773503 Z" id="Polygon-2" stroke="#1E9DF2"></path>
            </g>
            <g id="Group-6-Copy-2" transform="translate(1910.000000, 755.000000)">
                <circle id="Oval" stroke="#F5A623" cx="755" cy="755" r="755"></circle>
                <circle id="Oval-Copy" stroke="#F5A623" cx="729" cy="756" r="486"></circle>
                <circle id="Oval-Copy-2" stroke="#F5A623" cx="735" cy="756" r="284"></circle>
                <path d="M721,619.773503 L823,678.66323 C829.188022,682.235886 833,688.838426 833,695.983738 L833,813.763193 C833,820.908505 829.188022,827.511045 823,831.083701 L721,889.973429 C714.811978,893.546085 707.188022,893.546085 701,889.973429 L599,831.083701 C592.811978,827.511045 589,820.908505 589,813.763193 L589,695.983738 C589,688.838426 592.811978,682.235886 599,678.66323 L701,619.773503 C707.188022,616.200847 714.811978,616.200847 721,619.773503 Z" id="Polygon-2" stroke="#1E9DF2"></path>
            </g>
            <g id="Group-6-Copy-3" transform="translate(0.000000, 2265.000000)">
                <circle id="Oval" stroke="#F5A623" cx="755" cy="755" r="755"></circle>
                <circle id="Oval-Copy" stroke="#F5A623" cx="729" cy="756" r="486"></circle>
                <circle id="Oval-Copy-2" stroke="#F5A623" cx="735" cy="756" r="284"></circle>
                <path d="M721,619.773503 L823,678.66323 C829.188022,682.235886 833,688.838426 833,695.983738 L833,813.763193 C833,820.908505 829.188022,827.511045 823,831.083701 L721,889.973429 C714.811978,893.546085 707.188022,893.546085 701,889.973429 L599,831.083701 C592.811978,827.511045 589,820.908505 589,813.763193 L589,695.983738 C589,688.838426 592.811978,682.235886 599,678.66323 L701,619.773503 C707.188022,616.200847 714.811978,616.200847 721,619.773503 Z" id="Polygon-2" stroke="#1E9DF2"></path>
            </g>
            <g id="Group-6-Copy-4" transform="translate(1910.000000, 3775.000000)">
                <circle id="Oval" stroke="#F5A623" cx="755" cy="755" r="755"></circle>
                <circle id="Oval-Copy" stroke="#F5A623" cx="729" cy="756" r="486"></circle>
                <circle id="Oval-Copy-2" stroke="#F5A623" cx="735" cy="756" r="284"></circle>
                <path d="M721,619.773503 L823,678.66323 C829.188022,682.235886 833,688.838426 833,695.983738 L833,813.763193 C833,820.908505 829.188022,827.511045 823,831.083701 L721,889.973429 C714.811978,893.546085 707.188022,893.546085 701,889.973429 L599,831.083701 C592.811978,827.511045 589,820.908505 589,813.763193 L589,695.983738 C589,688.838426 592.811978,682.235886 599,678.66323 L701,619.773503 C707.188022,616.200847 714.811978,616.200847 721,619.773503 Z" id="Polygon-2" stroke="#1E9DF2"></path>
            </g>
            <g id="Group-6-Copy-5" transform="translate(1910.000000, 5438.000000)">
                <circle id="Oval" stroke="#F5A623" cx="755" cy="755" r="755"></circle>
                <circle id="Oval-Copy" stroke="#F5A623" cx="729" cy="756" r="486"></circle>
                <circle id="Oval-Copy-2" stroke="#F5A623" cx="735" cy="756" r="284"></circle>
                <path d="M721,619.773503 L823,678.66323 C829.188022,682.235886 833,688.838426 833,695.983738 L833,813.763193 C833,820.908505 829.188022,827.511045 823,831.083701 L721,889.973429 C714.811978,893.546085 707.188022,893.546085 701,889.973429 L599,831.083701 C592.811978,827.511045 589,820.908505 589,813.763193 L589,695.983738 C589,688.838426 592.811978,682.235886 599,678.66323 L701,619.773503 C707.188022,616.200847 714.811978,616.200847 721,619.773503 Z" id="Polygon-2" stroke="#1E9DF2"></path>
            </g>
            <g id="Group-6-Copy-6" transform="translate(5.000000, 6152.000000)">
                <circle id="Oval" stroke="#F5A623" cx="755" cy="755" r="755"></circle>
                <circle id="Oval-Copy" stroke="#F5A623" cx="729" cy="756" r="486"></circle>
                <circle id="Oval-Copy-2" stroke="#F5A623" cx="735" cy="756" r="284"></circle>
                <path d="M721,619.773503 L823,678.66323 C829.188022,682.235886 833,688.838426 833,695.983738 L833,813.763193 C833,820.908505 829.188022,827.511045 823,831.083701 L721,889.973429 C714.811978,893.546085 707.188022,893.546085 701,889.973429 L599,831.083701 C592.811978,827.511045 589,820.908505 589,813.763193 L589,695.983738 C589,688.838426 592.811978,682.235886 599,678.66323 L701,619.773503 C707.188022,616.200847 714.811978,616.200847 721,619.773503 Z" id="Polygon-2" stroke="#1E9DF2"></path>
            </g>
        </g>
    </g>
</svg>