<?xml version="1.0" encoding="UTF-8"?>
<svg width="40px" height="40px" viewBox="0 0 40 40" version="1.1" xmlns="http://www.w3.org/2000/svg" xmlns:xlink="http://www.w3.org/1999/xlink">
    <!-- Generator: Sketch 49 (51002) - http://www.bohemiancoding.com/sketch -->
    <title>BTC</title>
    <desc>Created with Sketch.</desc>
    <defs></defs>
    <g id="NEW-Crowd-Sale" stroke="none" stroke-width="1" fill="none" fill-rule="evenodd">
        <g id="Korea-page-CROWSALE" transform="translate(-360.000000, -713.000000)" fill-rule="nonzero">
            <g id="BTC" transform="translate(360.000000, 713.000000)">
                <path d="M39.8301095,20.0987861 C39.8301095,31.0896318 30.9204577,39.9992836 19.9296119,39.9992836 C8.93876617,39.9992836 0.0291144279,31.0896318 0.0291144279,20.0987861 C0.0291144279,9.1079403 8.93876617,0.198288557 19.9296119,0.198288557 C30.9204577,0.198288557 39.8301095,9.1079403 39.8301095,20.0987861" id="Fill-504" fill="#F7931A"></path>
                <path d="M24.761393,25.9148259 C24.5948259,26.4746269 24.2200995,26.9359204 23.7062687,27.2137313 C23.1924378,27.4919403 22.601393,27.5532338 22.041592,27.3864677 L16.4374129,25.7174129 L17.6859701,21.5257711 L23.2897512,23.1950249 L23.2899502,23.1950249 C24.4453731,23.5391045 25.1056716,24.759204 24.761393,25.9148259 M26.6515423,17.3247761 C26.9293532,17.838607 26.9906468,18.4296517 26.8240796,18.9896517 C26.479801,20.1448756 25.2591045,20.8047761 24.1042786,20.4612935 L24.1040796,20.4612935 L18.5000995,18.7922388 L19.7482587,14.600597 L25.3524378,16.2696517 C25.9122388,16.4364179 26.3735323,16.8109453 26.6515423,17.3247761 M29.160199,15.9675622 C28.519602,14.7836816 27.4563184,13.92 26.1665672,13.5359204 L25.4250746,13.3152239 L26.4630846,9.82985075 L23.799801,9.03661692 L22.761791,12.52199 L20.4879602,11.8447761 L21.5261692,8.35940299 L20.8881592,8.16935323 L18.3034826,7.39960199 L17.3028856,10.759204 L14.1530348,9.82109453 L13.2640796,12.8061692 L16.4139303,13.7444776 L13.1779104,24.6097512 L10.0280597,23.6716418 L9.13910448,26.6569154 L12.2887562,27.5948259 L11.4443781,30.4304478 L12.0821891,30.6204975 L14.6668657,31.3902488 L15.5488557,28.4288557 L17.8280597,29.1076617 L16.9460697,32.0692537 L19.598607,32.8593035 L20.480597,29.8977114 L21.2272637,30.12 C21.7032836,30.2616915 22.1894527,30.3319403 22.6726368,30.3319403 C23.4985075,30.3319403 24.3166169,30.1267662 25.0634826,29.7225871 C26.2473632,29.08199 27.1108458,28.0189055 27.4951244,26.7287562 C27.8991045,25.3717413 27.6997015,23.9777114 27.0571144,22.8302488 C28.2236816,22.2214925 29.1532338,21.161393 29.5576119,19.8037811 C29.9418905,18.5136318 29.800597,17.1512438 29.160199,15.9675622" id="Fill-505" fill="#FFFFFF"></path>
            </g>
        </g>
    </g>
</svg>