<?xml version="1.0" encoding="UTF-8"?>
<svg width="32px" height="36px" viewBox="0 0 32 36" version="1.1" xmlns="http://www.w3.org/2000/svg" xmlns:xlink="http://www.w3.org/1999/xlink">
    <!-- Generator: Sketch 49.3 (51167) - http://www.bohemiancoding.com/sketch -->
    <title>Group 5</title>
    <desc>Created with Sketch.</desc>
    <defs>
        <linearGradient x1="50%" y1="-2.48949813e-15%" x2="50%" y2="100%" id="linearGradient-1">
            <stop stop-color="#56CCF2" offset="0%"></stop>
            <stop stop-color="#2F80ED" offset="100%"></stop>
        </linearGradient>
    </defs>
    <g id="Page-1" stroke="none" stroke-width="1" fill="none" fill-rule="evenodd">
        <g id="OnPlace-KOREA-eng" transform="translate(-516.000000, -3735.000000)">
            <g id="TEAM" transform="translate(360.000000, 3242.000000)">
                <g id="1-copy-6" transform="translate(0.000000, 289.000000)">
                    <g id="Group-5" transform="translate(157.000000, 205.000000)">
                        <path d="M17.4919953,0.85260627 L27.4919953,6.6015003 C29.04351,7.49344963 30,9.14661016 30,10.936239 L30,22.3970944 C30,24.1867232 29.04351,25.8398837 27.4919953,26.731833 L17.4919953,32.4807271 C15.9490636,33.3677422 14.0509364,33.3677422 12.5080047,32.4807271 L2.50800467,26.731833 C0.956490038,25.8398837 8.8817842e-15,24.1867232 6.21724894e-15,22.3970944 L0,10.936239 C-8.8817842e-16,9.14661016 0.956490038,7.49344963 2.50800467,6.6015003 L12.5080047,0.85260627 C14.0509364,-0.0344088429 15.9490636,-0.0344088429 17.4919953,0.85260627 Z" id="Polygon-3" stroke="url(#linearGradient-1)" stroke-width="2" fill="url(#linearGradient-1)"></path>
                        <g id="linkedin-logo" transform="translate(5.833333, 5.833333)" fill="#FFFFFF" fill-rule="nonzero">
                            <path d="M19.1666667,11.2401521 L19.1666667,18.3333333 L15.0586294,18.3333333 L15.0586294,11.7152106 C15.0586294,10.0526843 14.4644461,8.91807501 12.9774728,8.91807501 C11.8423572,8.91807501 11.1668492,9.68271849 10.8696684,10.4223824 C10.7612948,10.6868093 10.7333993,11.054857 10.7333993,11.4250012 L10.7333993,18.3333333 L6.62398061,18.3333333 C6.62398061,18.3333333 6.67932601,7.12440572 6.62398061,5.96307723 L10.7329982,5.96307723 L10.7329982,7.71651152 C10.7246652,7.72962581 10.7138368,7.74376605 10.705994,7.75647888 L10.7329982,7.75647888 L10.7329982,7.71651152 C11.2789214,6.87483273 12.2538829,5.67246631 14.4361495,5.67246631 C17.1398306,5.67242171 19.1666667,7.44048691 19.1666667,11.2401521 Z M2.32535372,0 C0.919526935,0 0,0.923040926 0,2.13687119 C0,3.32424984 0.892923708,4.27530361 2.27081042,4.27530361 L2.29826032,4.27530361 C3.73131419,4.27530361 4.62254456,3.32442827 4.62254456,2.13687119 C4.59554028,0.923040926 3.73131419,0 2.32535372,0 Z M0.244063437,18.3333333 L4.35192246,18.3333333 L4.35192246,5.96307723 L0.244063437,5.96307723 L0.244063437,18.3333333 Z" id="LinkedIn"></path>
                        </g>
                    </g>
                </g>
            </g>
        </g>
    </g>
</svg>