<?xml version="1.0" encoding="UTF-8"?>
<svg width="175px" height="77px" viewBox="0 0 175 77" version="1.1" xmlns="http://www.w3.org/2000/svg" xmlns:xlink="http://www.w3.org/1999/xlink">
    <!-- Generator: Sketch 49 (51002) - http://www.bohemiancoding.com/sketch -->
    <title>Group 5</title>
    <desc>Created with Sketch.</desc>
    <defs></defs>
    <g id="Page-1" stroke="none" stroke-width="1" fill="none" fill-rule="evenodd">
        <g id="OnPlace-KOREA" transform="translate(-21.000000, -103.000000)" fill="#FFFFFF" fill-rule="nonzero">
            <g id="2" transform="translate(0.000000, 88.000000)">
                <g id="Group-5" transform="translate(21.000000, 15.000000)">
                    <g id="Logo-SVG" transform="translate(0.200000, 2.840000)">
                        <path d="M0,59.28 L77.2,59.28 L77.2,74 L0,74 L0,59.28 Z M3.78510948,67.7758241 L5.33255474,67.7758241 C6.30968858,67.7758241 7.07853735,67.526944 7.63912409,67.0291758 C8.19971083,66.5314078 8.48,65.8729529 8.48,65.0537913 C8.48,64.2346296 8.19971083,63.5742151 7.63912409,63.0725275 C7.07853735,62.57084 6.30968858,62.32 5.33255474,62.32 L2.08,62.32 L2.08,70.88 L3.78510948,70.88 L3.78510948,67.7758241 Z M3.76,66.4 L3.76,63.6 L5.33037037,63.6 C5.81629872,63.6 6.18271482,63.7337505 6.42962963,64.0012553 C6.67654445,64.2687601 6.8,64.6075294 6.8,65.0175732 C6.8,65.4198068 6.6755568,65.7507657 6.42666668,66.0104601 C6.17777653,66.2701546 5.81234809,66.4 5.33037037,66.4 L3.76,66.4 Z M21.0789831,69.6061538 L21.0789831,62.16 L19.52,62.16 L19.52,70.96 L24.56,70.96 L24.56,69.6061538 L21.0789831,69.6061538 Z M40.2646443,69.0621977 L40.846724,70.96 L42.64,70.96 L39.7648787,62.16 L38.0068804,62.16 L35.12,70.96 L36.913276,70.96 L37.4894761,69.0621977 L40.2646443,69.0621977 Z M37.68,67.76 L38.6254103,64.64 L38.6604254,64.64 L39.6,67.76 L37.68,67.76 Z M59.3359084,68.0051267 L57.6745935,68.0051267 C57.6745935,68.5612489 57.5483818,68.9734388 57.2959545,69.2417089 C57.0435273,69.509979 56.6609786,69.6441122 56.1482968,69.6441122 C55.6082201,69.6441122 55.186536,69.4365485 54.8832318,69.0214152 C54.5799277,68.6062818 54.428278,68.0697496 54.428278,67.4118024 L54.428278,65.702323 C54.428278,65.0482922 54.5721008,64.5146971 54.8597504,64.1015221 C55.1474,63.6883469 55.5475595,63.4817624 56.0602414,63.4817624 C56.612059,63.4817624 57.0200456,63.6158953 57.2842138,63.8841654 C57.5483818,64.1524356 57.6804638,64.5607092 57.6804638,65.1089987 L59.3476494,65.1089987 L59.3593901,65.0737516 C59.3750444,64.1494926 59.0893559,63.4328108 58.5023159,62.9236849 C57.9152757,62.414559 57.101259,62.16 56.0602414,62.16 C55.0622731,62.16 54.2560835,62.4919058 53.6416483,63.1557276 C53.0272129,63.8195494 52.72,64.6723222 52.72,65.7140722 L52.72,67.4118024 C52.72,68.4574686 53.0350401,69.3102414 53.6651298,69.9701467 C54.2952195,70.6300523 55.1229335,70.96 56.1482968,70.96 C57.1540922,70.96 57.9426709,70.7015245 58.5140566,70.1845661 C59.0854423,69.6676075 59.3633037,68.9528839 59.3476494,68.0403738 L59.3359084,68.0051267 Z M74.8633832,67.0918682 L74.8633832,65.731978 L71.8107066,65.731978 L71.8107066,63.5198902 L75.4286938,63.5198902 L75.4286938,62.16 L70.16,62.16 L70.16,70.96 L75.44,70.96 L75.44,69.6061538 L71.8107066,69.6061538 L71.8107066,67.0918682 L74.8633832,67.0918682 Z" id="Combined-Shape"></path>
                        <rect id="Rectangle" transform="translate(17.240000, 24.600000) rotate(60.000000) translate(-17.240000, -24.600000) " x="-2" y="21.44" width="38.48" height="6.32"></rect>
                        <path d="M35.0224849,29.6544727 C35.0224849,35.697725 33.3986876,40.6794019 30.1510446,44.5996529 C26.9034015,48.519904 22.6757638,50.48 17.4680048,50.48 C12.2794626,50.48 8.07104144,48.5142876 4.8426152,44.5828037 C1.61418893,40.6513199 0,35.6752594 0,29.6544727 L0,20.8255273 C0,14.8272063 1.60938479,9.85676203 4.82820264,5.91404541 C8.04702049,1.97132876 12.2410292,0 17.4103546,0 C22.6181135,0 26.8553596,1.97132876 30.1222194,5.91404541 C33.3890795,9.85676203 35.0224849,14.8272063 35.0224849,20.8255273 L35.0224849,29.6544727 Z M26.6343835,20.7581309 C26.6343835,16.9389751 25.8176809,13.8050679 24.1842507,11.3563151 C22.5508209,8.90756231 20.292878,7.68320426 17.4103546,7.68320426 C14.5662648,7.68320426 12.3515592,8.90756231 10.7661713,11.3563151 C9.18078337,13.8050679 8.38810131,16.9389751 8.38810131,20.7581309 L8.38810131,29.6544727 C8.38810131,33.5410251 9.18558751,36.7086305 10.7805838,39.1573832 C12.3755801,41.6061359 14.6046981,42.830494 17.4680048,42.830494 C20.3505283,42.830494 22.5988627,41.6061359 24.2130759,39.1573832 C25.827289,36.7086305 26.6343835,33.5410251 26.6343835,29.6544727 L26.6343835,20.7581309 Z M77.2,49.8628381 L68.6216967,49.8628381 L51.3769567,16.3407165 L51.2006902,16.3748531 L51.2006902,49.8628381 L42.6223867,49.8628381 L42.6223867,0.159977581 L51.2006902,0.159977581 L68.4454302,33.6479627 L68.6216967,33.6138261 L68.6216967,0.159977581 L77.2,0.159977581 L77.2,49.8628381 Z" id="ON"></path>
                    </g>
                    <path d="M111.103562,73.8211618 C108.74226,73.2031793 107,71.0550529 107,68.5 L107,38.0676098 L105.98705,38.9799585 C104.581376,40.2467098 102.290032,40.0698032 100.872465,38.5860298 L100.018011,37.6910316 C98.5987106,36.2072583 98.6727848,33.8745822 100.182015,32.4829996 L134.262816,1.06263467 C135.772046,-0.328947908 138.243745,-0.357352637 139.785429,0.998599448 L173.750784,30.8893448 C175.292468,32.2452968 175.425504,34.5809629 174.047824,36.1048518 L173.082382,37.1722716 C171.704702,38.6976554 169.885054,39.3115962 169.018709,38.5459143 C168.150877,37.7787375 167.447296,37.1588167 167.447296,37.1588167 L167.447296,70.2697614 C167.447296,72.3303501 165.787192,73.998505 163.739872,73.998505 L149.661323,73.998505 C147.614002,73.998505 146.149117,72.3303501 146.178598,70.2712563 L146.178598,46.7750635 L129.233701,46.7750635 L129.233701,70.2712563 C129.233701,72.3318451 127.573598,74 125.526277,74 L112.241486,74 C111.844528,74 111.462127,73.9372876 111.103562,73.8211618 Z" id="Combined-Shape"></path>
                </g>
            </g>
        </g>
    </g>
</svg>