<?xml version="1.0" encoding="UTF-8"?>
<svg width="336px" height="1510px" viewBox="0 0 336 1510" version="1.1" xmlns="http://www.w3.org/2000/svg" xmlns:xlink="http://www.w3.org/1999/xlink">
    <!-- Generator: Sketch 49 (51002) - http://www.bohemiancoding.com/sketch -->
    <title>manual-adaptive</title>
    <desc>Created with Sketch.</desc>
    <defs></defs>
    <g id="Page-1" stroke="none" stroke-width="1" fill="none" fill-rule="evenodd">
        <g id="manual-adaptive" transform="translate(0.000000, 1.000000)">
            <path d="M74.5012512,1090.01082 L74.5012512,1054.01082" id="Path-2-Copy" stroke="#00426E" stroke-width="2"></path>
            <path d="M74.5434195,893.034063 L74.5434195,859.01936" id="Path-2" stroke="#00426E" stroke-width="2"></path>
            <g id="arrow" transform="translate(74.000000, 204.000000)">
                <path d="M138.119849,53.7484215 C144.763917,53.7484215 154.730019,53.7484215 168.018155,53.7484215 C179.06385,53.7484215 188.018155,62.7027265 188.018155,73.7484215 L188.018155,102.532697" id="Rectangle-2" stroke="#00426E" stroke-width="2"></path>
                <polygon id="Triangle" fill="#00426E" fill-rule="nonzero" transform="translate(188.015940, 102.616184) rotate(90.000000) translate(-188.015940, -102.616184) " points="182.57457 111.333165 182.57457 93.8992028 193.45731 102.616183"></polygon>
                <path d="M51.4197276,53.7942751 C44.5523294,53.7942751 34.2512322,53.7942751 20.5164359,53.7942751 C9.47074091,53.7942751 0.516435908,44.8399701 0.516435908,33.7942751 C0.516435908,19.0518508 0.516435908,7.99503264 0.516435908,0.623820504" id="Rectangle-3" stroke="#00426E" stroke-width="2"></path>
            </g>
            <g id="arrow" transform="translate(262.000000, 910.000000) rotate(90.000000) translate(-262.000000, -910.000000) translate(-175.000000, 901.000000)">
                <path d="M0.345812068,9.00279245 L871,9.00279245" id="Path-2" stroke="#00426E" stroke-width="2"></path>
                <polygon id="Triangle" fill="#00426E" fill-rule="nonzero" points="862.221221 17.7160302 862.221221 0.282067933 873.103961 8.99904906"></polygon>
            </g>
            <g id="privateAssets" transform="translate(2.000000, 0.000000)">
                <g id="Group-3-Copy">
                    <polyline id="Polygon-Copy-5" stroke="#EE6E9F" points="138.119331 153.249231 138.119331 167.397685 72.5 205.224507 6.88066912 167.397685 6.88066912 153.421901"></polyline>
                    <polyline id="Polygon-Copy-4" stroke="#7200DA" points="140.366541 138.51886 140.366541 152.364983 72.5 191.48723 4.63345865 152.364983 4.63345865 138.165356"></polyline>
                    <polygon id="Polygon-Copy-4" stroke="#FFBD4A" points="72.5 15.8420043 142.819549 56.378308 142.819549 137.450915 72.5 177.987219 2.18045113 137.450915 2.18045113 56.378308"></polygon>
                    <path d="M82.4884092,2.67280516 L134.988409,32.9368779 C141.182962,36.5077805 145,43.1139801 145,50.2640728 L145,110.738703 C145,117.888796 141.182962,124.494995 134.988409,128.065898 L82.4884092,158.329971 C76.3062816,161.893711 68.6937184,161.893711 62.5115908,158.329971 L10.0115908,128.065898 C3.81703831,124.494995 5.5067062e-14,117.888796 3.90798504e-14,110.738703 L0,50.2640728 C-3.55271368e-15,43.1139801 3.81703831,36.5077805 10.0115908,32.9368779 L62.5115908,2.67280516 C68.6937184,-0.890935054 76.3062816,-0.890935054 82.4884092,2.67280516 Z" id="Polygon-Copy-2" stroke="#1E9DF2" fill="#FFFFFF" fill-rule="nonzero"></path>
                </g>
                <g id="각-기간-마다-시장은-가장-신뢰할-수" opacity="0.8" transform="translate(169.000000, 38.000000)" fill="#00426E" font-family="OpenSans-Regular, Open Sans" font-size="10" font-weight="normal">
                    <g id="각">
                        <text id="In-each-period-of-ti">
                            <tspan x="0" y="11">In each period of time the market </tspan>
                            <tspan x="0" y="25">presents a limited offer to invest </tspan>
                            <tspan x="0" y="39">in shares of private companies in </tspan>
                            <tspan x="0" y="53">full accordance with the criteria </tspan>
                            <tspan x="0" y="67">of the most secure and </tspan>
                            <tspan x="0" y="81">potentially lucrative investments.</tspan>
                        </text>
                    </g>
                </g>
                <g id="사적인-자산" transform="translate(23.000000, 72.000000)" fill="#00426E" font-family="AppleSDGothicNeo-Regular, Apple SD Gothic Neo" font-size="14" font-weight="normal">
                    <text id="PRIVATE-ASSETS">
                        <tspan x="0" y="13">PRIVATE ASSETS</tspan>
                    </text>
                </g>
            </g>
            <g id="start" transform="translate(124.000000, 236.000000)" fill="#FFFFFF" fill-rule="nonzero" stroke="#00426E" stroke-width="2">
                <g id="Rectangle" transform="translate(0.561265, 0.000000)">
                    <rect id="path-13" x="0" y="0" width="87.0619236" height="43.5849057" rx="20"></rect>
                </g>
            </g>
            <g id="pats" transform="translate(190.000000, 313.000000)" fill-rule="nonzero">
                <path d="M82.480649,2.74747719 L134.980649,32.9802358 C141.179573,36.549961 145,43.158609 145,50.3119018 L145,110.688098 C145,117.841391 141.179573,124.450039 134.980649,128.019764 L82.480649,158.252523 C76.3024704,161.810302 68.6975296,161.810302 62.519351,158.252523 L10.019351,128.019764 C3.82042693,124.450039 3.19744231e-14,117.841391 2.48689958e-14,110.688098 L3.55271368e-15,50.3119018 C0,43.158609 3.82042693,36.549961 10.019351,32.9802358 L62.519351,2.74747719 C68.6975296,-0.81030152 76.3024704,-0.81030152 82.480649,2.74747719 Z" id="Polygon-Copy" stroke="#1E9DF2" stroke-width="2" fill="#FFFFFF"></path>
                <path d="M64.2617188,79.4121094 C64.2617188,80.4960992 63.8918494,81.3298311 63.1520996,81.9133301 C62.4123498,82.4968291 61.3540108,82.7885742 59.9770508,82.7885742 L58.7172852,82.7885742 L58.7172852,87 L57.472168,87 L57.472168,76.2919922 L60.2480469,76.2919922 C62.9238415,76.2919922 64.2617188,77.3320208 64.2617188,79.4121094 Z M58.7172852,81.7192383 L59.8378906,81.7192383 C60.9414118,81.7192383 61.7397436,81.5410174 62.2329102,81.1845703 C62.7260767,80.8281232 62.9726562,80.2568399 62.9726562,79.4707031 C62.9726562,78.7626918 62.740725,78.2353533 62.2768555,77.8886719 C61.812986,77.5419905 61.0903369,77.3686523 60.1088867,77.3686523 L58.7172852,77.3686523 L58.7172852,81.7192383 Z M72.4868164,87 L71.1538086,83.5942383 L66.8618164,83.5942383 L65.543457,87 L64.2836914,87 L68.5170898,76.2480469 L69.5644531,76.2480469 L73.7758789,87 L72.4868164,87 Z M70.765625,82.4736328 L69.5205078,79.1557617 C69.3593742,78.7358377 69.1933602,78.2207062 69.0224609,77.6103516 C68.9150385,78.0791039 68.7612315,78.5942355 68.5610352,79.1557617 L67.3012695,82.4736328 L70.765625,82.4736328 Z M77.496582,87 L76.2514648,87 L76.2514648,77.3979492 L72.8603516,77.3979492 L72.8603516,76.2919922 L80.8876953,76.2919922 L80.8876953,77.3979492 L77.496582,77.3979492 L77.496582,87 Z M88.5415039,84.1508789 C88.5415039,85.0932664 88.1997104,85.8281224 87.5161133,86.3554688 C86.8325161,86.8828151 85.904791,87.1464844 84.7329102,87.1464844 C83.4633726,87.1464844 82.4868198,86.9829118 81.8032227,86.6557617 L81.8032227,85.4545898 C82.242678,85.6401376 82.7211888,85.7866206 83.2387695,85.894043 C83.7563502,86.0014654 84.2690404,86.0551758 84.7768555,86.0551758 C85.6069377,86.0551758 86.2319315,85.8977067 86.6518555,85.5827637 C87.0717794,85.2678207 87.2817383,84.8295927 87.2817383,84.2680664 C87.2817383,83.8969708 87.2072761,83.5930188 87.0583496,83.3562012 C86.9094231,83.1193836 86.6604021,82.9008799 86.3112793,82.7006836 C85.9621565,82.5004873 85.4311559,82.2734388 84.7182617,82.0195312 C83.722163,81.6630842 83.0105002,81.2407251 82.583252,80.7524414 C82.1560037,80.2641577 81.9423828,79.6269571 81.9423828,78.8408203 C81.9423828,78.0156209 82.2524383,77.3588892 82.8725586,76.8706055 C83.4926789,76.3823218 84.3129832,76.1381836 85.3334961,76.1381836 C86.3979545,76.1381836 87.3769487,76.3334941 88.2705078,76.7241211 L87.8823242,77.8081055 C86.9985307,77.4370099 86.1391643,77.2514648 85.3041992,77.2514648 C84.6450162,77.2514648 84.1298847,77.393065 83.7587891,77.6762695 C83.3876935,77.9594741 83.2021484,78.3525365 83.2021484,78.8554688 C83.2021484,79.2265644 83.2705071,79.5305164 83.4072266,79.767334 C83.543946,80.0041516 83.7746566,80.2214346 84.0993652,80.4191895 C84.4240739,80.6169443 84.9208951,80.835448 85.5898438,81.074707 C86.7128962,81.4750997 87.4855936,81.9047829 87.907959,82.3637695 C88.3303244,82.8227562 88.5415039,83.4184534 88.5415039,84.1508789 Z" id="PATS" fill="#00426E"></path>
            </g>
            <g id="PATS-프로토콜은-투자자-커뮤니티" opacity="0.8" transform="translate(0.000000, 363.000000)" fill="#00426E" font-family="OpenSans-Regular, Open Sans" font-size="10" font-weight="normal">
                <g id="PATS">
                    <text id="The-PATS-protocol-la">
                        <tspan x="0" y="11">The PATS protocol launches </tspan>
                        <tspan x="0" y="25">contracts for the investor </tspan>
                        <tspan x="0" y="39">community and a decentralized </tspan>
                        <tspan x="0" y="53">tokens market.</tspan>
                    </text>
                </g>
            </g>
            <g id="erc20" transform="translate(2.000000, 654.000000)">
                <g id="Group-3">
                    <polyline id="Polygon-Copy-5" stroke="#EE6E9F" points="138.119331 153.074062 138.119331 167.397685 72.5 205.224507 6.88066912 167.397685 6.88066912 153.017905"></polyline>
                    <polyline id="Polygon-Copy-4" stroke="#7200DA" points="140.366541 139.222377 140.366541 152.364983 72.5 191.48723 4.63345865 152.364983 4.63345865 139.222377"></polyline>
                    <polygon id="Polygon-Copy-4" stroke="#FFBD4A" points="72.5 15.8420043 142.819549 56.378308 142.819549 137.450915 72.5 177.987219 2.18045113 137.450915 2.18045113 56.378308"></polygon>
                    <path d="M82.4884092,2.67280516 L134.988409,32.9368779 C141.182962,36.5077805 145,43.1139801 145,50.2640728 L145,110.738703 C145,117.888796 141.182962,124.494995 134.988409,128.065898 L82.4884092,158.329971 C76.3062816,161.893711 68.6937184,161.893711 62.5115908,158.329971 L10.0115908,128.065898 C3.81703831,124.494995 5.5067062e-14,117.888796 3.90798504e-14,110.738703 L0,50.2640728 C-3.5527137e-15,43.1139801 3.81703831,36.5077805 10.0115908,32.9368779 L62.5115908,2.67280516 C68.6937184,-0.890935054 76.3062816,-0.890935054 82.4884092,2.67280516 Z" id="Polygon-Copy-2" stroke="#1E9DF2" fill="#FFFFFF" fill-rule="nonzero"></path>
                </g>
            </g>
            <g id="decentral" transform="translate(2.000000, 893.000000)" fill="#FFFFFF" fill-rule="nonzero" stroke="#1E9DF2" stroke-width="2">
                <path d="M82.480649,2.66833403 L134.980649,32.9010926 C141.179573,36.4708178 145,43.0794658 145,50.2327586 L145,110.608955 C145,117.762248 141.179573,124.370896 134.980649,127.940621 L82.480649,158.17338 C76.3024704,161.731159 68.6975296,161.731159 62.519351,158.17338 L10.019351,127.940621 C3.82042693,124.370896 3.19744231e-14,117.762248 2.1316282e-14,110.608955 L0,50.2327586 C0,43.0794658 3.82042693,36.4708178 10.019351,32.9010926 L62.519351,2.66833403 C68.6975296,-0.889444677 76.3024704,-0.889444677 82.480649,2.66833403 Z" id="Polygon-Copy-3"></path>
            </g>
            <path d="M261.257323,1303.79428 C159.253262,1303.79428 103.672967,1303.79428 94.5164359,1303.79428 C83.4707409,1303.79428 74.5164359,1294.83997 74.5164359,1283.79428 C74.5164359,1273.96599 74.5164359,1262.90917 74.5164359,1250.62382" id="Rectangle-3-Copy-4" stroke="#00426E" stroke-width="2"></path>
            <g id="decMarket" transform="translate(2.000000, 1090.000000)" fill="#FFFFFF" fill-rule="nonzero" stroke="#1E9DF2" stroke-width="2">
                <path d="M82.480649,2.66833403 L134.980649,32.9010926 C141.179573,36.4708178 145,43.0794658 145,50.2327586 L145,110.608955 C145,117.762248 141.179573,124.370896 134.980649,127.940621 L82.480649,158.17338 C76.3024704,161.731159 68.6975296,161.731159 62.519351,158.17338 L10.019351,127.940621 C3.82042693,124.370896 3.19744231e-14,117.762248 2.1316282e-14,110.608955 L0,50.2327586 C0,43.0794658 3.82042693,36.4708178 10.019351,32.9010926 L62.519351,2.66833403 C68.6975296,-0.889444677 76.3024704,-0.889444677 82.480649,2.66833403 Z" id="Polygon-Copy-6"></path>
            </g>
            <text id="DECENTRALIZED-MARKET" font-family="AppleSDGothicNeo-Regular, Apple SD Gothic Neo" font-size="14" font-weight="normal" fill="#00426E">
                <tspan x="23.967" y="1166">DECENTRALIZED </tspan>
                <tspan x="48.901" y="1183">MARKET</tspan>
            </text>
            <g id="exchange" transform="translate(190.000000, 1347.000000)" fill="#FFFFFF" fill-rule="nonzero" stroke="#1E9DF2" stroke-width="2">
                <g id="Group" transform="translate(0.000000, 0.000000)">
                    <path d="M82.480649,2.66833403 L134.980649,32.9010926 C141.179573,36.4708178 145,43.0794658 145,50.2327586 L145,110.608955 C145,117.762248 141.179573,124.370896 134.980649,127.940621 L82.480649,158.17338 C76.3024704,161.731159 68.6975296,161.731159 62.519351,158.17338 L10.019351,127.940621 C3.82042693,124.370896 4.61852779e-14,117.762248 3.55271368e-14,110.608955 L0,50.2327586 C-7.10542732e-15,43.0794658 3.82042693,36.4708178 10.019351,32.9010926 L62.519351,2.66833403 C68.6975296,-0.889444677 76.3024704,-0.889444677 82.480649,2.66833403 Z" id="Polygon-Copy-7"></path>
                </g>
            </g>
            <text id="EXCHANGE" font-family="AppleSDGothicNeo-Regular, Apple SD Gothic Neo" font-size="14" font-weight="normal" fill="#00426E">
                <tspan x="228" y="1432">EXCHANGE</tspan>
            </text>
            <g id="arrow" transform="translate(148.000000, 715.000000)">
                <polygon id="Triangle" fill="#00426E" fill-rule="nonzero" transform="translate(5.441370, 19.716981) rotate(-180.000000) translate(-5.441370, -19.716981) " points="8.8817842e-16 28.4339623 8.8817842e-16 11 10.8827404 19.7169811"></polygon>
                <path d="M114.008826,20.007249 C56.9203441,20.007249 25.3239258,20.007249 19.2195719,20.007249 C8.17387691,20.007249 7.686012,11.052944 7.686012,0.00724898141" id="Rectangle-3-Copy" stroke="#00426E" stroke-width="2" transform="translate(60.847419, 10.007249) scale(-1, 1) translate(-60.847419, -10.007249) "></path>
            </g>
            <g id="arrow" transform="translate(148.000000, 954.000000)">
                <polygon id="Triangle-Copy" fill="#00426E" fill-rule="nonzero" transform="translate(5.441370, 19.716981) rotate(-180.000000) translate(-5.441370, -19.716981) " points="8.8817842e-16 28.4339623 8.8817842e-16 11 10.8827404 19.7169811"></polygon>
                <path d="M114.008826,20.007249 C56.9203441,20.007249 25.3239258,20.007249 19.2195719,20.007249 C8.17387691,20.007249 7.686012,11.052944 7.686012,0.00724898141" id="Rectangle-3-Copy-2" stroke="#00426E" stroke-width="2" transform="translate(60.847419, 10.007249) scale(-1, 1) translate(-60.847419, -10.007249) "></path>
            </g>
            <g id="arrow" transform="translate(148.000000, 1151.000000)">
                <polygon id="Triangle-Copy-2" fill="#00426E" fill-rule="nonzero" transform="translate(5.441370, 19.716981) rotate(-180.000000) translate(-5.441370, -19.716981) " points="8.8817842e-16 28.4339623 8.8817842e-16 11 10.8827404 19.7169811"></polygon>
                <path d="M114.008826,20.007249 C56.9203441,20.007249 25.3239258,20.007249 19.2195719,20.007249 C8.17387691,20.007249 7.686012,11.052944 7.686012,0.00724898141" id="Rectangle-3-Copy-3" stroke="#00426E" stroke-width="2" transform="translate(60.847419, 10.007249) scale(-1, 1) translate(-60.847419, -10.007249) "></path>
            </g>
            <text id="START" font-family="AppleSDGothicNeo-Regular, Apple SD Gothic Neo" font-size="14" font-weight="normal" fill="#1E9DF2">
                <tspan x="148" y="263">START</tspan>
            </text>
            <text id="ERC20-TOKENS" font-family="Helvetica" font-size="12" font-weight="normal" fill="#00426E">
                <tspan x="29" y="739">ERC20 TOKENS</tspan>
            </text>
            <text id="DECENTRALIZED-SHAREH" font-family="Helvetica" font-size="12" font-weight="normal" line-spacing="18" fill="#00426E">
                <tspan x="24.9931641" y="962">DECENTRALIZED </tspan>
                <tspan x="25.3212891" y="980">SHAREHOLDERS </tspan>
                <tspan x="34.4355469" y="998">ASSOCIATION</tspan>
            </text>
            <text id="Any-holder-of-tokens" font-family="OpenSans-Regular, Open Sans" font-size="10" font-weight="normal" fill="#33688B">
                <tspan x="0" y="554">Any holder of tokens </tspan>
                <tspan x="0" y="568">implemented through the PATS </tspan>
                <tspan x="0" y="582">protocol can influence the </tspan>
                <tspan x="0" y="596">further movement of the asset </tspan>
                <tspan x="0" y="610">(operations) and exchange </tspan>
                <tspan x="0" y="624">tokens through a smart contract </tspan>
                <tspan x="0" y="638">or a classic exchange.</tspan>
            </text>
            <text id="All-of-the-tokenized" font-family="OpenSans-Regular, Open Sans" font-size="10" font-weight="normal" fill="#33688B">
                <tspan x="3" y="1402">All of the tokenized private assets </tspan>
                <tspan x="3" y="1416">are added to classic exchanges, </tspan>
                <tspan x="3" y="1430">where everyone can purchase </tspan>
                <tspan x="3" y="1444">them and become a member of a </tspan>
                <tspan x="3" y="1458">decentralized investor community.</tspan>
            </text>
        </g>
    </g>
</svg>