<?xml version="1.0" encoding="UTF-8"?>
<svg width="1200px" height="683px" viewBox="0 0 1200 683" version="1.1" xmlns="http://www.w3.org/2000/svg" xmlns:xlink="http://www.w3.org/1999/xlink">
    <g id="Page-1" stroke="none" stroke-width="1" fill="none" fill-rule="evenodd">
        <g id="OnPlace-KOREA" transform="translate(-359.000000, -2170.000000)">
            <g id="How-it-work" transform="translate(359.000000, 1982.000000)">
                <g id="Group-4" transform="translate(1.000000, 186.000000)">
                    <g id="Group-2" transform="translate(146.000000, 61.000000)">
                        <g id="arrow" transform="translate(0.000000, 13.075472)">
                            <path d="M0.249301103,8.71698113 L218.743083,8.71698113" id="Path-2" stroke="#00426E" stroke-width="2"></path>
                            <polygon id="Triangle" fill="#00426E" points="212.213439 17.4339623 212.213439 0 223.096179 8.71698113"></polygon>
                        </g>
                        <g id="arrow" transform="translate(373.277997, 13.075472)">
                            <path d="M0,8.71698113 L106.650856,8.71698113" id="Path-2" stroke="#00426E" stroke-width="2"></path>
                            <polygon id="Triangle" fill="#00426E" points="100.121212 17.4339623 100.121212 0 111.003953 8.71698113"></polygon>
                        </g>
                        <g id="arrow" transform="translate(631.198946, 250.613208)">
                            <path d="M0,8.71698113 L109.915679,8.71698113" id="Path-2" stroke="#00426E" stroke-width="2"></path>
                            <polygon id="Triangle" fill="#00426E" points="101.209486 17.4339623 101.209486 0 112.092227 8.71698113"></polygon>
                        </g>
                        <g id="arrow" transform="translate(817.010789, 108.576873) rotate(90.000000) translate(-817.010789, -108.576873) translate(751.010789, 99.576873)">
                            <path d="M0,8.71698113 L129.504611,8.71698113" id="Path-2" stroke="#00426E" stroke-width="2"></path>
                            <polygon id="Triangle" fill="#00426E" points="120.798419 17.4339623 120.798419 0 131.681159 8.71698113"></polygon>
                        </g>
                        <g id="arrow" transform="translate(817.576827, 349.710238) rotate(-90.000000) translate(-817.576827, -349.710238) translate(812.076827, 340.710238)" fill="#00426E">
                            <polygon id="Triangle" points="0 17.4339623 0 0 10.8827404 8.71698113"></polygon>
                        </g>
                        <g id="arrow" transform="translate(370.013175, 21.792453)">
                            <path d="M0.0080646964,0 L15.7162777,3.55271368e-15 C32.2848202,5.09121799e-16 45.7162777,13.4314575 45.7162777,30 L45.7162777,207.537736 C45.7162777,224.106278 59.1477352,237.537736 75.7162777,237.537736 L111.288852,237.537736" id="Path-2" stroke="#00426E" stroke-width="2"></path>
                            <polygon id="Triangle" fill="#00426E" points="104.474308 246.254717 104.474308 228.820755 115.357049 237.537736"></polygon>
                        </g>
                        <g id="Rectangle" transform="translate(68.561265, 0.000000)" fill="#FFFFFF" stroke="#00426E" stroke-width="2">
                            <g id="path-13-link">
                                <rect id="path-13" x="0" y="0" width="87.0619236" height="43.5849057" rx="20"></rect>
                            </g>
                        </g>
                        <g id="arrow" transform="translate(473.399209, 444.566038)" fill="#00426E">
                            <polygon id="Triangle" points="0 17.4339623 0 0 10.8827404 8.71698113"></polygon>
                        </g>
                        <g id="turn" stroke-linecap="square" transform="translate(806.793808, 30.905660) rotate(180.000000) translate(-806.793808, -30.905660) translate(796.293808, 20.405660)" stroke="#00426E" stroke-width="2">
                            <path d="M-4.54747351e-13,-5.73628733e-16 C-2.14994534e-13,11.4338573 9.25750083,20.7028302 20.6772069,20.7028302" id="Line-3"></path>
                        </g>
                        <g id="line" stroke-linecap="square" transform="translate(631.198946, 19.523585)" stroke="#00426E" stroke-width="2">
                            <path d="M0.0969109926,1.17043817 L163.745813,1.17043817" id="Line-2"></path>
                        </g>
                    </g>
                    <path d="M452.480649,5.74747719 L504.980649,35.9802358 C511.179573,39.549961 515,46.158609 515,53.3119018 L515,113.688098 C515,120.841391 511.179573,127.450039 504.980649,131.019764 L452.480649,161.252523 C446.30247,164.810302 438.69753,164.810302 432.519351,161.252523 L380.019351,131.019764 C373.820427,127.450039 370,120.841391 370,113.688098 L370,53.3119018 C370,46.158609 373.820427,39.549961 380.019351,35.9802358 L432.519351,5.74747719 C438.69753,2.18969848 446.30247,2.18969848 452.480649,5.74747719 Z" id="Polygon-Copy" stroke="#1E9DF2" stroke-width="2" fill="#FFFFFF"></path>
                    <g id="Group-3" transform="translate(632.000000, 0.000000)" stroke-width="2">
                        <polyline id="Polygon-Copy-5" stroke="#EE6E9F" points="138.119331 156.074062 138.119331 170.397685 72.5 208.224507 6.88066912 170.397685 6.88066912 156.017905"></polyline>
                        <polyline id="Polygon-Copy-4" stroke="#7200DA" points="140.366541 142.222377 140.366541 155.364983 72.5 194.48723 4.63345865 155.364983 4.63345865 142.222377"></polyline>
                        <polygon id="Polygon-Copy-4" stroke="#FFBD4A" points="72.5 18.8420043 142.819549 59.378308 142.819549 140.450915 72.5 180.987219 2.18045113 140.450915 2.18045113 59.378308"></polygon>
                        <path d="M82.4884092,5.75790369 L134.988409,36.0219764 C141.182962,39.592879 145,46.1990786 145,53.3491713 L145,113.823802 C145,120.973895 141.182962,127.580094 134.988409,131.150997 L82.4884092,161.41507 C76.3062816,164.97881 68.6937184,164.97881 62.5115908,161.41507 L10.0115908,131.150997 C3.81703831,127.580094 7.63833441e-14,120.973895 6.03961325e-14,113.823802 L2.13162821e-14,53.3491713 C1.77635684e-14,46.1990786 3.81703831,39.592879 10.0115908,36.0219764 L62.5115908,5.75790369 C68.6937184,2.19416347 76.3062816,2.19416347 82.4884092,5.75790369 Z" id="Polygon-Copy-2" stroke="#1E9DF2" fill="#FFFFFF"></path>
                    </g>
                    <g id="Group-3-Copy" stroke-width="2">
                        <polyline id="Polygon-Copy-5" stroke="#EE6E9F" points="138.119331 156.249231 138.119331 170.397685 72.5 208.224507 6.88066912 170.397685 6.88066912 156.421901"></polyline>
                        <polyline id="Polygon-Copy-4" stroke="#7200DA" points="140.366541 141.51886 140.366541 155.364983 72.5 194.48723 4.63345865 155.364983 4.63345865 141.165356"></polyline>
                        <polygon id="Polygon-Copy-4" stroke="#FFBD4A" points="72.5 18.8420043 142.819549 59.378308 142.819549 140.450915 72.5 180.987219 2.18045113 140.450915 2.18045113 59.378308"></polygon>
                        <path d="M82.4884092,5.75790369 L134.988409,36.0219764 C141.182962,39.592879 145,46.1990786 145,53.3491713 L145,113.823802 C145,120.973895 141.182962,127.580094 134.988409,131.150997 L82.4884092,161.41507 C76.3062816,164.97881 68.6937184,164.97881 62.5115908,161.41507 L10.0115908,131.150997 C3.81703831,127.580094 6.21724894e-14,120.973895 4.61852778e-14,113.823802 L7.10542736e-15,53.3491713 C3.55271368e-15,46.1990786 3.81703831,39.592879 10.0115908,36.0219764 L62.5115908,5.75790369 C68.6937184,2.19416347 76.3062816,2.19416347 82.4884092,5.75790369 Z" id="Polygon-Copy-2" stroke="#1E9DF2" fill="#FFFFFF"></path>
                    </g>
                    <path d="M714.480649,241.747477 L766.980649,271.980236 C773.179573,275.549961 777,282.158609 777,289.311902 L777,349.688098 C777,356.841391 773.179573,363.450039 766.980649,367.019764 L714.480649,397.252523 C708.30247,400.810302 700.69753,400.810302 694.519351,397.252523 L642.019351,367.019764 C635.820427,363.450039 632,356.841391 632,349.688098 L632,289.311902 C632,282.158609 635.820427,275.549961 642.019351,271.980236 L694.519351,241.747477 C700.69753,238.189698 708.30247,238.189698 714.480649,241.747477 Z" fill="#FFFFFF" id="Polygon-Copy-3" stroke="#1E9DF2" stroke-width="2"></path>
                    <g id="text" transform="translate(645.000000, 287.000000)" fill="#00426E" font-family="OpenSans-Regular, Open Sans" font-size="15" font-weight="normal">
                        <text id="DECENTRALIZED">
                            <tspan x="0" y="16.8333333">DECENTRALIZED</tspan>
                            <tspan x="1.0862069" y="38.5">SHAREHOLDERS</tspan>
                            <tspan x="10.862069" y="60.1666667">ASSOCIATION</tspan>
                        </text>
                    </g>
                    <path d="M973.480649,241.747477 L1025.98065,271.980236 C1032.17957,275.549961 1036,282.158609 1036,289.311902 L1036,349.688098 C1036,356.841391 1032.17957,363.450039 1025.98065,367.019764 L973.480649,397.252523 C967.30247,400.810302 959.69753,400.810302 953.519351,397.252523 L901.019351,367.019764 C894.820427,363.450039 891,356.841391 891,349.688098 L891,289.311902 C891,282.158609 894.820427,275.549961 901.019351,271.980236 L953.519351,241.747477 C959.69753,238.189698 967.30247,238.189698 973.480649,241.747477 Z" id="Polygon-Copy-7" stroke="#1E9DF2" stroke-width="2" fill="#FFFFFF"></path>
                    <path d="M714.480649,435.747477 L766.980649,465.980236 C773.179573,469.549961 777,476.158609 777,483.311902 L777,543.688098 C777,550.841391 773.179573,557.450039 766.980649,561.019764 L714.480649,591.252523 C708.30247,594.810302 700.69753,594.810302 694.519351,591.252523 L642.019351,561.019764 C635.820427,557.450039 632,550.841391 632,543.688098 L632,483.311902 C632,476.158609 635.820427,469.549961 642.019351,465.980236 L694.519351,435.747477 C700.69753,432.189698 708.30247,432.189698 714.480649,435.747477 Z" fill="#FFFFFF" id="Polygon-Copy-6" stroke="#1E9DF2" stroke-width="2"></path>
                    <g id="text-1" transform="translate(646.000000, 493.000000)" fill="#00426E">
                        <path d="M10.0195312,10.543457 C10.0195312,12.311044 9.53979972,13.6623488 8.58032227,14.5974121 C7.62084481,15.5324754 6.24024338,16 4.43847656,16 L1.47216797,16 L1.47216797,5.29199219 L4.75341797,5.29199219 C6.41846536,5.29199219 7.71239773,5.75341335 8.63525391,6.67626953 C9.55811008,7.59912571 10.0195312,8.88817532 10.0195312,10.543457 Z M8.70117187,10.5874023 C8.70117187,9.19091099 8.35083358,8.13867542 7.65014648,7.43066406 C6.94945939,6.72265271 5.90821003,6.36865234 4.52636719,6.36865234 L2.71728516,6.36865234 L2.71728516,14.9233398 L4.23339844,14.9233398 C5.71778086,14.9233398 6.83349236,14.5583533 7.58056641,13.8283691 C8.32764045,13.098385 8.70117187,12.0180736 8.70117187,10.5874023 Z M18.3764648,16 L12.4072266,16 L12.4072266,5.29199219 L18.3764648,5.29199219 L18.3764648,6.39794922 L13.6523438,6.39794922 L13.6523438,9.84765625 L18.0908203,9.84765625 L18.0908203,10.9462891 L13.6523438,10.9462891 L13.6523438,14.8867188 L18.3764648,14.8867188 L18.3764648,16 Z M25.3344727,6.25146484 C24.157709,6.25146484 23.2287632,6.64330663 22.5476074,7.42700195 C21.8664517,8.21069728 21.5258789,9.28368459 21.5258789,10.6459961 C21.5258789,12.0473703 21.8542448,13.1301231 22.5109863,13.8942871 C23.1677279,14.6584511 24.1039978,15.0405273 25.3198242,15.0405273 C26.0668983,15.0405273 26.9189405,14.9062513 27.8759766,14.6376953 L27.8759766,15.7290039 C27.1337854,16.0073256 26.2182672,16.1464844 25.1293945,16.1464844 C23.5522382,16.1464844 22.3352094,15.6679735 21.4782715,14.7109375 C20.6213336,13.7539015 20.1928711,12.3940518 20.1928711,10.6313477 C20.1928711,9.52782651 20.3991679,8.56103931 20.8117676,7.73095703 C21.2243673,6.90087476 21.8200645,6.26123271 22.598877,5.81201172 C23.3776894,5.36279072 24.2944283,5.13818359 25.3491211,5.13818359 C26.4721736,5.13818359 27.4536091,5.34325967 28.293457,5.75341797 L27.7661133,6.82275391 C26.9555624,6.44189263 26.1450236,6.25146484 25.3344727,6.25146484 Z M36.1816406,16 L30.2124023,16 L30.2124023,5.29199219 L36.1816406,5.29199219 L36.1816406,6.39794922 L31.4575195,6.39794922 L31.4575195,9.84765625 L35.8959961,9.84765625 L35.8959961,10.9462891 L31.4575195,10.9462891 L31.4575195,14.8867188 L36.1816406,14.8867188 L36.1816406,16 Z M46.9189453,16 L45.4980469,16 L39.6459961,7.01318359 L39.5874023,7.01318359 C39.6655277,8.06787637 39.7045898,9.03466357 39.7045898,9.91357422 L39.7045898,16 L38.5546875,16 L38.5546875,5.29199219 L39.9609375,5.29199219 L45.7983398,14.2421875 L45.8569336,14.2421875 C45.8471679,14.1103509 45.8251955,13.6867712 45.7910156,12.9714355 C45.7568358,12.2560999 45.7446289,11.7446304 45.7543945,11.4370117 L45.7543945,5.29199219 L46.9189453,5.29199219 L46.9189453,16 Z M53.1591797,16 L51.9140625,16 L51.9140625,6.39794922 L48.5229492,6.39794922 L48.5229492,5.29199219 L56.550293,5.29199219 L56.550293,6.39794922 L53.1591797,6.39794922 L53.1591797,16 Z M59.4067383,11.546875 L59.4067383,16 L58.1616211,16 L58.1616211,5.29199219 L61.0986328,5.29199219 C62.4121159,5.29199219 63.3825652,5.54345452 64.0100098,6.04638672 C64.6374543,6.54931892 64.9511719,7.30614729 64.9511719,8.31689453 C64.9511719,9.73291724 64.2334056,10.6899389 62.7978516,11.1879883 L65.7055664,16 L64.2333984,16 L61.640625,11.546875 L59.4067383,11.546875 Z M59.4067383,10.4775391 L61.1132812,10.4775391 C61.9921919,10.4775391 62.6367167,10.3029803 63.046875,9.95385742 C63.4570333,9.60473458 63.6621094,9.08105818 63.6621094,8.3828125 C63.6621094,7.67480115 63.4533712,7.16455234 63.0358887,6.85205078 C62.6184061,6.53954922 61.9482468,6.38330078 61.0253906,6.38330078 L59.4067383,6.38330078 L59.4067383,10.4775391 Z M74.1650391,16 L72.8320312,12.5942383 L68.5400391,12.5942383 L67.2216797,16 L65.9619141,16 L70.1953125,5.24804688 L71.2426758,5.24804688 L75.4541016,16 L74.1650391,16 Z M72.4438477,11.4736328 L71.1987305,8.15576172 C71.0375969,7.73583774 70.8715829,7.22070618 70.7006836,6.61035156 C70.5932612,7.07910391 70.4394541,7.59423547 70.2392578,8.15576172 L68.9794922,11.4736328 L72.4438477,11.4736328 Z M76.9262695,16 L76.9262695,5.29199219 L78.1713867,5.29199219 L78.1713867,14.8720703 L82.8955078,14.8720703 L82.8955078,16 L76.9262695,16 Z M84.7119141,16 L84.7119141,5.29199219 L85.9570312,5.29199219 L85.9570312,16 L84.7119141,16 Z M95.3833008,16 L88.0224609,16 L88.0224609,15.0258789 L93.7060547,6.41259766 L88.1982422,6.41259766 L88.1982422,5.29199219 L95.222168,5.29199219 L95.222168,6.26611328 L89.5385742,14.8720703 L95.3833008,14.8720703 L95.3833008,16 Z M103.425293,16 L97.4560547,16 L97.4560547,5.29199219 L103.425293,5.29199219 L103.425293,6.39794922 L98.7011719,6.39794922 L98.7011719,9.84765625 L103.139648,9.84765625 L103.139648,10.9462891 L98.7011719,10.9462891 L98.7011719,14.8867188 L103.425293,14.8867188 L103.425293,16 Z M114.345703,10.543457 C114.345703,12.311044 113.865972,13.6623488 112.906494,14.5974121 C111.947017,15.5324754 110.566415,16 108.764648,16 L105.79834,16 L105.79834,5.29199219 L109.07959,5.29199219 C110.744637,5.29199219 112.03857,5.75341335 112.961426,6.67626953 C113.884282,7.59912571 114.345703,8.88817532 114.345703,10.543457 Z M113.027344,10.5874023 C113.027344,9.19091099 112.677005,8.13867542 111.976318,7.43066406 C111.275631,6.72265271 110.234382,6.36865234 108.852539,6.36865234 L107.043457,6.36865234 L107.043457,14.9233398 L108.55957,14.9233398 C110.043953,14.9233398 111.159664,14.5583533 111.906738,13.8283691 C112.653812,13.098385 113.027344,12.0180736 113.027344,10.5874023 Z" id="DECENTRALIZED"></path>
                        <path d="M38.2109375,38 L34.578125,28.5078125 L34.5195312,28.5078125 C34.587891,29.2597694 34.6220703,30.1533151 34.6220703,31.1884766 L34.6220703,38 L33.472168,38 L33.472168,27.2919922 L35.347168,27.2919922 L38.7382812,36.125 L38.796875,36.125 L42.2172852,27.2919922 L44.0776367,27.2919922 L44.0776367,38 L42.8325195,38 L42.8325195,31.1005859 C42.8325195,30.3095664 42.8666989,29.4502 42.9350586,28.5224609 L42.8764648,28.5224609 L39.2143555,38 L38.2109375,38 Z M53.7456055,38 L52.4125977,34.5942383 L48.1206055,34.5942383 L46.8022461,38 L45.5424805,38 L49.7758789,27.2480469 L50.8232422,27.2480469 L55.034668,38 L53.7456055,38 Z M52.0244141,33.4736328 L50.7792969,30.1557617 C50.6181633,29.7358377 50.4521493,29.2207062 50.28125,28.6103516 C50.1738276,29.0791039 50.0200205,29.5942355 49.8198242,30.1557617 L48.5600586,33.4736328 L52.0244141,33.4736328 Z M57.7519531,33.546875 L57.7519531,38 L56.5068359,38 L56.5068359,27.2919922 L59.4438477,27.2919922 C60.7573308,27.2919922 61.7277801,27.5434545 62.3552246,28.0463867 C62.9826692,28.5493189 63.2963867,29.3061473 63.2963867,30.3168945 C63.2963867,31.7329172 62.5786205,32.6899389 61.1430664,33.1879883 L64.0507812,38 L62.5786133,38 L59.9858398,33.546875 L57.7519531,33.546875 Z M57.7519531,32.4775391 L59.4584961,32.4775391 C60.3374067,32.4775391 60.9819315,32.3029803 61.3920898,31.9538574 C61.8022481,31.6047346 62.0073242,31.0810582 62.0073242,30.3828125 C62.0073242,29.6748011 61.7985861,29.1645523 61.3811035,28.8520508 C60.963621,28.5395492 60.2934616,28.3833008 59.3706055,28.3833008 L57.7519531,28.3833008 L57.7519531,32.4775391 Z M73.5136719,38 L72.0488281,38 L68.1450195,32.8071289 L67.0244141,33.8032227 L67.0244141,38 L65.7792969,38 L65.7792969,27.2919922 L67.0244141,27.2919922 L67.0244141,32.6020508 L71.8803711,27.2919922 L73.3525391,27.2919922 L69.0458984,31.9428711 L73.5136719,38 Z M80.9550781,38 L74.9858398,38 L74.9858398,27.2919922 L80.9550781,27.2919922 L80.9550781,28.3979492 L76.230957,28.3979492 L76.230957,31.8476562 L80.6694336,31.8476562 L80.6694336,32.9462891 L76.230957,32.9462891 L76.230957,36.8867188 L80.9550781,36.8867188 L80.9550781,38 Z M86.6240234,38 L85.3789062,38 L85.3789062,28.3979492 L81.987793,28.3979492 L81.987793,27.2919922 L90.0151367,27.2919922 L90.0151367,28.3979492 L86.6240234,28.3979492 L86.6240234,38 Z" id="MARKET"></path>
                    </g>
                    <g id="각-기간-마다-시장은-가장-신뢰할-수" transform="translate(0.000000, 225.000000)" fill="#00426E" font-family="BMHANNA, BM HANNA_TTF" font-size="10" font-weight="normal" opacity="0.8">
                        <text id="각">
                            <tspan x="0" y="8.45454545">각 기간 마다 시장은 가장 신뢰할 수</tspan>
                            <tspan x="0" y="23.7272727">있고 잠재적으로 수익성 있는 투자</tspan>
                            <tspan x="0" y="39">에 대한 기준을 바탕으로 완전한 비</tspan>
                            <tspan x="0" y="54.2727273">공개 회사 주식에 제한된 투자 제안</tspan>
                            <tspan x="0" y="69.5454545">을 제시합니다.</tspan>
                        </text>
                    </g>
                    <g id="PATS-프로토콜은-투자자-커뮤니티" transform="translate(370.000000, 187.000000)" fill="#00426E" font-family="BMHANNA, BM HANNA_TTF" font-size="10" font-weight="normal" opacity="0.8">
                        <text id="PATS">
                            <tspan x="0" y="8.8">PATS 프로토콜은 투자자 커뮤니티</tspan>
                            <tspan x="0" y="24.2">및 분산 된 토큰 시장을 위해 계약을</tspan>
                            <tspan x="0" y="39.6">시작합니다.</tspan>
                        </text>
                    </g>
                    <g id="토큰화-된-모든-개인-자산은-표준-거" transform="translate(1052.000000, 284.000000)" fill="#00426E" font-family="BMHANNA, BM HANNA_TTF" font-size="10" font-weight="normal" opacity="0.8">
                        <text id="토큰화">
                            <tspan x="0" y="8.45454545">토큰화 된 모든 개인 자산은 표준 거</tspan>
                            <tspan x="0" y="23.7272727">래에 추가가 됩니다 . 이 표준 거래에</tspan>
                            <tspan x="0" y="39">는 모든 사람이 개인 자산을 구매한 후</tspan>
                            <tspan x="9.40766423" y="54.2727273">, 분산 된 투자자 커뮤니티의 구성</tspan>
                            <tspan x="0" y="69.5454545">원이 될 수 있게 만들어 줍니다.</tspan>
                        </text>
                    </g>
                    <g id="PATS-프로토콜을-통해-실현-된-모" transform="translate(632.000000, 613.000000)" fill="#00426E" font-family="BMHANNA, BM HANNA_TTF" font-size="10" font-weight="normal" opacity="0.8">
                        <text id="PATS">
                            <tspan x="0" y="8.45454545">PATS 프로토콜을 통해 실현 된 모든</tspan>
                            <tspan x="0" y="23.7272727">토큰 소유자는 스마트 계약 또는 표</tspan>
                            <tspan x="0" y="39">준 거래를 통해 이후의 어셈블러 ( 작</tspan>
                            <tspan x="0" y="54.2727273">업 ) 및 교환 토큰의 이동에 영향을 끼</tspan>
                            <tspan x="0" y="69.5454545">칠 수 있습니다 .</tspan>
                        </text>
                    </g>
                    <path d="M562,290 L562,484 C562,500.568542 575.431458,514 592,514 L624,514" id="Path-2" stroke="#00426E" stroke-width="2"></path>
                    <path d="M777,514 L932,514 C948.568542,514 962,500.568542 962,484 L962,414" id="Path-3" stroke="#00426E" stroke-width="2"></path>
                    <path d="M242.514648,85.1508789 C242.514648,86.0932664 242.172855,86.8281224 241.489258,87.3554688 C240.805661,87.8828151 239.877936,88.1464844 238.706055,88.1464844 C237.436517,88.1464844 236.459964,87.9829118 235.776367,87.6557617 L235.776367,86.4545898 C236.215823,86.6401376 236.694333,86.7866206 237.211914,86.894043 C237.729495,87.0014654 238.242185,87.0551758 238.75,87.0551758 C239.580082,87.0551758 240.205076,86.8977067 240.625,86.5827637 C241.044924,86.2678207 241.254883,85.8295927 241.254883,85.2680664 C241.254883,84.8969708 241.180421,84.5930188 241.031494,84.3562012 C240.882568,84.1193836 240.633547,83.9008799 240.284424,83.7006836 C239.935301,83.5004873 239.4043,83.2734388 238.691406,83.0195312 C237.695308,82.6630842 236.983645,82.2407251 236.556396,81.7524414 C236.129148,81.2641577 235.915527,80.6269571 235.915527,79.8408203 C235.915527,79.0156209 236.225583,78.3588892 236.845703,77.8706055 C237.465823,77.3823218 238.286128,77.1381836 239.306641,77.1381836 C240.371099,77.1381836 241.350093,77.3334941 242.243652,77.7241211 L241.855469,78.8081055 C240.971675,78.4370099 240.112309,78.2514648 239.277344,78.2514648 C238.618161,78.2514648 238.103029,78.393065 237.731934,78.6762695 C237.360838,78.9594741 237.175293,79.3525365 237.175293,79.8554688 C237.175293,80.2265644 237.243652,80.5305164 237.380371,80.767334 C237.517091,81.0041516 237.747801,81.2214346 238.07251,81.4191895 C238.397218,81.6169443 238.89404,81.835448 239.562988,82.074707 C240.686041,82.4750997 241.458738,82.9047829 241.881104,83.3637695 C242.303469,83.8227562 242.514648,84.4184534 242.514648,85.1508789 Z M248.000488,88 L246.755371,88 L246.755371,78.3979492 L243.364258,78.3979492 L243.364258,77.2919922 L251.391602,77.2919922 L251.391602,78.3979492 L248.000488,78.3979492 L248.000488,88 Z M258.686523,88 L257.353516,84.5942383 L253.061523,84.5942383 L251.743164,88 L250.483398,88 L254.716797,77.2480469 L255.76416,77.2480469 L259.975586,88 L258.686523,88 Z M256.965332,83.4736328 L255.720215,80.1557617 C255.559081,79.7358377 255.393067,79.2207062 255.222168,78.6103516 C255.114746,79.0791039 254.960939,79.5942355 254.760742,80.1557617 L253.500977,83.4736328 L256.965332,83.4736328 Z M262.692871,83.546875 L262.692871,88 L261.447754,88 L261.447754,77.2919922 L264.384766,77.2919922 C265.698249,77.2919922 266.668698,77.5434545 267.296143,78.0463867 C267.923587,78.5493189 268.237305,79.3061473 268.237305,80.3168945 C268.237305,81.7329172 267.519538,82.6899389 266.083984,83.1879883 L268.991699,88 L267.519531,88 L264.926758,83.546875 L262.692871,83.546875 Z M262.692871,82.4775391 L264.399414,82.4775391 C265.278325,82.4775391 265.92285,82.3029803 266.333008,81.9538574 C266.743166,81.6047346 266.948242,81.0810582 266.948242,80.3828125 C266.948242,79.6748011 266.739504,79.1645523 266.322021,78.8520508 C265.904539,78.5395492 265.23438,78.3833008 264.311523,78.3833008 L262.692871,78.3833008 L262.692871,82.4775391 Z M274.016113,88 L272.770996,88 L272.770996,78.3979492 L269.379883,78.3979492 L269.379883,77.2919922 L277.407227,77.2919922 L277.407227,78.3979492 L274.016113,78.3979492 L274.016113,88 Z" id="START" fill="#000000"></path>
                    <path d="M25.2617188,82.4121094 C25.2617188,83.4960992 24.8918494,84.3298311 24.1520996,84.9133301 C23.4123498,85.4968291 22.3540108,85.7885742 20.9770508,85.7885742 L19.7172852,85.7885742 L19.7172852,90 L18.472168,90 L18.472168,79.2919922 L21.2480469,79.2919922 C23.9238415,79.2919922 25.2617188,80.3320208 25.2617188,82.4121094 Z M19.7172852,84.7192383 L20.8378906,84.7192383 C21.9414118,84.7192383 22.7397436,84.5410174 23.2329102,84.1845703 C23.7260767,83.8281232 23.9726562,83.2568399 23.9726562,82.4707031 C23.9726562,81.7626918 23.740725,81.2353533 23.2768555,80.8886719 C22.812986,80.5419905 22.0903369,80.3686523 21.1088867,80.3686523 L19.7172852,80.3686523 L19.7172852,84.7192383 Z M28.7480469,85.546875 L28.7480469,90 L27.5029297,90 L27.5029297,79.2919922 L30.4399414,79.2919922 C31.7534245,79.2919922 32.7238738,79.5434545 33.3513184,80.0463867 C33.9787629,80.5493189 34.2924805,81.3061473 34.2924805,82.3168945 C34.2924805,83.7329172 33.5747142,84.6899389 32.1391602,85.1879883 L35.046875,90 L33.574707,90 L30.9819336,85.546875 L28.7480469,85.546875 Z M28.7480469,84.4775391 L30.4545898,84.4775391 C31.3335005,84.4775391 31.9780253,84.3029803 32.3881836,83.9538574 C32.7983419,83.6047346 33.003418,83.0810582 33.003418,82.3828125 C33.003418,81.6748011 32.7946798,81.1645523 32.3771973,80.8520508 C31.9597147,80.5395492 31.2895554,80.3833008 30.3666992,80.3833008 L28.7480469,80.3833008 L28.7480469,84.4775391 Z M36.7753906,90 L36.7753906,79.2919922 L38.0205078,79.2919922 L38.0205078,90 L36.7753906,90 Z M47.0732422,79.2919922 L48.4135742,79.2919922 L44.5537109,90 L43.3232422,90 L39.4853516,79.2919922 L40.8037109,79.2919922 L43.2646484,86.2207031 C43.547853,87.0166055 43.7724601,87.7905236 43.9384766,88.5424805 C44.1142587,87.7514609 44.3437486,86.9628946 44.6269531,86.1767578 L47.0732422,79.2919922 Z M56.0161133,90 L54.6831055,86.5942383 L50.3911133,86.5942383 L49.0727539,90 L47.8129883,90 L52.0463867,79.2480469 L53.09375,79.2480469 L57.3051758,90 L56.0161133,90 Z M54.2949219,85.4736328 L53.0498047,82.1557617 C52.8886711,81.7358377 52.7226571,81.2207062 52.5517578,80.6103516 C52.4443354,81.0791039 52.2905283,81.5942355 52.090332,82.1557617 L50.8305664,85.4736328 L54.2949219,85.4736328 Z M61.0258789,90 L59.7807617,90 L59.7807617,80.3979492 L56.3896484,80.3979492 L56.3896484,79.2919922 L64.4169922,79.2919922 L64.4169922,80.3979492 L61.0258789,80.3979492 L61.0258789,90 Z M71.9975586,90 L66.0283203,90 L66.0283203,79.2919922 L71.9975586,79.2919922 L71.9975586,80.3979492 L67.2734375,80.3979492 L67.2734375,83.8476562 L71.7119141,83.8476562 L71.7119141,84.9462891 L67.2734375,84.9462891 L67.2734375,88.8867188 L71.9975586,88.8867188 L71.9975586,90 Z M84.9980469,90 L83.6650391,86.5942383 L79.3730469,86.5942383 L78.0546875,90 L76.7949219,90 L81.0283203,79.2480469 L82.0756836,79.2480469 L86.2871094,90 L84.9980469,90 Z M83.2768555,85.4736328 L82.0317383,82.1557617 C81.8706047,81.7358377 81.7045907,81.2207062 81.5336914,80.6103516 C81.426269,81.0791039 81.2724619,81.5942355 81.0722656,82.1557617 L79.8125,85.4736328 L83.2768555,85.4736328 Z M93.8017578,87.1508789 C93.8017578,88.0932664 93.4599644,88.8281224 92.7763672,89.3554688 C92.09277,89.8828151 91.1650449,90.1464844 89.9931641,90.1464844 C88.7236265,90.1464844 87.7470737,89.9829118 87.0634766,89.6557617 L87.0634766,88.4545898 C87.5029319,88.6401376 87.9814427,88.7866206 88.4990234,88.894043 C89.0166042,89.0014654 89.5292943,89.0551758 90.0371094,89.0551758 C90.8671917,89.0551758 91.4921854,88.8977067 91.9121094,88.5827637 C92.3320333,88.2678207 92.5419922,87.8295927 92.5419922,87.2680664 C92.5419922,86.8969708 92.46753,86.5930188 92.3186035,86.3562012 C92.169677,86.1193836 91.920656,85.9008799 91.5715332,85.7006836 C91.2224104,85.5004873 90.6914098,85.2734388 89.9785156,85.0195312 C88.9824169,84.6630842 88.2707541,84.2407251 87.8435059,83.7524414 C87.4162576,83.2641577 87.2026367,82.6269571 87.2026367,81.8408203 C87.2026367,81.0156209 87.5126922,80.3588892 88.1328125,79.8706055 C88.7529328,79.3823218 89.5732371,79.1381836 90.59375,79.1381836 C91.6582084,79.1381836 92.6372026,79.3334941 93.5307617,79.7241211 L93.1425781,80.8081055 C92.2587846,80.4370099 91.3994182,80.2514648 90.5644531,80.2514648 C89.9052701,80.2514648 89.3901386,80.393065 89.019043,80.6762695 C88.6479474,80.9594741 88.4624023,81.3525365 88.4624023,81.8554688 C88.4624023,82.2265644 88.530761,82.5305164 88.6674805,82.767334 C88.8041999,83.0041516 89.0349105,83.2214346 89.3596191,83.4191895 C89.6843278,83.6169443 90.181149,83.835448 90.8500977,84.074707 C91.9731501,84.4750997 92.7458475,84.9047829 93.1682129,85.3637695 C93.5905783,85.8227562 93.8017578,86.4184534 93.8017578,87.1508789 Z M102.03418,87.1508789 C102.03418,88.0932664 101.692386,88.8281224 101.008789,89.3554688 C100.325192,89.8828151 99.3974668,90.1464844 98.2255859,90.1464844 C96.9560483,90.1464844 95.9794956,89.9829118 95.2958984,89.6557617 L95.2958984,88.4545898 C95.7353538,88.6401376 96.2138646,88.7866206 96.7314453,88.894043 C97.249026,89.0014654 97.7617162,89.0551758 98.2695312,89.0551758 C99.0996135,89.0551758 99.7246073,88.8977067 100.144531,88.5827637 C100.564455,88.2678207 100.774414,87.8295927 100.774414,87.2680664 C100.774414,86.8969708 100.699952,86.5930188 100.551025,86.3562012 C100.402099,86.1193836 100.153078,85.9008799 99.8039551,85.7006836 C99.4548322,85.5004873 98.9238317,85.2734388 98.2109375,85.0195312 C97.2148388,84.6630842 96.503176,84.2407251 96.0759277,83.7524414 C95.6486795,83.2641577 95.4350586,82.6269571 95.4350586,81.8408203 C95.4350586,81.0156209 95.7451141,80.3588892 96.3652344,79.8706055 C96.9853547,79.3823218 97.805659,79.1381836 98.8261719,79.1381836 C99.8906303,79.1381836 100.869624,79.3334941 101.763184,79.7241211 L101.375,80.8081055 C100.491207,80.4370099 99.6318401,80.2514648 98.796875,80.2514648 C98.137692,80.2514648 97.6225604,80.393065 97.2514648,80.6762695 C96.8803692,80.9594741 96.6948242,81.3525365 96.6948242,81.8554688 C96.6948242,82.2265644 96.7631829,82.5305164 96.8999023,82.767334 C97.0366218,83.0041516 97.2673324,83.2214346 97.592041,83.4191895 C97.9167497,83.6169443 98.4135709,83.835448 99.0825195,84.074707 C100.205572,84.4750997 100.978269,84.9047829 101.400635,85.3637695 C101.823,85.8227562 102.03418,86.4184534 102.03418,87.1508789 Z M110.193359,90 L104.224121,90 L104.224121,79.2919922 L110.193359,79.2919922 L110.193359,80.3979492 L105.469238,80.3979492 L105.469238,83.8476562 L109.907715,83.8476562 L109.907715,84.9462891 L105.469238,84.9462891 L105.469238,88.8867188 L110.193359,88.8867188 L110.193359,90 Z M115.862305,90 L114.617188,90 L114.617188,80.3979492 L111.226074,80.3979492 L111.226074,79.2919922 L119.253418,79.2919922 L119.253418,80.3979492 L115.862305,80.3979492 L115.862305,90 Z M126.907227,87.1508789 C126.907227,88.0932664 126.565433,88.8281224 125.881836,89.3554688 C125.198239,89.8828151 124.270514,90.1464844 123.098633,90.1464844 C121.829095,90.1464844 120.852542,89.9829118 120.168945,89.6557617 L120.168945,88.4545898 C120.608401,88.6401376 121.086911,88.7866206 121.604492,88.894043 C122.122073,89.0014654 122.634763,89.0551758 123.142578,89.0551758 C123.97266,89.0551758 124.597654,88.8977067 125.017578,88.5827637 C125.437502,88.2678207 125.647461,87.8295927 125.647461,87.2680664 C125.647461,86.8969708 125.572999,86.5930188 125.424072,86.3562012 C125.275146,86.1193836 125.026125,85.9008799 124.677002,85.7006836 C124.327879,85.5004873 123.796879,85.2734388 123.083984,85.0195312 C122.087886,84.6630842 121.376223,84.2407251 120.948975,83.7524414 C120.521726,83.2641577 120.308105,82.6269571 120.308105,81.8408203 C120.308105,81.0156209 120.618161,80.3588892 121.238281,79.8706055 C121.858402,79.3823218 122.678706,79.1381836 123.699219,79.1381836 C124.763677,79.1381836 125.742671,79.3334941 126.63623,79.7241211 L126.248047,80.8081055 C125.364253,80.4370099 124.504887,80.2514648 123.669922,80.2514648 C123.010739,80.2514648 122.495607,80.393065 122.124512,80.6762695 C121.753416,80.9594741 121.567871,81.3525365 121.567871,81.8554688 C121.567871,82.2265644 121.63623,82.5305164 121.772949,82.767334 C121.909669,83.0041516 122.140379,83.2214346 122.465088,83.4191895 C122.789797,83.6169443 123.286618,83.835448 123.955566,84.074707 C125.078619,84.4750997 125.851316,84.9047829 126.273682,85.3637695 C126.696047,85.8227562 126.907227,86.4184534 126.907227,87.1508789 Z" id="PRIVATE-ASSETS" fill="#00426E"></path>
                    <path d="M434.261719,82.4121094 C434.261719,83.4960992 433.891849,84.3298311 433.1521,84.9133301 C432.41235,85.4968291 431.354011,85.7885742 429.977051,85.7885742 L428.717285,85.7885742 L428.717285,90 L427.472168,90 L427.472168,79.2919922 L430.248047,79.2919922 C432.923842,79.2919922 434.261719,80.3320208 434.261719,82.4121094 Z M428.717285,84.7192383 L429.837891,84.7192383 C430.941412,84.7192383 431.739744,84.5410174 432.23291,84.1845703 C432.726077,83.8281232 432.972656,83.2568399 432.972656,82.4707031 C432.972656,81.7626918 432.740725,81.2353533 432.276855,80.8886719 C431.812986,80.5419905 431.090337,80.3686523 430.108887,80.3686523 L428.717285,80.3686523 L428.717285,84.7192383 Z M442.486816,90 L441.153809,86.5942383 L436.861816,86.5942383 L435.543457,90 L434.283691,90 L438.51709,79.2480469 L439.564453,79.2480469 L443.775879,90 L442.486816,90 Z M440.765625,85.4736328 L439.520508,82.1557617 C439.359374,81.7358377 439.19336,81.2207062 439.022461,80.6103516 C438.915039,81.0791039 438.761231,81.5942355 438.561035,82.1557617 L437.30127,85.4736328 L440.765625,85.4736328 Z M447.496582,90 L446.251465,90 L446.251465,80.3979492 L442.860352,80.3979492 L442.860352,79.2919922 L450.887695,79.2919922 L450.887695,80.3979492 L447.496582,80.3979492 L447.496582,90 Z M458.541504,87.1508789 C458.541504,88.0932664 458.19971,88.8281224 457.516113,89.3554688 C456.832516,89.8828151 455.904791,90.1464844 454.73291,90.1464844 C453.463373,90.1464844 452.48682,89.9829118 451.803223,89.6557617 L451.803223,88.4545898 C452.242678,88.6401376 452.721189,88.7866206 453.23877,88.894043 C453.75635,89.0014654 454.26904,89.0551758 454.776855,89.0551758 C455.606938,89.0551758 456.231931,88.8977067 456.651855,88.5827637 C457.071779,88.2678207 457.281738,87.8295927 457.281738,87.2680664 C457.281738,86.8969708 457.207276,86.5930188 457.05835,86.3562012 C456.909423,86.1193836 456.660402,85.9008799 456.311279,85.7006836 C455.962156,85.5004873 455.431156,85.2734388 454.718262,85.0195312 C453.722163,84.6630842 453.0105,84.2407251 452.583252,83.7524414 C452.156004,83.2641577 451.942383,82.6269571 451.942383,81.8408203 C451.942383,81.0156209 452.252438,80.3588892 452.872559,79.8706055 C453.492679,79.3823218 454.312983,79.1381836 455.333496,79.1381836 C456.397955,79.1381836 457.376949,79.3334941 458.270508,79.7241211 L457.882324,80.8081055 C456.998531,80.4370099 456.139164,80.2514648 455.304199,80.2514648 C454.645016,80.2514648 454.129885,80.393065 453.758789,80.6762695 C453.387693,80.9594741 453.202148,81.3525365 453.202148,81.8554688 C453.202148,82.2265644 453.270507,82.5305164 453.407227,82.767334 C453.543946,83.0041516 453.774657,83.2214346 454.099365,83.4191895 C454.424074,83.6169443 454.920895,83.835448 455.589844,84.074707 C456.712896,84.4750997 457.485594,84.9047829 457.907959,85.3637695 C458.330324,85.8227562 458.541504,86.4184534 458.541504,87.1508789 Z" id="PATS" fill="#00426E"></path>
                    <path d="M659.441406,90 L653.472168,90 L653.472168,79.2919922 L659.441406,79.2919922 L659.441406,80.3979492 L654.717285,80.3979492 L654.717285,83.8476562 L659.155762,83.8476562 L659.155762,84.9462891 L654.717285,84.9462891 L654.717285,88.8867188 L659.441406,88.8867188 L659.441406,90 Z M663.05957,85.546875 L663.05957,90 L661.814453,90 L661.814453,79.2919922 L664.751465,79.2919922 C666.064948,79.2919922 667.035397,79.5434545 667.662842,80.0463867 C668.290286,80.5493189 668.604004,81.3061473 668.604004,82.3168945 C668.604004,83.7329172 667.886238,84.6899389 666.450684,85.1879883 L669.358398,90 L667.88623,90 L665.293457,85.546875 L663.05957,85.546875 Z M663.05957,84.4775391 L664.766113,84.4775391 C665.645024,84.4775391 666.289549,84.3029803 666.699707,83.9538574 C667.109865,83.6047346 667.314941,83.0810582 667.314941,82.3828125 C667.314941,81.6748011 667.106203,81.1645523 666.688721,80.8520508 C666.271238,80.5395492 665.601079,80.3833008 664.678223,80.3833008 L663.05957,80.3833008 L663.05957,84.4775391 Z M675.671875,80.2514648 C674.495111,80.2514648 673.566166,80.6433066 672.88501,81.427002 C672.203854,82.2106973 671.863281,83.2836846 671.863281,84.6459961 C671.863281,86.0473703 672.191647,87.1301231 672.848389,87.8942871 C673.50513,88.6584511 674.4414,89.0405273 675.657227,89.0405273 C676.404301,89.0405273 677.256343,88.9062513 678.213379,88.6376953 L678.213379,89.7290039 C677.471188,90.0073256 676.55567,90.1464844 675.466797,90.1464844 C673.889641,90.1464844 672.672612,89.6679735 671.815674,88.7109375 C670.958736,87.7539015 670.530273,86.3940518 670.530273,84.6313477 C670.530273,83.5278265 670.73657,82.5610393 671.14917,81.730957 C671.56177,80.9008748 672.157467,80.2612327 672.936279,79.8120117 C673.715092,79.3627907 674.631831,79.1381836 675.686523,79.1381836 C676.809576,79.1381836 677.791011,79.3432597 678.630859,79.753418 L678.103516,80.8227539 C677.292965,80.4418926 676.482426,80.2514648 675.671875,80.2514648 Z M686.848633,90 L679.810059,90 L679.810059,88.9526367 L682.629883,86.1181641 C683.489262,85.2490191 684.055663,84.6289081 684.329102,84.2578125 C684.60254,83.8867169 684.807617,83.5253924 684.944336,83.1738281 C685.081055,82.8222639 685.149414,82.4438497 685.149414,82.0385742 C685.149414,81.4672823 684.976076,81.014406 684.629395,80.6799316 C684.282713,80.3454573 683.801761,80.1782227 683.186523,80.1782227 C682.742185,80.1782227 682.321047,80.2514641 681.923096,80.3979492 C681.525144,80.5444343 681.082034,80.8105449 680.59375,81.1962891 L679.949219,80.3686523 C680.935552,79.5483357 682.00976,79.1381836 683.171875,79.1381836 C684.177739,79.1381836 684.966306,79.3957494 685.537598,79.9108887 C686.10889,80.426028 686.394531,81.1181597 686.394531,81.9873047 C686.394531,82.666019 686.204103,83.337399 685.823242,84.0014648 C685.442381,84.6655307 684.729497,85.505366 683.68457,86.5209961 L681.34082,88.8134766 L681.34082,88.8720703 L686.848633,88.8720703 L686.848633,90 Z M695.483887,84.6313477 C695.483887,86.4819428 695.192142,87.863765 694.608643,88.7768555 C694.025144,89.689946 693.132819,90.1464844 691.931641,90.1464844 C690.779291,90.1464844 689.902835,89.6789598 689.302246,88.7438965 C688.701657,87.8088332 688.401367,86.4379973 688.401367,84.6313477 C688.401367,82.766104 688.691892,81.3818405 689.272949,80.4785156 C689.854007,79.5751908 690.740228,79.1235352 691.931641,79.1235352 C693.093756,79.1235352 693.976315,79.5947219 694.579346,80.5371094 C695.182376,81.4794969 695.483887,82.8442293 695.483887,84.6313477 Z M689.631836,84.6313477 C689.631836,86.1889726 689.81494,87.3229945 690.181152,88.0334473 C690.547365,88.7439 691.130855,89.0991211 691.931641,89.0991211 C692.742192,89.0991211 693.329344,88.7390173 693.693115,88.0187988 C694.056887,87.2985804 694.23877,86.1694413 694.23877,84.6313477 C694.23877,83.093254 694.056887,81.9665563 693.693115,81.2512207 C693.329344,80.5358851 692.742192,80.1782227 691.931641,80.1782227 C691.130855,80.1782227 690.547365,80.5310023 690.181152,81.2365723 C689.81494,81.9421422 689.631836,83.0737227 689.631836,84.6313477 Z M704.895508,90 L703.650391,90 L703.650391,80.3979492 L700.259277,80.3979492 L700.259277,79.2919922 L708.286621,79.2919922 L708.286621,80.3979492 L704.895508,80.3979492 L704.895508,90 Z M718.89209,84.6313477 C718.89209,86.3452234 718.458745,87.6928662 717.592041,88.6743164 C716.725337,89.6557666 715.520516,90.1464844 713.977539,90.1464844 C712.400383,90.1464844 711.183354,89.6643115 710.326416,88.6999512 C709.469478,87.7355909 709.041016,86.3745205 709.041016,84.6166992 C709.041016,82.8735264 709.470699,81.5222216 710.330078,80.5627441 C711.189457,79.6032667 712.410148,79.1235352 713.992188,79.1235352 C715.530281,79.1235352 716.731441,79.6118115 717.595703,80.5883789 C718.459965,81.5649463 718.89209,82.9125891 718.89209,84.6313477 Z M710.359375,84.6313477 C710.359375,86.0815502 710.66821,87.1813927 711.285889,87.9309082 C711.903568,88.6804237 712.800775,89.0551758 713.977539,89.0551758 C715.164068,89.0551758 716.060056,88.6816444 716.665527,87.9345703 C717.270999,87.1874963 717.57373,86.0864331 717.57373,84.6313477 C717.57373,83.1909108 717.27222,82.0983924 716.669189,81.3537598 C716.066159,80.6091271 715.173834,80.2368164 713.992188,80.2368164 C712.805658,80.2368164 711.903568,80.6115685 711.285889,81.361084 C710.66821,82.1105995 710.359375,83.2006764 710.359375,84.6313477 Z M729.01416,90 L727.549316,90 L723.645508,84.8071289 L722.524902,85.8032227 L722.524902,90 L721.279785,90 L721.279785,79.2919922 L722.524902,79.2919922 L722.524902,84.6020508 L727.380859,79.2919922 L728.853027,79.2919922 L724.546387,83.9428711 L729.01416,90 Z M736.455566,90 L730.486328,90 L730.486328,79.2919922 L736.455566,79.2919922 L736.455566,80.3979492 L731.731445,80.3979492 L731.731445,83.8476562 L736.169922,83.8476562 L736.169922,84.9462891 L731.731445,84.9462891 L731.731445,88.8867188 L736.455566,88.8867188 L736.455566,90 Z M747.192871,90 L745.771973,90 L739.919922,81.0131836 L739.861328,81.0131836 C739.939454,82.0678764 739.978516,83.0346636 739.978516,83.9135742 L739.978516,90 L738.828613,90 L738.828613,79.2919922 L740.234863,79.2919922 L746.072266,88.2421875 L746.130859,88.2421875 C746.121094,88.1103509 746.099121,87.6867712 746.064941,86.9714355 C746.030762,86.2560999 746.018555,85.7446304 746.02832,85.4370117 L746.02832,79.2919922 L747.192871,79.2919922 L747.192871,90 Z M756.179688,87.1508789 C756.179688,88.0932664 755.837894,88.8281224 755.154297,89.3554688 C754.4707,89.8828151 753.542975,90.1464844 752.371094,90.1464844 C751.101556,90.1464844 750.125003,89.9829118 749.441406,89.6557617 L749.441406,88.4545898 C749.880862,88.6401376 750.359372,88.7866206 750.876953,88.894043 C751.394534,89.0014654 751.907224,89.0551758 752.415039,89.0551758 C753.245121,89.0551758 753.870115,88.8977067 754.290039,88.5827637 C754.709963,88.2678207 754.919922,87.8295927 754.919922,87.2680664 C754.919922,86.8969708 754.84546,86.5930188 754.696533,86.3562012 C754.547607,86.1193836 754.298586,85.9008799 753.949463,85.7006836 C753.60034,85.5004873 753.06934,85.2734388 752.356445,85.0195312 C751.360347,84.6630842 750.648684,84.2407251 750.221436,83.7524414 C749.794187,83.2641577 749.580566,82.6269571 749.580566,81.8408203 C749.580566,81.0156209 749.890622,80.3588892 750.510742,79.8706055 C751.130862,79.3823218 751.951167,79.1381836 752.97168,79.1381836 C754.036138,79.1381836 755.015132,79.3334941 755.908691,79.7241211 L755.520508,80.8081055 C754.636714,80.4370099 753.777348,80.2514648 752.942383,80.2514648 C752.2832,80.2514648 751.768068,80.393065 751.396973,80.6762695 C751.025877,80.9594741 750.840332,81.3525365 750.840332,81.8554688 C750.840332,82.2265644 750.908691,82.5305164 751.04541,82.767334 C751.18213,83.0041516 751.41284,83.2214346 751.737549,83.4191895 C752.062257,83.6169443 752.559079,83.835448 753.228027,84.074707 C754.35108,84.4750997 755.123777,84.9047829 755.546143,85.3637695 C755.968508,85.8227562 756.179688,86.4184534 756.179688,87.1508789 Z" id="ERC20-TOKENS" fill="#00426E"></path>
                    <path d="M932.441406,326 L926.472168,326 L926.472168,315.291992 L932.441406,315.291992 L932.441406,316.397949 L927.717285,316.397949 L927.717285,319.847656 L932.155762,319.847656 L932.155762,320.946289 L927.717285,320.946289 L927.717285,324.886719 L932.441406,324.886719 L932.441406,326 Z M941.940918,326 L940.527344,326 L937.648926,321.290527 L934.719238,326 L933.400879,326 L936.960449,320.404297 L933.642578,315.291992 L935.019531,315.291992 L937.678223,319.532715 L940.358887,315.291992 L941.68457,315.291992 L938.366699,320.360352 L941.940918,326 Z M947.756348,316.251465 C946.579584,316.251465 945.650638,316.643307 944.969482,317.427002 C944.288327,318.210697 943.947754,319.283685 943.947754,320.645996 C943.947754,322.04737 944.27612,323.130123 944.932861,323.894287 C945.589603,324.658451 946.525873,325.040527 947.741699,325.040527 C948.488773,325.040527 949.340816,324.906251 950.297852,324.637695 L950.297852,325.729004 C949.55566,326.007326 948.640142,326.146484 947.55127,326.146484 C945.974113,326.146484 944.757084,325.667974 943.900146,324.710938 C943.043209,323.753901 942.614746,322.394052 942.614746,320.631348 C942.614746,319.527827 942.821043,318.561039 943.233643,317.730957 C943.646242,316.900875 944.241939,316.261233 945.020752,315.812012 C945.799564,315.362791 946.716303,315.138184 947.770996,315.138184 C948.894049,315.138184 949.875484,315.34326 950.715332,315.753418 L950.187988,316.822754 C949.377437,316.441893 948.566899,316.251465 947.756348,316.251465 Z M960.76416,326 L959.519043,326 L959.519043,320.960938 L953.879395,320.960938 L953.879395,326 L952.634277,326 L952.634277,315.291992 L953.879395,315.291992 L953.879395,319.847656 L959.519043,319.847656 L959.519043,315.291992 L960.76416,315.291992 L960.76416,326 Z M970.432129,326 L969.099121,322.594238 L964.807129,322.594238 L963.48877,326 L962.229004,326 L966.462402,315.248047 L967.509766,315.248047 L971.721191,326 L970.432129,326 Z M968.710938,321.473633 L967.46582,318.155762 C967.304687,317.735838 967.138673,317.220706 966.967773,316.610352 C966.860351,317.079104 966.706544,317.594235 966.506348,318.155762 L965.246582,321.473633 L968.710938,321.473633 Z M981.557617,326 L980.136719,326 L974.284668,317.013184 L974.226074,317.013184 C974.3042,318.067876 974.343262,319.034664 974.343262,319.913574 L974.343262,326 L973.193359,326 L973.193359,315.291992 L974.599609,315.291992 L980.437012,324.242188 L980.495605,324.242188 C980.48584,324.110351 980.463867,323.686771 980.429688,322.971436 C980.395508,322.2561 980.383301,321.74463 980.393066,321.437012 L980.393066,315.291992 L981.557617,315.291992 L981.557617,326 Z M989.211426,320.389648 L992.851562,320.389648 L992.851562,325.597168 C992.285153,325.777833 991.708987,325.91455 991.123047,326.007324 C990.537106,326.100098 989.858402,326.146484 989.086914,326.146484 C987.465812,326.146484 986.203618,325.664311 985.300293,324.699951 C984.396968,323.735591 983.945312,322.384286 983.945312,320.645996 C983.945312,319.532709 984.168699,318.557377 984.615479,317.719971 C985.062258,316.882564 985.705562,316.242922 986.54541,315.801025 C987.385258,315.359129 988.369135,315.138184 989.49707,315.138184 C990.639654,315.138184 991.704097,315.348142 992.69043,315.768066 L992.207031,316.866699 C991.24023,316.456541 990.310063,316.251465 989.416504,316.251465 C988.112786,316.251465 987.09473,316.639645 986.362305,317.416016 C985.629879,318.192387 985.263672,319.269036 985.263672,320.645996 C985.263672,322.091316 985.616452,323.187496 986.322021,323.93457 C987.027591,324.681644 988.063958,325.055176 989.431152,325.055176 C990.173344,325.055176 990.898434,324.969727 991.606445,324.798828 L991.606445,321.50293 L989.211426,321.50293 L989.211426,320.389648 Z M1001.3916,326 L995.422363,326 L995.422363,315.291992 L1001.3916,315.291992 L1001.3916,316.397949 L996.66748,316.397949 L996.66748,319.847656 L1001.10596,319.847656 L1001.10596,320.946289 L996.66748,320.946289 L996.66748,324.886719 L1001.3916,324.886719 L1001.3916,326 Z" id="EXCHANGE" fill="#00426E"></path>
                </g>
            </g>
        </g>
    </g>
</svg>