<?xml version="1.0" encoding="UTF-8"?>
<svg width="335px" height="1510px" viewBox="0 0 335 1510" version="1.1" xmlns="http://www.w3.org/2000/svg" xmlns:xlink="http://www.w3.org/1999/xlink">
    <!-- Generator: Sketch 49 (51002) - http://www.bohemiancoding.com/sketch -->
    <title>Group</title>
    <desc>Created with Sketch.</desc>
    <defs></defs>
    <g id="Page-1" stroke="none" stroke-width="1" fill="none" fill-rule="evenodd">
        <g id="Artboard" transform="translate(-20.000000, -154.000000)">
            <g id="Group" transform="translate(20.000000, 152.000000)">
                <path d="M73.5012512,1093.01082 L73.5012512,1057.01082" id="Path-2-Copy" stroke="#00426E" stroke-width="2"></path>
                <path d="M73.5434195,896.034063 L73.5434195,862.01936" id="Path-2" stroke="#00426E" stroke-width="2"></path>
                <g id="arrow" transform="translate(73.000000, 207.000000)">
                    <path d="M138.119849,53.7484215 C144.763917,53.7484215 154.730019,53.7484215 168.018155,53.7484215 C179.06385,53.7484215 188.018155,62.7027265 188.018155,73.7484215 L188.018155,102.532697" id="Rectangle-2" stroke="#00426E" stroke-width="2"></path>
                    <polygon id="Triangle" fill="#00426E" transform="translate(188.015941, 102.616184) rotate(-270.000000) translate(-188.015941, -102.616184) " points="182.574571 111.333166 182.574571 93.8992034 193.457311 102.616184"></polygon>
                    <path d="M51.4197276,53.7942751 C44.5523294,53.7942751 34.2512322,53.7942751 20.5164359,53.7942751 C9.47074091,53.7942751 0.516435908,44.8399701 0.516435908,33.7942751 C0.516435908,19.0518508 0.516435908,7.99503264 0.516435908,0.623820504" id="Rectangle-3" stroke="#00426E" stroke-width="2"></path>
                </g>
                <g id="arrow" transform="translate(261.000000, 913.000000) rotate(90.000000) translate(-261.000000, -913.000000) translate(-176.000000, 904.000000)">
                    <path d="M0.345812068,9.00279245 L871,9.00279245" id="Path-2" stroke="#00426E" stroke-width="2"></path>
                    <polygon id="Triangle" fill="#00426E" points="862.221221 17.7160302 862.221221 0.282067933 873.103961 8.99904906"></polygon>
                </g>
                <g id="privateAssets" transform="translate(1.000000, 0.000000)">
                    <g id="Group-3-Copy" stroke-width="2">
                        <polyline id="Polygon-Copy-5" stroke="#EE6E9F" points="138.119331 156.249231 138.119331 170.397685 72.5 208.224507 6.88066912 170.397685 6.88066912 156.421901"></polyline>
                        <polyline id="Polygon-Copy-4" stroke="#7200DA" points="140.366541 141.51886 140.366541 155.364983 72.5 194.48723 4.63345865 155.364983 4.63345865 141.165356"></polyline>
                        <polygon id="Polygon-Copy-4" stroke="#FFBD4A" points="72.5 18.8420043 142.819549 59.378308 142.819549 140.450915 72.5 180.987219 2.18045113 140.450915 2.18045113 59.378308"></polygon>
                        <path d="M82.4884092,5.75790369 L134.988409,36.0219764 C141.182962,39.592879 145,46.1990786 145,53.3491713 L145,113.823802 C145,120.973895 141.182962,127.580094 134.988409,131.150997 L82.4884092,161.41507 C76.3062816,164.97881 68.6937184,164.97881 62.5115908,161.41507 L10.0115908,131.150997 C3.81703831,127.580094 6.21724894e-14,120.973895 4.61852778e-14,113.823802 L7.10542736e-15,53.3491713 C3.55271368e-15,46.1990786 3.81703831,39.592879 10.0115908,36.0219764 L62.5115908,5.75790369 C68.6937184,2.19416347 76.3062816,2.19416347 82.4884092,5.75790369 Z" id="Polygon-Copy-2" stroke="#1E9DF2" fill="#FFFFFF"></path>
                    </g>
                    <g id="각-기간-마다-시장은-가장-신뢰할-수" transform="translate(185.000000, 48.000000)" fill="#00426E" font-family="BMHANNA, BM HANNA_TTF" font-size="10" font-weight="normal" opacity="0.8">
                        <text id="각">
                            <tspan x="0" y="8.45454545">각 기간 마다 시장은 가장 신뢰할 수</tspan>
                            <tspan x="0" y="23.7272727">있고 잠재적으로 수익성 있는 투자</tspan>
                            <tspan x="0" y="39">에 대한 기준을.</tspan>
                        </text>
                    </g>
                    <path d="M25.2617188,82.4121094 C25.2617188,83.4960992 24.8918494,84.3298311 24.1520996,84.9133301 C23.4123498,85.4968291 22.3540108,85.7885742 20.9770508,85.7885742 L19.7172852,85.7885742 L19.7172852,90 L18.472168,90 L18.472168,79.2919922 L21.2480469,79.2919922 C23.9238415,79.2919922 25.2617188,80.3320208 25.2617188,82.4121094 Z M19.7172852,84.7192383 L20.8378906,84.7192383 C21.9414118,84.7192383 22.7397436,84.5410174 23.2329102,84.1845703 C23.7260767,83.8281232 23.9726562,83.2568399 23.9726562,82.4707031 C23.9726562,81.7626918 23.740725,81.2353533 23.2768555,80.8886719 C22.812986,80.5419905 22.0903369,80.3686523 21.1088867,80.3686523 L19.7172852,80.3686523 L19.7172852,84.7192383 Z M28.7480469,85.546875 L28.7480469,90 L27.5029297,90 L27.5029297,79.2919922 L30.4399414,79.2919922 C31.7534245,79.2919922 32.7238738,79.5434545 33.3513184,80.0463867 C33.9787629,80.5493189 34.2924805,81.3061473 34.2924805,82.3168945 C34.2924805,83.7329172 33.5747142,84.6899389 32.1391602,85.1879883 L35.046875,90 L33.574707,90 L30.9819336,85.546875 L28.7480469,85.546875 Z M28.7480469,84.4775391 L30.4545898,84.4775391 C31.3335005,84.4775391 31.9780253,84.3029803 32.3881836,83.9538574 C32.7983419,83.6047346 33.003418,83.0810582 33.003418,82.3828125 C33.003418,81.6748011 32.7946798,81.1645523 32.3771973,80.8520508 C31.9597147,80.5395492 31.2895554,80.3833008 30.3666992,80.3833008 L28.7480469,80.3833008 L28.7480469,84.4775391 Z M36.7753906,90 L36.7753906,79.2919922 L38.0205078,79.2919922 L38.0205078,90 L36.7753906,90 Z M47.0732422,79.2919922 L48.4135742,79.2919922 L44.5537109,90 L43.3232422,90 L39.4853516,79.2919922 L40.8037109,79.2919922 L43.2646484,86.2207031 C43.547853,87.0166055 43.7724601,87.7905236 43.9384766,88.5424805 C44.1142587,87.7514609 44.3437486,86.9628946 44.6269531,86.1767578 L47.0732422,79.2919922 Z M56.0161133,90 L54.6831055,86.5942383 L50.3911133,86.5942383 L49.0727539,90 L47.8129883,90 L52.0463867,79.2480469 L53.09375,79.2480469 L57.3051758,90 L56.0161133,90 Z M54.2949219,85.4736328 L53.0498047,82.1557617 C52.8886711,81.7358377 52.7226571,81.2207062 52.5517578,80.6103516 C52.4443354,81.0791039 52.2905283,81.5942355 52.090332,82.1557617 L50.8305664,85.4736328 L54.2949219,85.4736328 Z M61.0258789,90 L59.7807617,90 L59.7807617,80.3979492 L56.3896484,80.3979492 L56.3896484,79.2919922 L64.4169922,79.2919922 L64.4169922,80.3979492 L61.0258789,80.3979492 L61.0258789,90 Z M71.9975586,90 L66.0283203,90 L66.0283203,79.2919922 L71.9975586,79.2919922 L71.9975586,80.3979492 L67.2734375,80.3979492 L67.2734375,83.8476562 L71.7119141,83.8476562 L71.7119141,84.9462891 L67.2734375,84.9462891 L67.2734375,88.8867188 L71.9975586,88.8867188 L71.9975586,90 Z M84.9980469,90 L83.6650391,86.5942383 L79.3730469,86.5942383 L78.0546875,90 L76.7949219,90 L81.0283203,79.2480469 L82.0756836,79.2480469 L86.2871094,90 L84.9980469,90 Z M83.2768555,85.4736328 L82.0317383,82.1557617 C81.8706047,81.7358377 81.7045907,81.2207062 81.5336914,80.6103516 C81.426269,81.0791039 81.2724619,81.5942355 81.0722656,82.1557617 L79.8125,85.4736328 L83.2768555,85.4736328 Z M93.8017578,87.1508789 C93.8017578,88.0932664 93.4599644,88.8281224 92.7763672,89.3554688 C92.09277,89.8828151 91.1650449,90.1464844 89.9931641,90.1464844 C88.7236265,90.1464844 87.7470737,89.9829118 87.0634766,89.6557617 L87.0634766,88.4545898 C87.5029319,88.6401376 87.9814427,88.7866206 88.4990234,88.894043 C89.0166042,89.0014654 89.5292943,89.0551758 90.0371094,89.0551758 C90.8671917,89.0551758 91.4921854,88.8977067 91.9121094,88.5827637 C92.3320333,88.2678207 92.5419922,87.8295927 92.5419922,87.2680664 C92.5419922,86.8969708 92.46753,86.5930188 92.3186035,86.3562012 C92.169677,86.1193836 91.920656,85.9008799 91.5715332,85.7006836 C91.2224104,85.5004873 90.6914098,85.2734388 89.9785156,85.0195312 C88.9824169,84.6630842 88.2707541,84.2407251 87.8435059,83.7524414 C87.4162576,83.2641577 87.2026367,82.6269571 87.2026367,81.8408203 C87.2026367,81.0156209 87.5126922,80.3588892 88.1328125,79.8706055 C88.7529328,79.3823218 89.5732371,79.1381836 90.59375,79.1381836 C91.6582084,79.1381836 92.6372026,79.3334941 93.5307617,79.7241211 L93.1425781,80.8081055 C92.2587846,80.4370099 91.3994182,80.2514648 90.5644531,80.2514648 C89.9052701,80.2514648 89.3901386,80.393065 89.019043,80.6762695 C88.6479474,80.9594741 88.4624023,81.3525365 88.4624023,81.8554688 C88.4624023,82.2265644 88.530761,82.5305164 88.6674805,82.767334 C88.8041999,83.0041516 89.0349105,83.2214346 89.3596191,83.4191895 C89.6843278,83.6169443 90.181149,83.835448 90.8500977,84.074707 C91.9731501,84.4750997 92.7458475,84.9047829 93.1682129,85.3637695 C93.5905783,85.8227562 93.8017578,86.4184534 93.8017578,87.1508789 Z M102.03418,87.1508789 C102.03418,88.0932664 101.692386,88.8281224 101.008789,89.3554688 C100.325192,89.8828151 99.3974668,90.1464844 98.2255859,90.1464844 C96.9560483,90.1464844 95.9794956,89.9829118 95.2958984,89.6557617 L95.2958984,88.4545898 C95.7353538,88.6401376 96.2138646,88.7866206 96.7314453,88.894043 C97.249026,89.0014654 97.7617162,89.0551758 98.2695312,89.0551758 C99.0996135,89.0551758 99.7246073,88.8977067 100.144531,88.5827637 C100.564455,88.2678207 100.774414,87.8295927 100.774414,87.2680664 C100.774414,86.8969708 100.699952,86.5930188 100.551025,86.3562012 C100.402099,86.1193836 100.153078,85.9008799 99.8039551,85.7006836 C99.4548322,85.5004873 98.9238317,85.2734388 98.2109375,85.0195312 C97.2148388,84.6630842 96.503176,84.2407251 96.0759277,83.7524414 C95.6486795,83.2641577 95.4350586,82.6269571 95.4350586,81.8408203 C95.4350586,81.0156209 95.7451141,80.3588892 96.3652344,79.8706055 C96.9853547,79.3823218 97.805659,79.1381836 98.8261719,79.1381836 C99.8906303,79.1381836 100.869624,79.3334941 101.763184,79.7241211 L101.375,80.8081055 C100.491207,80.4370099 99.6318401,80.2514648 98.796875,80.2514648 C98.137692,80.2514648 97.6225604,80.393065 97.2514648,80.6762695 C96.8803692,80.9594741 96.6948242,81.3525365 96.6948242,81.8554688 C96.6948242,82.2265644 96.7631829,82.5305164 96.8999023,82.767334 C97.0366218,83.0041516 97.2673324,83.2214346 97.592041,83.4191895 C97.9167497,83.6169443 98.4135709,83.835448 99.0825195,84.074707 C100.205572,84.4750997 100.978269,84.9047829 101.400635,85.3637695 C101.823,85.8227562 102.03418,86.4184534 102.03418,87.1508789 Z M110.193359,90 L104.224121,90 L104.224121,79.2919922 L110.193359,79.2919922 L110.193359,80.3979492 L105.469238,80.3979492 L105.469238,83.8476562 L109.907715,83.8476562 L109.907715,84.9462891 L105.469238,84.9462891 L105.469238,88.8867188 L110.193359,88.8867188 L110.193359,90 Z M115.862305,90 L114.617188,90 L114.617188,80.3979492 L111.226074,80.3979492 L111.226074,79.2919922 L119.253418,79.2919922 L119.253418,80.3979492 L115.862305,80.3979492 L115.862305,90 Z M126.907227,87.1508789 C126.907227,88.0932664 126.565433,88.8281224 125.881836,89.3554688 C125.198239,89.8828151 124.270514,90.1464844 123.098633,90.1464844 C121.829095,90.1464844 120.852542,89.9829118 120.168945,89.6557617 L120.168945,88.4545898 C120.608401,88.6401376 121.086911,88.7866206 121.604492,88.894043 C122.122073,89.0014654 122.634763,89.0551758 123.142578,89.0551758 C123.97266,89.0551758 124.597654,88.8977067 125.017578,88.5827637 C125.437502,88.2678207 125.647461,87.8295927 125.647461,87.2680664 C125.647461,86.8969708 125.572999,86.5930188 125.424072,86.3562012 C125.275146,86.1193836 125.026125,85.9008799 124.677002,85.7006836 C124.327879,85.5004873 123.796879,85.2734388 123.083984,85.0195312 C122.087886,84.6630842 121.376223,84.2407251 120.948975,83.7524414 C120.521726,83.2641577 120.308105,82.6269571 120.308105,81.8408203 C120.308105,81.0156209 120.618161,80.3588892 121.238281,79.8706055 C121.858402,79.3823218 122.678706,79.1381836 123.699219,79.1381836 C124.763677,79.1381836 125.742671,79.3334941 126.63623,79.7241211 L126.248047,80.8081055 C125.364253,80.4370099 124.504887,80.2514648 123.669922,80.2514648 C123.010739,80.2514648 122.495607,80.393065 122.124512,80.6762695 C121.753416,80.9594741 121.567871,81.3525365 121.567871,81.8554688 C121.567871,82.2265644 121.63623,82.5305164 121.772949,82.767334 C121.909669,83.0041516 122.140379,83.2214346 122.465088,83.4191895 C122.789797,83.6169443 123.286618,83.835448 123.955566,84.074707 C125.078619,84.4750997 125.851316,84.9047829 126.273682,85.3637695 C126.696047,85.8227562 126.907227,86.4184534 126.907227,87.1508789 Z" id="PRIVATE-ASSETS" fill="#00426E"></path>
                </g>
                <g id="start" transform="translate(123.000000, 239.000000)">
                    <g id="Rectangle" transform="translate(0.561265, 0.000000)" fill="#F0F2F3" stroke="#00426E" stroke-width="2">
                        <rect fill="#FFFFFF" id="path-13" x="0" y="0" width="87.0619236" height="43.5849057" rx="20"></rect>
                    </g>
                    <path d="M28.5146484,24.1508789 C28.5146484,25.0932664 28.172855,25.8281224 27.4892578,26.3554688 C26.8056606,26.8828151 25.8779355,27.1464844 24.7060547,27.1464844 C23.4365171,27.1464844 22.4599644,26.9829118 21.7763672,26.6557617 L21.7763672,25.4545898 C22.2158225,25.6401376 22.6943333,25.7866206 23.2119141,25.894043 C23.7294948,26.0014654 24.242185,26.0551758 24.75,26.0551758 C25.5800823,26.0551758 26.205076,25.8977067 26.625,25.5827637 C27.044924,25.2678207 27.2548828,24.8295927 27.2548828,24.2680664 C27.2548828,23.8969708 27.1804207,23.5930188 27.0314941,23.3562012 C26.8825676,23.1193836 26.6335467,22.9008799 26.2844238,22.7006836 C25.935301,22.5004873 25.4043004,22.2734388 24.6914062,22.0195312 C23.6953075,21.6630842 22.9836447,21.2407251 22.5563965,20.7524414 C22.1291483,20.2641577 21.9155273,19.6269571 21.9155273,18.8408203 C21.9155273,18.0156209 22.2255828,17.3588892 22.8457031,16.8706055 C23.4658234,16.3823218 24.2861277,16.1381836 25.3066406,16.1381836 C26.3710991,16.1381836 27.3500932,16.3334941 28.2436523,16.7241211 L27.8554688,17.8081055 C26.9716753,17.4370099 26.1123089,17.2514648 25.2773438,17.2514648 C24.6181608,17.2514648 24.1030292,17.393065 23.7319336,17.6762695 C23.360838,17.9594741 23.175293,18.3525365 23.175293,18.8554688 C23.175293,19.2265644 23.2436517,19.5305164 23.3803711,19.767334 C23.5170905,20.0041516 23.7478011,20.2214346 24.0725098,20.4191895 C24.3972184,20.6169443 24.8940396,20.835448 25.5629883,21.074707 C26.6860408,21.4750997 27.4587381,21.9047829 27.8811035,22.3637695 C28.3034689,22.8227562 28.5146484,23.4184534 28.5146484,24.1508789 Z M34.0004883,27 L32.7553711,27 L32.7553711,17.3979492 L29.3642578,17.3979492 L29.3642578,16.2919922 L37.3916016,16.2919922 L37.3916016,17.3979492 L34.0004883,17.3979492 L34.0004883,27 Z M44.6865234,27 L43.3535156,23.5942383 L39.0615234,23.5942383 L37.7431641,27 L36.4833984,27 L40.7167969,16.2480469 L41.7641602,16.2480469 L45.9755859,27 L44.6865234,27 Z M42.965332,22.4736328 L41.7202148,19.1557617 C41.5590812,18.7358377 41.3930673,18.2207062 41.222168,17.6103516 C41.1147456,18.0791039 40.9609385,18.5942355 40.7607422,19.1557617 L39.5009766,22.4736328 L42.965332,22.4736328 Z M48.6928711,22.546875 L48.6928711,27 L47.4477539,27 L47.4477539,16.2919922 L50.3847656,16.2919922 C51.6982488,16.2919922 52.668698,16.5434545 53.2961426,17.0463867 C53.9235871,17.5493189 54.2373047,18.3061473 54.2373047,19.3168945 C54.2373047,20.7329172 53.5195384,21.6899389 52.0839844,22.1879883 L54.9916992,27 L53.5195312,27 L50.9267578,22.546875 L48.6928711,22.546875 Z M48.6928711,21.4775391 L50.3994141,21.4775391 C51.2783247,21.4775391 51.9228495,21.3029803 52.3330078,20.9538574 C52.7431661,20.6047346 52.9482422,20.0810582 52.9482422,19.3828125 C52.9482422,18.6748011 52.739504,18.1645523 52.3220215,17.8520508 C51.9045389,17.5395492 51.2343796,17.3833008 50.3115234,17.3833008 L48.6928711,17.3833008 L48.6928711,21.4775391 Z M60.0161133,27 L58.7709961,27 L58.7709961,17.3979492 L55.3798828,17.3979492 L55.3798828,16.2919922 L63.4072266,16.2919922 L63.4072266,17.3979492 L60.0161133,17.3979492 L60.0161133,27 Z" id="START" fill="#000000"></path>
                </g>
                <g id="pats" transform="translate(189.000000, 313.000000)">
                    <path d="M82.480649,5.74747719 L134.980649,35.9802358 C141.179573,39.549961 145,46.158609 145,53.3119018 L145,113.688098 C145,120.841391 141.179573,127.450039 134.980649,131.019764 L82.480649,161.252523 C76.3024704,164.810302 68.6975296,164.810302 62.519351,161.252523 L10.019351,131.019764 C3.82042693,127.450039 3.19744231e-14,120.841391 2.48689958e-14,113.688098 L3.55271368e-15,53.3119018 C0,46.158609 3.82042693,39.549961 10.019351,35.9802358 L62.519351,5.74747719 C68.6975296,2.18969848 76.3024704,2.18969848 82.480649,5.74747719 Z" id="Polygon-Copy" stroke="#1E9DF2" stroke-width="2" fill="#FFFFFF"></path>
                    <path d="M64.2617188,82.4121094 C64.2617188,83.4960992 63.8918494,84.3298311 63.1520996,84.9133301 C62.4123498,85.4968291 61.3540108,85.7885742 59.9770508,85.7885742 L58.7172852,85.7885742 L58.7172852,90 L57.472168,90 L57.472168,79.2919922 L60.2480469,79.2919922 C62.9238415,79.2919922 64.2617188,80.3320208 64.2617188,82.4121094 Z M58.7172852,84.7192383 L59.8378906,84.7192383 C60.9414118,84.7192383 61.7397436,84.5410174 62.2329102,84.1845703 C62.7260767,83.8281232 62.9726562,83.2568399 62.9726562,82.4707031 C62.9726562,81.7626918 62.740725,81.2353533 62.2768555,80.8886719 C61.812986,80.5419905 61.0903369,80.3686523 60.1088867,80.3686523 L58.7172852,80.3686523 L58.7172852,84.7192383 Z M72.4868164,90 L71.1538086,86.5942383 L66.8618164,86.5942383 L65.543457,90 L64.2836914,90 L68.5170898,79.2480469 L69.5644531,79.2480469 L73.7758789,90 L72.4868164,90 Z M70.765625,85.4736328 L69.5205078,82.1557617 C69.3593742,81.7358377 69.1933602,81.2207062 69.0224609,80.6103516 C68.9150385,81.0791039 68.7612315,81.5942355 68.5610352,82.1557617 L67.3012695,85.4736328 L70.765625,85.4736328 Z M77.496582,90 L76.2514648,90 L76.2514648,80.3979492 L72.8603516,80.3979492 L72.8603516,79.2919922 L80.8876953,79.2919922 L80.8876953,80.3979492 L77.496582,80.3979492 L77.496582,90 Z M88.5415039,87.1508789 C88.5415039,88.0932664 88.1997104,88.8281224 87.5161133,89.3554688 C86.8325161,89.8828151 85.904791,90.1464844 84.7329102,90.1464844 C83.4633726,90.1464844 82.4868198,89.9829118 81.8032227,89.6557617 L81.8032227,88.4545898 C82.242678,88.6401376 82.7211888,88.7866206 83.2387695,88.894043 C83.7563502,89.0014654 84.2690404,89.0551758 84.7768555,89.0551758 C85.6069377,89.0551758 86.2319315,88.8977067 86.6518555,88.5827637 C87.0717794,88.2678207 87.2817383,87.8295927 87.2817383,87.2680664 C87.2817383,86.8969708 87.2072761,86.5930188 87.0583496,86.3562012 C86.9094231,86.1193836 86.6604021,85.9008799 86.3112793,85.7006836 C85.9621565,85.5004873 85.4311559,85.2734388 84.7182617,85.0195312 C83.722163,84.6630842 83.0105002,84.2407251 82.583252,83.7524414 C82.1560037,83.2641577 81.9423828,82.6269571 81.9423828,81.8408203 C81.9423828,81.0156209 82.2524383,80.3588892 82.8725586,79.8706055 C83.4926789,79.3823218 84.3129832,79.1381836 85.3334961,79.1381836 C86.3979545,79.1381836 87.3769487,79.3334941 88.2705078,79.7241211 L87.8823242,80.8081055 C86.9985307,80.4370099 86.1391643,80.2514648 85.3041992,80.2514648 C84.6450162,80.2514648 84.1298847,80.393065 83.7587891,80.6762695 C83.3876935,80.9594741 83.2021484,81.3525365 83.2021484,81.8554688 C83.2021484,82.2265644 83.2705071,82.5305164 83.4072266,82.767334 C83.543946,83.0041516 83.7746566,83.2214346 84.0993652,83.4191895 C84.4240739,83.6169443 84.9208951,83.835448 85.5898438,84.074707 C86.7128962,84.4750997 87.4855936,84.9047829 87.907959,85.3637695 C88.3303244,85.8227562 88.5415039,86.4184534 88.5415039,87.1508789 Z" id="PATS" fill="#00426E"></path>
                </g>
                <g id="PATS-프로토콜은-투자자-커뮤니티" transform="translate(0.000000, 376.000000)" fill="#00426E" font-family="BMHANNA, BM HANNA_TTF" font-size="10" font-weight="normal" opacity="0.8">
                    <text id="PATS">
                        <tspan x="0" y="8.8">PATS 프로토콜은 투자자 커뮤니티</tspan>
                        <tspan x="0" y="24.2">및 분산 된 토큰 시장을 위해 계약을</tspan>
                        <tspan x="0" y="39.6">시작합니다.</tspan>
                    </text>
                </g>
                <g id="erc20" transform="translate(1.000000, 654.000000)">
                    <g id="Group-3" stroke-width="2">
                        <polyline id="Polygon-Copy-5" stroke="#EE6E9F" points="138.119331 156.074062 138.119331 170.397685 72.5 208.224507 6.88066912 170.397685 6.88066912 156.017905"></polyline>
                        <polyline id="Polygon-Copy-4" stroke="#7200DA" points="140.366541 142.222377 140.366541 155.364983 72.5 194.48723 4.63345865 155.364983 4.63345865 142.222377"></polyline>
                        <polygon id="Polygon-Copy-4" stroke="#FFBD4A" points="72.5 18.8420043 142.819549 59.378308 142.819549 140.450915 72.5 180.987219 2.18045113 140.450915 2.18045113 59.378308"></polygon>
                        <path d="M82.4884092,5.75790369 L134.988409,36.0219764 C141.182962,39.592879 145,46.1990786 145,53.3491713 L145,113.823802 C145,120.973895 141.182962,127.580094 134.988409,131.150997 L82.4884092,161.41507 C76.3062816,164.97881 68.6937184,164.97881 62.5115908,161.41507 L10.0115908,131.150997 C3.81703831,127.580094 7.63833441e-14,120.973895 6.03961325e-14,113.823802 L2.13162821e-14,53.3491713 C1.77635684e-14,46.1990786 3.81703831,39.592879 10.0115908,36.0219764 L62.5115908,5.75790369 C68.6937184,2.19416347 76.3062816,2.19416347 82.4884092,5.75790369 Z" id="Polygon-Copy-2" stroke="#1E9DF2" fill="#FFFFFF"></path>
                    </g>
                    <path d="M27.4414062,90 L21.472168,90 L21.472168,79.2919922 L27.4414062,79.2919922 L27.4414062,80.3979492 L22.7172852,80.3979492 L22.7172852,83.8476562 L27.1557617,83.8476562 L27.1557617,84.9462891 L22.7172852,84.9462891 L22.7172852,88.8867188 L27.4414062,88.8867188 L27.4414062,90 Z M31.0595703,85.546875 L31.0595703,90 L29.8144531,90 L29.8144531,79.2919922 L32.7514648,79.2919922 C34.064948,79.2919922 35.0353973,79.5434545 35.6628418,80.0463867 C36.2902863,80.5493189 36.6040039,81.3061473 36.6040039,82.3168945 C36.6040039,83.7329172 35.8862376,84.6899389 34.4506836,85.1879883 L37.3583984,90 L35.8862305,90 L33.293457,85.546875 L31.0595703,85.546875 Z M31.0595703,84.4775391 L32.7661133,84.4775391 C33.6450239,84.4775391 34.2895487,84.3029803 34.699707,83.9538574 C35.1098653,83.6047346 35.3149414,83.0810582 35.3149414,82.3828125 C35.3149414,81.6748011 35.1062033,81.1645523 34.6887207,80.8520508 C34.2712381,80.5395492 33.6010788,80.3833008 32.6782227,80.3833008 L31.0595703,80.3833008 L31.0595703,84.4775391 Z M43.671875,80.2514648 C42.4951113,80.2514648 41.5661655,80.6433066 40.8850098,81.427002 C40.203854,82.2106973 39.8632812,83.2836846 39.8632812,84.6459961 C39.8632812,86.0473703 40.1916471,87.1301231 40.8483887,87.8942871 C41.5051302,88.6584511 42.4414002,89.0405273 43.6572266,89.0405273 C44.4043006,89.0405273 45.2563429,88.9062513 46.2133789,88.6376953 L46.2133789,89.7290039 C45.4711877,90.0073256 44.5556695,90.1464844 43.4667969,90.1464844 C41.8896406,90.1464844 40.6726117,89.6679735 39.8156738,88.7109375 C38.9587359,87.7539015 38.5302734,86.3940518 38.5302734,84.6313477 C38.5302734,83.5278265 38.7365702,82.5610393 39.1491699,81.730957 C39.5617696,80.9008748 40.1574668,80.2612327 40.9362793,79.8120117 C41.7150918,79.3627907 42.6318307,79.1381836 43.6865234,79.1381836 C44.8095759,79.1381836 45.7910114,79.3432597 46.6308594,79.753418 L46.1035156,80.8227539 C45.2929647,80.4418926 44.4824259,80.2514648 43.671875,80.2514648 Z M54.8486328,90 L47.8100586,90 L47.8100586,88.9526367 L50.6298828,86.1181641 C51.4892621,85.2490191 52.0556627,84.6289081 52.3291016,84.2578125 C52.6025404,83.8867169 52.8076165,83.5253924 52.9443359,83.1738281 C53.0810554,82.8222639 53.1494141,82.4438497 53.1494141,82.0385742 C53.1494141,81.4672823 52.976076,81.014406 52.6293945,80.6799316 C52.2827131,80.3454573 51.8017609,80.1782227 51.1865234,80.1782227 C50.7421853,80.1782227 50.3210469,80.2514641 49.9230957,80.3979492 C49.5251445,80.5444343 49.0820337,80.8105449 48.59375,81.1962891 L47.9492188,80.3686523 C48.9355518,79.5483357 50.0097598,79.1381836 51.171875,79.1381836 C52.1777394,79.1381836 52.9663057,79.3957494 53.5375977,79.9108887 C54.1088896,80.426028 54.3945312,81.1181597 54.3945312,81.9873047 C54.3945312,82.666019 54.2041035,83.337399 53.8232422,84.0014648 C53.4423809,84.6655307 52.7294974,85.505366 51.6845703,86.5209961 L49.3408203,88.8134766 L49.3408203,88.8720703 L54.8486328,88.8720703 L54.8486328,90 Z M63.4838867,84.6313477 C63.4838867,86.4819428 63.1921416,87.863765 62.6086426,88.7768555 C62.0251436,89.689946 61.1328185,90.1464844 59.9316406,90.1464844 C58.7792911,90.1464844 57.902835,89.6789598 57.3022461,88.7438965 C56.7016572,87.8088332 56.4013672,86.4379973 56.4013672,84.6313477 C56.4013672,82.766104 56.6918916,81.3818405 57.2729492,80.4785156 C57.8540068,79.5751908 58.7402284,79.1235352 59.9316406,79.1235352 C61.0937558,79.1235352 61.9763153,79.5947219 62.5793457,80.5371094 C63.1823761,81.4794969 63.4838867,82.8442293 63.4838867,84.6313477 Z M57.6318359,84.6313477 C57.6318359,86.1889726 57.8149396,87.3229945 58.1811523,88.0334473 C58.5473651,88.7439 59.1308554,89.0991211 59.9316406,89.0991211 C60.7421916,89.0991211 61.3293439,88.7390173 61.6931152,88.0187988 C62.0568866,87.2985804 62.2387695,86.1694413 62.2387695,84.6313477 C62.2387695,83.093254 62.0568866,81.9665563 61.6931152,81.2512207 C61.3293439,80.5358851 60.7421916,80.1782227 59.9316406,80.1782227 C59.1308554,80.1782227 58.5473651,80.5310023 58.1811523,81.2365723 C57.8149396,81.9421422 57.6318359,83.0737227 57.6318359,84.6313477 Z M72.8955078,90 L71.6503906,90 L71.6503906,80.3979492 L68.2592773,80.3979492 L68.2592773,79.2919922 L76.2866211,79.2919922 L76.2866211,80.3979492 L72.8955078,80.3979492 L72.8955078,90 Z M86.8920898,84.6313477 C86.8920898,86.3452234 86.4587446,87.6928662 85.592041,88.6743164 C84.7253375,89.6557666 83.5205155,90.1464844 81.9775391,90.1464844 C80.4003827,90.1464844 79.1833539,89.6643115 78.326416,88.6999512 C77.4694781,87.7355909 77.0410156,86.3745205 77.0410156,84.6166992 C77.0410156,82.8735264 77.4706988,81.5222216 78.3300781,80.5627441 C79.1894574,79.6032667 80.4101483,79.1235352 81.9921875,79.1235352 C83.5302811,79.1235352 84.731441,79.6118115 85.5957031,80.5883789 C86.4599653,81.5649463 86.8920898,82.9125891 86.8920898,84.6313477 Z M78.359375,84.6313477 C78.359375,86.0815502 78.6682098,87.1813927 79.2858887,87.9309082 C79.9035675,88.6804237 80.8007754,89.0551758 81.9775391,89.0551758 C83.1640684,89.0551758 84.0600556,88.6816444 84.6655273,87.9345703 C85.2709991,87.1874963 85.5737305,86.0864331 85.5737305,84.6313477 C85.5737305,83.1909108 85.2722198,82.0983924 84.6691895,81.3537598 C84.0661591,80.6091271 83.173834,80.2368164 81.9921875,80.2368164 C80.8056581,80.2368164 79.9035675,80.6115685 79.2858887,81.361084 C78.6682098,82.1105995 78.359375,83.2006764 78.359375,84.6313477 Z M97.0141602,90 L95.5493164,90 L91.6455078,84.8071289 L90.5249023,85.8032227 L90.5249023,90 L89.2797852,90 L89.2797852,79.2919922 L90.5249023,79.2919922 L90.5249023,84.6020508 L95.3808594,79.2919922 L96.8530273,79.2919922 L92.5463867,83.9428711 L97.0141602,90 Z M104.455566,90 L98.4863281,90 L98.4863281,79.2919922 L104.455566,79.2919922 L104.455566,80.3979492 L99.7314453,80.3979492 L99.7314453,83.8476562 L104.169922,83.8476562 L104.169922,84.9462891 L99.7314453,84.9462891 L99.7314453,88.8867188 L104.455566,88.8867188 L104.455566,90 Z M115.192871,90 L113.771973,90 L107.919922,81.0131836 L107.861328,81.0131836 C107.939454,82.0678764 107.978516,83.0346636 107.978516,83.9135742 L107.978516,90 L106.828613,90 L106.828613,79.2919922 L108.234863,79.2919922 L114.072266,88.2421875 L114.130859,88.2421875 C114.121094,88.1103509 114.099121,87.6867712 114.064941,86.9714355 C114.030762,86.2560999 114.018555,85.7446304 114.02832,85.4370117 L114.02832,79.2919922 L115.192871,79.2919922 L115.192871,90 Z M124.179687,87.1508789 C124.179687,88.0932664 123.837894,88.8281224 123.154297,89.3554688 C122.4707,89.8828151 121.542975,90.1464844 120.371094,90.1464844 C119.101556,90.1464844 118.125003,89.9829118 117.441406,89.6557617 L117.441406,88.4545898 C117.880862,88.6401376 118.359372,88.7866206 118.876953,88.894043 C119.394534,89.0014654 119.907224,89.0551758 120.415039,89.0551758 C121.245121,89.0551758 121.870115,88.8977067 122.290039,88.5827637 C122.709963,88.2678207 122.919922,87.8295927 122.919922,87.2680664 C122.919922,86.8969708 122.84546,86.5930188 122.696533,86.3562012 C122.547607,86.1193836 122.298586,85.9008799 121.949463,85.7006836 C121.60034,85.5004873 121.06934,85.2734388 120.356445,85.0195312 C119.360347,84.6630842 118.648684,84.2407251 118.221436,83.7524414 C117.794187,83.2641577 117.580566,82.6269571 117.580566,81.8408203 C117.580566,81.0156209 117.890622,80.3588892 118.510742,79.8706055 C119.130862,79.3823218 119.951167,79.1381836 120.97168,79.1381836 C122.036138,79.1381836 123.015132,79.3334941 123.908691,79.7241211 L123.520508,80.8081055 C122.636714,80.4370099 121.777348,80.2514648 120.942383,80.2514648 C120.2832,80.2514648 119.768068,80.393065 119.396973,80.6762695 C119.025877,80.9594741 118.840332,81.3525365 118.840332,81.8554688 C118.840332,82.2265644 118.908691,82.5305164 119.04541,82.767334 C119.18213,83.0041516 119.41284,83.2214346 119.737549,83.4191895 C120.062257,83.6169443 120.559079,83.835448 121.228027,84.074707 C122.35108,84.4750997 123.123777,84.9047829 123.546143,85.3637695 C123.968508,85.8227562 124.179687,86.4184534 124.179687,87.1508789 Z" id="ERC20-TOKENS" fill="#00426E"></path>
                </g>
                <g id="decentral" transform="translate(1.000000, 893.000000)">
                    <path d="M82.480649,5.74747719 L134.980649,35.9802358 C141.179573,39.549961 145,46.158609 145,53.3119018 L145,113.688098 C145,120.841391 141.179573,127.450039 134.980649,131.019764 L82.480649,161.252523 C76.3024704,164.810302 68.6975296,164.810302 62.519351,161.252523 L10.019351,131.019764 C3.82042693,127.450039 5.68434189e-14,120.841391 4.61852778e-14,113.688098 L2.48689958e-14,53.3119018 C2.48689958e-14,46.158609 3.82042693,39.549961 10.019351,35.9802358 L62.519351,5.74747719 C68.6975296,2.18969848 76.3024704,2.18969848 82.480649,5.74747719 Z" id="Polygon-Copy-3" fill="#FFFFFF" stroke="#1E9DF2" stroke-width="2"></path>
                    <g id="text" transform="translate(14.000000, 56.000000)" fill="#00426E">
                        <path d="M9.01953125,6.37679036 C9.01953125,8.14437733 8.53979972,9.49568217 7.58032227,10.4307454 C6.62084481,11.3658087 5.24024338,11.8333333 3.43847656,11.8333333 L0.472167969,11.8333333 L0.472167969,1.12532552 L3.75341797,1.12532552 C5.41846536,1.12532552 6.71239773,1.58674669 7.63525391,2.50960286 C8.55811008,3.43245904 9.01953125,4.72150865 9.01953125,6.37679036 Z M7.70117187,6.42073568 C7.70117187,5.02424432 7.35083358,3.97200875 6.65014648,3.2639974 C5.94945939,2.55598604 4.90821003,2.20198568 3.52636719,2.20198568 L1.71728516,2.20198568 L1.71728516,10.7566732 L3.23339844,10.7566732 C4.71778086,10.7566732 5.83349236,10.3916866 6.58056641,9.66170247 C7.32764045,8.93171836 7.70117187,7.85140689 7.70117187,6.42073568 Z M17.3764648,11.8333333 L11.4072266,11.8333333 L11.4072266,1.12532552 L17.3764648,1.12532552 L17.3764648,2.23128255 L12.6523438,2.23128255 L12.6523438,5.68098958 L17.0908203,5.68098958 L17.0908203,6.7796224 L12.6523438,6.7796224 L12.6523438,10.7200521 L17.3764648,10.7200521 L17.3764648,11.8333333 Z M24.3344727,2.08479818 C23.157709,2.08479818 22.2287632,2.47663996 21.5476074,3.26033529 C20.8664517,4.04403061 20.5258789,5.11701793 20.5258789,6.47932943 C20.5258789,7.88070362 20.8542448,8.96345647 21.5109863,9.72762044 C22.1677279,10.4917844 23.1039978,10.8738607 24.3198242,10.8738607 C25.0668983,10.8738607 25.9189405,10.7395847 26.8759766,10.4710286 L26.8759766,11.5623372 C26.1337854,11.8406589 25.2182672,11.9798177 24.1293945,11.9798177 C22.5522382,11.9798177 21.3352094,11.5013069 20.4782715,10.5442708 C19.6213336,9.5872348 19.1928711,8.22738512 19.1928711,6.46468099 C19.1928711,5.36115985 19.3991679,4.39437264 19.8117676,3.56429036 C20.2243673,2.73420809 20.8200645,2.09456605 21.598877,1.64534505 C22.3776894,1.19612406 23.2944283,0.971516927 24.3491211,0.971516927 C25.4721736,0.971516927 26.4536091,1.176593 27.293457,1.5867513 L26.7661133,2.65608724 C25.9555624,2.27522596 25.1450236,2.08479818 24.3344727,2.08479818 Z M35.1816406,11.8333333 L29.2124023,11.8333333 L29.2124023,1.12532552 L35.1816406,1.12532552 L35.1816406,2.23128255 L30.4575195,2.23128255 L30.4575195,5.68098958 L34.8959961,5.68098958 L34.8959961,6.7796224 L30.4575195,6.7796224 L30.4575195,10.7200521 L35.1816406,10.7200521 L35.1816406,11.8333333 Z M45.9189453,11.8333333 L44.4980469,11.8333333 L38.6459961,2.84651693 L38.5874023,2.84651693 C38.6655277,3.9012097 38.7045898,4.86799691 38.7045898,5.74690755 L38.7045898,11.8333333 L37.5546875,11.8333333 L37.5546875,1.12532552 L38.9609375,1.12532552 L44.7983398,10.0755208 L44.8569336,10.0755208 C44.8471679,9.94368424 44.8251955,9.52010449 44.7910156,8.80476888 C44.7568358,8.08943327 44.7446289,7.57796378 44.7543945,7.27034505 L44.7543945,1.12532552 L45.9189453,1.12532552 L45.9189453,11.8333333 Z M52.1591797,11.8333333 L50.9140625,11.8333333 L50.9140625,2.23128255 L47.5229492,2.23128255 L47.5229492,1.12532552 L55.550293,1.12532552 L55.550293,2.23128255 L52.1591797,2.23128255 L52.1591797,11.8333333 Z M58.4067383,7.38020833 L58.4067383,11.8333333 L57.1616211,11.8333333 L57.1616211,1.12532552 L60.0986328,1.12532552 C61.4121159,1.12532552 62.3825652,1.37678785 63.0100098,1.87972005 C63.6374543,2.38265225 63.9511719,3.13948062 63.9511719,4.15022786 C63.9511719,5.56625057 63.2334056,6.52327225 61.7978516,7.02132161 L64.7055664,11.8333333 L63.2333984,11.8333333 L60.640625,7.38020833 L58.4067383,7.38020833 Z M58.4067383,6.3108724 L60.1132812,6.3108724 C60.9921919,6.3108724 61.6367167,6.13631359 62.046875,5.78719076 C62.4570333,5.43806792 62.6621094,4.91439151 62.6621094,4.21614583 C62.6621094,3.50813448 62.4533712,2.99788568 62.0358887,2.68538411 C61.6184061,2.37288255 60.9482468,2.21663411 60.0253906,2.21663411 L58.4067383,2.21663411 L58.4067383,6.3108724 Z M73.1650391,11.8333333 L71.8320313,8.42757161 L67.5400391,8.42757161 L66.2216797,11.8333333 L64.9619141,11.8333333 L69.1953125,1.08138021 L70.2426758,1.08138021 L74.4541016,11.8333333 L73.1650391,11.8333333 Z M71.4438477,7.30696615 L70.1987305,3.98909505 C70.0375969,3.56917108 69.8715829,3.05403951 69.7006836,2.4436849 C69.5932612,2.91243724 69.4394541,3.42756881 69.2392578,3.98909505 L67.9794922,7.30696615 L71.4438477,7.30696615 Z M75.9262695,11.8333333 L75.9262695,1.12532552 L77.1713867,1.12532552 L77.1713867,10.7054036 L81.8955078,10.7054036 L81.8955078,11.8333333 L75.9262695,11.8333333 Z M83.7119141,11.8333333 L83.7119141,1.12532552 L84.9570312,1.12532552 L84.9570312,11.8333333 L83.7119141,11.8333333 Z M94.3833008,11.8333333 L87.0224609,11.8333333 L87.0224609,10.8592122 L92.7060547,2.24593099 L87.1982422,2.24593099 L87.1982422,1.12532552 L94.222168,1.12532552 L94.222168,2.09944661 L88.5385742,10.7054036 L94.3833008,10.7054036 L94.3833008,11.8333333 Z M102.425293,11.8333333 L96.4560547,11.8333333 L96.4560547,1.12532552 L102.425293,1.12532552 L102.425293,2.23128255 L97.7011719,2.23128255 L97.7011719,5.68098958 L102.139648,5.68098958 L102.139648,6.7796224 L97.7011719,6.7796224 L97.7011719,10.7200521 L102.425293,10.7200521 L102.425293,11.8333333 Z M113.345703,6.37679036 C113.345703,8.14437733 112.865972,9.49568217 111.906494,10.4307454 C110.947017,11.3658087 109.566415,11.8333333 107.764648,11.8333333 L104.79834,11.8333333 L104.79834,1.12532552 L108.07959,1.12532552 C109.744637,1.12532552 111.03857,1.58674669 111.961426,2.50960286 C112.884282,3.43245904 113.345703,4.72150865 113.345703,6.37679036 Z M112.027344,6.42073568 C112.027344,5.02424432 111.677005,3.97200875 110.976318,3.2639974 C110.275631,2.55598604 109.234382,2.20198568 107.852539,2.20198568 L106.043457,2.20198568 L106.043457,10.7566732 L107.55957,10.7566732 C109.043953,10.7566732 110.159664,10.3916866 110.906738,9.66170247 C111.653812,8.93171836 112.027344,7.85140689 112.027344,6.42073568 Z" id="DECENTRALIZED"></path>
                        <path d="M7.60085533,30.6508789 C7.60085533,31.5932664 7.25906188,32.3281224 6.57546471,32.8554688 C5.89186754,33.3828151 4.96414244,33.6464844 3.79226158,33.6464844 C2.52272399,33.6464844 1.54617125,33.4829118 0.862574084,33.1557617 L0.862574084,31.9545898 C1.30202941,32.1401376 1.78054025,32.2866206 2.29812096,32.394043 C2.81570167,32.5014654 3.32839186,32.5551758 3.8362069,32.5551758 C4.66628917,32.5551758 5.29128292,32.3977067 5.7112069,32.0827637 C6.13113087,31.7678207 6.34108971,31.3295927 6.34108971,30.7680664 C6.34108971,30.3969708 6.26662756,30.0930188 6.11770104,29.8562012 C5.96877451,29.6193836 5.71975356,29.4008799 5.37063072,29.2006836 C5.02150789,29.0004873 4.49050734,28.7734388 3.77761315,28.5195312 C2.78151442,28.1630842 2.06985161,27.7407251 1.64260338,27.2524414 C1.21535515,26.7641577 1.00173424,26.1269571 1.00173424,25.3408203 C1.00173424,24.5156209 1.31178973,23.8588892 1.93191002,23.3706055 C2.55203031,22.8823218 3.37233461,22.6381836 4.39284752,22.6381836 C5.45730597,22.6381836 6.43630009,22.8334941 7.32985924,23.2241211 L6.94167565,24.3081055 C6.05788217,23.9370099 5.19851576,23.7514648 4.36355065,23.7514648 C3.70436766,23.7514648 3.1892361,23.893065 2.81814049,24.1762695 C2.44704488,24.4594741 2.26149987,24.8525365 2.26149987,25.3554688 C2.26149987,25.7265644 2.32985856,26.0305164 2.46657799,26.267334 C2.60329742,26.5041516 2.83400801,26.7214346 3.15871666,26.9191895 C3.48342532,27.1169443 3.98024652,27.335448 4.64919518,27.574707 C5.77224767,27.9750997 6.54494502,28.4047829 6.96731041,28.8637695 C7.38967581,29.3227562 7.60085533,29.9184534 7.60085533,30.6508789 Z M17.9206796,33.5 L16.6755624,33.5 L16.6755624,28.4609375 L11.0359139,28.4609375 L11.0359139,33.5 L9.79079674,33.5 L9.79079674,22.7919922 L11.0359139,22.7919922 L11.0359139,27.3476562 L16.6755624,27.3476562 L16.6755624,22.7919922 L17.9206796,22.7919922 L17.9206796,33.5 Z M27.5886483,33.5 L26.2556405,30.0942383 L21.9636483,30.0942383 L20.6452889,33.5 L19.3855233,33.5 L23.6189217,22.7480469 L24.666285,22.7480469 L28.8777108,33.5 L27.5886483,33.5 Z M25.8674569,28.9736328 L24.6223397,25.6557617 C24.4612061,25.2358377 24.2951921,24.7207062 24.1242928,24.1103516 C24.0168704,24.5791039 23.8630634,25.0942355 23.6628671,25.6557617 L22.4031014,28.9736328 L25.8674569,28.9736328 Z M31.594996,29.046875 L31.594996,33.5 L30.3498788,33.5 L30.3498788,22.7919922 L33.2868905,22.7919922 C34.6003736,22.7919922 35.5708229,23.0434545 36.1982674,23.5463867 C36.825712,24.0493189 37.1394296,24.8061473 37.1394296,25.8168945 C37.1394296,27.2329172 36.4216633,28.1899389 34.9861092,28.6879883 L37.8938241,33.5 L36.4216561,33.5 L33.8288827,29.046875 L31.594996,29.046875 Z M31.594996,27.9775391 L33.3015389,27.9775391 C34.1804496,27.9775391 34.8249744,27.8029803 35.2351327,27.4538574 C35.645291,27.1047346 35.8503671,26.5810582 35.8503671,25.8828125 C35.8503671,25.1748011 35.6416289,24.6645523 35.2241463,24.3520508 C34.8066638,24.0395492 34.1365045,23.8833008 33.2136483,23.8833008 L31.594996,23.8833008 L31.594996,27.9775391 Z M45.591578,33.5 L39.6223397,33.5 L39.6223397,22.7919922 L45.591578,22.7919922 L45.591578,23.8979492 L40.8674569,23.8979492 L40.8674569,27.3476562 L45.3059335,27.3476562 L45.3059335,28.4462891 L40.8674569,28.4462891 L40.8674569,32.3867188 L45.591578,32.3867188 L45.591578,33.5 Z M56.0945077,33.5 L54.8493905,33.5 L54.8493905,28.4609375 L49.2097421,28.4609375 L49.2097421,33.5 L47.9646249,33.5 L47.9646249,22.7919922 L49.2097421,22.7919922 L49.2097421,27.3476562 L54.8493905,27.3476562 L54.8493905,22.7919922 L56.0945077,22.7919922 L56.0945077,33.5 Z M68.325953,28.1313477 C68.325953,29.8452234 67.8926077,31.1928662 67.0259042,32.1743164 C66.1592006,33.1557666 64.9543787,33.6464844 63.4114022,33.6464844 C61.8342459,33.6464844 60.617217,33.1643115 59.7602792,32.1999512 C58.9033413,31.2355909 58.4748788,29.8745205 58.4748788,28.1166992 C58.4748788,26.3735264 58.904562,25.0222216 59.7639413,24.0627441 C60.6233206,23.1032667 61.8440115,22.6235352 63.4260506,22.6235352 C64.9641443,22.6235352 66.1653041,23.1118115 67.0295663,24.0883789 C67.8938284,25.0649463 68.325953,26.4125891 68.325953,28.1313477 Z M59.7932381,28.1313477 C59.7932381,29.5815502 60.1020729,30.6813927 60.7197518,31.4309082 C61.3374307,32.1804237 62.2346385,32.5551758 63.4114022,32.5551758 C64.5979316,32.5551758 65.4939187,32.1816444 66.0993905,31.4345703 C66.7048623,30.6874963 67.0075936,29.5864331 67.0075936,28.1313477 C67.0075936,26.6909108 66.706083,25.5983924 66.1030526,24.8537598 C65.5000222,24.1091271 64.6076972,23.7368164 63.4260506,23.7368164 C62.2395213,23.7368164 61.3374307,24.1115685 60.7197518,24.861084 C60.1020729,25.6105995 59.7932381,26.7006764 59.7932381,28.1313477 Z M70.7136483,33.5 L70.7136483,22.7919922 L71.9587655,22.7919922 L71.9587655,32.3720703 L76.6828866,32.3720703 L76.6828866,33.5 L70.7136483,33.5 Z M87.0466561,28.043457 C87.0466561,29.811044 86.5669246,31.1623488 85.6074471,32.0974121 C84.6479697,33.0324754 83.2673682,33.5 81.4656014,33.5 L78.4992928,33.5 L78.4992928,22.7919922 L81.7805428,22.7919922 C83.4455902,22.7919922 84.7395226,23.2534134 85.6623788,24.1762695 C86.5852349,25.0991257 87.0466561,26.3881753 87.0466561,28.043457 Z M85.7282967,28.0874023 C85.7282967,26.690911 85.3779584,25.6386754 84.6772713,24.9306641 C83.9765843,24.2226527 82.9353349,23.8686523 81.5534921,23.8686523 L79.74441,23.8686523 L79.74441,32.4233398 L81.2605233,32.4233398 C82.7449057,32.4233398 83.8606172,32.0583533 84.6076913,31.3283691 C85.3547653,30.598385 85.7282967,29.5180736 85.7282967,28.0874023 Z M95.4035897,33.5 L89.4343514,33.5 L89.4343514,22.7919922 L95.4035897,22.7919922 L95.4035897,23.8979492 L90.6794686,23.8979492 L90.6794686,27.3476562 L95.1179452,27.3476562 L95.1179452,28.4462891 L90.6794686,28.4462891 L90.6794686,32.3867188 L95.4035897,32.3867188 L95.4035897,33.5 Z M99.0217538,29.046875 L99.0217538,33.5 L97.7766366,33.5 L97.7766366,22.7919922 L100.713648,22.7919922 C102.027131,22.7919922 102.997581,23.0434545 103.625025,23.5463867 C104.25247,24.0493189 104.566187,24.8061473 104.566187,25.8168945 C104.566187,27.2329172 103.848421,28.1899389 102.412867,28.6879883 L105.320582,33.5 L103.848414,33.5 L101.25564,29.046875 L99.0217538,29.046875 Z M99.0217538,27.9775391 L100.728297,27.9775391 C101.607207,27.9775391 102.251732,27.8029803 102.66189,27.4538574 C103.072049,27.1047346 103.277125,26.5810582 103.277125,25.8828125 C103.277125,25.1748011 103.068387,24.6645523 102.650904,24.3520508 C102.233422,24.0395492 101.563262,23.8833008 100.640406,23.8833008 L99.0217538,23.8833008 L99.0217538,27.9775391 Z M113.091578,30.6508789 C113.091578,31.5932664 112.749785,32.3281224 112.066187,32.8554688 C111.38259,33.3828151 110.454865,33.6464844 109.282984,33.6464844 C108.013447,33.6464844 107.036894,33.4829118 106.353297,33.1557617 L106.353297,31.9545898 C106.792752,32.1401376 107.271263,32.2866206 107.788844,32.394043 C108.306424,32.5014654 108.819115,32.5551758 109.32693,32.5551758 C110.157012,32.5551758 110.782006,32.3977067 111.20193,32.0827637 C111.621854,31.7678207 111.831812,31.3295927 111.831812,30.7680664 C111.831812,30.3969708 111.75735,30.0930188 111.608424,29.8562012 C111.459497,29.6193836 111.210476,29.4008799 110.861353,29.2006836 C110.512231,29.0004873 109.98123,28.7734388 109.268336,28.5195312 C108.272237,28.1630842 107.560574,27.7407251 107.133326,27.2524414 C106.706078,26.7641577 106.492457,26.1269571 106.492457,25.3408203 C106.492457,24.5156209 106.802512,23.8588892 107.422633,23.3706055 C108.042753,22.8823218 108.863057,22.6381836 109.88357,22.6381836 C110.948029,22.6381836 111.927023,22.8334941 112.820582,23.2241211 L112.432398,24.3081055 C111.548605,23.9370099 110.689238,23.7514648 109.854273,23.7514648 C109.19509,23.7514648 108.679959,23.893065 108.308863,24.1762695 C107.937768,24.4594741 107.752223,24.8525365 107.752223,25.3554688 C107.752223,25.7265644 107.820581,26.0305164 107.957301,26.267334 C108.09402,26.5041516 108.324731,26.7214346 108.649439,26.9191895 C108.974148,27.1169443 109.470969,27.335448 110.139918,27.574707 C111.26297,27.9750997 112.035668,28.4047829 112.458033,28.8637695 C112.880398,29.3227562 113.091578,29.9184534 113.091578,30.6508789 Z" id="SHAREHOLDERS"></path>
                        <path d="M18.065194,55.1666667 L16.7321862,51.7609049 L12.440194,51.7609049 L11.1218346,55.1666667 L9.86206897,55.1666667 L14.0954674,44.4147135 L15.1428307,44.4147135 L19.3542565,55.1666667 L18.065194,55.1666667 Z M16.3440026,50.6402995 L15.0988854,47.3224284 C14.9377518,46.9025044 14.7717378,46.3873728 14.6008385,45.7770182 C14.4934161,46.2457706 14.339609,46.7609021 14.1394127,47.3224284 L12.8796471,50.6402995 L16.3440026,50.6402995 Z M26.8689049,52.3175456 C26.8689049,53.2599331 26.5271114,53.994789 25.8435143,54.5221354 C25.1599171,55.0494818 24.232192,55.313151 23.0603112,55.313151 C21.7907736,55.313151 20.8142208,55.1495785 20.1306237,54.8224284 L20.1306237,53.6212565 C20.570079,53.8068043 21.0485898,53.9532872 21.5661705,54.0607096 C22.0837512,54.168132 22.5964414,54.2218424 23.1042565,54.2218424 C23.9343387,54.2218424 24.5593325,54.0643733 24.9792565,53.7494303 C25.3991804,53.4344874 25.6091393,52.9962593 25.6091393,52.4347331 C25.6091393,52.0636375 25.5346771,51.7596854 25.3857506,51.5228678 C25.2368241,51.2860502 24.9878031,51.0675466 24.6386803,50.8673503 C24.2895575,50.6671539 23.7585569,50.4401054 23.0456627,50.1861979 C22.049564,49.8297508 21.3379012,49.4073918 20.9106529,48.9191081 C20.4834047,48.4308244 20.2697838,47.7936237 20.2697838,47.007487 C20.2697838,46.1822875 20.5798393,45.5255558 21.1999596,45.0372721 C21.8200799,44.5489884 22.6403842,44.3048503 23.6608971,44.3048503 C24.7253555,44.3048503 25.7043497,44.5001608 26.5979088,44.8907878 L26.2097252,45.9747721 C25.3259317,45.6036765 24.4665653,45.4181315 23.6316002,45.4181315 C22.9724172,45.4181315 22.4572857,45.5597317 22.0861901,45.8429362 C21.7150945,46.1261407 21.5295494,46.5192032 21.5295494,47.0221354 C21.5295494,47.393231 21.5979081,47.6971831 21.7346276,47.9340007 C21.871347,48.1708182 22.1020576,48.3881012 22.4267662,48.5858561 C22.7514749,48.783611 23.2482961,49.0021147 23.9172447,49.2413737 C25.0402972,49.6417663 25.8129946,50.0714495 26.23536,50.5304362 C26.6577254,50.9894229 26.8689049,51.58512 26.8689049,52.3175456 Z M35.1013268,52.3175456 C35.1013268,53.2599331 34.7595333,53.994789 34.0759362,54.5221354 C33.392339,55.0494818 32.4646139,55.313151 31.292733,55.313151 C30.0231954,55.313151 29.0466427,55.1495785 28.3630455,54.8224284 L28.3630455,53.6212565 C28.8025009,53.8068043 29.2810117,53.9532872 29.7985924,54.0607096 C30.3161731,54.168132 30.8288633,54.2218424 31.3366783,54.2218424 C32.1667606,54.2218424 32.7917544,54.0643733 33.2116783,53.7494303 C33.6316023,53.4344874 33.8415612,52.9962593 33.8415612,52.4347331 C33.8415612,52.0636375 33.767099,51.7596854 33.6181725,51.5228678 C33.469246,51.2860502 33.220225,51.0675466 32.8711022,50.8673503 C32.5219793,50.6671539 31.9909788,50.4401054 31.2780846,50.1861979 C30.2819859,49.8297508 29.5703231,49.4073918 29.1430748,48.9191081 C28.7158266,48.4308244 28.5022057,47.7936237 28.5022057,47.007487 C28.5022057,46.1822875 28.8122612,45.5255558 29.4323815,45.0372721 C30.0525018,44.5489884 30.8728061,44.3048503 31.893319,44.3048503 C32.9577774,44.3048503 33.9367715,44.5001608 34.8303307,44.8907878 L34.4421471,45.9747721 C33.5583536,45.6036765 32.6989872,45.4181315 31.8640221,45.4181315 C31.2048391,45.4181315 30.6897075,45.5597317 30.3186119,45.8429362 C29.9475163,46.1261407 29.7619713,46.5192032 29.7619713,47.0221354 C29.7619713,47.393231 29.83033,47.6971831 29.9670494,47.9340007 C30.1037689,48.1708182 30.3344795,48.3881012 30.6591881,48.5858561 C30.9838968,48.783611 31.480718,49.0021147 32.1496666,49.2413737 C33.2727191,49.6417663 34.0454165,50.0714495 34.4677819,50.5304362 C34.8901472,50.9894229 35.1013268,51.58512 35.1013268,52.3175456 Z M46.5857018,49.7980143 C46.5857018,51.5118901 46.1523565,52.8595329 45.2856529,53.8409831 C44.4189494,54.8224333 43.2141275,55.313151 41.671151,55.313151 C40.0939947,55.313151 38.8769658,54.8309781 38.0200279,53.8666178 C37.1630901,52.9022575 36.7346276,51.5411872 36.7346276,49.7833659 C36.7346276,48.0401931 37.1643108,46.6888883 38.0236901,45.7294108 C38.8830694,44.7699334 40.1037603,44.2902018 41.6857994,44.2902018 C43.2238931,44.2902018 44.4250529,44.7784782 45.2893151,45.7550456 C46.1535772,46.731613 46.5857018,48.0792557 46.5857018,49.7980143 Z M38.0529869,49.7980143 C38.0529869,51.2482169 38.3618217,52.3480594 38.9795006,53.0975749 C39.5971795,53.8470903 40.4943873,54.2218424 41.671151,54.2218424 C42.8576804,54.2218424 43.7536675,53.848311 44.3591393,53.101237 C44.9646111,52.3541629 45.2673424,51.2530997 45.2673424,49.7980143 C45.2673424,48.3575774 44.9658317,47.2650591 44.3628014,46.5204264 C43.759771,45.7757938 42.867446,45.4034831 41.6857994,45.4034831 C40.4992701,45.4034831 39.5971795,45.7782352 38.9795006,46.5277507 C38.3618217,47.2772661 38.0529869,48.3673431 38.0529869,49.7980143 Z M53.558358,45.4181315 C52.3815943,45.4181315 51.4526485,45.8099733 50.7714928,46.5936686 C50.090337,47.3773639 49.7497643,48.4503513 49.7497643,49.8126628 C49.7497643,51.214037 50.0781301,52.2967898 50.7348717,53.0609538 C51.3916133,53.8251178 52.3278832,54.207194 53.5437096,54.207194 C54.2907836,54.207194 55.1428259,54.072918 56.0998619,53.804362 L56.0998619,54.8956706 C55.3576707,55.1739923 54.4421525,55.313151 53.3532799,55.313151 C51.7761236,55.313151 50.5590947,54.8346402 49.7021569,53.8776042 C48.845219,52.9205681 48.4167565,51.5607184 48.4167565,49.7980143 C48.4167565,48.6944932 48.6230532,47.727706 49.0356529,46.8976237 C49.4482527,46.0675414 50.0439498,45.4278994 50.8227623,44.9786784 C51.6015748,44.5294574 52.5183137,44.3048503 53.5730065,44.3048503 C54.696059,44.3048503 55.6774945,44.5099263 56.5173424,44.9200846 L55.9899987,45.9894206 C55.1794477,45.6085593 54.368909,45.4181315 53.558358,45.4181315 Z M58.4362877,55.1666667 L58.4362877,44.4586589 L59.6814049,44.4586589 L59.6814049,55.1666667 L58.4362877,55.1666667 Z M69.3493737,55.1666667 L68.0163658,51.7609049 L63.7243737,51.7609049 L62.4060143,55.1666667 L61.1462487,55.1666667 L65.3796471,44.4147135 L66.4270104,44.4147135 L70.6384362,55.1666667 L69.3493737,55.1666667 Z M67.6281822,50.6402995 L66.3830651,47.3224284 C66.2219314,46.9025044 66.0559175,46.3873728 65.8850182,45.7770182 C65.7775958,46.2457706 65.6237887,46.7609021 65.4235924,47.3224284 L64.1638268,50.6402995 L67.6281822,50.6402995 Z M74.3591393,55.1666667 L73.1140221,55.1666667 L73.1140221,45.5646159 L69.7229088,45.5646159 L69.7229088,44.4586589 L77.7502526,44.4586589 L77.7502526,45.5646159 L74.3591393,45.5646159 L74.3591393,55.1666667 Z M79.3615807,55.1666667 L79.3615807,44.4586589 L80.6066979,44.4586589 L80.6066979,55.1666667 L79.3615807,55.1666667 Z M92.8381432,49.7980143 C92.8381432,51.5118901 92.4047979,52.8595329 91.5380944,53.8409831 C90.6713908,54.8224333 89.4665689,55.313151 87.9235924,55.313151 C86.3464361,55.313151 85.1294072,54.8309781 84.2724694,53.8666178 C83.4155315,52.9022575 82.987069,51.5411872 82.987069,49.7833659 C82.987069,48.0401931 83.4167522,46.6888883 84.2761315,45.7294108 C85.1355108,44.7699334 86.3562017,44.2902018 87.9382408,44.2902018 C89.4763345,44.2902018 90.6774943,44.7784782 91.5417565,45.7550456 C92.4060186,46.731613 92.8381432,48.0792557 92.8381432,49.7980143 Z M84.3054283,49.7980143 C84.3054283,51.2482169 84.6142631,52.3480594 85.231942,53.0975749 C85.8496209,53.8470903 86.7468287,54.2218424 87.9235924,54.2218424 C89.1101218,54.2218424 90.0061089,53.848311 90.6115807,53.101237 C91.2170525,52.3541629 91.5197838,51.2530997 91.5197838,49.7980143 C91.5197838,48.3575774 91.2182732,47.2650591 90.6152428,46.5204264 C90.0122124,45.7757938 89.1198874,45.4034831 87.9382408,45.4034831 C86.7517115,45.4034831 85.8496209,45.7782352 85.231942,46.5277507 C84.6142631,47.2772661 84.3054283,48.3673431 84.3054283,49.7980143 Z M103.590096,55.1666667 L102.169198,55.1666667 L96.3171471,46.1798503 L96.2585533,46.1798503 C96.3366787,47.234543 96.3757408,48.2013302 96.3757408,49.0802409 L96.3757408,55.1666667 L95.2258385,55.1666667 L95.2258385,44.4586589 L96.6320885,44.4586589 L102.469491,53.4088542 L102.528085,53.4088542 C102.518319,53.2770176 102.496346,52.8534378 102.462167,52.1381022 C102.427987,51.4227666 102.41578,50.9112971 102.425546,50.6036784 L102.425546,44.4586589 L103.590096,44.4586589 L103.590096,55.1666667 Z" id="ASSOCIATION"></path>
                    </g>
                </g>
                <path d="M260.257323,1306.79428 C158.253262,1306.79428 102.672967,1306.79428 93.5164359,1306.79428 C82.4707409,1306.79428 73.5164359,1297.83997 73.5164359,1286.79428 C73.5164359,1276.96599 73.5164359,1265.90917 73.5164359,1253.62382" id="Rectangle-3-Copy-4" stroke="#00426E" stroke-width="2"></path>
                <g id="decMarket" transform="translate(1.000000, 1090.000000)">
                    <path d="M82.480649,5.74747719 L134.980649,35.9802358 C141.179573,39.549961 145,46.158609 145,53.3119018 L145,113.688098 C145,120.841391 141.179573,127.450039 134.980649,131.019764 L82.480649,161.252523 C76.3024704,164.810302 68.6975296,164.810302 62.519351,161.252523 L10.019351,131.019764 C3.82042693,127.450039 5.68434189e-14,120.841391 4.61852778e-14,113.688098 L2.48689958e-14,53.3119018 C2.48689958e-14,46.158609 3.82042693,39.549961 10.019351,35.9802358 L62.519351,5.74747719 C68.6975296,2.18969848 76.3024704,2.18969848 82.480649,5.74747719 Z" fill="#FFFFFF" id="Polygon-Copy-6" stroke="#1E9DF2" stroke-width="2"></path>
                    <g id="text-1" transform="translate(15.000000, 68.000000)" fill="#32688B">
                        <path d="M9.01953125,5.54345703 C9.01953125,7.31104399 8.53979972,8.66234884 7.58032227,9.59741211 C6.62084481,10.5324754 5.24024338,11 3.43847656,11 L0.472167969,11 L0.472167969,0.291992188 L3.75341797,0.291992188 C5.41846536,0.291992188 6.71239773,0.753413354 7.63525391,1.67626953 C8.55811008,2.59912571 9.01953125,3.88817532 9.01953125,5.54345703 Z M7.70117187,5.58740234 C7.70117187,4.19091099 7.35083358,3.13867542 6.65014648,2.43066406 C5.94945939,1.72265271 4.90821003,1.36865234 3.52636719,1.36865234 L1.71728516,1.36865234 L1.71728516,9.92333984 L3.23339844,9.92333984 C4.71778086,9.92333984 5.83349236,9.55835326 6.58056641,8.82836914 C7.32764045,8.09838502 7.70117187,7.01807356 7.70117187,5.58740234 Z M17.3764648,11 L11.4072266,11 L11.4072266,0.291992188 L17.3764648,0.291992188 L17.3764648,1.39794922 L12.6523438,1.39794922 L12.6523438,4.84765625 L17.0908203,4.84765625 L17.0908203,5.94628906 L12.6523438,5.94628906 L12.6523438,9.88671875 L17.3764648,9.88671875 L17.3764648,11 Z M24.3344727,1.25146484 C23.157709,1.25146484 22.2287632,1.64330663 21.5476074,2.42700195 C20.8664517,3.21069728 20.5258789,4.28368459 20.5258789,5.64599609 C20.5258789,7.04737029 20.8542448,8.13012313 21.5109863,8.89428711 C22.1677279,9.65845109 23.1039978,10.0405273 24.3198242,10.0405273 C25.0668983,10.0405273 25.9189405,9.90625134 26.8759766,9.63769531 L26.8759766,10.7290039 C26.1337854,11.0073256 25.2182672,11.1464844 24.1293945,11.1464844 C22.5522382,11.1464844 21.3352094,10.6679735 20.4782715,9.7109375 C19.6213336,8.75390146 19.1928711,7.39405178 19.1928711,5.63134766 C19.1928711,4.52782651 19.3991679,3.56103931 19.8117676,2.73095703 C20.2243673,1.90087476 20.8200645,1.26123271 21.598877,0.812011719 C22.3776894,0.362790723 23.2944283,0.138183594 24.3491211,0.138183594 C25.4721736,0.138183594 26.4536091,0.343259668 27.293457,0.753417969 L26.7661133,1.82275391 C25.9555624,1.44189263 25.1450236,1.25146484 24.3344727,1.25146484 Z M35.1816406,11 L29.2124023,11 L29.2124023,0.291992188 L35.1816406,0.291992188 L35.1816406,1.39794922 L30.4575195,1.39794922 L30.4575195,4.84765625 L34.8959961,4.84765625 L34.8959961,5.94628906 L30.4575195,5.94628906 L30.4575195,9.88671875 L35.1816406,9.88671875 L35.1816406,11 Z M45.9189453,11 L44.4980469,11 L38.6459961,2.01318359 L38.5874023,2.01318359 C38.6655277,3.06787637 38.7045898,4.03466357 38.7045898,4.91357422 L38.7045898,11 L37.5546875,11 L37.5546875,0.291992188 L38.9609375,0.291992188 L44.7983398,9.2421875 L44.8569336,9.2421875 C44.8471679,9.1103509 44.8251955,8.68677115 44.7910156,7.97143555 C44.7568358,7.25609994 44.7446289,6.74463044 44.7543945,6.43701172 L44.7543945,0.291992188 L45.9189453,0.291992188 L45.9189453,11 Z M52.1591797,11 L50.9140625,11 L50.9140625,1.39794922 L47.5229492,1.39794922 L47.5229492,0.291992188 L55.550293,0.291992188 L55.550293,1.39794922 L52.1591797,1.39794922 L52.1591797,11 Z M58.4067383,6.546875 L58.4067383,11 L57.1616211,11 L57.1616211,0.291992188 L60.0986328,0.291992188 C61.4121159,0.291992188 62.3825652,0.543454517 63.0100098,1.04638672 C63.6374543,1.54931892 63.9511719,2.30614729 63.9511719,3.31689453 C63.9511719,4.73291724 63.2334056,5.68993892 61.7978516,6.18798828 L64.7055664,11 L63.2333984,11 L60.640625,6.546875 L58.4067383,6.546875 Z M58.4067383,5.47753906 L60.1132812,5.47753906 C60.9921919,5.47753906 61.6367167,5.30298026 62.046875,4.95385742 C62.4570333,4.60473458 62.6621094,4.08105818 62.6621094,3.3828125 C62.6621094,2.67480115 62.4533712,2.16455234 62.0358887,1.85205078 C61.6184061,1.53954922 60.9482468,1.38330078 60.0253906,1.38330078 L58.4067383,1.38330078 L58.4067383,5.47753906 Z M73.1650391,11 L71.8320313,7.59423828 L67.5400391,7.59423828 L66.2216797,11 L64.9619141,11 L69.1953125,0.248046875 L70.2426758,0.248046875 L74.4541016,11 L73.1650391,11 Z M71.4438477,6.47363281 L70.1987305,3.15576172 C70.0375969,2.73583774 69.8715829,2.22070618 69.7006836,1.61035156 C69.5932612,2.07910391 69.4394541,2.59423547 69.2392578,3.15576172 L67.9794922,6.47363281 L71.4438477,6.47363281 Z M75.9262695,11 L75.9262695,0.291992188 L77.1713867,0.291992188 L77.1713867,9.87207031 L81.8955078,9.87207031 L81.8955078,11 L75.9262695,11 Z M83.7119141,11 L83.7119141,0.291992188 L84.9570312,0.291992188 L84.9570312,11 L83.7119141,11 Z M94.3833008,11 L87.0224609,11 L87.0224609,10.0258789 L92.7060547,1.41259766 L87.1982422,1.41259766 L87.1982422,0.291992188 L94.222168,0.291992188 L94.222168,1.26611328 L88.5385742,9.87207031 L94.3833008,9.87207031 L94.3833008,11 Z M102.425293,11 L96.4560547,11 L96.4560547,0.291992188 L102.425293,0.291992188 L102.425293,1.39794922 L97.7011719,1.39794922 L97.7011719,4.84765625 L102.139648,4.84765625 L102.139648,5.94628906 L97.7011719,5.94628906 L97.7011719,9.88671875 L102.425293,9.88671875 L102.425293,11 Z M113.345703,5.54345703 C113.345703,7.31104399 112.865972,8.66234884 111.906494,9.59741211 C110.947017,10.5324754 109.566415,11 107.764648,11 L104.79834,11 L104.79834,0.291992188 L108.07959,0.291992188 C109.744637,0.291992188 111.03857,0.753413354 111.961426,1.67626953 C112.884282,2.59912571 113.345703,3.88817532 113.345703,5.54345703 Z M112.027344,5.58740234 C112.027344,4.19091099 111.677005,3.13867542 110.976318,2.43066406 C110.275631,1.72265271 109.234382,1.36865234 107.852539,1.36865234 L106.043457,1.36865234 L106.043457,9.92333984 L107.55957,9.92333984 C109.043953,9.92333984 110.159664,9.55835326 110.906738,8.82836914 C111.653812,8.09838502 112.027344,7.01807356 112.027344,5.58740234 Z" id="DECENTRALIZED"></path>
                        <path d="M37.2109375,33 L33.578125,23.5078125 L33.5195312,23.5078125 C33.587891,24.2597694 33.6220703,25.1533151 33.6220703,26.1884766 L33.6220703,33 L32.472168,33 L32.472168,22.2919922 L34.347168,22.2919922 L37.7382812,31.125 L37.796875,31.125 L41.2172852,22.2919922 L43.0776367,22.2919922 L43.0776367,33 L41.8325195,33 L41.8325195,26.1005859 C41.8325195,25.3095664 41.8666989,24.4502 41.9350586,23.5224609 L41.8764648,23.5224609 L38.2143555,33 L37.2109375,33 Z M52.7456055,33 L51.4125977,29.5942383 L47.1206055,29.5942383 L45.8022461,33 L44.5424805,33 L48.7758789,22.2480469 L49.8232422,22.2480469 L54.034668,33 L52.7456055,33 Z M51.0244141,28.4736328 L49.7792969,25.1557617 C49.6181633,24.7358377 49.4521493,24.2207062 49.28125,23.6103516 C49.1738276,24.0791039 49.0200205,24.5942355 48.8198242,25.1557617 L47.5600586,28.4736328 L51.0244141,28.4736328 Z M56.7519531,28.546875 L56.7519531,33 L55.5068359,33 L55.5068359,22.2919922 L58.4438477,22.2919922 C59.7573308,22.2919922 60.7277801,22.5434545 61.3552246,23.0463867 C61.9826692,23.5493189 62.2963867,24.3061473 62.2963867,25.3168945 C62.2963867,26.7329172 61.5786205,27.6899389 60.1430664,28.1879883 L63.0507812,33 L61.5786133,33 L58.9858398,28.546875 L56.7519531,28.546875 Z M56.7519531,27.4775391 L58.4584961,27.4775391 C59.3374067,27.4775391 59.9819315,27.3029803 60.3920898,26.9538574 C60.8022481,26.6047346 61.0073242,26.0810582 61.0073242,25.3828125 C61.0073242,24.6748011 60.7985861,24.1645523 60.3811035,23.8520508 C59.963621,23.5395492 59.2934616,23.3833008 58.3706055,23.3833008 L56.7519531,23.3833008 L56.7519531,27.4775391 Z M72.5136719,33 L71.0488281,33 L67.1450195,27.8071289 L66.0244141,28.8032227 L66.0244141,33 L64.7792969,33 L64.7792969,22.2919922 L66.0244141,22.2919922 L66.0244141,27.6020508 L70.8803711,22.2919922 L72.3525391,22.2919922 L68.0458984,26.9428711 L72.5136719,33 Z M79.9550781,33 L73.9858398,33 L73.9858398,22.2919922 L79.9550781,22.2919922 L79.9550781,23.3979492 L75.230957,23.3979492 L75.230957,26.8476562 L79.6694336,26.8476562 L79.6694336,27.9462891 L75.230957,27.9462891 L75.230957,31.8867188 L79.9550781,31.8867188 L79.9550781,33 Z M85.6240234,33 L84.3789062,33 L84.3789062,23.3979492 L80.987793,23.3979492 L80.987793,22.2919922 L89.0151367,22.2919922 L89.0151367,23.3979492 L85.6240234,23.3979492 L85.6240234,33 Z" id="MARKET"></path>
                    </g>
                </g>
                <g id="PATS-프로토콜을-통해-실현-된-모" transform="translate(0.000000, 552.000000)" fill="#00426E" font-family="BMHANNA, BM HANNA_TTF" font-size="10" font-weight="normal" opacity="0.8">
                    <text id="PATS">
                        <tspan x="0" y="8.45454545">PATS 프로토콜을 통해 실현 된 모든</tspan>
                        <tspan x="0" y="23.7272727">토큰 소유자는 스마트 계약 또는 표</tspan>
                        <tspan x="0" y="39">준 거래를 통해 이후의 어셈블러 (작</tspan>
                        <tspan x="0" y="54.2727273">업) 및 교환 토큰의 이동에 영향을 끼</tspan>
                        <tspan x="0" y="69.5454545">칠 수 있습니다.</tspan>
                    </text>
                </g>
                <g id="exchange" transform="translate(0.000000, 1347.000000)">
                    <g transform="translate(189.000000, 0.000000)">
                        <path d="M82.480649,5.74747719 L134.980649,35.9802358 C141.179573,39.549961 145,46.158609 145,53.3119018 L145,113.688098 C145,120.841391 141.179573,127.450039 134.980649,131.019764 L82.480649,161.252523 C76.3024704,164.810302 68.6975296,164.810302 62.519351,161.252523 L10.019351,131.019764 C3.82042693,127.450039 5.68434189e-14,120.841391 4.61852778e-14,113.688098 L1.0658141e-14,53.3119018 C3.55271368e-15,46.158609 3.82042693,39.549961 10.019351,35.9802358 L62.519351,5.74747719 C68.6975296,2.18969848 76.3024704,2.18969848 82.480649,5.74747719 Z" id="Polygon-Copy-7" stroke="#1E9DF2" stroke-width="2" fill="#FFFFFF"></path>
                        <path d="M41.4414062,90 L35.472168,90 L35.472168,79.2919922 L41.4414062,79.2919922 L41.4414062,80.3979492 L36.7172852,80.3979492 L36.7172852,83.8476562 L41.1557617,83.8476562 L41.1557617,84.9462891 L36.7172852,84.9462891 L36.7172852,88.8867188 L41.4414062,88.8867188 L41.4414062,90 Z M50.940918,90 L49.5273438,90 L46.6489258,85.2905273 L43.7192383,90 L42.4008789,90 L45.9604492,84.4042969 L42.6425781,79.2919922 L44.0195312,79.2919922 L46.6782227,83.5327148 L49.3588867,79.2919922 L50.6845703,79.2919922 L47.3666992,84.3603516 L50.940918,90 Z M56.7563477,80.2514648 C55.579584,80.2514648 54.6506382,80.6433066 53.9694824,81.427002 C53.2883267,82.2106973 52.9477539,83.2836846 52.9477539,84.6459961 C52.9477539,86.0473703 53.2761198,87.1301231 53.9328613,87.8942871 C54.5896029,88.6584511 55.5258728,89.0405273 56.7416992,89.0405273 C57.4887733,89.0405273 58.3408155,88.9062513 59.2978516,88.6376953 L59.2978516,89.7290039 C58.5556604,90.0073256 57.6401422,90.1464844 56.5512695,90.1464844 C54.9741132,90.1464844 53.7570844,89.6679735 52.9001465,88.7109375 C52.0432086,87.7539015 51.6147461,86.3940518 51.6147461,84.6313477 C51.6147461,83.5278265 51.8210429,82.5610393 52.2336426,81.730957 C52.6462423,80.9008748 53.2419395,80.2612327 54.020752,79.8120117 C54.7995644,79.3627907 55.7163033,79.1381836 56.7709961,79.1381836 C57.8940486,79.1381836 58.8754841,79.3432597 59.715332,79.753418 L59.1879883,80.8227539 C58.3774374,80.4418926 57.5668986,80.2514648 56.7563477,80.2514648 Z M69.7641602,90 L68.519043,90 L68.519043,84.9609375 L62.8793945,84.9609375 L62.8793945,90 L61.6342773,90 L61.6342773,79.2919922 L62.8793945,79.2919922 L62.8793945,83.8476562 L68.519043,83.8476562 L68.519043,79.2919922 L69.7641602,79.2919922 L69.7641602,90 Z M79.4321289,90 L78.0991211,86.5942383 L73.8071289,86.5942383 L72.4887695,90 L71.2290039,90 L75.4624023,79.2480469 L76.5097656,79.2480469 L80.7211914,90 L79.4321289,90 Z M77.7109375,85.4736328 L76.4658203,82.1557617 C76.3046867,81.7358377 76.1386727,81.2207062 75.9677734,80.6103516 C75.860351,81.0791039 75.706544,81.5942355 75.5063477,82.1557617 L74.246582,85.4736328 L77.7109375,85.4736328 Z M90.5576172,90 L89.1367188,90 L83.284668,81.0131836 L83.2260742,81.0131836 C83.3041996,82.0678764 83.3432617,83.0346636 83.3432617,83.9135742 L83.3432617,90 L82.1933594,90 L82.1933594,79.2919922 L83.5996094,79.2919922 L89.4370117,88.2421875 L89.4956055,88.2421875 C89.4858398,88.1103509 89.4638674,87.6867712 89.4296875,86.9714355 C89.3955076,86.2560999 89.3833007,85.7446304 89.3930664,85.4370117 L89.3930664,79.2919922 L90.5576172,79.2919922 L90.5576172,90 Z M98.2114258,84.3896484 L101.851562,84.3896484 L101.851562,89.597168 C101.285153,89.7778329 100.708987,89.9145503 100.123047,90.0073242 C99.5371064,90.1000981 98.8584023,90.1464844 98.0869141,90.1464844 C96.4658122,90.1464844 95.2036178,89.6643115 94.300293,88.6999512 C93.3969681,87.7355909 92.9453125,86.384286 92.9453125,84.6459961 C92.9453125,83.5327093 93.1686989,82.5573772 93.6154785,81.7199707 C94.0622581,80.8825642 94.7055622,80.2429221 95.5454102,79.8010254 C96.3852581,79.3591286 97.369135,79.1381836 98.4970703,79.1381836 C99.6396542,79.1381836 100.704097,79.3481424 101.69043,79.7680664 L101.207031,80.8666992 C100.24023,80.4565409 99.3100631,80.2514648 98.4165039,80.2514648 C97.1127865,80.2514648 96.0947302,80.6396446 95.3623047,81.4160156 C94.6298792,82.1923867 94.2636719,83.2690361 94.2636719,84.6459961 C94.2636719,86.0913158 94.6164516,87.1874963 95.3220215,87.9345703 C96.0275914,88.6816444 97.063958,89.0551758 98.4311523,89.0551758 C99.1733436,89.0551758 99.898434,88.9697274 100.606445,88.7988281 L100.606445,85.5029297 L98.2114258,85.5029297 L98.2114258,84.3896484 Z M110.391602,90 L104.422363,90 L104.422363,79.2919922 L110.391602,79.2919922 L110.391602,80.3979492 L105.66748,80.3979492 L105.66748,83.8476562 L110.105957,83.8476562 L110.105957,84.9462891 L105.66748,84.9462891 L105.66748,88.8867188 L110.391602,88.8867188 L110.391602,90 Z" id="EXCHANGE" fill="#00426E"></path>
                    </g>
                    <g id="토큰화-된-모든-개인-자산은-표준-거" transform="translate(0.000000, 48.000000)" fill="#00426E" font-family="BMHANNA, BM HANNA_TTF" font-size="10" font-weight="normal" opacity="0.8">
                        <text id="토큰화">
                            <tspan x="0" y="8.45454545">토큰화 된 모든 개인 자산은 표준 거</tspan>
                            <tspan x="0" y="23.7272727">래에 추가가 됩니다. 이 표준 거래에</tspan>
                            <tspan x="0" y="39">는 모든 사람이 개인 자산을 구매한</tspan>
                            <tspan x="0" y="54.2727273">후, 분산 된 투자자 커뮤니티의 구성</tspan>
                            <tspan x="0" y="69.5454545">원이 될 수 있게 만들어 줍니다.</tspan>
                        </text>
                    </g>
                </g>
                <g id="arrow" transform="translate(147.000000, 718.000000)">
                    <polygon id="Triangle" fill="#00426E" transform="translate(5.441370, 19.716981) rotate(-180.000000) translate(-5.441370, -19.716981) " points="0 28.4339623 0 11 10.8827404 19.7169811"></polygon>
                    <path d="M114.008826,20.007249 C56.9203438,20.007249 25.3239255,20.007249 19.2195716,20.007249 C8.17387662,20.007249 7.68601171,11.052944 7.68601171,0.00724898141" id="Rectangle-3-Copy" stroke="#00426E" stroke-width="2" transform="translate(60.847419, 10.007249) scale(-1, 1) translate(-60.847419, -10.007249) "></path>
                </g>
                <g id="arrow" transform="translate(147.000000, 957.000000)">
                    <polygon id="Triangle-Copy" fill="#00426E" transform="translate(5.441370, 19.716981) rotate(-180.000000) translate(-5.441370, -19.716981) " points="0 28.4339623 0 11 10.8827404 19.7169811"></polygon>
                    <path d="M114.008826,20.007249 C56.9203438,20.007249 25.3239255,20.007249 19.2195716,20.007249 C8.17387662,20.007249 7.68601171,11.052944 7.68601171,0.00724898141" id="Rectangle-3-Copy-2" stroke="#00426E" stroke-width="2" transform="translate(60.847419, 10.007249) scale(-1, 1) translate(-60.847419, -10.007249) "></path>
                </g>
                <g id="arrow" transform="translate(147.000000, 1154.000000)">
                    <polygon id="Triangle-Copy-2" fill="#00426E" transform="translate(5.441370, 19.716981) rotate(-180.000000) translate(-5.441370, -19.716981) " points="0 28.4339623 0 11 10.8827404 19.7169811"></polygon>
                    <path d="M114.008826,20.007249 C56.9203438,20.007249 25.3239255,20.007249 19.2195716,20.007249 C8.17387662,20.007249 7.68601171,11.052944 7.68601171,0.00724898141" id="Rectangle-3-Copy-3" stroke="#00426E" stroke-width="2" transform="translate(60.847419, 10.007249) scale(-1, 1) translate(-60.847419, -10.007249) "></path>
                </g>
            </g>
        </g>
    </g>
</svg>