<?xml version="1.0" encoding="UTF-8"?>
<svg width="53px" height="36px" viewBox="0 0 53 36" version="1.1" xmlns="http://www.w3.org/2000/svg" xmlns:xlink="http://www.w3.org/1999/xlink">
    <!-- Generator: Sketch 49 (51002) - http://www.bohemiancoding.com/sketch -->
    <title>On</title>
    <desc>Created with Sketch.</desc>
    <defs>
        <rect id="path-1" x="0" y="0" width="51" height="31" rx="15.5"></rect>
        <filter x="-3.9%" y="-6.5%" width="107.8%" height="112.9%" filterUnits="objectBoundingBox" id="filter-2">
            <feGaussianBlur stdDeviation="1.5" in="SourceAlpha" result="shadowBlurInner1"></feGaussianBlur>
            <feOffset dx="0" dy="1" in="shadowBlurInner1" result="shadowOffsetInner1"></feOffset>
            <feComposite in="shadowOffsetInner1" in2="SourceAlpha" operator="arithmetic" k2="-1" k3="1" result="shadowInnerInner1"></feComposite>
            <feColorMatrix values="0 0 0 0 0   0 0 0 0 0   0 0 0 0 0  0 0 0 0.5 0" type="matrix" in="shadowInnerInner1"></feColorMatrix>
        </filter>
        <circle id="path-3" cx="14.5" cy="14.5" r="14"></circle>
        <filter x="-33.9%" y="-12.5%" width="167.9%" height="175.0%" filterUnits="objectBoundingBox" id="filter-5">
            <feMorphology radius="0.5" operator="dilate" in="SourceAlpha" result="shadowSpreadOuter1"></feMorphology>
            <feOffset dx="0" dy="3" in="shadowSpreadOuter1" result="shadowOffsetOuter1"></feOffset>
            <feGaussianBlur stdDeviation="1.5" in="shadowOffsetOuter1" result="shadowBlurOuter1"></feGaussianBlur>
            <feComposite in="shadowBlurOuter1" in2="SourceAlpha" operator="out" result="shadowBlurOuter1"></feComposite>
            <feColorMatrix values="0 0 0 0 0   0 0 0 0 0   0 0 0 0 0  0 0 0 0.05 0" type="matrix" in="shadowBlurOuter1" result="shadowMatrixOuter1"></feColorMatrix>
            <feMorphology radius="0.5" operator="dilate" in="SourceAlpha" result="shadowSpreadOuter2"></feMorphology>
            <feOffset dx="0" dy="2" in="shadowSpreadOuter2" result="shadowOffsetOuter2"></feOffset>
            <feGaussianBlur stdDeviation="1" in="shadowOffsetOuter2" result="shadowBlurOuter2"></feGaussianBlur>
            <feComposite in="shadowBlurOuter2" in2="SourceAlpha" operator="out" result="shadowBlurOuter2"></feComposite>
            <feColorMatrix values="0 0 0 0 0   0 0 0 0 0   0 0 0 0 0  0 0 0 0.1 0" type="matrix" in="shadowBlurOuter2" result="shadowMatrixOuter2"></feColorMatrix>
            <feMorphology radius="0.5" operator="dilate" in="SourceAlpha" result="shadowSpreadOuter3"></feMorphology>
            <feOffset dx="0" dy="3" in="shadowSpreadOuter3" result="shadowOffsetOuter3"></feOffset>
            <feGaussianBlur stdDeviation="0.5" in="shadowOffsetOuter3" result="shadowBlurOuter3"></feGaussianBlur>
            <feComposite in="shadowBlurOuter3" in2="SourceAlpha" operator="out" result="shadowBlurOuter3"></feComposite>
            <feColorMatrix values="0 0 0 0 0   0 0 0 0 0   0 0 0 0 0  0 0 0 0.0510643116 0" type="matrix" in="shadowBlurOuter3" result="shadowMatrixOuter3"></feColorMatrix>
            <feMerge>
                <feMergeNode in="shadowMatrixOuter1"></feMergeNode>
                <feMergeNode in="shadowMatrixOuter2"></feMergeNode>
                <feMergeNode in="shadowMatrixOuter3"></feMergeNode>
            </feMerge>
        </filter>
    </defs>
    <g id="Page-1" stroke="none" stroke-width="1" fill="none" fill-rule="evenodd">
        <g id="OnPlace-KOREA-eng" transform="translate(-1785.000000, -27.000000)">
            <g id="On" transform="translate(1812.500000, 42.500000) scale(-1, 1) translate(-1812.500000, -42.500000) translate(1787.000000, 27.000000)">
                <g id="Green-Background">
                    <use fill="#1E9DF2" fill-rule="evenodd" xlink:href="#path-1"></use>
                    <use fill="black" fill-opacity="1" filter="url(#filter-2)" xlink:href="#path-1"></use>
                </g>
                <g id="south-korea" transform="translate(21.000000, 1.000000)">
                    <mask id="mask-4" fill="white">
                        <use xlink:href="#path-3"></use>
                    </mask>
                    <g id="Mask">
                        <use fill="black" fill-opacity="1" filter="url(#filter-5)" xlink:href="#path-3"></use>
                        <use fill="#FFFFFF" fill-rule="evenodd" xlink:href="#path-3"></use>
                        <circle stroke-opacity="0.1" stroke="#000000" stroke-width="0.5" cx="14.5" cy="14.5" r="14.25"></circle>
                    </g>
                    <g id="united-states-of-america" mask="url(#mask-4)" fill-rule="nonzero">
                        <g id="Group" fill="#C42126">
                            <rect id="Rectangle-path" x="0.0654338028" y="15.8880404" width="28.8913521" height="1"></rect>
                            <rect id="Rectangle-path" x="1.57022746" y="7.95659615" width="25.880662" height="1"></rect>
                            <rect id="Rectangle-path" x="0.541054225" y="10.6000019" width="27.9380282" height="1"></rect>
                            <polygon id="Shape" points="6.23661338 26.4672817 22.7846873 26.4672817 22.7855451 26.4613567 6.23569437 26.4613567"></polygon>
                            <path d="M14.5104359,0 C14.225419,0 13.942669,0.06636 13.6620021,0.16985 L15.3590535,0.16985 C15.0781415,0.06636 14.7954528,0 14.5104359,0 Z" id="Shape"></path>
                            <rect id="Rectangle-path" x="0.0599197183" y="13.2440212" width="28.9005423" height="1"></rect>
                        </g>
                        <path d="M18.8373689,4.83333333 L25.7777778,4.83333333 C24.9534002,3.91606126 23.9952982,3.10407382 22.9338499,2.41666667 L17.7222222,2.41666667 C18.1534663,3.11013176 18.5243227,3.92840149 18.8373689,4.83333333 Z" id="Shape" fill="#E7E7E7"></path>
                        <path d="M17.3010957,2.41666667 L22.5555556,2.41666667 C20.3833467,1.02151062 17.7754214,0.147820706 14.9511849,0 L14.5,0 C15.8293,0.151633987 16.4398722,1.04326875 17.3010957,2.41666667 Z" id="Shape" fill="#DC3027"></path>
                        <path d="M28.1944444,10.4722222 C27.9404443,9.62983294 27.5998273,8.82160366 27.1812187,8.05555556 L19.3333333,8.05555556 C19.4923322,8.83147585 19.6177941,9.6419488 19.7106842,10.4722222 L28.1944444,10.4722222 Z" id="Shape" fill="#E7E7E7"></path>
                        <path d="M19.1698821,8.05555556 L27.3888889,8.05555556 C26.9205283,7.19171121 26.3578498,6.3810895 25.7074321,5.63888889 L18.5277778,5.63888889 C18.7809473,6.39034318 18.9958991,7.20096488 19.1698821,8.05555556 Z" id="Shape" fill="#DC3027"></path>
                        <path d="M20.1388889,15.3055556 L28.9346288,15.3055556 C28.9763903,14.8967857 29,14.4825192 29,14.0638779 C29,13.6676717 28.9773102,13.2765135 28.9401479,12.8888889 L20.1409739,12.8888889 C20.1696121,13.6926309 20.1691215,14.5022622 20.1388889,15.3055556 Z" id="Shape" fill="#E7E7E7"></path>
                        <path d="M29,12.8888889 C28.9188132,12.0588398 28.7520614,11.2512837 28.5085636,10.4722222 L19.3333333,10.4722222 C19.4254659,11.2636239 19.4863247,12.0733116 19.5160348,12.8888889 L29,12.8888889 Z" id="Shape" fill="#DC3027"></path>
                        <path d="M19.3333333,20.9444444 L27.179237,20.9444444 C27.5976868,20.179362 27.9387251,19.3706471 28.1944444,18.5277778 L19.7126612,18.5277778 C19.6192562,19.3591501 19.4924965,20.1693232 19.3333333,20.9444444 Z" id="Shape" fill="#E7E7E7"></path>
                        <path d="M27.7184314,18.5277778 C27.9518287,17.7489407 28.1138857,16.9413845 28.1944444,16.1111111 L19.5100694,16.1111111 C19.4804177,16.9273054 19.4215839,17.7367687 19.3333333,18.5277778 L27.7184314,18.5277778 Z" id="Shape" fill="#DC3027"></path>
                        <path d="M22.8556535,25.7777778 C23.9459585,25.0931191 24.929818,24.2802903 25.7777778,23.3611111 L18.8727407,23.3611111 C18.5499865,24.2698011 18.1667704,25.0867807 17.7222222,25.7777778 L22.8556535,25.7777778 Z" id="Shape" fill="#E7E7E7"></path>
                        <g id="Group" transform="translate(13.694444, 20.944444)" fill="#DC3027">
                            <path d="M4.7956297,2.6465865 L11.9189237,2.6465865 C12.5986212,1.83782911 13.1886767,0.953512658 13.6795762,0.0102172996 L5.46723409,0.0102172996 C5.28498471,0.943172996 5.06066353,1.82791772 4.7956297,2.6465865 Z" id="Shape"></path>
                            <path d="M0.445535589,7.87972354 C0.313777232,7.87379854 0.182293946,7.86510854 0.050535589,7.85918354 C0.182293946,7.86471354 0.314052302,7.87379854 0.445535589,7.87972354 Z" id="Shape"></path>
                            <path d="M0.669503885,7.87264346 C3.77151178,7.87264346 6.64573885,6.91374684 9.0128802,5.28362869 L3.71745476,5.28362869 C2.77760401,6.88719409 2.15752368,7.87264346 0.669503885,7.87264346 Z" id="Shape"></path>
                        </g>
                        <path d="M14.5,29.06636 C14.2300422,29.06636 13.9618679,29.039895 13.6944444,29 C13.9646838,29.038315 14.2331398,29.06636 14.5,29.06636 Z" id="Shape" fill="#C42126"></path>
                        <path d="M18.2116084,2.41666667 L6.08380313,2.41666667 C5.01567306,3.10407382 4.05189236,3.91600517 3.22222222,4.83333333 L19.3333333,4.83333333 C19.0183711,3.92840149 18.6454919,3.11013176 18.2116084,2.41666667 Z" id="Shape" fill="#F3F4F5"></path>
                        <path d="M6.44444444,2.41666667 L18.5277778,2.41666667 C17.6713134,1.04326875 16.5820004,0.151633987 15.2603311,0 L14.0049174,0 C11.1968929,0.147820706 8.60393802,1.02151062 6.44444444,2.41666667 Z" id="Shape" fill="#E73625"></path>
                        <path d="M0.805555556,10.4722222 L20.1388889,10.4722222 C20.046603,9.64178053 19.9220978,8.83147585 19.7642356,8.05555556 L1.81153806,8.05555556 C1.39586212,8.82165976 1.05773988,9.62983294 0.805555556,10.4722222 Z" id="Shape" fill="#F3F4F5"></path>
                        <path d="M3.34848429,5.63888889 C2.67683597,6.3810895 2.09486849,7.19165513 1.61111111,8.05555556 L20.1388889,8.05555556 C19.95928,7.20113313 19.7372102,6.39056751 19.4755226,5.63888889 C19.4755226,5.63888889 3.34848429,5.63888889 3.34848429,5.63888889 Z" id="Shape" fill="#E73625"></path>
                        <path d="M0,14.0637914 C0,14.4824619 0.023389728,14.8967572 0.0640962727,15.3055556 L20.1161883,15.3055556 C20.1458914,14.5021502 20.1463123,13.6926869 20.1182326,12.8888889 L0.0586847675,12.8888889 C0.0222472992,13.2763723 0,13.6675577 0,14.0637914 Z" id="Shape" fill="#F3F4F5"></path>
                        <path d="M0,12.8888889 L20.1388889,12.8888889 C20.1102149,12.0731433 20.0512973,11.26368 19.9625587,10.4722222 L0.474057194,10.4722222 C0.239050871,11.2514519 0.0781140976,12.0588398 0,12.8888889 Z" id="Shape" fill="#E73625"></path>
                        <path d="M20.1388889,18.5277778 L0.805555556,18.5277778 C1.06349406,19.3708715 1.40773191,20.179362 1.82957321,20.9444444 L19.7562691,20.9444444 C19.9168735,20.1694914 20.0444334,19.3593184 20.1388889,18.5277778 Z" id="Shape" fill="#F3F4F5"></path>
                        <path d="M0.489566352,18.5277778 L19.9571207,18.5277778 C20.0477029,17.7367687 20.1083929,16.9270811 20.1388889,16.1111111 L0,16.1111111 C0.0828524774,16.9415528 0.249765194,17.7489407 0.489566352,18.5277778 Z" id="Shape" fill="#E73625"></path>
                        <path d="M6.14122788,25.7777778 L18.1840427,25.7777778 C18.6281165,25.0866125 19.0111099,24.2698011 19.3333333,23.3611111 L3.22222222,23.3611111 C4.06927701,24.2802903 5.05183821,25.0931191 6.14122788,25.7777778 Z" id="Shape" fill="#F3F4F5"></path>
                        <g id="Group" transform="translate(1.611111, 20.944444)" fill="#E73625">
                            <path d="M0.0156868519,0.0102863248 C0.506487685,0.965675214 1.09628861,1.86132906 1.77576398,2.68045513 L17.805318,2.68045513 C18.0700181,1.85135256 18.294266,0.955264957 18.4764558,0.0102863248 L0.0156868519,0.0102863248 Z" id="Shape"></path>
                            <path d="M12.4023709,7.95988034 C12.4319536,7.96080983 12.4614745,7.96217308 12.4910572,7.96310256 C12.6670711,7.96936111 12.8435173,7.97351282 13.0210752,7.97351282 C14.5086705,7.97351282 15.7216223,6.97549145 16.6613512,5.35130556 L4.68091954,5.35130556 C6.88862778,6.89189957 9.53859407,7.84010043 12.4023709,7.95988034 Z" id="Shape"></path>
                        </g>
                        <path d="M14.4997488,0 C6.87939568,0.147753319 0.668437712,5.75561715 0,12.8888889 L14.5,12.8888889 L14.5,0 L14.4997488,0 Z" id="Shape" fill="#283991"></path>
                        <g id="Group" transform="translate(0.805556, 0.805556)" fill="#EFEFEF">
                            <polygon id="Shape" points="2.44022917 7.14046458 2.6582125 7.81169375 3.36448333 7.81169375 2.79312292 8.22675625 3.01134792 8.89846875 2.44022917 8.48316458 1.86929167 8.89846875 2.08709375 8.22675625 1.51591458 7.81169375 2.22218542 7.81169375"></polygon>
                            <polygon id="Shape" points="2.44022917 9.51187917 2.6582125 10.1835313 3.36448333 10.1835313 2.79312292 10.5985938 3.01134792 11.2703063 2.44022917 10.8550021 1.86929167 11.2703063 2.08709375 10.5985938 1.51591458 10.1835313 2.22218542 10.1835313"></polygon>
                            <polygon id="Shape" points="4.81206667 3.58246667 5.03011042 4.2539375 5.73613958 4.2539375 5.16496042 4.66924167 5.38300417 5.34047083 4.81206667 4.92565 4.2408875 5.34047083 4.45893125 4.66924167 3.88751042 4.2539375 4.59378125 4.2539375"></polygon>
                            <polygon id="Shape" points="4.81206667 5.95430417 5.03011042 6.625775 5.73613958 6.625775 5.16496042 7.04059583 5.38300417 7.71230833 4.81206667 7.2974875 4.2408875 7.71230833 4.45893125 7.04059583 3.88751042 6.625775 4.59378125 6.625775"></polygon>
                            <polygon id="Shape" points="4.81206667 8.32614167 5.03011042 8.99785417 5.73613958 8.99785417 5.16496042 9.41243333 5.38300417 10.0841458 4.81206667 9.66890208 4.2408875 10.0841458 4.45893125 9.41243333 3.88751042 8.99785417 4.59378125 8.99785417"></polygon>
                            <path d="M0.639510417,10.0841458 L0.421285417,9.41243333 L0.992464583,8.9976125 L0.286616667,8.9976125 L0.2707875,8.94861458 C0.193272917,9.18834792 0.12325,9.43098125 0.0586645833,9.67633333 L0.0686333333,9.66890208 L0.639510417,10.0841458 Z" id="Shape"></path>
                            <path d="M1.86929167,6.52663125 L2.44022917,6.1113875 L3.01140833,6.52663125 L2.79318333,5.85491875 L3.3643625,5.439675 L2.65809167,5.439675 L2.44004792,4.76844583 L2.22200417,5.439675 L1.96172917,5.439675 C1.91339583,5.5129 1.86663333,5.58654792 1.81962917,5.66086042 L2.08715417,5.85491875 L1.86929167,6.52663125 Z" id="Shape"></path>
                            <path d="M4.81206667,2.5538125 L5.38300417,2.96863333 L5.16496042,2.29740417 L5.73589792,1.88216042 L5.32808542,1.88216042 C4.98171667,2.14110625 4.64755208,2.41515625 4.32649792,2.70431042 L4.24040417,2.96863333 L4.81206667,2.5538125 Z" id="Shape"></path>
                            <path d="M6.612725,1.78295625 L7.18390417,1.3677125 L7.75484167,1.78295625 L7.53679792,1.11124375 L8.10773542,0.696422917 L7.40170625,0.696422917 L7.37210208,0.606039583 C7.13285208,0.7282625 6.89607917,0.855439583 6.66468333,0.990772917 L6.83052708,1.11118333 L6.612725,1.78295625 Z" id="Shape"></path>
                            <polygon id="Shape" points="7.18390417 2.39678958 7.40194792 3.0678375 8.10797708 3.0678375 7.53679792 3.48308125 7.75484167 4.15479375 7.18390417 3.73948958 6.612725 4.15479375 6.83076875 3.48308125 6.25940833 3.0678375 6.96561875 3.0678375"></polygon>
                            <polygon id="Shape" points="7.18390417 4.76862708 7.40194792 5.439675 8.10797708 5.439675 7.53679792 5.85491875 7.75484167 6.52663125 7.18390417 6.11132708 6.612725 6.52663125 6.83076875 5.85491875 6.25940833 5.439675 6.96561875 5.439675"></polygon>
                            <polygon id="Shape" points="7.18390417 7.14046458 7.40194792 7.81169375 8.10797708 7.81169375 7.53679792 8.22675625 7.75484167 8.89846875 7.18390417 8.48316458 6.612725 8.89846875 6.83076875 8.22675625 6.25940833 7.81169375 6.96561875 7.81169375"></polygon>
                            <polygon id="Shape" points="7.18390417 9.51187917 7.40194792 10.1835313 8.10797708 10.1835313 7.53679792 10.5985938 7.75484167 11.2703063 7.18390417 10.8550021 6.612725 11.2703063 6.83076875 10.5985938 6.25940833 10.1835313 6.96561875 10.1835313"></polygon>
                            <polygon id="Shape" points="9.55574167 1.21062917 9.77378542 1.8821 10.4798146 1.8821 9.90887708 2.29740417 10.1266792 2.96863333 9.55574167 2.5538125 8.98438125 2.96863333 9.20260625 2.29740417 8.63124583 1.8821 9.33745625 1.8821"></polygon>
                            <polygon id="Shape" points="9.55574167 3.58246667 9.77378542 4.2539375 10.4798146 4.2539375 9.90887708 4.66924167 10.1266792 5.34047083 9.55574167 4.92565 8.98438125 5.34047083 9.20260625 4.66924167 8.63124583 4.2539375 9.33745625 4.2539375"></polygon>
                            <polygon id="Shape" points="9.55574167 5.95430417 9.77378542 6.625775 10.4798146 6.625775 9.90887708 7.04059583 10.1266792 7.71230833 9.55574167 7.2974875 8.98438125 7.71230833 9.20260625 7.04059583 8.63124583 6.625775 9.33745625 6.625775"></polygon>
                            <polygon id="Shape" points="9.55574167 8.32614167 9.77378542 8.99785417 10.4798146 8.99785417 9.90887708 9.41243333 10.1266792 10.0841458 9.55574167 9.66890208 8.98438125 10.0841458 9.20260625 9.41243333 8.63124583 8.99785417 9.33745625 8.99785417"></polygon>
                            <polygon id="Shape" points="11.9275792 0.0249520833 12.1456229 0.696422917 12.8516521 0.696422917 12.2804729 1.11124375 12.4985167 1.78295625 11.9275792 1.36765208 11.3562188 1.78295625 11.5744438 1.11124375 11.0030833 0.696422917 11.7091125 0.696422917"></polygon>
                            <polygon id="Shape" points="11.9275792 2.39678958 12.1456229 3.0678375 12.8516521 3.0678375 12.2804729 3.48308125 12.4985167 4.15479375 11.9275792 3.73948958 11.3562188 4.15479375 11.5744438 3.48308125 11.0030833 3.0678375 11.7091125 3.0678375"></polygon>
                            <polygon id="Shape" points="11.9275792 4.76862708 12.1456229 5.439675 12.8516521 5.439675 12.2804729 5.85491875 12.4985167 6.52663125 11.9275792 6.11132708 11.3562188 6.52663125 11.5744438 5.85491875 11.0030833 5.439675 11.7091125 5.439675"></polygon>
                            <polygon id="Shape" points="11.9275792 7.14046458 12.1456229 7.81169375 12.8516521 7.81169375 12.2804729 8.22675625 12.4985167 8.89846875 11.9275792 8.48316458 11.3562188 8.89846875 11.5744438 8.22675625 11.0030833 7.81169375 11.7091125 7.81169375"></polygon>
                            <polygon id="Shape" points="11.9275792 9.51187917 12.1456229 10.1835313 12.8516521 10.1835313 12.2804729 10.5985938 12.4985167 11.2703063 11.9275792 10.8550021 11.3562188 11.2703063 11.5744438 10.5985938 11.0030833 10.1835313 11.7091125 10.1835313"></polygon>
                        </g>
                    </g>
                </g>
            </g>
        </g>
    </g>
</svg>